<svg width="16" height="18" viewBox="0 0 16 18" fill="none" xmlns="http://www.w3.org/2000/svg">
        <g clip-path="url(#clip0_8407_27911)">
        <path d="M8.00586 17.2977C3.59486 17.2977 0.00585938 13.5757 0.00585938 9.00137C0.00585938 4.427 3.59486 0.705078 8.00586 0.705078C12.4169 0.705078 16.0059 4.427 16.0059 9.00137C16.0059 13.5757 12.4169 17.2977 8.00586 17.2977ZM8.00586 2.77915C4.69686 2.77915 2.00586 5.56982 2.00586 9.00137C2.00586 12.4329 4.69686 15.2236 8.00586 15.2236C11.3149 15.2236 14.0059 12.4329 14.0059 9.00137C14.0059 5.56982 11.3149 2.77915 8.00586 2.77915Z" fill="#01BFFB"/>
        <path d="M7.99283 7.03217C8.61083 7.03217 9.13083 6.49291 9.13083 5.85202C9.13083 5.21113 8.61083 4.67188 7.99283 4.67188C7.39783 4.67188 6.85483 5.21113 6.88183 5.82402C6.85583 6.50017 7.37183 7.03113 7.99283 7.03113V7.03217Z" fill="#01BFFB"/>
        <path d="M8.21861 13.302C8.64461 13.1765 8.91161 12.7752 8.91161 12.2867C8.88861 11.9933 8.87361 11.6967 8.85161 11.4042C8.79161 10.2873 8.73061 9.18911 8.66661 8.07222C8.64361 7.6937 8.36161 7.41992 7.99661 7.41992C7.63161 7.41992 7.34461 7.71237 7.32661 8.09607C7.32661 8.32629 7.32661 8.53785 7.30361 8.77222C7.26561 9.49088 7.22061 10.2054 7.18261 10.9241C7.15961 11.3887 7.12261 11.8533 7.09961 12.3189C7.09961 12.4869 7.12261 12.6352 7.18261 12.7835C7.36361 13.1973 7.79261 13.4088 8.21861 13.303V13.302Z" fill="#01BFFB"/>
        </g>
        <defs>
        <clipPath id="clip0_8407_27911">
        <rect width="16" height="16.5926" fill="white" transform="translate(0 0.703125)"/>
        </clipPath>
        </defs>
        </svg>