<svg width="20" height="20" viewBox="0 0 20 20" fill="none" xmlns="http://www.w3.org/2000/svg">
<path d="M1.4179 2.55859C0.73431 2.74219 0.179622 3.32031 0.0389971 3.99609C0.0116533 4.13281 -6.54291e-05 4.78906 0.00774707 5.96484C0.0194658 7.67578 0.0233721 7.73047 0.101497 7.83594C0.253841 8.03906 0.363216 8.09375 0.714778 8.12891C1.26165 8.18359 1.64056 8.36328 1.98431 8.72656C2.66009 9.4375 2.66009 10.5625 1.98431 11.2734C1.64056 11.6367 1.26165 11.8164 0.714778 11.8711C0.363216 11.9062 0.253841 11.9609 0.101497 12.1641C0.0233721 12.2695 0.0194658 12.3242 0.00774707 14.0352C-6.54291e-05 15.2109 0.0116533 15.8672 0.0389971 16.0039C0.183528 16.6875 0.738216 17.2617 1.43353 17.4414C1.77337 17.5313 18.2265 17.5313 18.5663 17.4414C19.2617 17.2617 19.8163 16.6875 19.9609 16.0039C19.9882 15.8672 19.9999 15.2109 19.9921 14.0352C19.9804 12.3242 19.9765 12.2695 19.8984 12.1641C19.7499 11.9609 19.6367 11.9062 19.3007 11.8711C18.7695 11.8203 18.457 11.6836 18.0937 11.3516C17.3085 10.6211 17.3085 9.37891 18.0937 8.64844C18.457 8.31641 18.7695 8.17969 19.3007 8.12891C19.6367 8.09375 19.7499 8.03906 19.8984 7.83594C19.9765 7.73047 19.9804 7.67578 19.9921 5.96484C19.9999 4.78906 19.9882 4.13281 19.9609 3.99609C19.8163 3.3125 19.2617 2.73828 18.5663 2.55859C18.2382 2.47265 1.73431 2.47656 1.4179 2.55859ZM18.4609 3.85156C18.5195 3.89453 18.6054 3.98047 18.6484 4.03906C18.7265 4.14062 18.7304 4.20312 18.7421 5.55078C18.7538 6.875 18.7499 6.95312 18.6835 6.95312C18.5351 6.95703 17.9335 7.21875 17.6757 7.39062C16.9452 7.875 16.4687 8.58984 16.3046 9.44531C16.0273 10.8945 16.8749 12.3828 18.2812 12.918C18.4648 12.9883 18.6445 13.043 18.6835 13.0469C18.7499 13.0469 18.7538 13.125 18.7421 14.4492C18.7304 15.7969 18.7265 15.8594 18.6484 15.9609C18.6054 16.0195 18.5195 16.1055 18.4609 16.1484L18.3554 16.2305H9.99993H1.64447L1.539 16.1484C1.4804 16.1055 1.39447 16.0195 1.3515 15.9609C1.27337 15.8594 1.26947 15.7969 1.25775 14.457L1.24603 13.0625L1.4179 13.0195C1.94134 12.8789 2.42962 12.5977 2.80853 12.2227C3.54681 11.4883 3.88275 10.4375 3.69525 9.44531C3.46478 8.24609 2.58197 7.29297 1.4179 6.98047L1.24993 6.9375V5.60156C1.24993 4.21484 1.25775 4.125 1.4179 3.94922C1.60931 3.74219 1.1054 3.7539 10.0468 3.76172L18.3554 3.76953L18.4609 3.85156Z" fill="white"/>
<path d="M11.215 4.97658C9.77751 8.8008 7.57829 14.6797 7.57048 14.7227C7.55485 14.7852 8.66813 15.2188 8.7111 15.168C8.72673 15.1524 9.56657 12.9297 10.5783 10.2344C11.59 7.53909 12.426 5.30471 12.4377 5.27346C12.4572 5.22659 12.3322 5.16408 11.8752 4.99612L11.2892 4.77737L11.215 4.97658Z" fill="white"/>
<path d="M6.7381 6.48821C5.9842 6.59759 5.31623 7.28118 5.19513 8.06243C5.05841 8.95306 5.62482 9.85149 6.4881 10.121C6.76935 10.207 7.2342 10.2187 7.51935 10.1406C8.33576 9.92181 8.90607 9.18353 8.90607 8.34368C8.90216 7.17962 7.89826 6.32024 6.7381 6.48821ZM7.3631 7.80853C7.4256 7.84368 7.51935 7.93743 7.57013 8.01165C7.64826 8.12103 7.65998 8.18353 7.64826 8.36321C7.62091 8.7304 7.39045 8.94524 7.01935 8.94524C6.79279 8.94524 6.6092 8.82024 6.49201 8.58587C6.36701 8.33978 6.39826 8.13665 6.58966 7.92571C6.80451 7.69134 7.08576 7.64837 7.3631 7.80853Z" fill="white"/>
<path d="M13.0389 10.3946C12.6053 10.4962 12.0623 10.9219 11.8631 11.3126C11.6834 11.6641 11.6287 11.9297 11.6483 12.3282C11.6639 12.6407 11.6873 12.7305 11.8084 12.9844C12.2694 13.961 13.3709 14.3516 14.328 13.8829C15.0467 13.5313 15.4764 12.7149 15.3514 11.9376C15.2381 11.2344 14.7264 10.6329 14.0584 10.4258C13.8045 10.3477 13.3045 10.3321 13.0389 10.3946ZM13.8319 11.6915C14.0233 11.8165 14.1561 12.1016 14.1209 12.3086C14.0623 12.6524 13.6873 12.8985 13.3553 12.8126C12.9608 12.7071 12.7772 12.3008 12.953 11.9258C13.1014 11.6172 13.5428 11.5001 13.8319 11.6915Z" fill="white"/>
</svg>
