<svg width="30" height="30" viewBox="0 0 30 30" fill="none" xmlns="http://www.w3.org/2000/svg">
<g clip-path="url(#clip0)">
<path d="M25.0406 4.15883C25.0406 4.40236 24.843 4.59989 24.5995 4.59989C24.356 4.59989 24.1584 4.40236 24.1584 4.15883C24.1584 3.9153 24.356 3.71777 24.5995 3.71777C24.843 3.71777 25.0406 3.9153 25.0406 4.15883Z" fill="url(#paint0_linear)"/>
<path d="M23.2952 4.15883C23.2952 4.40236 23.0977 4.59989 22.8541 4.59989C22.6106 4.59989 22.4131 4.40236 22.4131 4.15883C22.4131 3.9153 22.6106 3.71777 22.8541 3.71777C23.0977 3.71777 23.2952 3.9153 23.2952 4.15883Z" fill="url(#paint1_linear)"/>
<path d="M21.5498 4.15883C21.5498 4.40236 21.3523 4.59989 21.1088 4.59989C20.8653 4.59989 20.6677 4.40236 20.6677 4.15883C20.6677 3.9153 20.8653 3.71777 21.1088 3.71777C21.3523 3.71777 21.5498 3.9153 21.5498 4.15883Z" fill="url(#paint2_linear)"/>
<path d="M25.9559 22.0215C25.77 21.8666 25.4941 21.8927 25.3398 22.0794L23.9783 23.7292L23.5572 23.2003C23.4063 23.0105 23.1311 22.9796 22.9424 23.1312C22.7535 23.2827 22.7227 23.5592 22.8736 23.7487L23.6301 24.6997C23.7123 24.8029 23.8363 24.8636 23.968 24.8647H23.9719C24.102 24.8647 24.2255 24.8066 24.3087 24.7059L26.0134 22.6402C26.1676 22.4534 26.1419 22.1765 25.9559 22.0215Z" fill="url(#paint3_linear)"/>
<path d="M14.4057 3.72021H2.9922C2.75066 3.72021 2.55469 3.91705 2.55469 4.15967C2.55469 4.40251 2.75066 4.59912 2.9922 4.59912H14.4057C14.6473 4.59912 14.8432 4.40251 14.8432 4.15967C14.8432 3.91705 14.6473 3.72021 14.4057 3.72021Z" fill="url(#paint4_linear)"/>
<path d="M9.74787 14.0908C8.84733 14.0908 8.1145 14.8267 8.1145 15.7314C8.1145 16.636 8.84733 17.3721 9.74787 17.3721C10.6484 17.3721 11.3812 16.636 11.3812 15.7314C11.3812 14.8267 10.6484 14.0908 9.74787 14.0908ZM9.74787 16.4932C9.32973 16.4932 8.98952 16.1514 8.98952 15.7314C8.98952 15.3114 9.32973 14.9697 9.74787 14.9697C10.166 14.9697 10.5062 15.3114 10.5062 15.7314C10.5062 16.1514 10.166 16.4932 9.74787 16.4932Z" fill="url(#paint5_linear)"/>
<path d="M16.5443 15.5387C16.5443 14.4151 15.6342 13.501 14.5155 13.501C13.3969 13.501 12.4868 14.4151 12.4868 15.5387C12.4868 16.6625 13.3969 17.5767 14.5155 17.5767C15.6342 17.5767 16.5443 16.6625 16.5443 15.5387ZM14.5155 16.6978C13.8793 16.6978 13.3618 16.1778 13.3618 15.5387C13.3618 14.8997 13.8793 14.3799 14.5155 14.3799C15.1518 14.3799 15.6692 14.8997 15.6692 15.5387C15.6692 16.1778 15.1518 16.6978 14.5155 16.6978Z" fill="url(#paint6_linear)"/>
<path d="M15.9885 18.7666C15.2358 18.7666 14.6235 19.3816 14.6235 20.1376C14.6235 20.8936 15.2358 21.5088 15.9885 21.5088C16.7411 21.5088 17.3534 20.8936 17.3534 20.1376C17.3534 19.3816 16.7411 18.7666 15.9885 18.7666ZM15.9885 20.6299C15.7182 20.6299 15.4986 20.4091 15.4986 20.1376C15.4986 19.8664 15.7182 19.6455 15.9885 19.6455C16.2587 19.6455 16.4784 19.8664 16.4784 20.1376C16.4784 20.4091 16.2587 20.6299 15.9885 20.6299Z" fill="url(#paint7_linear)"/>
<path d="M27.2444 18.1516H21.39C21.4292 17.8351 21.449 17.5158 21.449 17.1972C21.449 15.983 21.174 14.8207 20.6316 13.7434C20.463 13.4085 20.0777 13.2467 19.7149 13.3588C19.3932 13.4582 19.052 13.4586 18.7285 13.36C18.3229 13.2364 17.9804 12.9665 17.7641 12.6001C17.5896 12.3044 17.2548 12.1412 16.9107 12.1838C16.4915 12.2357 16.0729 12.1993 15.6659 12.0753C14.7252 11.7887 13.9801 11.0563 13.6729 10.1163C13.5583 9.76586 13.2117 9.54567 12.8481 9.59145C8.98567 10.0822 6.12021 13.406 6.18264 17.3226C6.21454 19.3171 7.01186 21.1974 8.42784 22.6174C9.84359 24.0371 11.7169 24.835 13.7026 24.8638C13.7393 24.8643 13.7757 24.8648 13.8124 24.8648C15.5768 24.8648 17.2842 24.247 18.6396 23.1381V26.2154C18.6396 27.6358 19.7903 28.7915 21.2043 28.7915H27.2444C28.6586 28.7915 29.8091 27.6358 29.8091 26.2154V20.7277C29.8091 19.3073 28.6586 18.1516 27.2444 18.1516ZM11.5918 23.5617C11.52 23.5617 11.4508 23.551 11.3856 23.5311C11.3487 23.5166 11.3118 23.502 11.2753 23.4871C11.0415 23.3699 10.8804 23.1271 10.8804 22.8472C10.8804 22.4533 11.1996 22.1326 11.5918 22.1326C11.984 22.1326 12.3032 22.4533 12.3032 22.8472C12.3032 23.2413 11.9842 23.5617 11.5918 23.5617ZM18.5341 17.4952C18.5676 18.0491 18.8139 18.5565 19.2275 18.9243C19.2542 18.9482 19.2817 18.9713 19.3095 18.9937C18.8937 19.4517 18.6398 20.0605 18.6398 20.7277V21.9509C17.348 23.2724 15.564 24.0117 13.7151 23.9852C13.3986 23.9806 13.085 23.9538 12.7767 23.9057C13.0262 23.624 13.1782 23.2532 13.1782 22.8474C13.1782 21.9687 12.4664 21.2539 11.5918 21.2539C10.7334 21.2539 10.032 21.9422 10.0061 22.7982C9.66586 22.5629 9.34456 22.2949 9.04582 21.9955C7.79186 20.7378 7.08569 19.0734 7.05766 17.3089C7.00274 13.8704 9.49564 10.9483 12.8702 10.4752C13.2828 11.6464 14.2269 12.5555 15.4118 12.9164C15.9355 13.076 16.4748 13.1231 17.016 13.0565C17.3442 13.6083 17.8619 14.0146 18.4744 14.2011C18.9383 14.3424 19.4264 14.3495 19.8915 14.2224C20.0635 14.5756 20.2032 14.9391 20.3106 15.3112C19.8293 15.378 19.3827 15.6145 19.0498 15.9921C18.6836 16.4076 18.5006 16.9413 18.5341 17.4952ZM19.7049 16.5746C19.9122 16.3396 20.1957 16.1995 20.4985 16.1748C20.5487 16.5101 20.574 16.8511 20.574 17.1972C20.574 17.5504 20.5464 17.9042 20.4922 18.2526C20.3365 18.2979 20.1868 18.3576 20.0446 18.4304C19.9594 18.3858 19.8801 18.3309 19.8074 18.2663C19.5688 18.0541 19.4269 17.7612 19.4075 17.4419C19.3881 17.1224 19.4939 16.8143 19.7049 16.5746ZM28.9341 26.2154C28.9341 27.1513 28.1762 27.9126 27.2444 27.9126H21.2045C20.2727 27.9126 19.5148 27.1513 19.5148 26.2154V20.7277C19.5148 19.7918 20.2727 19.0306 21.2045 19.0306H27.2444C28.1762 19.0306 28.9341 19.7918 28.9341 20.7277V26.2154Z" fill="url(#paint8_linear)"/>
<path d="M27.4282 21.4804C27.1873 21.3808 26.8631 21.1737 26.8271 20.5289C26.8088 20.197 26.5345 19.937 26.2027 19.937H22.4301C22.0983 19.937 21.824 20.1968 21.8057 20.5287C21.7697 21.1737 21.4455 21.3808 21.2046 21.4804C20.966 21.5792 20.8109 21.8196 20.8184 22.0787C20.8567 23.4179 21.432 24.7486 22.4821 25.9273C23.2646 26.8058 24.0607 27.3233 24.1635 27.3617C24.2129 27.38 24.2647 27.3894 24.3164 27.3894C24.3681 27.3894 24.4199 27.3803 24.4693 27.3617C24.5721 27.3233 25.3682 26.8058 26.1507 25.9273C27.2008 24.7486 27.7761 23.4179 27.8147 22.0784C27.8219 21.8193 27.6668 21.5792 27.4282 21.4804ZM24.3164 26.419C23.6786 25.9548 21.8493 24.4368 21.7009 22.2169C22.228 21.9402 22.56 21.4527 22.6552 20.8159H25.9776C26.073 21.4527 26.4048 21.9404 26.9321 22.2169C26.7838 24.4371 24.9544 25.9548 24.3164 26.419Z" fill="url(#paint9_linear)"/>
<path d="M18.3638 27.8948H1.6058C1.1708 27.8948 0.816914 27.5393 0.816914 27.1026V7.03058H26.4301V16.8318C26.4301 17.0744 26.6259 17.2712 26.8676 17.2712C27.1092 17.2712 27.3052 17.0744 27.3052 16.8318V2.96036C27.3052 2.03865 26.5587 1.28906 25.6413 1.28906H1.6058C0.688395 1.28906 -0.0581055 2.03865 -0.0581055 2.96036V27.1024C-0.0581055 28.0241 0.688395 28.7737 1.6058 28.7737H18.3638C18.6053 28.7737 18.8013 28.5771 18.8013 28.3343C18.8013 28.0914 18.6053 27.8948 18.3638 27.8948ZM0.816914 2.96036C0.816914 2.52342 1.1708 2.16797 1.6058 2.16797H25.6413C26.0763 2.16797 26.4299 2.52342 26.4299 2.96036V6.15167H0.816914V2.96036Z" fill="url(#paint10_linear)"/>
</g>
<defs>
<linearGradient id="paint0_linear" x1="24.5995" y1="3.71777" x2="24.5995" y2="4.59989" gradientUnits="userSpaceOnUse">
<stop stop-color="#01BFFB"/>
<stop offset="1" stop-color="#75DBCA"/>
</linearGradient>
<linearGradient id="paint1_linear" x1="22.8541" y1="3.71777" x2="22.8541" y2="4.59989" gradientUnits="userSpaceOnUse">
<stop stop-color="#01BFFB"/>
<stop offset="1" stop-color="#75DBCA"/>
</linearGradient>
<linearGradient id="paint2_linear" x1="21.1088" y1="3.71777" x2="21.1088" y2="4.59989" gradientUnits="userSpaceOnUse">
<stop stop-color="#01BFFB"/>
<stop offset="1" stop-color="#75DBCA"/>
</linearGradient>
<linearGradient id="paint3_linear" x1="24.446" y1="21.9204" x2="24.446" y2="24.8647" gradientUnits="userSpaceOnUse">
<stop stop-color="#01BFFB"/>
<stop offset="1" stop-color="#75DBCA"/>
</linearGradient>
<linearGradient id="paint4_linear" x1="8.69896" y1="3.72021" x2="8.69896" y2="4.59912" gradientUnits="userSpaceOnUse">
<stop stop-color="#01BFFB"/>
<stop offset="1" stop-color="#75DBCA"/>
</linearGradient>
<linearGradient id="paint5_linear" x1="9.74787" y1="14.0908" x2="9.74787" y2="17.3721" gradientUnits="userSpaceOnUse">
<stop stop-color="#01BFFB"/>
<stop offset="1" stop-color="#75DBCA"/>
</linearGradient>
<linearGradient id="paint6_linear" x1="14.5155" y1="13.501" x2="14.5155" y2="17.5767" gradientUnits="userSpaceOnUse">
<stop stop-color="#01BFFB"/>
<stop offset="1" stop-color="#75DBCA"/>
</linearGradient>
<linearGradient id="paint7_linear" x1="15.9885" y1="18.7666" x2="15.9885" y2="21.5088" gradientUnits="userSpaceOnUse">
<stop stop-color="#01BFFB"/>
<stop offset="1" stop-color="#75DBCA"/>
</linearGradient>
<linearGradient id="paint8_linear" x1="17.9954" y1="9.58545" x2="17.9954" y2="28.7915" gradientUnits="userSpaceOnUse">
<stop stop-color="#01BFFB"/>
<stop offset="1" stop-color="#75DBCA"/>
</linearGradient>
<linearGradient id="paint9_linear" x1="24.3165" y1="19.937" x2="24.3165" y2="27.3894" gradientUnits="userSpaceOnUse">
<stop stop-color="#01BFFB"/>
<stop offset="1" stop-color="#75DBCA"/>
</linearGradient>
<linearGradient id="paint10_linear" x1="13.6235" y1="1.28906" x2="13.6235" y2="28.7737" gradientUnits="userSpaceOnUse">
<stop stop-color="#01BFFB"/>
<stop offset="1" stop-color="#75DBCA"/>
</linearGradient>
<clipPath id="clip0">
<rect width="29.8673" height="30" fill="white"/>
</clipPath>
</defs>
</svg>
