<svg width="38" height="38" viewBox="0 0 38 38" fill="none" xmlns="http://www.w3.org/2000/svg">
<rect x="0.5" y="0.5" width="37" height="37" rx="9.5" fill="white" stroke="#01BFFB"/>
<path d="M22.2 27H15.8C14.035 27 12.6 25.564 12.6 23.8V16.6C12.6 16.158 12.958 15.8 13.4 15.8H24.6C25.042 15.8 25.4 16.158 25.4 16.6V23.8C25.4 25.564 23.965 27 22.2 27ZM14.2 17.4V23.8C14.2 24.682 14.918 25.4 15.8 25.4H22.2C23.082 25.4 23.8 24.682 23.8 23.8V17.4H14.2Z" fill="#01BFFB"/>
<path d="M21.4 14.2C20.958 14.2 20.6 13.842 20.6 13.4V12.828C20.6 12.704 20.495 12.6 20.371 12.6H17.629C17.505 12.6 17.4 12.705 17.4 12.828V13.4C17.4 13.842 17.042 14.2 16.6 14.2C16.158 14.2 15.8 13.842 15.8 13.4V12.828C15.8 11.82 16.62 11 17.629 11H20.371C21.38 11 22.2 11.82 22.2 12.828V13.4C22.2 13.842 21.842 14.2 21.4 14.2Z" fill="#01BFFB"/>
<path d="M19 23.8C18.558 23.8 18.2 23.442 18.2 23V19C18.2 18.558 18.558 18.2 19 18.2C19.442 18.2 19.8 18.558 19.8 19V23C19.8 23.442 19.442 23.8 19 23.8Z" fill="#01BFFB"/>
<path d="M16.6 24.6C16.158 24.6 15.8 24.242 15.8 23.8V19.8C15.8 19.358 16.158 19 16.6 19C17.042 19 17.4 19.358 17.4 19.8V23.8C17.4 24.242 17.042 24.6 16.6 24.6Z" fill="#01BFFB"/>
<path d="M21.4 24.6C20.958 24.6 20.6 24.242 20.6 23.8V19.8C20.6 19.358 20.958 19 21.4 19C21.842 19 22.2 19.358 22.2 19.8V23.8C22.2 24.242 21.842 24.6 21.4 24.6Z" fill="#01BFFB"/>
<path d="M25.4 15H12.6C12.158 15 11.8 14.642 11.8 14.2C11.8 13.758 12.158 13.4 12.6 13.4H25.4C25.842 13.4 26.2 13.758 26.2 14.2C26.2 14.642 25.842 15 25.4 15Z" fill="#01BFFB"/>
</svg>
