<svg width="18" height="18" viewBox="0 0 18 18" fill="none" xmlns="http://www.w3.org/2000/svg">
<path d="M16.8956 5.81767L7.49122 15.2199C6.95355 15.713 6.30943 16.078 5.60991 16.2844L1.45517 17.3271C1.22164 17.4292 0.948998 17.3793 0.767601 17.1968C0.587291 17.0176 0.536239 16.7449 0.637256 16.5103L0.963119 15.2253L1.68002 12.3577C1.88639 11.656 2.25027 11.0108 2.7445 10.4742L12.1489 1.07204C12.9853 0.170484 14.2453 -0.198827 15.4368 0.105311C16.6273 0.407277 17.5571 1.33707 17.8612 2.52755C18.1654 3.71804 17.7961 4.98021 16.8945 5.81876L16.8956 5.81767ZM4.26845 11.9982C4.0512 12.2589 3.88393 12.5565 3.77205 12.878L3.33431 14.6301L5.08636 14.1902C5.4057 14.0783 5.70333 13.9099 5.96402 13.6938L13.3763 6.28366L13.3383 6.24564L11.6775 4.587L4.26953 11.9993L4.26845 11.9982ZM15.3695 2.59707C14.9002 2.13 14.1421 2.13 13.6728 2.59707L13.2058 3.06631L14.9024 4.76188L15.3695 4.29481C15.8387 3.82448 15.8365 3.06414 15.3695 2.5949V2.59707Z" fill="url(#paint0_linear)"/>
<defs>
<linearGradient id="paint0_linear" x1="0.58606" y1="8.68996" x2="17.9659" y2="8.68996" gradientUnits="userSpaceOnUse">
<stop stop-color="#5B6370"/>
<stop offset="1" stop-color="#323C4C"/>
</linearGradient>
</defs>
</svg>
