<svg width="16" height="16" viewBox="0 0 16 16" fill="none" xmlns="http://www.w3.org/2000/svg">
<path d="M15.09 5.30589L14.653 5.74189L10.255 1.34889L10.693 0.910888C11.478 0.124888 12.623 -0.182112 13.693 0.103888C14.767 0.390888 15.605 1.22889 15.893 2.30089C16.183 3.37389 15.876 4.51889 15.091 5.30489L15.09 5.30589ZM13.24 7.15589L6.389 14.0049C5.889 14.4619 5.295 14.7989 4.649 14.9899L0.803001 15.9499C0.587001 16.0469 0.333001 15.9999 0.167001 15.8319C1.2666e-06 15.6649 -0.0479987 15.4119 0.0470013 15.1959L1.009 11.3529C1.199 10.7049 1.537 10.1089 1.994 9.61289L8.847 2.76089L13.241 7.15389L13.24 7.15589Z" fill="url(#paint0_linear)"/>
<defs>
<linearGradient id="paint0_linear" x1="-0.00125087" y1="7.99929" x2="16.0004" y2="7.99929" gradientUnits="userSpaceOnUse">
<stop stop-color="#323C4C"/>
<stop offset="0.817708" stop-color="#5B6370"/>
</linearGradient>
</defs>
</svg>
