<svg width="16" height="14" viewBox="0 0 16 14" fill="none" xmlns="http://www.w3.org/2000/svg">
<path d="M1 9.59029H3.5C3.878 9.59029 4.224 9.37103 4.394 9.02206L5.187 7.40073L6.53 12.9266C6.64 13.3816 7.034 13.7018 7.49 13.7069C7.944 13.7131 8.345 13.4012 8.465 12.9493L10.525 5.19265L11.538 8.84397C11.661 9.28662 12.053 9.59132 12.5 9.59029H15C15.552 9.59029 16 9.13015 16 8.56088C16 7.99265 15.552 7.53147 15 7.53147H13.256L11.462 1.07088C11.339 0.626174 10.942 0.31941 10.494 0.323527C10.044 0.326616 9.654 0.637498 9.534 1.08323L7.544 8.61029L6.47 4.19103C6.367 3.77412 6.023 3.46735 5.608 3.42103C5.192 3.3747 4.793 3.59912 4.606 3.98412L2.88 7.53147H1C0.448 7.53147 0 7.99265 0 8.56088C0 9.13015 0.448 9.59029 1 9.59029Z" fill="url(#paint0_linear)"/>
<defs>
<linearGradient id="paint0_linear" x1="3.49691e-07" y1="7.01524" x2="16" y2="7.01524" gradientUnits="userSpaceOnUse">
<stop stop-color="#323C4C"/>
<stop offset="0.817708" stop-color="#5B6370"/>
</linearGradient>
</defs>
</svg>
