<svg width="15" height="15" viewBox="0 0 15 15" fill="none" xmlns="http://www.w3.org/2000/svg">
<path d="M8.717 0.54934C8.543 0.46634 8.338 0.48834 8.188 0.60934L3.324 4.50034H1C0.449 4.50034 0 4.94934 0 5.50034V9.50034C0 10.0523 0.449 10.5003 1 10.5003H3.324L8.187 14.3913C8.278 14.4633 8.389 14.5003 8.5 14.5003C8.574 14.5003 8.648 14.4833 8.717 14.4503C8.89 14.3673 9 14.1923 9 14.0003V1.00034C9 0.80834 8.89 0.63334 8.717 0.54934Z" fill="url(#paint0_linear)"/>
<path d="M11.531 3.96444C11.334 3.77044 11.018 3.77344 10.824 3.96844C10.63 4.16544 10.632 4.48144 10.828 4.67644C11.584 5.42244 12 6.42544 12 7.50044C12 8.57544 11.584 9.57844 10.828 10.3244C10.632 10.5174 10.63 10.8344 10.824 11.0314C10.922 11.1304 11.051 11.1794 11.179 11.1794C11.306 11.1794 11.433 11.1314 11.531 11.0344C12.479 10.1014 13 8.84544 13 7.50044C13 6.15544 12.479 4.89944 11.531 3.96444Z" fill="url(#paint1_linear)"/>
<path d="M12.942 2.55529C12.745 2.36029 12.429 2.36229 12.234 2.55829C12.04 2.75429 12.042 3.07129 12.237 3.26529C13.374 4.39229 14 5.89629 14 7.50029C14 9.10429 13.374 10.6073 12.237 11.7343C12.042 11.9293 12.04 12.2463 12.234 12.4423C12.333 12.5403 12.461 12.5893 12.589 12.5893C12.716 12.5893 12.844 12.5413 12.942 12.4443C14.27 11.1293 15 9.37329 15 7.50029C15 5.62729 14.27 3.87129 12.942 2.55529Z" fill="url(#paint2_linear)"/>
<defs>
<linearGradient id="paint0_linear" x1="1.96701e-07" y1="7.50005" x2="9" y2="7.50005" gradientUnits="userSpaceOnUse">
<stop stop-color="#323C4C"/>
<stop offset="0.817708" stop-color="#5B6370"/>
</linearGradient>
<linearGradient id="paint1_linear" x1="10.6797" y1="7.5" x2="13" y2="7.5" gradientUnits="userSpaceOnUse">
<stop stop-color="#323C4C"/>
<stop offset="0.817708" stop-color="#5B6370"/>
</linearGradient>
<linearGradient id="paint2_linear" x1="12.0896" y1="7.49972" x2="15" y2="7.49972" gradientUnits="userSpaceOnUse">
<stop stop-color="#323C4C"/>
<stop offset="0.817708" stop-color="#5B6370"/>
</linearGradient>
</defs>
</svg>
