<svg width="18" height="18" viewBox="0 0 18 18" fill="none" xmlns="http://www.w3.org/2000/svg">
<path d="M17.9958 8.70687C17.8448 3.9784 14.0226 0.156335 9.29423 0.00533254C6.72138 -0.0762973 4.31431 0.903008 2.53539 2.73968C0.825203 4.50533 -0.0733566 6.83305 0.00524054 9.29432C0.156117 14.0227 3.97831 17.8449 8.70665 17.9957C8.80508 17.9989 8.90264 18.0004 9.00044 18.0004C11.4587 18.0004 13.7547 17.0277 15.4655 15.2614C17.1757 13.4959 18.0744 11.168 17.9958 8.70687ZM14.1041 13.9428C12.7535 15.3372 10.941 16.1051 9.00044 16.1051C8.92285 16.1051 8.84527 16.1038 8.76705 16.1014C5.03533 15.9823 2.01882 12.9658 1.89953 9.23392C1.83749 7.29022 2.54676 5.45216 3.89681 4.05839C5.24736 2.66399 7.0599 1.89609 9.00044 1.89609C9.07803 1.89609 9.15561 1.89735 9.23383 1.89975C12.9655 2.01891 15.9821 5.03542 16.1013 8.76727C16.1634 10.711 15.454 12.549 14.1041 13.9428Z" fill="white"/>
<path d="M11.952 8.47716L7.96098 5.61557C7.53526 5.31028 6.94263 5.61456 6.94263 6.13846V11.8618C6.94263 12.3857 7.53526 12.6899 7.96098 12.3847L11.9519 9.52294C12.31 9.26629 12.31 8.73393 11.952 8.47716Z" fill="white"/>
</svg>
