<svg width="25" height="25" viewBox="0 0 25 25" fill="none" xmlns="http://www.w3.org/2000/svg">
<path d="M12.5 0L13.9648 11.2793L12.5 25C5.59116 25 0 19.4093 0 12.5C0 5.59116 5.59067 0 12.5 0Z" fill="url(#paint0_linear)"/>
<path d="M25 12.5C25 19.4088 19.4093 25 12.5 25V0C19.4088 0 25 5.59067 25 12.5Z" fill="url(#paint1_linear)"/>
<path d="M12.5001 3.81934L13.4766 10.5957L12.5001 19.2568L7.85065 20.2847C7.42809 20.3778 7.01847 20.0869 6.96539 19.6592L6.35748 14.7202L4.0816 10.645C3.88028 10.2833 4.01783 9.82783 4.38384 9.63769L8.70465 7.39551L11.9757 4.04053C12.1133 3.89941 12.3018 3.81934 12.4986 3.81934H12.5001Z" fill="url(#paint2_linear)"/>
<path d="M20.9199 10.6421L18.666 14.7202L18.0342 19.6626C17.9791 20.0889 17.5699 20.3783 17.1484 20.2847L12.5117 19.2544L12.5 19.2568V3.81934C12.6987 3.81885 12.8853 3.89844 13.0225 4.03858L16.3188 7.39551L20.6177 9.63867C20.9818 9.82891 21.1189 10.2819 20.9199 10.6421Z" fill="url(#paint3_linear)"/>
<path d="M11.5195 13.9941V17H9.76172V8.46875H13.0898C13.7305 8.46875 14.293 8.58594 14.7773 8.82031C15.2656 9.05469 15.6406 9.38867 15.9023 9.82227C16.1641 10.252 16.2949 10.7422 16.2949 11.293C16.2949 12.1289 16.0078 12.7891 15.4336 13.2734C14.8633 13.7539 14.0723 13.9941 13.0605 13.9941H11.5195ZM11.5195 12.5703H13.0898C13.5547 12.5703 13.9082 12.4609 14.1504 12.2422C14.3965 12.0234 14.5195 11.7109 14.5195 11.3047C14.5195 10.8867 14.3965 10.5488 14.1504 10.291C13.9043 10.0332 13.5645 9.90039 13.1309 9.89258H11.5195V12.5703Z" fill="white"/>
<defs>
<linearGradient id="paint0_linear" x1="3.05211e-07" y1="12.5" x2="13.9648" y2="12.5" gradientUnits="userSpaceOnUse">
<stop stop-color="#5B6370"/>
<stop offset="1" stop-color="#323C4C"/>
</linearGradient>
<linearGradient id="paint1_linear" x1="12.5" y1="12.5" x2="25" y2="12.5" gradientUnits="userSpaceOnUse">
<stop stop-color="#5B6370"/>
<stop offset="1" stop-color="#323C4C"/>
</linearGradient>
<linearGradient id="paint2_linear" x1="8.7327" y1="3.81934" x2="8.7327" y2="13.606" gradientUnits="userSpaceOnUse">
<stop stop-color="#01BFFB"/>
<stop offset="1" stop-color="#75DBCA"/>
</linearGradient>
<linearGradient id="paint3_linear" x1="16.7557" y1="3.81934" x2="16.7557" y2="13.6061" gradientUnits="userSpaceOnUse">
<stop stop-color="#01BFFB"/>
<stop offset="1" stop-color="#75DBCA"/>
</linearGradient>
</defs>
</svg>
