<svg width="16" height="16" viewBox="0 0 16 16" fill="none" xmlns="http://www.w3.org/2000/svg">
<path d="M7.99958 11.1999C7.79458 11.1999 7.59058 11.1219 7.43358 10.9659L5.03358 8.56595C4.72058 8.25395 4.72058 7.74695 5.03358 7.43495C5.34658 7.12295 5.85258 7.12195 6.16458 7.43495L7.99858 9.26895L9.83258 7.43495C10.1446 7.12195 10.6516 7.12195 10.9636 7.43495C11.2756 7.74795 11.2766 8.25395 10.9636 8.56595L8.56358 10.9659C8.40758 11.1219 8.20258 11.1999 7.99758 11.1999H7.99958Z" fill="white"/>
<path d="M12.8 15.2H3.2C1.436 15.2 0 13.764 0 12C0 11.558 0.358 11.2 0.8 11.2C1.242 11.2 1.6 11.558 1.6 12C1.6 12.882 2.318 13.6 3.2 13.6H12.8C13.682 13.6 14.4 12.882 14.4 12C14.4 11.558 14.758 11.2 15.2 11.2C15.642 11.2 16 11.558 16 12C16 13.764 14.564 15.2 12.8 15.2Z" fill="white"/>
<path d="M8.00898 9.60005C7.56698 9.60005 7.20898 9.24205 7.20898 8.80005V1.60005C7.20898 1.15805 7.56698 0.800049 8.00898 0.800049C8.45098 0.800049 8.80898 1.15805 8.80898 1.60005V8.80005C8.80898 9.24205 8.45098 9.60005 8.00898 9.60005Z" fill="white"/>
</svg>
