<svg width="82" height="82" viewBox="0 0 82 82" fill="none" xmlns="http://www.w3.org/2000/svg">
<g clip-path="url(#clip0)">
<path d="M57.4004 82.0002H24.6004C15.5548 82.0002 8.20044 74.6407 8.20044 65.6002V28.7002C8.20044 26.435 10.0352 24.6002 12.3004 24.6002H69.7004C71.9657 24.6002 73.8004 26.435 73.8004 28.7002V65.6002C73.8004 74.6407 66.4461 82.0002 57.4004 82.0002ZM16.4004 32.8002V65.6002C16.4004 70.1205 20.0802 73.8002 24.6004 73.8002H57.4004C61.9207 73.8002 65.6004 70.1205 65.6004 65.6002V32.8002H16.4004Z" fill="url(#paint0_linear)"/>
<path d="M53.3001 16.4C51.0348 16.4 49.2001 14.5653 49.2001 12.3V9.3685C49.2001 8.733 48.662 8.2 48.0265 8.2H33.9737C33.3382 8.2 32.8001 8.73812 32.8001 9.3685V12.3C32.8001 14.5653 30.9653 16.4 28.7001 16.4C26.4348 16.4 24.6001 14.5653 24.6001 12.3V9.3685C24.6001 4.2025 28.8026 0 33.9737 0H48.0265C53.1976 0 57.4001 4.2025 57.4001 9.3685V12.3C57.4001 14.5653 55.5653 16.4 53.3001 16.4Z" fill="url(#paint1_linear)"/>
<path d="M40.9999 65.5998C38.7347 65.5998 36.8999 63.765 36.8999 61.4998V40.9998C36.8999 38.7345 38.7347 36.8998 40.9999 36.8998C43.2652 36.8998 45.0999 38.7345 45.0999 40.9998V61.4998C45.0999 63.765 43.2652 65.5998 40.9999 65.5998Z" fill="url(#paint2_linear)"/>
<path d="M28.7001 69.7C26.4348 69.7 24.6001 67.8653 24.6001 65.6V45.1C24.6001 42.8348 26.4348 41 28.7001 41C30.9653 41 32.8001 42.8348 32.8001 45.1V65.6C32.8001 67.8653 30.9653 69.7 28.7001 69.7Z" fill="url(#paint3_linear)"/>
<path d="M53.3004 69.7C51.0352 69.7 49.2004 67.8653 49.2004 65.6V45.1C49.2004 42.8348 51.0352 41 53.3004 41C55.5657 41 57.4004 42.8348 57.4004 45.1V65.6C57.4004 67.8653 55.5657 69.7 53.3004 69.7Z" fill="url(#paint4_linear)"/>
<path d="M73.8002 20.5H8.20022C5.93497 20.5 4.10022 18.6653 4.10022 16.4C4.10022 14.1348 5.93497 12.3 8.20022 12.3H73.8002C76.0655 12.3 77.9002 14.1348 77.9002 16.4C77.9002 18.6653 76.0655 20.5 73.8002 20.5Z" fill="url(#paint5_linear)"/>
</g>
<defs>
<linearGradient id="paint0_linear" x1="41.0004" y1="24.6002" x2="41.0004" y2="58.6815" gradientUnits="userSpaceOnUse">
<stop stop-color="#01BFFB"/>
<stop offset="1" stop-color="#75DBCA"/>
</linearGradient>
<linearGradient id="paint1_linear" x1="41.0001" y1="3.6991e-07" x2="41.0001" y2="9.7375" gradientUnits="userSpaceOnUse">
<stop stop-color="#01BFFB"/>
<stop offset="1" stop-color="#75DBCA"/>
</linearGradient>
<linearGradient id="paint2_linear" x1="40.9999" y1="36.8998" x2="40.9999" y2="53.9404" gradientUnits="userSpaceOnUse">
<stop stop-color="#01BFFB"/>
<stop offset="1" stop-color="#75DBCA"/>
</linearGradient>
<linearGradient id="paint3_linear" x1="28.7001" y1="41" x2="28.7001" y2="58.0406" gradientUnits="userSpaceOnUse">
<stop stop-color="#01BFFB"/>
<stop offset="1" stop-color="#75DBCA"/>
</linearGradient>
<linearGradient id="paint4_linear" x1="53.3004" y1="41" x2="53.3004" y2="58.0406" gradientUnits="userSpaceOnUse">
<stop stop-color="#01BFFB"/>
<stop offset="1" stop-color="#75DBCA"/>
</linearGradient>
<linearGradient id="paint5_linear" x1="41.0002" y1="12.3" x2="41.0002" y2="17.1688" gradientUnits="userSpaceOnUse">
<stop stop-color="#01BFFB"/>
<stop offset="1" stop-color="#75DBCA"/>
</linearGradient>
<clipPath id="clip0">
<rect width="82" height="82" fill="white"/>
</clipPath>
</defs>
</svg>
