<svg width="18" height="18" viewBox="0 0 18 18" fill="none" xmlns="http://www.w3.org/2000/svg">
<g clip-path="url(#clip0)">
<path d="M17.9953 8.70699C17.8443 3.97853 14.0221 0.156457 9.29374 0.00545461C6.72089 -0.0761752 4.31382 0.90313 2.5349 2.7398C0.824715 4.50546 -0.0738448 6.83317 0.00475226 9.29445C0.155628 14.0228 3.97782 17.845 8.70616 17.9959C8.8046 17.999 8.90215 18.0005 8.99995 18.0005C11.4582 18.0005 13.7542 17.0278 15.465 15.2615C17.1752 13.496 18.0739 11.1681 17.9953 8.70699ZM14.1036 13.9429C12.753 15.3373 10.9405 16.1052 8.99995 16.1052C8.92237 16.1052 8.84478 16.104 8.76656 16.1016C5.03484 15.9824 2.01833 12.9659 1.89904 9.23404C1.837 7.29034 2.54627 5.45228 3.89632 4.05851C5.24688 2.66411 7.05941 1.89621 8.99995 1.89621C9.07754 1.89621 9.15512 1.89747 9.23334 1.89987C12.9651 2.01903 15.9816 5.03554 16.1009 8.76739C16.1629 10.7111 15.4535 12.5491 14.1036 13.9429Z" fill="white"/>
<path d="M11.9517 8.47716L7.96073 5.61557C7.53502 5.31028 6.94238 5.61456 6.94238 6.13846V11.8618C6.94238 12.3857 7.53502 12.6899 7.96073 12.3847L11.9516 9.52294C12.3097 9.26629 12.3097 8.73393 11.9517 8.47716Z" fill="white"/>
</g>
<defs>
<clipPath id="clip0">
<rect width="18" height="18" fill="white"/>
</clipPath>
</defs>
</svg>
