<svg width="22" height="22" viewBox="0 0 22 22" fill="none" xmlns="http://www.w3.org/2000/svg">
<g clip-path="url(#clip0)">
<path d="M21.9952 10.642C21.8106 4.86272 17.1391 0.191307 11.36 0.00674813C8.21539 -0.0930216 5.27342 1.10391 3.09918 3.34873C1.00896 5.50675 -0.0892782 8.35173 0.00678488 11.36C0.191189 17.139 4.86276 21.8106 10.6418 21.995C10.7621 21.9989 10.8814 22.0007 11.0009 22.0007C14.0054 22.0007 16.8117 20.8118 18.9026 18.653C20.9929 16.4952 22.0913 13.65 21.9952 10.642ZM17.2387 17.0414C15.588 18.7457 13.3727 19.6842 11.0009 19.6842C10.9061 19.6842 10.8113 19.6827 10.7157 19.6798C6.15467 19.5341 2.46782 15.8473 2.32203 11.2861C2.2462 8.9105 3.11308 6.66398 4.76314 4.96049C6.41382 3.25621 8.62914 2.31767 11.0009 2.31767C11.0957 2.31767 11.1906 2.31921 11.2862 2.32215C15.8472 2.46779 19.534 6.15463 19.6798 10.7158C19.7556 13.0914 18.8886 15.3379 17.2387 17.0414Z" fill="#E0E2E4"/>
<path d="M14.6079 10.3611L9.73 6.86356C9.20968 6.49043 8.48535 6.86233 8.48535 7.50264V14.4978C8.48535 15.1381 9.20968 15.51 9.73 15.1369L14.6077 11.6392C15.0454 11.3256 15.0454 10.6749 14.6079 10.3611Z" fill="#E0E2E4"/>
</g>
<defs>
<clipPath id="clip0">
<rect width="22" height="22" fill="white"/>
</clipPath>
</defs>
</svg>
