<svg width="78" height="78" viewBox="0 0 78 78" fill="none" xmlns="http://www.w3.org/2000/svg">
<path d="M66.5695 11.4214C59.2046 4.05646 49.4115 0 38.9954 0C28.5794 0 18.7864 4.05646 11.4214 11.4214C4.05646 18.7864 0 28.5794 0 38.9954C0 49.4115 4.05646 59.2046 11.4214 66.5695C26.6617 81.8098 51.3287 81.8103 66.5695 66.5695C81.81 51.3292 81.8103 26.6621 66.5695 11.4214ZM38.9954 73.4212C20.0125 73.4212 4.5697 57.9784 4.5697 38.9954C4.5697 20.0125 20.0126 4.56986 38.9954 4.56986C57.9782 4.56986 73.4212 20.0126 73.4212 38.9954C73.4212 57.9782 57.9784 73.4212 38.9954 73.4212Z" fill="#F87979"/>
<path d="M64.3197 30.0692L50.9089 23.0713L40.6254 12.5989C39.7174 11.6717 38.2432 11.6993 37.3594 12.605L27.1551 23.0713L13.6758 30.0662C12.5346 30.6591 12.1047 32.0798 12.7329 33.2087L19.8329 45.9218L21.7294 61.3295C21.895 62.6638 23.1726 63.5713 24.4911 63.2808L39.0322 60.0668L53.4971 63.2808C54.8136 63.5733 56.0887 62.6682 56.2603 61.34L58.2314 45.9216L65.2629 33.1994C65.8825 32.0776 65.4576 30.6635 64.3197 30.0692ZM54.021 44.0938C53.8808 44.3467 53.7909 44.6225 53.7544 44.9087L52.0452 58.2769L39.5285 55.4954C39.2025 55.4223 38.866 55.4223 38.5399 55.4939L25.9579 58.2769L24.3142 44.9194C24.2777 44.6269 24.1863 44.3435 24.0415 44.0845L17.8724 33.0379L29.5878 26.9585C29.8041 26.8458 30.0006 26.6995 30.1712 26.5243L39.0016 17.467L47.9019 26.5304C48.0695 26.701 48.263 26.8442 48.4747 26.9555L60.1307 33.0379L54.021 44.0938Z" fill="#F87979"/>
<path d="M38.9146 30.313H34.0799C32.8177 30.313 31.795 31.3428 31.795 32.5984V32.6038V32.6055V32.625V49.9624C31.795 51.2243 32.818 52.2473 34.0799 52.2473C35.3417 52.2473 36.3647 51.2243 36.3647 49.9624V44.6926C37.3076 44.688 38.3235 44.6834 38.9146 44.6834C42.93 44.6834 46.1958 41.4603 46.1958 37.4983C46.1958 33.5363 42.93 30.313 38.9146 30.313ZM38.9146 40.1136C38.3251 40.1136 37.3228 40.1181 36.386 40.1227C36.3719 37.1054 36.3819 38.5723 36.3708 34.8827H38.9146C40.3846 34.8827 41.626 36.0815 41.626 37.4981C41.626 38.9163 40.3846 40.1136 38.9146 40.1136Z" fill="#F87979"/>
</svg>
