<svg width="20" height="20" viewBox="0 0 20 20" fill="none" xmlns="http://www.w3.org/2000/svg">
<g clip-path="url(#clip0)">
<path d="M14.0007 0.832341C13.7041 0.70281 13.3587 0.8382 13.2291 1.13468C13.0996 1.43117 13.2349 1.77664 13.5314 1.90617C16.749 3.31211 18.8281 6.48906 18.8283 9.99972C18.8283 13.5105 16.7491 16.6876 13.5312 18.0935C13.2346 18.223 13.0993 18.5685 13.2289 18.8651C13.3251 19.0853 13.5403 19.2166 13.7661 19.2166C13.8444 19.2166 13.9241 19.2008 14.0004 19.1673C17.6451 17.5749 20.0002 13.9764 20.0002 9.99965C20 6.0232 17.645 2.4248 14.0007 0.832341Z" fill="url(#paint0_linear)"/>
<path d="M14.1569 5.35349C13.9158 5.13767 13.5454 5.1581 13.3295 5.39919C13.1137 5.64036 13.1342 6.01075 13.3753 6.22661C14.4476 7.18653 15.0627 8.5618 15.0627 9.99981C15.0627 11.4378 14.4476 12.813 13.3753 13.773C13.1342 13.9888 13.1137 14.3593 13.3295 14.6003C13.4453 14.7297 13.6054 14.7955 13.7663 14.7955C13.9055 14.7955 14.0451 14.7462 14.1569 14.6461C15.4773 13.4642 16.2346 11.7706 16.2346 9.99977C16.2346 8.22891 15.4773 6.5354 14.1569 5.35349Z" fill="url(#paint1_linear)"/>
<path d="M10.2653 2.26003C10.0684 2.16023 9.83201 2.17968 9.65396 2.31023L5.10162 5.64855H0.586426C0.262832 5.64855 0.000488281 5.91085 0.000488281 6.23448V13.7658C0.000488281 14.0893 0.262832 14.3517 0.586426 14.3517H5.10162L9.65396 17.6901C9.75643 17.7653 9.87811 17.8035 10.0005 17.8035C10.0909 17.8035 10.1817 17.7826 10.2653 17.7402C10.4623 17.6404 10.5864 17.4384 10.5864 17.2176V2.78273C10.5864 2.56191 10.4623 2.3598 10.2653 2.26003Z" fill="url(#paint2_linear)"/>
</g>
<defs>
<linearGradient id="paint0_linear" x1="13.1797" y1="9.99988" x2="20.0002" y2="9.99988" gradientUnits="userSpaceOnUse">
<stop stop-color="#323C4C"/>
<stop offset="0.817708" stop-color="#5B6370"/>
</linearGradient>
<linearGradient id="paint1_linear" x1="13.1802" y1="9.9998" x2="16.2346" y2="9.9998" gradientUnits="userSpaceOnUse">
<stop stop-color="#323C4C"/>
<stop offset="0.817708" stop-color="#5B6370"/>
</linearGradient>
<linearGradient id="paint2_linear" x1="0.000488513" y1="10.0002" x2="10.5864" y2="10.0002" gradientUnits="userSpaceOnUse">
<stop stop-color="#323C4C"/>
<stop offset="0.817708" stop-color="#5B6370"/>
</linearGradient>
<clipPath id="clip0">
<rect width="20" height="20" fill="white" transform="translate(0.000488281)"/>
</clipPath>
</defs>
</svg>
