<svg width="16" height="16" viewBox="0 0 16 16" fill="none" xmlns="http://www.w3.org/2000/svg">
<g clip-path="url(#clip0)">
<path d="M15.0151 5.35588L6.35713 14.0119C5.86213 14.4659 5.26913 14.8019 4.62513 14.9919L0.800134 15.9519C0.585134 16.0459 0.334134 15.9999 0.167134 15.8319C0.00113368 15.6669 -0.0458663 15.4159 0.0471337 15.1999L0.347134 14.0169L1.00713 11.3769C1.19713 10.7309 1.53213 10.1369 1.98713 9.64288L10.6451 0.98688C11.4151 0.15688 12.5751 -0.18312 13.6721 0.0968796C14.7681 0.37488 15.6241 1.23088 15.9041 2.32688C16.1841 3.42288 15.8441 4.58488 15.0141 5.35688L15.0151 5.35588ZM3.39013 11.0459C3.19013 11.2859 3.03613 11.5599 2.93313 11.8559L2.53013 13.4689L4.14313 13.0639C4.43713 12.9609 4.71113 12.8059 4.95113 12.6069L11.7751 5.78488L11.7401 5.74988L10.2111 4.22288L3.39113 11.0469L3.39013 11.0459ZM13.6101 2.39088C13.1781 1.96088 12.4801 1.96088 12.0481 2.39088L11.6181 2.82288L13.1801 4.38388L13.6101 3.95388C14.0421 3.52088 14.0401 2.82088 13.6101 2.38888V2.39088Z" fill="url(#paint0_linear)"/>
</g>
<defs>
<linearGradient id="paint0_linear" x1="3.49703e-07" y1="8.0002" x2="16.0005" y2="8.0002" gradientUnits="userSpaceOnUse">
<stop stop-color="#323C4C"/>
<stop offset="0.817708" stop-color="#5B6370"/>
</linearGradient>
<clipPath id="clip0">
<rect width="16" height="16" fill="white"/>
</clipPath>
</defs>
</svg>
