<svg width="12" height="12" viewBox="0 0 12 12" fill="none" xmlns="http://www.w3.org/2000/svg">
<g clip-path="url(#clip0)">
<path d="M11.8979 5.73267L8.29808 1.73289C8.22128 1.64809 8.11409 1.6001 8.00049 1.6001H5.60062C5.44303 1.6001 5.29984 1.69289 5.23504 1.83688C5.17105 1.98168 5.19745 2.15047 5.30304 2.26726L8.66206 5.99986L5.30304 9.73166C5.19745 9.84925 5.17025 10.018 5.23504 10.162C5.29984 10.3068 5.44303 10.3996 5.60062 10.3996H8.00049C8.11409 10.3996 8.22128 10.3508 8.29808 10.2676L11.8979 6.26785C12.0347 6.11585 12.0347 5.88387 11.8979 5.73267Z" fill="#01BFFB"/>
<path d="M6.69769 5.73267L3.09788 1.73289C3.02109 1.64809 2.91389 1.6001 2.8003 1.6001H0.400428C0.242837 1.6001 0.0996444 1.69289 0.0348479 1.83688C-0.0291486 1.98168 -0.00275003 2.15047 0.102844 2.26726L3.46186 5.99986L0.102844 9.73166C-0.00275003 9.84925 -0.0299486 10.018 0.0348479 10.162C0.0996444 10.3068 0.242837 10.3996 0.400428 10.3996H2.8003C2.91389 10.3996 3.02109 10.3508 3.09788 10.2676L6.69769 6.26785C6.83448 6.11585 6.83448 5.88387 6.69769 5.73267Z" fill="#01BFFB"/>
</g>
<defs>
<clipPath id="clip0">
<rect width="12" height="12" fill="white"/>
</clipPath>
</defs>
</svg>
