<svg width="16" height="16" viewBox="0 0 16 16" fill="none" xmlns="http://www.w3.org/2000/svg">
<path d="M7.99958 11.1999C7.79458 11.1999 7.59058 11.1219 7.43358 10.9659L5.03358 8.56595C4.72058 8.25395 4.72058 7.74695 5.03358 7.43495C5.34658 7.12295 5.85258 7.12195 6.16458 7.43495L7.99858 9.26895L9.83258 7.43495C10.1446 7.12195 10.6516 7.12195 10.9636 7.43495C11.2756 7.74795 11.2766 8.25395 10.9636 8.56595L8.56358 10.9659C8.40758 11.1219 8.20258 11.1999 7.99758 11.1999H7.99958Z" fill="url(#paint0_linear)"/>
<path d="M12.8 15.2002H3.2C1.436 15.2002 0 13.7642 0 12.0002C0 11.5582 0.358 11.2002 0.8 11.2002C1.242 11.2002 1.6 11.5582 1.6 12.0002C1.6 12.8822 2.318 13.6002 3.2 13.6002H12.8C13.682 13.6002 14.4 12.8822 14.4 12.0002C14.4 11.5582 14.758 11.2002 15.2 11.2002C15.642 11.2002 16 11.5582 16 12.0002C16 13.7642 14.564 15.2002 12.8 15.2002Z" fill="url(#paint1_linear)"/>
<path d="M8.00898 9.5998C7.56698 9.5998 7.20898 9.24181 7.20898 8.7998V1.5998C7.20898 1.1578 7.56698 0.799805 8.00898 0.799805C8.45098 0.799805 8.80898 1.1578 8.80898 1.5998V8.7998C8.80898 9.24181 8.45098 9.5998 8.00898 9.5998Z" fill="url(#paint2_linear)"/>
<defs>
<linearGradient id="paint0_linear" x1="4.79883" y1="9.20007" x2="11.198" y2="9.20007" gradientUnits="userSpaceOnUse">
<stop stop-color="#5B6370"/>
<stop offset="1" stop-color="#323C4C"/>
</linearGradient>
<linearGradient id="paint1_linear" x1="3.49691e-07" y1="13.2002" x2="16" y2="13.2002" gradientUnits="userSpaceOnUse">
<stop stop-color="#5B6370"/>
<stop offset="1" stop-color="#323C4C"/>
</linearGradient>
<linearGradient id="paint2_linear" x1="7.20898" y1="5.1998" x2="8.80898" y2="5.1998" gradientUnits="userSpaceOnUse">
<stop stop-color="#5B6370"/>
<stop offset="1" stop-color="#323C4C"/>
</linearGradient>
</defs>
</svg>
