<svg width="82" height="82" viewBox="0 0 82 82" fill="none" xmlns="http://www.w3.org/2000/svg">
<path d="M77.9 0H4.1C1.83667 0.00240234 0.00240234 1.83667 0 4.1V62.8666C0.00240234 65.1299 1.83667 66.9642 4.1 66.9666H27.3334V69.7H24.4906C23.2933 69.6995 22.1557 70.2227 21.3769 71.1321L15.9288 77.489C15.2347 78.2996 15.0758 79.4399 15.5217 80.4092C15.9677 81.3786 16.937 81.9998 18.0041 82H63.9957C65.0628 81.9997 66.0321 81.3786 66.4781 80.4092C66.9242 79.4397 66.7651 78.2994 66.071 77.489L60.623 71.1321C59.8441 70.2227 58.7066 69.6995 57.5092 69.7H54.6665V66.9666H77.9C80.1633 66.9642 81.9976 65.1299 82 62.8666V4.1C81.9976 1.83667 80.1633 0.00240234 77.9 0ZM57.5094 72.4334C57.9082 72.4326 58.2873 72.6068 58.5464 72.9099L63.9957 79.2668H18.0056L23.4536 72.9099C23.7127 72.6068 24.0918 72.4326 24.4906 72.4334H27.3334V75.1668C27.3332 75.5294 27.477 75.8771 27.7335 76.1333C27.9899 76.3897 28.3376 76.5335 28.7 76.5334H53.3C53.6626 76.5335 54.0103 76.3897 54.2665 76.1333C54.523 75.8769 54.6668 75.5292 54.6666 75.1668V72.4334H57.5094ZM30.0666 73.8V66.9666H51.9332V73.8H30.0666ZM79.2666 62.8666C79.2661 63.6213 78.6545 64.2327 77.9 64.2332H4.1C3.3455 64.2327 2.73387 63.6211 2.73339 62.8666V58.7666H79.2668V62.8666H79.2666ZM79.2666 56.0334H2.73339V4.1C2.73387 3.3455 3.3455 2.73387 4.1 2.73339H77.9C78.6547 2.73387 79.2661 3.3455 79.2666 4.1V56.0334Z" fill="url(#paint0_linear)"/>
<path d="M66.9667 5.46655H54.6667C53.9118 5.46655 53.3 6.07835 53.3 6.83317C53.3 7.58798 53.912 8.19978 54.6667 8.19978H66.9667C67.7215 8.19978 68.3333 7.58798 68.3333 6.83317C68.3333 6.07835 67.7215 5.46655 66.9667 5.46655Z" fill="url(#paint1_linear)"/>
<path d="M75.1667 5.46655H72.4333C71.6784 5.46655 71.0667 6.07835 71.0667 6.83317C71.0667 7.58798 71.6786 8.19978 72.4333 8.19978H75.1667C75.9215 8.19978 76.5333 7.58798 76.5333 6.83317C76.5333 6.07835 75.9215 5.46655 75.1667 5.46655Z" fill="url(#paint2_linear)"/>
<path d="M58.7666 28.0509V20.5C58.7647 18.9912 57.5421 17.7687 56.0332 17.7667H43.05L39.7655 13.3891C39.2473 12.7062 38.4407 12.3036 37.5834 12.3H25.9668C24.458 12.302 23.2355 13.5246 23.2334 15.0334V41C23.2353 42.5089 24.458 43.7313 25.9668 43.7334H43.0843C44.9905 49.1333 50.3728 52.5013 56.0625 51.855C61.7523 51.2086 66.2419 46.7189 66.8883 41.0292C67.5345 35.3395 64.1664 29.9571 58.7666 28.0509ZM25.9666 15.0334H37.5832L39.6336 17.7668H25.9666V15.0334ZM42.4473 41H25.9666V20.5H56.0332V27.414C52.315 26.9856 48.6047 28.2785 45.9583 30.9251C43.3119 33.5717 42.0188 37.2819 42.4473 41ZM54.6666 49.2C49.3831 49.2 45.1 44.9168 45.1 39.6334C45.1 34.35 49.3832 30.0668 54.6666 30.0668C59.9475 30.0732 64.2268 34.3526 64.2332 39.6334C64.2334 44.9168 59.9502 49.2 54.6666 49.2Z" fill="url(#paint3_linear)"/>
<path d="M59.5184 34.4057C58.8942 33.9895 58.0511 34.1544 57.6296 34.7752L53.0879 41.5886L51.5329 40.0338C50.9978 39.5083 50.1394 39.5123 49.6091 40.0424C49.0788 40.5725 49.075 41.4311 49.6005 41.9662L52.3338 44.6996C52.5901 44.9559 52.9376 45.1 53.3001 45.1C53.3441 45.1 53.3894 45.0973 53.4349 45.0933C53.8424 45.0529 54.2101 44.8319 54.4372 44.4914L59.9038 36.2914C60.3147 35.6636 60.1427 34.822 59.5184 34.4057Z" fill="url(#paint4_linear)"/>
<defs>
<linearGradient id="paint0_linear" x1="41" y1="1.84955e-06" x2="41" y2="48.6875" gradientUnits="userSpaceOnUse">
<stop stop-color="#01BFFB"/>
<stop offset="1" stop-color="#75DBCA"/>
</linearGradient>
<linearGradient id="paint1_linear" x1="60.8167" y1="5.46655" x2="60.8167" y2="7.08941" gradientUnits="userSpaceOnUse">
<stop stop-color="#01BFFB"/>
<stop offset="1" stop-color="#75DBCA"/>
</linearGradient>
<linearGradient id="paint2_linear" x1="73.8" y1="5.46655" x2="73.8" y2="7.08941" gradientUnits="userSpaceOnUse">
<stop stop-color="#01BFFB"/>
<stop offset="1" stop-color="#75DBCA"/>
</linearGradient>
<linearGradient id="paint3_linear" x1="45.1004" y1="12.3" x2="45.1004" y2="35.8328" gradientUnits="userSpaceOnUse">
<stop stop-color="#01BFFB"/>
<stop offset="1" stop-color="#75DBCA"/>
</linearGradient>
<linearGradient id="paint4_linear" x1="54.668" y1="34.176" x2="54.668" y2="40.6621" gradientUnits="userSpaceOnUse">
<stop stop-color="#01BFFB"/>
<stop offset="1" stop-color="#75DBCA"/>
</linearGradient>
</defs>
</svg>
