<svg width="18" height="18" viewBox="0 0 18 18" fill="none" xmlns="http://www.w3.org/2000/svg">
<g clip-path="url(#clip0)">
<path d="M15.3632 2.63698C11.8468 -0.87938 6.15494 -0.879908 2.63809 2.63698C-0.878266 6.15334 -0.878794 11.8452 2.63809 15.362C6.15445 18.8784 11.8463 18.8789 15.3632 15.362C18.8795 11.8457 18.88 6.15386 15.3632 2.63698ZM9.0006 16.5193C4.85416 16.5193 1.48077 13.1459 1.48077 8.99949C1.48077 4.85305 4.85416 1.47969 9.0006 1.47969C13.147 1.47969 16.5204 4.85309 16.5204 8.99953C16.5204 13.146 13.147 16.5193 9.0006 16.5193Z" fill="white"/>
<path d="M10.5015 5.63281C10.0933 5.63281 9.76245 5.96371 9.76245 6.37189V11.6275C9.76245 12.0357 10.0933 12.3666 10.5015 12.3666C10.9097 12.3666 11.2406 12.0357 11.2406 11.6275V6.37189C11.2406 5.96371 10.9098 5.63281 10.5015 5.63281Z" fill="white"/>
<path d="M7.49837 5.63281C7.09019 5.63281 6.75929 5.96371 6.75929 6.37189V11.6275C6.75929 12.0357 7.09019 12.3666 7.49837 12.3666C7.90655 12.3666 8.23744 12.0357 8.23744 11.6275V6.37189C8.23744 5.96371 7.90658 5.63281 7.49837 5.63281Z" fill="white"/>
</g>
<defs>
<clipPath id="clip0">
<rect width="18" height="18" fill="white"/>
</clipPath>
</defs>
</svg>
