<svg width="12" height="12" viewBox="0 0 12 12" fill="none" xmlns="http://www.w3.org/2000/svg">
<path d="M5.54336 0.0136719C5.48008 0.0183592 5.2832 0.0441399 5.10977 0.0699215C3.4457 0.316015 1.95039 1.26758 1.00352 2.6832C0.530078 3.39102 0.206641 4.23242 0.0660156 5.1207C-0.00898437 5.5918 -0.00898437 6.40742 0.0660156 6.87852C0.335547 8.58711 1.26367 10.0473 2.68398 10.9965C3.3918 11.4699 4.2332 11.7934 5.12148 11.934C5.59258 12.009 6.4082 12.009 6.8793 11.934C7.54492 11.8285 8.0793 11.6598 8.66992 11.3645C9.84414 10.7832 10.784 9.84336 11.3652 8.66914C11.6605 8.07852 11.8293 7.54414 11.9348 6.87852C12.0098 6.40742 12.0098 5.5918 11.9348 5.1207C11.6652 3.41211 10.7371 1.95195 9.3168 1.00273C8.61602 0.533984 7.76523 0.205859 6.90273 0.0699215C6.60508 0.0230465 5.82695 -0.00976562 5.54336 0.0136719ZM6.30742 2.07383C6.59805 2.17695 6.8207 2.43945 6.92617 2.80039C7.01523 3.10508 6.95898 3.87148 6.78555 4.7457C6.64492 5.45117 6.34727 6.59961 6.25586 6.77539C6.13164 7.02148 5.86914 7.02148 5.74492 6.77539C5.62305 6.54102 5.28086 5.14883 5.14492 4.34727C5.0418 3.72852 5.01133 3.10742 5.07461 2.84023C5.17305 2.4207 5.46367 2.11602 5.83633 2.04102C5.96055 2.01523 6.18555 2.03164 6.30742 2.07383ZM6.36367 8.2543C6.59102 8.37383 6.7293 8.57305 6.77383 8.84492C6.83945 9.25742 6.64258 9.6418 6.2957 9.7707C6.11758 9.83633 5.8832 9.83633 5.70273 9.7707C5.36523 9.64414 5.15664 9.24336 5.22695 8.85195C5.26445 8.6457 5.32539 8.52383 5.4543 8.39492C5.6207 8.22852 5.76602 8.17695 6.03555 8.18633C6.20664 8.19336 6.26758 8.20508 6.36367 8.2543Z" fill="#F87979"/>
</svg>
