<svg width="12" height="12" viewBox="0 0 12 12" fill="none" xmlns="http://www.w3.org/2000/svg">
<path d="M9.48036 1.46723L10.0616 1.39457C10.3218 1.36176 10.5069 1.12504 10.4765 0.862542C10.446 0.621136 10.2491 0.424261 9.94442 0.447698L8.19598 0.665667C7.93583 0.698479 7.75067 0.935198 7.78114 1.19535L7.99677 2.96723C8.02958 3.22739 8.2663 3.41489 8.52645 3.38207C8.78661 3.34926 8.97411 3.11254 8.9413 2.85004L8.86161 2.19145C10.5046 3.4102 11.1866 5.52426 10.5561 7.48129C9.92567 9.43832 8.07411 10.7813 6.02802 10.786C5.72567 10.786 5.53348 10.9875 5.52645 11.25C5.52177 11.5125 5.70927 11.7375 6.02802 11.7375C8.48427 11.7375 10.7085 10.1227 11.4632 7.77192C12.2132 5.44926 11.4163 2.93442 9.48036 1.46723Z" fill="white"/>
<path d="M4.00071 9.03032C3.9679 8.77017 3.73118 8.58267 3.47102 8.61548C3.21087 8.64829 3.02337 8.88501 3.05618 9.14751L3.13587 9.80611C1.4929 8.58736 0.810867 6.47329 1.44134 4.51626C2.0718 2.55923 3.92337 1.21626 5.96946 1.21157C6.2718 1.21157 6.46399 1.01001 6.47102 0.747512C6.47571 0.485012 6.28821 0.260012 5.96946 0.260012C3.51555 0.257669 1.29134 1.87251 0.536648 4.22329C-0.213352 6.55064 0.583523 9.06548 2.51946 10.5327L1.93821 10.6053C1.67805 10.6381 1.4929 10.8749 1.52337 11.1374C1.55384 11.3788 1.75071 11.5756 2.0554 11.5522L3.80384 11.3342C4.06399 11.3014 4.24915 11.0647 4.21868 10.8045L4.00071 9.03032Z" fill="white"/>
</svg>
