<svg width="18" height="18" viewBox="0 0 18 18" fill="none" xmlns="http://www.w3.org/2000/svg">
<path d="M16.2597 0.0879097C16.105 0.133614 12.5648 1.31135 8.39528 2.70354C2.53122 4.65822 0.762863 5.26291 0.601144 5.36135C-0.168778 5.82893 -0.140653 6.66565 0.66091 7.1508C0.769894 7.21408 1.7156 7.67463 2.75974 8.17385C3.80388 8.66955 4.66872 9.08791 4.6863 9.10197C4.70036 9.11604 4.33122 10.0688 3.86364 11.2184C3.39958 12.368 2.99177 13.384 2.96013 13.4824C2.87224 13.7567 2.88278 14.2488 2.98122 14.4668C3.20974 14.966 3.72654 15.1981 4.33122 15.0715C4.507 15.0363 5.33318 14.7199 6.73591 14.1539C7.91013 13.6758 8.88396 13.2996 8.89802 13.3137C8.91208 13.3313 9.33044 14.1961 9.82614 15.2403C10.3254 16.2844 10.7859 17.2301 10.8492 17.3391C11.3554 18.1793 12.2695 18.1547 12.6984 17.2934C12.7511 17.1879 13.9605 13.6055 15.3879 9.33401L17.9789 1.56447L17.9929 1.18479C18.0035 0.878925 17.9965 0.773457 17.9472 0.639864C17.8629 0.425409 17.6379 0.182833 17.4199 0.0843945C17.1703 -0.0351372 16.657 -0.0316219 16.2597 0.0879097ZM11.823 5.42111L7.70622 9.53791L7.44607 9.34455C7.09099 9.07033 7.06286 9.05627 3.99021 7.59377C2.482 6.87307 1.23396 6.27541 1.21989 6.25783C1.20232 6.24377 1.25857 6.2051 1.34294 6.17346C1.48708 6.11721 15.8906 1.30783 15.9258 1.30432C15.9363 1.3008 14.0906 3.15354 11.823 5.42111ZM14.2558 9.38322C12.9164 13.4016 11.8054 16.7203 11.7843 16.7555C11.7527 16.8117 11.7211 16.7696 11.5734 16.4531C10.9793 15.191 9.08083 11.2289 8.97536 11.0391C8.90857 10.9125 8.76443 10.6946 8.65544 10.5539L8.46208 10.2938L12.5718 6.184C14.8324 3.92346 16.6851 2.07424 16.6886 2.07424C16.6922 2.07424 15.5988 5.36135 14.2558 9.38322ZM6.28239 9.85783C6.83435 10.1356 7.46364 10.684 7.8363 11.2149C7.98747 11.4258 8.45154 12.3047 8.42693 12.3258C8.37068 12.3785 4.20114 14.0309 4.08513 14.0485L3.92693 14.0731L3.95153 13.9184C3.96208 13.834 4.35583 12.8215 4.82341 11.6684L5.67068 9.56955L5.86052 9.65393C5.96247 9.69963 6.15232 9.79104 6.28239 9.85783Z" fill="white"/>
</svg>
