<svg width="17" height="16" viewBox="0 0 17 16" fill="none" xmlns="http://www.w3.org/2000/svg">
<g clip-path="url(#clip0)">
<path d="M16.2793 9.12801L9.58752 12.785C9.34902 12.915 9.07872 12.985 8.80524 12.985C8.57522 12.985 8.34944 12.932 8.15016 12.827C7.71132 12.587 7.44738 12.141 7.46328 11.663V9.88701L2.16326 12.782C1.92476 12.912 1.65445 12.982 1.38097 12.982C1.15201 12.982 0.925171 12.929 0.726951 12.824C0.287049 12.584 0.0231079 12.138 0.0379479 11.66V4.32001C0.0241679 3.84401 0.287049 3.39701 0.726951 3.15801C1.17851 2.93201 1.72547 2.94801 2.1622 3.20401L7.46222 6.09801V4.32001C7.44738 3.84401 7.71026 3.39701 8.1491 3.15801C8.60172 2.93201 9.14868 2.94801 9.58541 3.20401L16.2793 6.86001C16.7351 7.07301 17.0245 7.51301 17.0245 7.99401C17.0245 8.47501 16.7351 8.91401 16.2783 9.12801H16.2793Z" fill="#01BFFB"/>
</g>
<defs>
<clipPath id="clip0">
<rect width="16.9601" height="16" fill="white" transform="translate(0.0400391)"/>
</clipPath>
</defs>
</svg>
