<svg width="18" height="18" viewBox="0 0 18 18" fill="none" xmlns="http://www.w3.org/2000/svg">
<path d="M8.17471 0.0351315C6.43799 0.20388 4.83486 0.843725 3.42861 1.92654C2.74307 2.45388 1.85361 3.44529 1.34033 4.25388C1.11885 4.60193 0.686426 5.48787 0.531738 5.90974C0.359473 6.38083 0.173145 7.10505 0.0817383 7.66404C-0.0272461 8.34958 -0.0272461 9.65037 0.0817383 10.3359C0.239941 11.3062 0.489551 12.0867 0.914941 12.9551C1.379 13.9008 1.86064 14.5722 2.63408 15.3492C3.41104 16.1226 4.08252 16.6043 5.02822 17.0683C5.89658 17.4937 6.67705 17.7433 7.64736 17.9015C8.33291 18.0105 9.63369 18.0105 10.3192 17.9015C11.2896 17.7433 12.07 17.4937 12.9384 17.0683C13.8841 16.6043 14.5556 16.1226 15.3325 15.3492C16.106 14.5722 16.5876 13.9008 17.0517 12.9551C17.361 12.3258 17.5157 11.9144 17.6845 11.2816C17.906 10.4379 17.9587 9.97732 17.9587 8.99998C17.9587 8.02263 17.906 7.56208 17.6845 6.71833C17.5157 6.08552 17.361 5.67419 17.0517 5.0449C16.5876 4.09919 16.106 3.42771 15.3325 2.65076C14.5556 1.87732 13.8841 1.39568 12.9384 0.931616C12.0735 0.506226 11.272 0.253099 10.3368 0.105444C9.82002 0.0245838 8.66689 -0.0140877 8.17471 0.0351315ZM9.79189 2.02146C11.0505 2.16912 12.2282 2.64724 13.2548 3.42419C13.6169 3.6949 14.2884 4.36638 14.5591 4.72849C16.1692 6.85544 16.461 9.61872 15.329 12.0129C15.1427 12.4101 14.8474 12.8953 14.5591 13.2715C14.2884 13.6336 13.6169 14.3051 13.2548 14.5758C11.1278 16.1859 8.36455 16.4777 5.97041 15.3457C5.24971 15.0047 4.63096 14.5617 4.02627 13.957C3.07705 13.0113 2.47939 11.9531 2.15947 10.6699C1.64971 8.61326 2.10322 6.45115 3.40752 4.72849C3.67822 4.36638 4.34971 3.6949 4.71182 3.42419C6.18838 2.30622 7.99189 1.80701 9.79189 2.02146Z" fill="#C4CFDB"/>
<path d="M8.8252 4.50352C8.61074 4.55626 8.43496 4.69688 8.33301 4.89727L8.24512 5.07657V7.25626C8.24512 8.71876 8.25918 9.48516 8.28379 9.58008C8.31543 9.69962 8.55449 9.95274 9.8377 11.243C10.6744 12.0832 11.4127 12.7969 11.4795 12.8285C11.9893 13.0887 12.6045 12.7266 12.6045 12.1641C12.6045 11.8723 12.5904 11.8582 11.142 10.4063L9.75684 9.01758V7.04883C9.75684 5.21368 9.7498 5.06954 9.69004 4.93946C9.53535 4.59844 9.18379 4.42266 8.8252 4.50352Z" fill="#C4CFDB"/>
</svg>
