<svg width="82" height="83" viewBox="0 0 82 83" fill="none" xmlns="http://www.w3.org/2000/svg">
<path d="M38.7974 4.11898C34.8095 4.74359 31.206 7.03382 28.9638 10.3491C28.2111 11.4541 2.10563 56.6823 1.44899 58.0116C-0.825232 62.56 -0.39281 68.1975 2.53805 72.5217C4.50797 75.4366 7.51891 77.5506 11.0103 78.4635L12.3716 78.8319H40.7193C71.117 78.8319 69.8677 78.8639 72.222 78.0311C74.3841 77.2623 75.8736 76.3014 77.5392 74.6518C78.8525 73.3385 79.6853 72.1534 80.5341 70.3756C81.5431 68.2455 81.8474 66.8682 81.8474 64.2576C81.8474 61.6471 81.5431 60.2698 80.5341 58.1557C79.9416 56.9225 54.8291 13.2959 53.3076 10.8616C51.7861 8.41117 48.9353 5.94476 46.613 5.07992C44.1787 4.16703 41.0236 3.78265 38.7974 4.11898ZM42.2408 10.7014C44.1627 11.0057 46.0845 12.1268 47.1736 13.6002C47.8943 14.5612 73.9037 59.5651 74.6084 61.0545C75.7134 63.3768 75.4572 66.3237 73.9517 68.6459C72.7345 70.5518 70.5884 71.8811 68.2662 72.1854C67.4013 72.2975 58.2724 72.3455 40.0787 72.3135L13.1724 72.2655L12.0994 71.8971C7.67906 70.4076 5.38883 65.3948 7.23063 61.2467C7.55094 60.51 33.224 15.9545 34.3611 14.1287C35.6263 12.1108 38.2529 10.6534 40.7994 10.5412C41.0236 10.5412 41.6642 10.6053 42.2408 10.7014Z" fill="#F6CC54"/>
<path d="M39.9353 27.1018C38.59 27.4541 37.565 28.4151 36.9403 29.9045C36.6521 30.6413 36.6681 31.6663 37.1005 38.7932C37.2927 42.0444 37.5489 46.2405 37.661 48.0983C37.9013 52.1663 38.0614 52.5987 39.5028 53.3194C40.4958 53.8319 41.1845 53.8799 42.0493 53.5116C43.4267 52.935 44.1634 51.6217 44.1634 49.7799C44.1474 49.2834 44.3876 44.8311 44.6759 39.8823C45.2525 29.9686 45.2525 30.0487 44.3075 28.6873C43.4107 27.3741 41.5368 26.7014 39.9353 27.1018Z" fill="#F6CC54"/>
<path d="M39.8389 56.7945C37.901 57.4191 36.6838 59.1648 36.8279 61.0867C37.0041 63.393 38.6697 64.9625 40.944 64.9785C42.5776 64.9785 43.9229 64.1457 44.6756 62.6723C45.092 61.8715 45.1401 60.0617 44.7717 59.1969C44.4194 58.3961 43.5865 57.4832 42.8178 57.0988C42.1131 56.7465 40.4955 56.5703 39.8389 56.7945Z" fill="#F6CC54"/>
</svg>
