<svg width="50" height="50" viewBox="0 0 50 50" fill="none" xmlns="http://www.w3.org/2000/svg">
<path d="M6.53433 25.0002C6.53411 22.5167 7.03484 20.0587 8.00657 17.7733C8.97829 15.4878 10.401 13.4218 12.1897 11.6989C13.9784 9.97605 16.0962 8.63167 18.4164 7.74621C20.7367 6.86076 23.2117 6.45243 25.6934 6.54565C25.973 6.55591 26.2519 6.511 26.5142 6.41347C26.7765 6.31594 27.0169 6.16772 27.2219 5.97725C27.4269 5.78678 27.5924 5.55781 27.7088 5.3034C27.8253 5.049 27.8906 4.77414 27.9008 4.49452C27.9111 4.2149 27.8662 3.936 27.7686 3.67374C27.6711 3.41148 27.5229 3.171 27.3324 2.96602C27.1419 2.76105 26.913 2.59559 26.6586 2.47911C26.4042 2.36262 26.1293 2.29739 25.8497 2.28713C21.719 2.13379 17.6248 3.10986 14.0076 5.11027C10.3904 7.11069 7.38729 10.0597 5.32142 13.6399C3.25555 17.2201 2.20518 21.2959 2.28336 25.4287C2.36155 29.5614 3.56533 33.5946 5.76514 37.0941C7.96495 40.5936 11.0775 43.4269 14.7677 45.289C18.458 47.1512 22.5862 47.9717 26.7081 47.6623C30.83 47.3528 34.7894 45.9251 38.1603 43.5328C41.5311 41.1405 44.1857 37.8742 45.8383 34.0854C46.0644 33.5674 46.0754 32.9808 45.8689 32.4547C45.6625 31.9286 45.2555 31.5061 44.7375 31.28C44.2195 31.054 43.6329 31.043 43.1068 31.2494C42.5807 31.4559 42.1581 31.8629 41.9321 32.3809C41.7399 32.8175 41.5314 33.2468 41.3071 33.6678C39.3734 37.3069 36.2781 40.1945 32.5138 41.8713C28.7495 43.548 24.5325 43.9174 20.534 42.9207C16.5355 41.9241 12.9853 39.6185 10.4484 36.3711C7.91146 33.1237 6.53369 29.1211 6.53433 25.0002ZM32.7446 5.78997C33.0089 5.29108 33.4605 4.91752 34.0001 4.75133C34.5397 4.58514 35.1232 4.63991 35.6224 4.90361C36.1252 5.17065 36.6167 5.45475 37.094 5.75588C37.3309 5.90492 37.5361 6.09917 37.698 6.32753C37.8598 6.55588 37.9751 6.81388 38.0372 7.08678C38.0993 7.35968 38.1071 7.64215 38.06 7.91806C38.013 8.19396 37.9121 8.4579 37.763 8.6948C37.614 8.9317 37.4197 9.13693 37.1914 9.29876C36.963 9.46059 36.705 9.57586 36.4321 9.63799C36.1592 9.70012 35.8768 9.70788 35.6009 9.66084C35.3249 9.6138 35.061 9.51288 34.8241 9.36384C34.4351 9.11802 34.0371 8.8868 33.6309 8.67065C33.3835 8.53976 33.1644 8.3614 32.9859 8.14577C32.8075 7.93014 32.6732 7.68146 32.5909 7.41395C32.5086 7.14643 32.4798 6.86532 32.5062 6.58668C32.5325 6.30803 32.6135 6.03731 32.7446 5.78997ZM41.3071 12.2388C41.7852 11.938 42.3632 11.8393 42.914 11.9645C43.4649 12.0897 43.9435 12.4285 44.2446 12.9065C44.5457 13.3837 44.8298 13.8724 45.0968 14.378C45.2278 14.6254 45.3087 14.8961 45.3351 15.1747C45.3614 15.4534 45.3326 15.7345 45.2503 16.002C45.168 16.2695 45.0338 16.5181 44.8554 16.7338C44.677 16.9494 44.4578 17.1278 44.2105 17.2587C43.9631 17.3897 43.6924 17.4706 43.4138 17.4969C43.1351 17.5233 42.8541 17.4945 42.5866 17.4122C42.3191 17.3298 42.0704 17.1957 41.8548 17.0172C41.6391 16.8388 41.4607 16.6197 41.3298 16.3724C41.1148 15.9652 40.8845 15.5662 40.6395 15.1763C40.3386 14.6982 40.2399 14.1202 40.3651 13.5694C40.4903 13.0185 40.8291 12.5399 41.3071 12.2388ZM45.5031 22.0996C45.7827 22.0894 46.0616 22.1343 46.3239 22.2318C46.5861 22.3293 46.8266 22.4776 47.0316 22.668C47.2366 22.8585 47.402 23.0875 47.5185 23.3419C47.635 23.5963 47.7002 23.8712 47.7105 24.1508C47.7303 24.6733 47.7322 25.1963 47.7162 25.719C47.6984 26.284 47.457 26.819 47.0449 27.206C46.6328 27.5931 46.0838 27.8006 45.5187 27.7829C44.9536 27.7652 44.4187 27.5237 44.0316 27.1116C43.6446 26.6995 43.4371 26.1505 43.4548 25.5854C43.4691 25.1594 43.4691 24.733 43.4548 24.307C43.4341 23.7428 43.6381 23.1934 44.0222 22.7795C44.4062 22.3656 44.9389 22.1211 45.5031 22.0996Z" fill="url(#paint0_linear_16282_103791)" stroke="url(#paint1_linear_16282_103791)" stroke-width="0.6"/>
<path d="M24.2899 10.7959C24.855 10.7959 25.3969 11.0204 25.7965 11.42C26.1961 11.8195 26.4205 12.3615 26.4205 12.9266V23.6823L32.3438 26.6453C32.5964 26.769 32.822 26.9414 33.0076 27.1526C33.1932 27.3639 33.3351 27.6098 33.4253 27.8761C33.5154 28.1425 33.5519 28.4241 33.5327 28.7046C33.5134 28.9852 33.4389 29.2591 33.3133 29.5107C33.1877 29.7623 33.0135 29.9865 32.8008 30.1705C32.5881 30.3544 32.3411 30.4945 32.0741 30.5825C31.807 30.6706 31.5252 30.7049 31.2448 30.6835C30.9644 30.6621 30.691 30.5854 30.4404 30.4578L23.3382 26.9067C22.9839 26.7299 22.686 26.4578 22.4778 26.1211C22.2695 25.7844 22.1592 25.3963 22.1592 25.0004V12.9266C22.1592 12.3615 22.3837 11.8195 22.7832 11.42C23.1828 11.0204 23.7248 10.7959 24.2899 10.7959Z" fill="url(#paint2_linear_16282_103791)" stroke="url(#paint3_linear_16282_103791)" stroke-width="0.6"/>
<defs>
<linearGradient id="paint0_linear_16282_103791" x1="4.39241" y1="21.7787" x2="43.7277" y2="22.4945" gradientUnits="userSpaceOnUse">
<stop stop-color="#222166"/>
<stop offset="1" stop-color="#812448"/>
</linearGradient>
<linearGradient id="paint1_linear_16282_103791" x1="4.39241" y1="21.7787" x2="43.7277" y2="22.4945" gradientUnits="userSpaceOnUse">
<stop stop-color="#222166"/>
<stop offset="1" stop-color="#812448"/>
</linearGradient>
<linearGradient id="paint2_linear_16282_103791" x1="22.6882" y1="19.3335" x2="32.5386" y2="19.436" gradientUnits="userSpaceOnUse">
<stop stop-color="#222166"/>
<stop offset="1" stop-color="#812448"/>
</linearGradient>
<linearGradient id="paint3_linear_16282_103791" x1="22.6882" y1="19.3335" x2="32.5386" y2="19.436" gradientUnits="userSpaceOnUse">
<stop stop-color="#222166"/>
<stop offset="1" stop-color="#812448"/>
</linearGradient>
</defs>
</svg>
