<svg width="50" height="50" viewBox="0 0 50 50" fill="none" xmlns="http://www.w3.org/2000/svg">
<path d="M8.5 47.9375C3.8125 47.9375 0 44.125 0 39.4375C0 34.75 3.8125 30.9375 8.5 30.9375C13.1844 30.9375 17 34.75 17 39.4375C17 44.125 13.1875 47.9375 8.5 47.9375ZM8.5 35.9344C6.56875 35.9344 5 37.5031 5 39.4344C5 41.3656 6.56875 42.9344 8.5 42.9344C10.4281 42.9344 12 41.3625 12 39.4344C12 37.5063 10.4312 35.9344 8.5 35.9344Z" fill="url(#paint0_linear_16282_103788)"/>
<path d="M41.5 47.9375C36.8156 47.9375 33 44.125 33 39.4375C33 34.75 36.8125 30.9375 41.5 30.9375C46.1875 30.9375 50 34.75 50 39.4375C50 44.125 46.1875 47.9375 41.5 47.9375ZM41.5 35.9344C39.5719 35.9344 38 37.5031 38 39.4344C38 41.3656 39.5687 42.9344 41.5 42.9344C43.4312 42.9344 45 41.3625 45 39.4344C45 37.5063 43.4312 35.9344 41.5 35.9344Z" fill="url(#paint1_linear_16282_103788)"/>
<path d="M24.9971 25.4375C24.5721 25.4375 24.144 25.3313 23.7502 25.1032C22.5534 24.4125 22.144 22.8844 22.8346 21.6875L33.4409 3.31566C34.1315 2.11878 35.6627 1.70941 36.8565 2.40003C38.0502 3.09066 38.4627 4.61878 37.7721 5.81566L27.1659 24.1875C26.7034 24.9907 25.8627 25.4375 24.9971 25.4375Z" fill="url(#paint2_linear_16282_103788)"/>
<path d="M14.3907 43.8063C13.9657 43.8063 13.5375 43.7 13.1438 43.4719C11.9469 42.7813 11.5375 41.2531 12.2282 40.0563L22.8344 21.6844C23.525 20.4875 25.0563 20.0813 26.25 20.7688C27.4438 21.4563 27.8563 22.9875 27.1657 24.1844L16.5594 42.5563C16.0969 43.3594 15.2563 43.8063 14.3907 43.8063Z" fill="url(#paint3_linear_16282_103788)"/>
<path d="M21.4686 19.3125C20.603 19.3125 19.7655 18.8657 19.2998 18.0625L12.2311 5.81566C11.5405 4.61878 11.9498 3.09066 13.1467 2.40003C14.3373 1.70941 15.8686 2.11878 16.5623 3.31566L23.6311 15.5625C24.3217 16.7594 23.9123 18.2875 22.7155 18.9782C22.3217 19.2063 21.8936 19.3125 21.4686 19.3125Z" fill="url(#paint4_linear_16282_103788)"/>
<path d="M35.6094 43.8063C34.7438 43.8063 33.9063 43.3594 33.4407 42.5563L26.3688 30.3094C25.6782 29.1125 26.0875 27.5844 27.2844 26.8938C28.475 26.2063 30.0063 26.6125 30.7 27.8094L37.7688 40.0563C38.4594 41.2531 38.05 42.7813 36.8532 43.4719C36.4594 43.7 36.0313 43.8063 35.6063 43.8063H35.6094Z" fill="url(#paint5_linear_16282_103788)"/>
<defs>
<linearGradient id="paint0_linear_16282_103788" x1="0.790423" y1="38.2332" x2="15.504" y2="38.501" gradientUnits="userSpaceOnUse">
<stop stop-color="#222166"/>
<stop offset="1" stop-color="#812448"/>
</linearGradient>
<linearGradient id="paint1_linear_16282_103788" x1="33.7904" y1="38.2332" x2="48.504" y2="38.501" gradientUnits="userSpaceOnUse">
<stop stop-color="#222166"/>
<stop offset="1" stop-color="#812448"/>
</linearGradient>
<linearGradient id="paint2_linear_16282_103788" x1="23.2247" y1="12.0952" x2="36.736" y2="12.2594" gradientUnits="userSpaceOnUse">
<stop stop-color="#222166"/>
<stop offset="1" stop-color="#812448"/>
</linearGradient>
<linearGradient id="paint3_linear_16282_103788" x1="12.6183" y1="30.4647" x2="26.1296" y2="30.629" gradientUnits="userSpaceOnUse">
<stop stop-color="#222166"/>
<stop offset="1" stop-color="#812448"/>
</linearGradient>
<linearGradient id="paint4_linear_16282_103788" x1="12.4568" y1="9.46661" x2="22.9062" y2="9.59972" gradientUnits="userSpaceOnUse">
<stop stop-color="#222166"/>
<stop offset="1" stop-color="#812448"/>
</linearGradient>
<linearGradient id="paint5_linear_16282_103788" x1="26.5945" y1="33.9611" x2="37.0439" y2="34.0943" gradientUnits="userSpaceOnUse">
<stop stop-color="#222166"/>
<stop offset="1" stop-color="#812448"/>
</linearGradient>
</defs>
</svg>
