<svg width="50" height="50" viewBox="0 0 50 50" fill="none" xmlns="http://www.w3.org/2000/svg">
<path d="M25.0004 35.0002C24.3598 35.0002 23.7223 34.7564 23.2316 34.2689L15.7316 26.7689C14.7535 25.7939 14.7535 24.2096 15.7316 23.2346C16.7098 22.2596 18.291 22.2564 19.266 23.2346L24.9973 28.9658L30.7285 23.2346C31.7035 22.2564 33.2879 22.2564 34.2629 23.2346C35.2379 24.2127 35.241 25.7939 34.2629 26.7689L26.7629 34.2689C26.2754 34.7564 25.6348 35.0002 24.9941 35.0002H25.0004Z" fill="url(#paint0_linear_16282_103790)"/>
<path d="M40 47.5H10C4.4875 47.5 0 43.0125 0 37.5C0 36.1188 1.11875 35 2.5 35C3.88125 35 5 36.1188 5 37.5C5 40.2563 7.24375 42.5 10 42.5H40C42.7563 42.5 45 40.2563 45 37.5C45 36.1188 46.1187 35 47.5 35C48.8812 35 50 36.1188 50 37.5C50 43.0125 45.5125 47.5 40 47.5Z" fill="url(#paint1_linear_16282_103790)"/>
<path d="M25.0283 30C23.6471 30 22.5283 28.8813 22.5283 27.5V5C22.5283 3.61875 23.6471 2.5 25.0283 2.5C26.4096 2.5 27.5283 3.61875 27.5283 5V27.5C27.5283 28.8813 26.4096 30 25.0283 30Z" fill="url(#paint2_linear_16282_103790)"/>
<defs>
<linearGradient id="paint0_linear_16282_103790" x1="15.9278" y1="27.8651" x2="33.2267" y2="28.3689" gradientUnits="userSpaceOnUse">
<stop stop-color="#222166"/>
<stop offset="1" stop-color="#812448"/>
</linearGradient>
<linearGradient id="paint1_linear_16282_103790" x1="2.32477" y1="40.3645" x2="45.3862" y2="43.4997" gradientUnits="userSpaceOnUse">
<stop stop-color="#222166"/>
<stop offset="1" stop-color="#812448"/>
</linearGradient>
<linearGradient id="paint2_linear_16282_103790" x1="22.7608" y1="14.3018" x2="27.0897" y2="14.3162" gradientUnits="userSpaceOnUse">
<stop stop-color="#222166"/>
<stop offset="1" stop-color="#812448"/>
</linearGradient>
</defs>
</svg>
