<svg width="50" height="50" viewBox="0 0 50 50" fill="none" xmlns="http://www.w3.org/2000/svg">
<g clip-path="url(#clip0_16282_103789)">
<path d="M43.7347 7.89336L37.541 1.69961C35.2722 -0.569141 31.5847 -0.569141 29.3191 1.69961L22.6191 8.39961L8.67536 22.309C8.10036 22.9184 7.18786 23.8309 4.68161 34.7965C4.30973 36.4871 4.81598 38.2152 6.00036 39.3996C6.94723 40.3465 8.20036 40.8559 9.48473 40.8559C9.85661 40.8559 10.2285 40.8215 10.6004 40.7215C21.5972 38.2527 22.5129 37.3371 23.1222 36.7277L43.7316 16.1184C46.0004 13.8496 46.0004 10.1621 43.7316 7.89648L43.7347 7.89336ZM19.6754 32.9684C19.2347 33.1715 17.2722 34.0184 9.65973 35.9465C11.4191 28.1621 12.2316 26.1996 12.4691 25.759L24.416 13.7809L31.6254 21.0215L19.6785 32.9684H19.6754ZM40.116 12.5309L35.2441 17.4371L28.0035 10.1965L32.9097 5.29023C33.1816 5.01836 33.6535 5.01836 33.9597 5.29023L40.1191 11.484C40.391 11.7559 40.391 12.2277 40.1191 12.534L40.116 12.5309Z" fill="url(#paint0_linear_16282_103789)"/>
<path d="M27.5186 50.0004H7.11543C5.70605 50.0004 4.56543 48.8598 4.56543 47.4504C4.56543 46.041 5.70605 44.9004 7.11543 44.9004H27.5186C28.9279 44.9004 30.0686 46.041 30.0686 47.4504C30.0686 48.8598 28.9279 50.0004 27.5186 50.0004Z" fill="url(#paint1_linear_16282_103789)"/>
<path d="M42.8221 50.0004H35.1721C33.7627 50.0004 32.6221 48.8598 32.6221 47.4504C32.6221 46.041 33.7627 44.9004 35.1721 44.9004H42.8221C44.2314 44.9004 45.3721 46.041 45.3721 47.4504C45.3721 48.8598 44.2314 50.0004 42.8221 50.0004Z" fill="url(#paint2_linear_16282_103789)"/>
</g>
<defs>
<linearGradient id="paint0_linear_16282_103789" x1="6.46187" y1="17.5325" x2="41.8366" y2="18.1766" gradientUnits="userSpaceOnUse">
<stop stop-color="#222166"/>
<stop offset="1" stop-color="#812448"/>
</linearGradient>
<linearGradient id="paint1_linear_16282_103789" x1="5.75121" y1="47.0891" x2="27.6502" y2="49.0824" gradientUnits="userSpaceOnUse">
<stop stop-color="#222166"/>
<stop offset="1" stop-color="#812448"/>
</linearGradient>
<linearGradient id="paint2_linear_16282_103789" x1="33.2149" y1="47.0891" x2="44.2309" y2="47.5904" gradientUnits="userSpaceOnUse">
<stop stop-color="#222166"/>
<stop offset="1" stop-color="#812448"/>
</linearGradient>
<clipPath id="clip0_16282_103789">
<rect width="50" height="50" fill="white"/>
</clipPath>
</defs>
</svg>
