<svg width="50" height="50" viewBox="0 0 50 50" fill="none" xmlns="http://www.w3.org/2000/svg">
<g clip-path="url(#clip0_16282_103787)">
<path d="M25 0C11.1937 0 0 11.1937 0 25C0 38.8063 11.1937 50 25 50C38.8063 50 50 38.8063 50 25C50 11.1937 38.8063 0 25 0ZM33.2969 36.0469C32.9031 36.4375 32.4906 36.8469 32.1562 37.1844C31.8563 37.4875 31.6406 37.8594 31.5344 38.2625C31.3812 38.8344 31.2594 39.4094 31.0531 39.9625L29.3 44.6844C27.9125 44.9875 26.4781 45.1562 25 45.1562V42.3969C25.1719 41.125 24.2313 38.7406 22.7188 37.2312C22.1125 36.625 21.775 35.8063 21.775 34.95V31.7219C21.775 30.55 21.1437 29.4687 20.1156 28.9031C18.6656 28.1031 16.6063 26.9812 15.1938 26.2719C14.0375 25.6906 12.9656 24.9469 12.0031 24.0781L11.9219 24.0063C11.2344 23.3844 10.6219 22.6844 10.1 21.9156C9.15313 20.5281 7.61562 18.2437 6.6125 16.7594C8.675 12.1719 12.3938 8.49062 17.0156 6.4875L19.4375 7.69688C20.5094 8.23438 21.7719 7.45312 21.7719 6.25312V5.1125C22.5781 4.98125 23.3969 4.9 24.2313 4.86875L27.0844 7.72187C27.7156 8.35312 27.7156 9.37187 27.0844 10.0031L25.5688 11.5188C25.2531 11.8344 25.2531 12.3438 25.5688 12.6594L26.0406 13.1313C26.3563 13.4469 26.3563 13.9563 26.0406 14.2719L25.2344 15.0781C25.0844 15.2281 24.8781 15.3156 24.6625 15.3125H23.7563C23.5469 15.3125 23.3438 15.3938 23.1938 15.5406L22.1938 16.5125C21.9438 16.7563 21.8781 17.1375 22.0344 17.45L23.6062 20.5938C23.875 21.1313 23.4844 21.7625 22.8844 21.7625H22.3156C22.1219 21.7625 21.9344 21.6906 21.7875 21.5656L20.8531 20.7531C20.4219 20.3781 19.8281 20.2594 19.2844 20.4406L16.1437 21.4875C15.6531 21.6531 15.3187 22.1125 15.3187 22.6313C15.3187 23.0875 15.5781 23.5031 15.9844 23.7094L17.1 24.2687C18.05 24.7437 19.0938 24.9906 20.1562 24.9906C21.2188 24.9906 22.4344 27.7406 23.3813 28.2156H30.1094C30.9656 28.2156 31.7844 28.5563 32.3906 29.1594L33.7719 30.5406C34.3469 31.1187 34.6719 31.9 34.6719 32.7156C34.6719 33.9625 34.175 35.1594 33.2875 36.0406L33.2969 36.0469ZM42.0375 26.8406C41.4531 26.6937 40.9438 26.3375 40.6125 25.8344L38.8 23.1156C38.2563 22.3031 38.2563 21.2437 38.8 20.4312L40.775 17.4688C41.0094 17.1187 41.3281 16.8344 41.7062 16.6469L43.0156 15.9937C44.3781 18.7062 45.1656 21.7594 45.1656 25C45.1656 25.875 45.0906 26.7313 44.9813 27.575L42.0406 26.8406H42.0375Z" fill="url(#paint0_linear_16282_103787)"/>
</g>
<defs>
<linearGradient id="paint0_linear_16282_103787" x1="2.32477" y1="21.4579" x2="45.6001" y2="22.2456" gradientUnits="userSpaceOnUse">
<stop stop-color="#222166"/>
<stop offset="1" stop-color="#812448"/>
</linearGradient>
<clipPath id="clip0_16282_103787">
<rect width="50" height="50" fill="white"/>
</clipPath>
</defs>
</svg>
