<svg width="106" height="28" viewBox="0 0 106 28" fill="none" xmlns="http://www.w3.org/2000/svg">
<g clip-path="url(#clip0_14489_81696)">
<path d="M36.0529 15.6826C36.0529 15.0641 35.5403 14.5625 34.9083 14.5625C34.2762 14.5625 33.7637 15.0641 33.7637 15.6826V19.3223C33.7637 19.9408 34.2762 20.4424 34.9083 20.4424C35.5403 20.4424 36.0529 19.9408 36.0529 19.3223V15.6826Z" fill="white"/>
<path d="M2.28921 15.6826C2.28921 15.0641 1.77666 14.5625 1.1446 14.5625C0.512544 14.5625 0 15.0641 0 15.6826V19.3223C0 19.9408 0.511969 20.4424 1.1446 20.4424C1.77666 20.4424 2.28921 19.9408 2.28921 19.3223V15.6826Z" fill="white"/>
<path d="M15.7363 2.24018C15.7363 3.47723 16.7614 4.48036 18.0255 4.48036C19.2897 4.48036 20.3147 3.47723 20.3147 2.24018C20.3147 1.00313 19.2897 0 18.0255 0C16.7614 0 15.7363 1.00313 15.7363 2.24018Z" fill="white"/>
<path fill-rule="evenodd" clip-rule="evenodd" d="M5.43611 14.2829V19.6028C5.43611 22.85 8.12639 25.4827 11.4447 25.4827H24.6065C27.9248 25.4827 30.6151 22.85 30.6151 19.6028V14.2829C30.6151 11.0357 27.9248 8.40301 24.6065 8.40301H11.4453C8.12697 8.40301 5.43669 11.0357 5.43669 14.2829H5.43611ZM11.4453 5.88281C6.70483 5.88281 2.86133 9.64344 2.86133 14.2829V19.6028C2.86133 24.2417 6.70426 28.0029 11.4453 28.0029H24.6071C29.3475 28.0029 33.191 24.2423 33.191 19.6028V14.2829C33.191 9.644 29.3481 5.88281 24.6071 5.88281H11.4453Z" fill="white"/>
<path d="M22.8906 17.0761C22.8906 18.3132 23.9157 19.3163 25.1798 19.3163C26.444 19.3163 27.469 18.3132 27.469 17.0761C27.469 15.8391 26.444 14.8359 25.1798 14.8359C23.9157 14.8359 22.8906 15.8391 22.8906 17.0761Z" fill="white"/>
<path d="M8.58398 17.0761C8.58398 18.3132 9.60907 19.3163 10.8732 19.3163C12.1373 19.3163 13.1624 18.3132 13.1624 17.0761C13.1624 15.8391 12.1373 14.8359 10.8732 14.8359C9.60907 14.8359 8.58398 15.8391 8.58398 17.0761Z" fill="white"/>
<path d="M38.291 8.9375H42.581L46.6216 19.2663L50.6622 8.9375H54.9297L48.5971 24.4641H44.6472L38.2916 8.9375H38.291Z" fill="white"/>
<path d="M73.2012 8.9375H77.2188V24.4641H73.2012V8.9375Z" fill="white"/>
<path d="M82.9041 23.8251C81.5952 23.1734 80.585 22.2371 79.8737 21.0153C79.1623 19.7934 78.8066 18.3607 78.8066 16.7171C78.8066 15.0735 79.1617 13.6408 79.8737 12.4189C80.585 11.1971 81.5946 10.2569 82.9041 9.59789C84.2131 8.93888 85.73 8.60938 87.455 8.60938C88.5898 8.60938 89.6034 8.72071 90.4963 8.94282C91.3892 9.16492 92.2138 9.51298 92.9705 9.987V13.7189C92.3046 13.2005 91.5519 12.8232 90.7118 12.5859C89.8717 12.3492 88.907 12.2305 87.8175 12.2305C86.2586 12.2305 85.056 12.627 84.2085 13.4187C83.3609 14.2109 82.9374 15.3108 82.9374 16.7171C82.9374 18.1234 83.3649 19.2272 84.2199 20.0268C85.075 20.8263 86.2741 21.2261 87.8175 21.2261C88.907 21.2261 89.8832 21.1007 90.7457 20.8483C91.6082 20.5964 92.4103 20.1966 93.1515 19.6489V23.3583C91.7139 24.321 89.8148 24.8023 87.4544 24.8023C85.7294 24.8023 84.2119 24.4762 82.9035 23.8251H82.9041Z" fill="white"/>
<path d="M94.7422 8.9375H106.001V12.2472H98.7604V15.157H104.049V18.2446H98.7604V21.1545H106.001V24.4641H94.7422V8.9375Z" fill="white"/>
<path d="M55.6771 13.2734H54.3457V20.0778H55.6771V13.2734Z" fill="white"/>
<path d="M57.6749 10.5781H56.3516V22.2491H57.6749V10.5781Z" fill="white"/>
<path d="M59.7388 12.2031H58.3477V23.6261H59.7388V12.2031Z" fill="white"/>
<path d="M61.7691 8.25H60.3613V22.4119H61.7691V8.25Z" fill="white"/>
<path d="M70.4933 20.1094H71.8574V15.1707H70.4933V20.1094Z" fill="white"/>
<path d="M68.4868 22.25H69.8262V11.4663H68.4868V22.25Z" fill="white"/>
<path d="M66.4901 22.6875H67.7617V8.92422H66.4901V22.6875Z" fill="white"/>
<path d="M64.4773 25.1562H65.8633V9.32823H64.4773V25.1562Z" fill="white"/>
<path d="M63.8316 7.13281H62.375V26.2733H63.8316V7.13281Z" fill="white"/>
</g>
<defs>
<clipPath id="clip0_14489_81696">
<rect width="106" height="28" fill="white"/>
</clipPath>
</defs>
</svg>
