<svg width="21" height="20" viewBox="0 0 21 20" fill="none" xmlns="http://www.w3.org/2000/svg">
<path d="M14.9092 3.44983L14.8508 6.60815C14.8425 7.04148 15.1176 7.6165 15.4676 7.87483L17.5342 9.44147C18.8592 10.4415 18.6425 11.6665 17.0592 12.1665L14.3675 13.0081C13.9175 13.1498 13.4425 13.6415 13.3259 14.0998L12.6842 16.5498C12.1759 18.4831 10.9092 18.6748 9.85919 16.9748L8.39251 14.5998C8.12585 14.1665 7.49252 13.8415 6.99252 13.8665L4.20922 14.0081C2.21755 14.1081 1.65087 12.9582 2.95087 11.4415L4.60086 9.52481C4.90919 9.16648 5.05085 8.49982 4.90919 8.04982L4.06756 5.35815C3.5759 3.77481 4.45922 2.89982 6.03422 3.41649L8.49256 4.22483C8.90923 4.35816 9.53421 4.26648 9.88421 4.00815L12.4509 2.15815C13.8342 1.15815 14.9425 1.7415 14.9092 3.44983Z" stroke="white" stroke-width="1.5" stroke-linecap="round" stroke-linejoin="round"/>
<path d="M18.7593 18.3331L16.2344 15.8081" stroke="white" stroke-width="1.5" stroke-linecap="round" stroke-linejoin="round"/>
</svg>
