<svg width="15" height="15" viewBox="0 0 15 15" fill="none" xmlns="http://www.w3.org/2000/svg">
<path d="M6.92871 0.0175781C6.84961 0.0234375 6.60351 0.0556641 6.38672 0.0878906C4.30664 0.395508 2.4375 1.58496 1.25391 3.35449C0.662109 4.23926 0.257812 5.29102 0.0820312 6.40137C-0.0117187 6.99023 -0.0117187 8.00977 0.0820312 8.59863C0.418945 10.7344 1.5791 12.5596 3.35449 13.7461C4.23926 14.3379 5.29101 14.7422 6.40137 14.918C6.99023 15.0117 8.00976 15.0117 8.59863 14.918C9.43066 14.7861 10.0986 14.5752 10.8369 14.2061C12.3047 13.4795 13.4795 12.3047 14.2061 10.8369C14.5752 10.0986 14.7861 9.43066 14.918 8.59863C15.0117 8.00977 15.0117 6.99023 14.918 6.40137C14.5811 4.26562 13.4209 2.44043 11.6455 1.25391C10.7695 0.667969 9.70605 0.257812 8.62793 0.0878906C8.25586 0.0292969 7.2832 -0.0117188 6.92871 0.0175781ZM7.88379 2.59277C8.24707 2.72168 8.52539 3.0498 8.65723 3.50098C8.76855 3.88184 8.69824 4.83984 8.48144 5.93262C8.30566 6.81445 7.93359 8.25 7.81933 8.46973C7.66406 8.77734 7.33594 8.77734 7.18066 8.46973C7.02832 8.17676 6.60058 6.43652 6.43066 5.43457C6.30176 4.66113 6.26367 3.88477 6.34277 3.55078C6.46582 3.02637 6.8291 2.64551 7.29492 2.55176C7.45019 2.51953 7.73144 2.54004 7.88379 2.59277ZM7.9541 10.3184C8.23828 10.4678 8.41113 10.7168 8.4668 11.0566C8.54883 11.5723 8.30273 12.0527 7.86914 12.2139C7.64648 12.2959 7.35351 12.2959 7.12793 12.2139C6.70605 12.0557 6.44531 11.5547 6.5332 11.0654C6.58008 10.8076 6.65625 10.6553 6.81738 10.4941C7.02539 10.2861 7.20703 10.2217 7.54394 10.2334C7.75781 10.2422 7.83398 10.2568 7.9541 10.3184Z" fill="white"/>
</svg>
