<svg width="74" height="74" viewBox="0 0 74 74" fill="none" xmlns="http://www.w3.org/2000/svg">
<path d="M53.0549 27.112C51.8524 25.908 49.8975 25.908 48.695 27.112L35.4583 40.3472L29.9299 34.8204C28.7274 33.6163 26.7725 33.6163 25.57 34.8204C24.366 36.0244 24.366 37.9761 25.57 39.1802L33.2784 46.8885C33.8796 47.4913 34.6689 47.7919 35.4583 47.7919C36.2476 47.7919 37.0369 47.4913 37.6382 46.8885L53.0549 31.4718C54.2589 30.2678 54.2589 28.3161 53.0549 27.112Z" fill="url(#paint0_linear_7336_20973)"/>
<path d="M70.9167 33.9167C69.2147 33.9167 67.8333 35.298 67.8333 37C67.8333 54.0015 54.0015 67.8333 37 67.8333C19.9985 67.8333 6.16667 54.0015 6.16667 37C6.16667 19.9985 19.9985 6.16667 37 6.16667C45.2772 6.16667 53.0472 9.40108 58.8809 15.2748C60.0788 16.485 62.032 16.4912 63.2407 15.2902C64.4494 14.0908 64.4555 12.1391 63.2561 10.9304C56.257 3.88192 46.9314 0 37 0C16.5976 0 0 16.5976 0 37C0 57.4024 16.5976 74 37 74C57.4024 74 74 57.4024 74 37C74 35.298 72.6187 33.9167 70.9167 33.9167Z" fill="url(#paint1_linear_7336_20973)"/>
<defs>
<linearGradient id="paint0_linear_7336_20973" x1="39.3124" y1="26.209" x2="39.3124" y2="39.0239" gradientUnits="userSpaceOnUse">
<stop stop-color="#01BFFB"/>
<stop offset="1" stop-color="#75DBCA"/>
</linearGradient>
<linearGradient id="paint1_linear_7336_20973" x1="37" y1="1.6691e-06" x2="37" y2="43.9375" gradientUnits="userSpaceOnUse">
<stop stop-color="#01BFFB"/>
<stop offset="1" stop-color="#75DBCA"/>
</linearGradient>
</defs>
</svg>
