<svg width="16" height="17" viewBox="0 0 16 17" fill="none" xmlns="http://www.w3.org/2000/svg">
<g clip-path="url(#clip0_10543_49708)">
<path d="M8.00586 16.5926C3.59486 16.5926 0.00585938 12.8707 0.00585938 8.2963C0.00585938 3.72193 3.59486 0 8.00586 0C12.4169 0 16.0059 3.72193 16.0059 8.2963C16.0059 12.8707 12.4169 16.5926 8.00586 16.5926ZM8.00586 2.07407C4.69686 2.07407 2.00586 4.86474 2.00586 8.2963C2.00586 11.7278 4.69686 14.5185 8.00586 14.5185C11.3149 14.5185 14.0059 11.7278 14.0059 8.2963C14.0059 4.86474 11.3149 2.07407 8.00586 2.07407Z" fill="#01BFFB"/>
<path d="M7.99283 6.32905C8.61083 6.32905 9.13083 5.78979 9.13083 5.1489C9.13083 4.50801 8.61083 3.96875 7.99283 3.96875C7.39783 3.96875 6.85483 4.50801 6.88183 5.1209C6.85583 5.79705 7.37183 6.32801 7.99283 6.32801V6.32905Z" fill="#01BFFB"/>
<path d="M8.21861 12.6008C8.64461 12.4753 8.91161 12.074 8.91161 11.5856C8.88861 11.2921 8.87361 10.9955 8.85161 10.703C8.79161 9.58616 8.73061 8.48793 8.66661 7.37105C8.64361 6.99253 8.36161 6.71875 7.99661 6.71875C7.63161 6.71875 7.34461 7.01119 7.32661 7.3949C7.32661 7.62512 7.32661 7.83668 7.30361 8.07105C7.26561 8.78971 7.22061 9.50423 7.18261 10.2229C7.15961 10.6875 7.12261 11.1521 7.09961 11.6177C7.09961 11.7857 7.12261 11.934 7.18261 12.0823C7.36361 12.4961 7.79261 12.7076 8.21861 12.6019V12.6008Z" fill="#01BFFB"/>
</g>
<defs>
<clipPath id="clip0_10543_49708">
<rect width="16" height="16.5926" fill="white"/>
</clipPath>
</defs>
</svg>
