<svg width="16" height="16" viewBox="0 0 16 16" fill="none" xmlns="http://www.w3.org/2000/svg">
<g clip-path="url(#clip0_7336_19763)">
<path d="M8.00586 16.001C3.59486 16.001 0.00585938 12.412 0.00585938 8.00098C0.00585938 3.58998 3.59486 0.000976562 8.00586 0.000976562C12.4169 0.000976562 16.0059 3.58998 16.0059 8.00098C16.0059 12.412 12.4169 16.001 8.00586 16.001ZM8.00586 2.00098C4.69686 2.00098 2.00586 4.69198 2.00586 8.00098C2.00586 11.31 4.69686 14.001 8.00586 14.001C11.3149 14.001 14.0059 11.31 14.0059 8.00098C14.0059 4.69198 11.3149 2.00098 8.00586 2.00098Z" fill="#F87979"/>
<path d="M7.99283 6.10315C8.61083 6.10315 9.13083 5.58315 9.13083 4.96515C9.13083 4.34715 8.61083 3.82715 7.99283 3.82715C7.39783 3.82715 6.85483 4.34715 6.88183 4.93815C6.85583 5.59015 7.37183 6.10215 7.99283 6.10215V6.10315Z" fill="#F87979"/>
<path d="M8.2191 12.1491C8.6451 12.0281 8.9121 11.6411 8.9121 11.1701C8.8891 10.8871 8.8741 10.6011 8.8521 10.3191C8.7921 9.24205 8.7311 8.18305 8.6671 7.10605C8.6441 6.74105 8.3621 6.47705 7.9971 6.47705C7.6321 6.47705 7.3451 6.75905 7.3271 7.12905C7.3271 7.35105 7.3271 7.55505 7.3041 7.78105C7.2661 8.47405 7.2211 9.16305 7.1831 9.85605C7.1601 10.3041 7.1231 10.7521 7.1001 11.2011C7.1001 11.3631 7.1231 11.5061 7.1831 11.6491C7.3641 12.0481 7.7931 12.2521 8.2191 12.1501V12.1491Z" fill="#F87979"/>
</g>
<defs>
<clipPath id="clip0_7336_19763">
<rect width="16" height="16" fill="white"/>
</clipPath>
</defs>
</svg>
