<svg width="22" height="22" viewBox="0 0 22 22" fill="none" xmlns="http://www.w3.org/2000/svg">
<g clip-path="url(#clip0)">
<path d="M18.7772 3.22308C14.4794 -1.07469 7.52268 -1.07533 3.2243 3.22308C-1.07347 7.52085 -1.07411 14.4776 3.2243 18.7759C7.52207 23.0737 14.4788 23.0743 18.7772 18.7759C23.0749 14.4782 23.0755 7.5215 18.7772 3.22308ZM11.0007 20.1904C5.93284 20.1904 1.80979 16.0674 1.80979 10.9995C1.80979 5.93161 5.93284 1.80861 11.0007 1.80861C16.0686 1.80861 20.1916 5.93166 20.1916 10.9995C20.1916 16.0674 16.0686 20.1904 11.0007 20.1904Z" fill="#E0E2E4"/>
<path d="M12.8352 6.88477C12.3363 6.88477 11.9319 7.28919 11.9319 7.78808V14.2117C11.9319 14.7105 12.3363 15.115 12.8352 15.115C13.3341 15.115 13.7385 14.7105 13.7385 14.2117V7.78808C13.7385 7.28919 13.3341 6.88477 12.8352 6.88477Z" fill="#E0E2E4"/>
<path d="M9.16455 6.88477C8.66566 6.88477 8.26123 7.28919 8.26123 7.78808V14.2117C8.26123 14.7105 8.66566 15.115 9.16455 15.115C9.66343 15.115 10.0679 14.7105 10.0679 14.2117V7.78808C10.0679 7.28919 9.66348 6.88477 9.16455 6.88477Z" fill="#E0E2E4"/>
</g>
<defs>
<clipPath id="clip0">
<rect width="22" height="22" fill="white"/>
</clipPath>
</defs>
</svg>
