<svg width="26" height="28" viewBox="0 0 26 28" fill="none" xmlns="http://www.w3.org/2000/svg">
<g filter="url(#filter0_d)">
<path d="M21.8573 19.4004L19.1498 14.5955C19.7039 13.5498 19.9925 12.3775 19.9891 11.1869C19.9891 9.28078 19.2523 7.45278 17.9407 6.10498C16.6292 4.75718 14.8504 4 12.9956 4C11.1408 4 9.36199 4.75718 8.05045 6.10498C6.73892 7.45278 6.00211 9.28078 6.00211 11.1869C5.99867 12.3775 6.2873 13.5498 6.84133 14.5955L4.13385 19.4004C4.046 19.5568 3.99983 19.7342 4 19.9148C4.00017 20.0953 4.04669 20.2727 4.13484 20.4289C4.223 20.5851 4.34969 20.7146 4.50212 20.8044C4.65455 20.8942 4.82733 20.9412 5.00304 20.9404H7.87037L9.32901 23.4661C9.37818 23.5498 9.43874 23.6259 9.50884 23.692C9.69405 23.8754 9.94097 23.9784 10.1982 23.9794H10.3381C10.4889 23.9582 10.633 23.9019 10.7594 23.8147C10.8858 23.7275 10.9912 23.6118 11.0674 23.4764L12.9956 20.0677L14.9238 23.5072C15.0011 23.6407 15.107 23.7544 15.2333 23.8398C15.3596 23.9251 15.5032 23.9799 15.6531 24H15.793C16.0537 24.0016 16.3046 23.8984 16.4923 23.7125C16.5595 23.6502 16.6168 23.5774 16.6622 23.4969L18.1208 20.9712H20.9881C21.1642 20.972 21.3373 20.9249 21.4899 20.8347C21.6426 20.7446 21.7693 20.6146 21.8573 20.4579C21.9507 20.2982 22 20.1154 22 19.9291C22 19.7429 21.9507 19.5601 21.8573 19.4004ZM10.1882 20.9712L9.29904 19.4415C9.21148 19.2897 9.08734 19.1637 8.9386 19.0755C8.78985 18.9874 8.62151 18.9402 8.44983 18.9384H6.72144L8.15011 16.3922C9.13392 17.3664 10.3739 18.0231 11.7168 18.2813L10.1882 20.9712ZM12.9956 16.3203C12.0076 16.3203 11.0418 16.0192 10.2203 15.4552C9.39885 14.8911 8.75858 14.0894 8.3805 13.1513C8.00241 12.2133 7.90349 11.1812 8.09623 10.1854C8.28898 9.18957 8.76474 8.27487 9.46335 7.55694C10.162 6.83902 11.052 6.3501 12.021 6.15202C12.99 5.95395 13.9944 6.05561 14.9072 6.44415C15.82 6.83269 16.6002 7.49066 17.1491 8.33485C17.698 9.17905 17.9909 10.1715 17.9909 11.1869C17.9909 12.5483 17.4646 13.854 16.5278 14.8168C15.591 15.7795 14.3204 16.3203 12.9956 16.3203ZM17.5413 18.9384C17.3697 18.9402 17.2013 18.9874 17.0526 19.0755C16.9038 19.1637 16.7797 19.2897 16.6921 19.4415L15.803 20.9712L14.2844 18.2505C15.6226 17.987 16.858 17.3309 17.8411 16.3614L19.2697 18.9076L17.5413 18.9384Z" fill="#FFC107"/>
</g>
<defs>
<filter id="filter0_d" x="0" y="0" width="26" height="28" filterUnits="userSpaceOnUse" color-interpolation-filters="sRGB">
<feFlood flood-opacity="0" result="BackgroundImageFix"/>
<feColorMatrix in="SourceAlpha" type="matrix" values="0 0 0 0 0 0 0 0 0 0 0 0 0 0 0 0 0 0 127 0"/>
<feOffset/>
<feGaussianBlur stdDeviation="2"/>
<feColorMatrix type="matrix" values="0 0 0 0 1 0 0 0 0 0.756863 0 0 0 0 0.027451 0 0 0 0.2 0"/>
<feBlend mode="normal" in2="BackgroundImageFix" result="effect1_dropShadow"/>
<feBlend mode="normal" in="SourceGraphic" in2="effect1_dropShadow" result="shape"/>
</filter>
</defs>
</svg>
