<svg width="25" height="19" viewBox="0 0 25 19" fill="none" xmlns="http://www.w3.org/2000/svg">
    <path d="M9.37402 0.0806599C7.17676 0.129488 4.49121 0.261324 3.82715 0.349215C2.90918 0.466402 2.26953 0.73984 1.64941 1.28183C1 1.83847 0.643555 2.47812 0.370117 3.57675C0.101562 4.65097 0.0234375 5.95957 0.0234375 9.49961C0.0234375 13.6939 0.145508 15.1002 0.614258 16.2721C1.15625 17.6197 2.16211 18.3668 3.75879 18.6012C4.57422 18.7184 5.38476 18.7721 7.86035 18.8551C11.8203 18.9869 16.1025 18.9527 19.6914 18.7525C21.5518 18.6451 21.918 18.5865 22.5771 18.2594C23.4658 17.815 24.0518 17.1412 24.418 16.1305C24.8721 14.9 24.9697 13.6891 24.9697 9.49961C24.9697 5.4664 24.8623 4.08945 24.4668 2.93711C24.0322 1.68711 23.1631 0.857027 21.9131 0.495699C21.3857 0.344332 20.8193 0.285738 18.9443 0.197847C15.6973 0.0415974 12.6211 0.00741768 9.37402 0.0806599ZM15.3408 1.54062C18.124 1.60898 20.8975 1.75546 21.3613 1.86289C21.7715 1.96054 22.0644 2.10214 22.3916 2.36093C22.709 2.60996 22.9092 2.92734 23.0898 3.46933C23.4219 4.46543 23.5098 5.75937 23.5049 9.59726C23.5049 13.5865 23.4121 14.6607 22.9922 15.7496C22.6846 16.5553 22.1279 16.9947 21.2197 17.1705C20.9121 17.2291 18.832 17.3414 16.7959 17.4146C14.7256 17.483 10.7803 17.4879 8.59277 17.4146C4.15918 17.273 3.43652 17.1852 2.73828 16.7213C2.34766 16.4625 2.12305 16.1451 1.92285 15.5641C1.58105 14.5728 1.48828 13.2789 1.48828 9.49961C1.48828 5.75937 1.57617 4.5289 1.91309 3.52793C2.09863 2.97128 2.23535 2.73203 2.52832 2.45859C3.10449 1.9166 3.48535 1.80918 5.1748 1.71152C8.34863 1.52597 11.9961 1.46738 15.3408 1.54062Z" fill="#01BFFB"/>
    <path d="M9.9312 5.3202C9.70659 5.42274 9.44291 5.71571 9.37944 5.95009C9.33549 6.09657 9.32573 7.02919 9.33549 9.36317L9.35014 12.5663L9.49662 12.7811C9.70659 13.0741 10.0093 13.2352 10.3609 13.2304C10.6246 13.2255 10.732 13.1766 13.4859 11.6972C15.0484 10.8573 16.3961 10.12 16.4693 10.0663C16.6988 9.90028 16.855 9.58778 16.855 9.29481C16.8599 8.9579 16.7574 8.72353 16.523 8.52821C16.4156 8.44032 15.3121 7.81044 14.0621 7.12196C10.5318 5.18837 10.6539 5.25185 10.3462 5.25185C10.1998 5.25673 10.0142 5.28603 9.9312 5.3202ZM13.0123 8.2206C13.9546 8.73817 14.7652 9.18251 14.8091 9.21669C14.8824 9.2704 14.6187 9.42665 12.8658 10.3642C11.7525 10.9647 10.8296 11.453 10.815 11.453C10.8003 11.453 10.7906 10.452 10.7906 9.22645V6.99989L11.0494 7.14638C11.1861 7.2245 12.0748 7.7079 13.0123 8.2206Z" fill="#01BFFB"/>
</svg>