<svg width="16" height="16" viewBox="0 0 16 16" fill="none" xmlns="http://www.w3.org/2000/svg">
<g clip-path="url(#clip0_9486_45406)">
<path d="M13.993 16H2.007C0.902 16 0.005 15.105 0 14V4C0 3.468 0.212 2.96 0.588 2.583C0.965 2.208 1.475 1.998 2.008 2H4V1C4 0.448 4.448 0 5 0C5.552 0 6 0.448 6 1V2H10V1C10 0.448 10.448 0 11 0C11.552 0 12 0.448 12 1V2H13.993C15.098 2 15.995 2.895 16 4V14C16 14.532 15.788 15.04 15.412 15.417C15.035 15.792 14.525 16.002 13.992 16H13.993ZM14 4H12V5C12 5.552 11.552 6 11 6C10.448 6 10 5.552 10 5V4H6V5C6 5.552 5.552 6 5 6C4.448 6 4 5.552 4 5V4H2V14H14V4ZM11 12C10.448 12 10 11.552 10 11C10 10.448 10.448 10 11 10C11.552 10 12 10.448 12 11C12 11.552 11.552 12 11 12ZM11 9C10.448 9 10 8.552 10 8C10 7.448 10.448 7 11 7C11.552 7 12 7.448 12 8C12 8.552 11.552 9 11 9ZM8 12C7.448 12 7 11.552 7 11C7 10.448 7.448 10 8 10C8.552 10 9 10.448 9 11C9 11.552 8.552 12 8 12ZM8 9C7.448 9 7 8.552 7 8C7 7.448 7.448 7 8 7C8.552 7 9 7.448 9 8C9 8.552 8.552 9 8 9ZM5 12C4.448 12 4 11.552 4 11C4 10.448 4.448 10 5 10C5.552 10 6 10.448 6 11C6 11.552 5.552 12 5 12ZM5 9C4.448 9 4 8.552 4 8C4 7.448 4.448 7 5 7C5.552 7 6 7.448 6 8C6 8.552 5.552 9 5 9Z" fill="#B7BBC0"/>
</g>
<defs>
<clipPath id="clip0_9486_45406">
<rect width="16" height="16" fill="white"/>
</clipPath>
</defs>
</svg>
