<svg width="16" height="16" viewBox="0 0 16 16" fill="none" xmlns="http://www.w3.org/2000/svg">
<path d="M8 16C12.418 16 16 12.418 16 8C16 3.582 12.418 0 8 0C3.582 0 0 3.582 0 8C0 12.418 3.582 16 8 16ZM10.829 11.828C10.562 11.828 10.309 11.723 10.119 11.535L8 9.415L5.88 11.535C5.49 11.925 4.855 11.925 4.465 11.535C4.075 11.145 4.075 10.512 4.465 10.121L6.584 8L4.464 5.88C4.21 5.626 4.112 5.258 4.204 4.913C4.296 4.568 4.567 4.298 4.912 4.206C5.257 4.113 5.625 4.212 5.878 4.466L8 6.585L10.12 4.465C10.374 4.211 10.742 4.112 11.087 4.205C11.432 4.297 11.702 4.567 11.795 4.912C11.888 5.257 11.789 5.625 11.535 5.878L9.416 8L11.536 10.12C11.726 10.31 11.83 10.563 11.83 10.83C11.83 11.094 11.724 11.348 11.536 11.536C11.348 11.724 11.094 11.828 10.829 11.828H10.827H10.829Z" fill="#F87979"/>
</svg>
