<svg width="12" height="12" viewBox="0 0 12 12" fill="none" xmlns="http://www.w3.org/2000/svg">
<path d="M5.54299 0.015625C5.47971 0.0203123 5.28284 0.046093 5.1094 0.0718746C3.44534 0.317968 1.95002 1.26953 1.00315 2.68516C0.529712 3.39297 0.206274 4.23437 0.0656494 5.12266C-0.00935058 5.59375 -0.00935058 6.40937 0.0656494 6.88047C0.335181 8.58906 1.26331 10.0492 2.68362 10.9984C3.39143 11.4719 4.23284 11.7953 5.12112 11.9359C5.59221 12.0109 6.40784 12.0109 6.87893 11.9359C7.54456 11.8305 8.07893 11.6617 8.66955 11.3664C9.84377 10.7852 10.7836 9.84531 11.3649 8.67109C11.6602 8.08047 11.8289 7.54609 11.9344 6.88047C12.0094 6.40937 12.0094 5.59375 11.9344 5.12266C11.6649 3.41406 10.7367 1.95391 9.31643 1.00469C8.61565 0.535937 7.76487 0.207812 6.90237 0.0718746C6.60471 0.0249996 5.82659 -0.0078125 5.54299 0.015625ZM6.30706 2.07578C6.59768 2.17891 6.82034 2.44141 6.92581 2.80234C7.01487 3.10703 6.95862 3.87344 6.78518 4.74766C6.64456 5.45312 6.3469 6.60156 6.25549 6.77734C6.13127 7.02344 5.86877 7.02344 5.74456 6.77734C5.62268 6.54297 5.28049 5.15078 5.14456 4.34922C5.04143 3.73047 5.01096 3.10938 5.07424 2.84219C5.17268 2.42266 5.46331 2.11797 5.83596 2.04297C5.96018 2.01719 6.18518 2.03359 6.30706 2.07578ZM6.36331 8.25625C6.59065 8.37578 6.72893 8.575 6.77346 8.84687C6.83909 9.25937 6.64221 9.64375 6.29534 9.77266C6.11721 9.83828 5.88284 9.83828 5.70237 9.77266C5.36487 9.64609 5.15627 9.24531 5.22659 8.85391C5.26409 8.64766 5.32502 8.52578 5.45393 8.39687C5.62034 8.23047 5.76565 8.17891 6.03518 8.18828C6.20627 8.19531 6.26721 8.20703 6.36331 8.25625Z" fill="#F87979"/>
</svg>
