<svg width="96" height="96" viewBox="0 0 96 96" fill="none" xmlns="http://www.w3.org/2000/svg">
<path d="M44.4374 0.132827C35.6624 0.957827 28.2561 3.50783 21.5624 7.98908C14.3436 12.8078 8.75612 19.1828 4.96862 26.9078C1.81862 33.2828 0.318617 39.3016 0.0561169 46.4078C-0.225133 54.3953 1.42487 62.0078 4.98737 69.1703C7.48112 74.2141 10.0686 77.7766 14.1374 81.8641C18.2811 85.9891 21.8624 88.5578 26.9061 91.0328C30.4311 92.7578 32.6999 93.6016 36.2811 94.5016C47.4936 97.3141 58.9499 96.0953 69.1686 91.0141C74.3061 88.4641 77.6624 86.0266 81.8624 81.8453C85.9311 77.7766 88.4999 74.2141 91.0124 69.1703C96.8061 57.5266 97.5749 44.2141 93.1686 31.8016C92.2874 29.3078 90.1124 24.8078 88.7624 22.6891C84.8061 16.4453 78.6936 10.4453 72.7124 6.88283C64.9686 2.27033 56.3811 -0.0734226 47.6249 0.0390774C46.2374 0.0390774 44.7936 0.0953274 44.4374 0.132827ZM52.6874 7.12658C71.5499 9.41408 86.2686 23.9266 88.7999 42.7516C89.3436 46.8578 89.0624 52.8016 88.1436 56.9453C84.3186 73.9891 70.1436 86.7578 52.6874 88.8766C50.3999 89.1578 45.2249 89.1016 42.8249 88.8016C23.9811 86.3078 9.41237 71.5891 7.12487 52.6891C6.88112 50.6453 6.88112 45.3578 7.12487 43.3141C9.39362 24.5453 23.8686 9.80783 42.5624 7.22033C44.7561 6.92033 50.5499 6.86408 52.6874 7.12658Z" fill="#F87979"/>
<path d="M29.7561 27.6564C28.0311 28.2564 27.1123 29.9814 27.5623 31.7252C27.7498 32.4377 28.6498 33.4127 35.4936 40.2564L43.2186 48.0002L35.4936 55.7252C28.7061 62.5502 27.7498 63.5627 27.5623 64.2752C26.9061 66.7877 29.2123 69.0939 31.7248 68.4377C32.4373 68.2502 33.4498 67.2939 40.2748 60.5064L47.9998 52.7814L55.7436 60.5064C62.5498 67.2939 63.5623 68.2502 64.2748 68.4377C66.7873 69.0939 69.0936 66.7877 68.4373 64.2752C68.2498 63.5627 67.2936 62.5502 60.5061 55.7252L52.7811 48.0002L60.5061 40.2564C67.2936 33.4502 68.2498 32.4377 68.4373 31.7252C69.0936 29.2127 66.7873 26.9064 64.2748 27.5627C63.5623 27.7502 62.5498 28.7064 55.7436 35.4939L47.9998 43.2189L40.2748 35.4939C33.7123 28.9502 32.4186 27.7502 31.7811 27.5814C30.8436 27.3189 30.6373 27.3377 29.7561 27.6564Z" fill="#F87979"/>
</svg>
