<svg width="85" height="85" viewBox="0 0 85 85" fill="none" xmlns="http://www.w3.org/2000/svg">
<path d="M60.9415 31.1427C59.5603 29.7597 57.3149 29.7597 55.9336 31.1427L40.7293 46.3453L34.379 39.9969C32.9978 38.6139 30.7524 38.6139 29.3711 39.9969C27.9881 41.3799 27.9881 43.6218 29.3711 45.0048L38.2253 53.859C38.9159 54.5514 39.8226 54.8967 40.7293 54.8967C41.6359 54.8967 42.5426 54.5514 43.2332 53.859L60.9415 36.1507C62.3246 34.7676 62.3246 32.5258 60.9415 31.1427Z" fill="url(#paint0_linear_9349_53950)"/>
<path d="M81.4583 38.9583C79.5033 38.9583 77.9167 40.545 77.9167 42.5C77.9167 62.0288 62.0288 77.9167 42.5 77.9167C22.9713 77.9167 7.08333 62.0288 7.08333 42.5C7.08333 22.9713 22.9713 7.08333 42.5 7.08333C52.0076 7.08333 60.9326 10.7985 67.6334 17.5454C69.0094 18.9355 71.253 18.9426 72.6414 17.5631C74.0297 16.1854 74.0368 13.9435 72.6591 12.5552C64.6195 4.45896 53.9077 0 42.5 0C19.0648 0 0 19.0648 0 42.5C0 65.9352 19.0648 85 42.5 85C65.9352 85 85 65.9352 85 42.5C85 40.545 83.4133 38.9583 81.4583 38.9583Z" fill="url(#paint1_linear_9349_53950)"/>
<defs>
<linearGradient id="paint0_linear_9349_53950" x1="45.1563" y1="30.1055" x2="45.1563" y2="44.8253" gradientUnits="userSpaceOnUse">
<stop stop-color="#01BFFB"/>
<stop offset="1" stop-color="#75DBCA"/>
</linearGradient>
<linearGradient id="paint1_linear_9349_53950" x1="42.5" y1="1.91721e-06" x2="42.5" y2="50.4688" gradientUnits="userSpaceOnUse">
<stop stop-color="#01BFFB"/>
<stop offset="1" stop-color="#75DBCA"/>
</linearGradient>
</defs>
</svg>
