<svg width="19" height="14" viewBox="0 0 19 14" fill="none" xmlns="http://www.w3.org/2000/svg">
<path fill-rule="evenodd" clip-rule="evenodd" d="M2.31047 12.2083C2.0089 12.4923 1.99461 12.9669 2.27856 13.2685C2.56251 13.5701 3.03717 13.5844 3.33874 13.3004L4.90686 11.8239C6.34142 12.5306 7.84333 12.8836 9.41262 12.8836C11.2546 12.8836 13.0036 12.3988 14.6599 11.4289C16.3161 10.459 17.6348 9.16853 18.6152 7.5578C18.7552 7.31278 18.8252 7.07126 18.8252 6.83298C18.8252 6.5948 18.7552 6.35317 18.6152 6.10808C17.686 4.58843 16.4535 3.35172 14.9177 2.39801L16.0881 1.29604C16.3896 1.01209 16.4039 0.537436 16.12 0.235865C15.836 -0.0657064 15.3614 -0.0799908 15.0598 0.203959L2.31047 12.2083ZM13.6984 3.5461L13.9019 3.3545C15.3182 4.1684 16.5111 5.32805 17.4804 6.83298C16.5491 8.26879 15.3814 9.41212 13.9772 10.2631C12.5729 11.1138 11.0515 11.5394 9.41262 11.5394C8.19582 11.5394 7.04372 11.3049 5.95629 10.8358L7.20764 9.65757C7.86981 10.0156 8.60483 10.1945 9.41262 10.1945C10.7083 10.1945 11.8164 9.73392 12.7375 8.81309C13.6586 7.89226 14.1189 6.784 14.1189 5.48823C14.1189 4.80184 13.9787 4.15435 13.6984 3.5461ZM4.70633 5.48823C4.70633 6.28159 4.87898 7.00456 5.22422 7.65733L12.131 1.15408C11.2486 0.905991 10.3424 0.781942 9.41262 0.781942C7.5707 0.781942 5.82162 1.26855 4.16529 2.24222C2.50893 3.21567 1.1905 4.5043 0.210025 6.10808C0.0700207 6.35317 0 6.5948 0 6.83298C0 7.07115 0.0700207 7.31278 0.210025 7.5578C0.833026 8.5769 1.59248 9.46878 2.48837 10.2333L3.49178 9.28854C2.67365 8.59677 1.95796 7.77826 1.34474 6.83298C2.40926 5.18011 3.7434 3.94391 5.34718 3.12467C4.91999 3.85292 4.70633 4.64088 4.70633 5.48823Z" fill="#B7BBC0"/>
</svg>
