<svg width="25" height="25" viewBox="0 0 25 25" fill="none" xmlns="http://www.w3.org/2000/svg">
<path d="M10.5471 24.8541V16.1138H7.37326V12.5006H10.5471C10.5471 9.93607 10.1466 6.75594 12.8908 5.38377C13.3032 5.17757 13.7542 5.02996 14.2092 4.95345C15.5151 4.73397 16.7702 5.06795 18.0666 5.07869V8.20369C17.1148 8.20369 15.8254 8.00999 15.0438 8.67586C14.0994 9.4804 14.4533 11.3986 14.4533 12.5006H17.9201L17.383 16.1138H14.4533V24.8541C15.8433 24.7944 17.3577 24.148 18.5549 23.4801C23.9113 20.4919 26.3369 13.9699 24.2828 8.20369C22.9241 4.38956 19.6277 1.41221 15.7229 0.385542C14.3936 0.0360531 13.0844 -0.00598014 11.719 0.000604667C10.333 0.00728782 8.88454 0.423149 7.6174 0.956407C6.25637 1.52919 4.96662 2.33623 3.90646 3.37042C2.77396 4.47518 1.80152 5.73377 1.13833 7.1783C-1.42418 12.7598 0.451714 19.5247 5.56662 22.9497C6.96301 23.8848 8.83649 24.7806 10.5471 24.8541Z" fill="#1977F3"/>
</svg>
