<svg width="25" height="25" viewBox="0 0 25 25" fill="none" xmlns="http://www.w3.org/2000/svg">
<g clip-path="url(#clip0_9349_45454)">
<path d="M1.66016 6.24893C2.66008 6.9085 3.7447 7.46905 4.78516 8.06289C5.03999 8.20835 5.60615 8.68892 5.90313 8.64165C6.09346 8.61133 6.21909 8.29365 6.31973 8.15322C6.62593 7.72598 6.97485 7.29741 7.37305 6.95327C8.65063 5.84917 10.2395 5.00796 11.9629 4.93247C13.2814 4.87475 14.5778 5.09766 15.7715 5.67559C16.4072 5.98345 17.1997 6.88062 17.9199 6.83013C18.3251 6.80171 18.5801 6.46763 18.8477 6.2001L20.459 4.58877C20.7796 4.268 21.0894 3.95741 20.9701 3.46573C20.8539 2.98705 20.2492 2.6325 19.873 2.36355C18.7356 1.55036 17.4602 0.888533 16.1133 0.501414C11.7679 -0.747546 6.93892 0.335594 3.71094 3.56338C2.94363 4.33064 2.09599 5.23882 1.66016 6.24893Z" fill="#EF4624"/>
<path d="M1.6118 6.25C1.26242 7.08896 0.811121 7.86401 0.538831 8.74023C-0.155838 10.9756 -0.209082 13.4586 0.38545 15.7227C0.668757 16.8015 1.18791 17.7318 1.6118 18.75L3.02782 17.9893L5.95751 16.3086C5.13231 14.3936 4.61082 12.6397 5.18368 10.5469C5.36464 9.88584 5.68959 9.31318 5.95751 8.69141L2.83251 6.91289L1.6118 6.25Z" fill="#FFD501"/>
<path d="M19.5315 15.2325C19.2483 16.2231 18.4858 17.2739 17.7246 17.953C17.4266 18.2189 17.1247 18.4835 16.7971 18.7129C16.6719 18.8005 16.4272 18.8977 16.3724 19.0514C16.2805 19.309 16.7941 19.9393 16.923 20.1642C17.5292 21.2215 18.1823 22.2597 18.7502 23.338C19.558 22.9899 20.2932 22.359 20.9475 21.7831C23.1284 19.8632 24.5105 17.1709 24.9089 14.3048C25.0419 13.3481 25.0583 12.3351 24.949 11.3751C24.8961 10.9107 24.7489 10.4126 24.219 10.3169C23.3913 10.1675 22.4237 10.3009 21.5823 10.3009H16.26H14.3557C14.0244 10.3009 13.6706 10.2542 13.3799 10.4459C12.9973 10.6981 13.0373 11.1175 13.0373 11.5216V14.0606C13.0373 14.5021 13.0209 14.9209 13.4768 15.1501C13.9471 15.3865 14.7658 15.2325 15.2834 15.2325H19.5315Z" fill="#1483D7"/>
<path d="M1.66016 18.7487C2.10455 19.7787 2.97795 20.7016 3.75977 21.4831C6.65117 24.3734 11.0043 25.5785 14.9902 24.7815C16.3506 24.5095 17.4937 23.9287 18.75 23.3874L18.0249 22.0202L16.3086 19.0417C15.6709 19.3164 15.0842 19.6492 14.4043 19.8286C12.35 20.3706 10.1163 19.9982 8.34961 18.8136C7.65874 18.3504 7.06113 17.787 6.54316 17.1374C6.40366 16.9624 6.13701 16.3864 5.90313 16.3611C5.57705 16.3259 4.96357 16.8363 4.6875 17.0007C3.68645 17.5969 2.66369 18.1569 1.66016 18.7487Z" fill="#12AA44"/>
<path d="M7.71484 18.3594L7.76367 18.4082L7.71484 18.3594ZM2.00195 19.3359L2.05078 19.3848L2.00195 19.3359ZM11.3281 19.9707L11.377 20.0195L11.3281 19.9707ZM6.68945 23.584L6.73828 23.6328L6.68945 23.584ZM7.08008 23.7793L7.12891 23.8281L7.08008 23.7793ZM7.17773 23.8281L7.22656 23.877L7.17773 23.8281ZM7.61719 24.0234L7.66602 24.0723L7.61719 24.0234ZM8.83789 24.4629L8.88672 24.5117L8.83789 24.4629Z" fill="#1483D7"/>
</g>
<defs>
<clipPath id="clip0_9349_45454">
<rect width="25" height="25" fill="white"/>
</clipPath>
</defs>
</svg>
