<svg width="15" height="16" viewBox="0 0 15 16" fill="none" xmlns="http://www.w3.org/2000/svg">
<g clip-path="url(#clip0_9349_45390)">
<path d="M14.5946 7.02428C14.5943 7.02393 14.5939 7.02359 14.5936 7.02325L8.47476 0.904663C8.21395 0.643738 7.86719 0.5 7.49835 0.5C7.12951 0.5 6.78275 0.643623 6.52183 0.904549L0.40622 7.02004C0.40416 7.0221 0.4021 7.02428 0.40004 7.02634C-0.135544 7.56501 -0.134628 8.439 0.402672 8.9763C0.648148 9.22189 0.972359 9.36414 1.319 9.37901C1.33308 9.38039 1.34727 9.38107 1.36157 9.38107H1.60545V13.884C1.60545 14.775 2.33043 15.5 3.22169 15.5H5.61557C5.85818 15.5 6.05502 15.3033 6.05502 15.0605V11.5303C6.05502 11.1237 6.38576 10.7929 6.79237 10.7929H8.20434C8.61095 10.7929 8.94168 11.1237 8.94168 11.5303V15.0605C8.94168 15.3033 9.1384 15.5 9.38113 15.5H11.775C12.6663 15.5 13.3913 14.775 13.3913 13.884V9.38107H13.6174C13.9861 9.38107 14.3329 9.23745 14.5939 8.97652C15.1318 8.43831 15.132 7.56284 14.5946 7.02428Z" fill="white"/>
</g>
<defs>
<clipPath id="clip0_9349_45390">
<rect width="15" height="15" fill="white" transform="translate(0 0.5)"/>
</clipPath>
</defs>
</svg>
