<svg width="25" height="25" viewBox="0 0 25 25" fill="none" xmlns="http://www.w3.org/2000/svg">
<g clip-path="url(#clip0_9349_45571)">
<path d="M2.83164 0.0228567C1.38076 0.249457 0.109155 1.4793 0.00397974 2.97993C-0.110034 4.60667 -0.000390679 6.28047 -0.000390679 7.91157V17.6772V20.7534C-0.000390679 21.7739 -0.0271102 22.7095 0.587617 23.5854C1.86595 25.4068 4.16785 25.0014 6.10312 25.0014H16.943H20.4098C21.0126 25.0014 21.6718 25.0757 22.2652 24.9621C23.6708 24.6932 24.8924 23.4895 24.9952 22.0229C25.1093 20.3961 24.9996 18.7224 24.9996 17.0913V7.22798V4.24947C24.9996 3.18624 25.0197 2.2112 24.3403 1.31978C23.0023 -0.435623 20.6421 0.00141841 18.7008 0.00141841H8.05625H4.63828C4.05052 0.00141841 3.41283 -0.0679136 2.83164 0.0228567Z" fill="#37CD01"/>
<path d="M12.109 5.07812V5.12695H12.8903L12.109 5.07812ZM11.5068 5.14321L11.5394 5.15952L11.5068 5.14321Z" fill="#62D846"/>
<path d="M11.5723 5.125V5.17383H11.8164L11.5723 5.125Z" fill="#A0E88C"/>
<path d="M11.8167 5.14809C10.0997 5.37353 8.48645 5.76801 7.0804 6.84784C4.60904 8.74589 3.88371 12.1335 5.89915 14.6489C6.88528 15.8796 8.27703 16.677 9.76594 17.1379C10.3131 17.3072 11.0777 17.2702 11.5719 17.5377C12.1049 17.8264 11.7412 18.7595 11.721 19.2387C11.7084 19.5371 11.7762 19.8954 12.1585 19.8609C12.5011 19.8301 12.8805 19.549 13.1839 19.3973C14.0426 18.9679 14.8922 18.4712 15.6741 17.9135C17.4971 16.6132 19.6128 14.8386 20.1548 12.5493C21.2526 7.9123 15.948 4.60566 11.8167 5.14809Z" fill="#FEFFFE"/>
<path d="M13.1836 5.125V5.17383H13.4277L13.1836 5.125Z" fill="#A0E88C"/>
<path d="M13.46 5.14453L13.4925 5.16084L13.46 5.14453ZM11.1162 5.19336L11.1487 5.20967L11.1162 5.19336Z" fill="#62D846"/>
<path d="M11.2139 5.19141L11.2464 5.20771L11.2139 5.19141ZM13.7529 5.19141L13.7854 5.20771L13.7529 5.19141Z" fill="#A0E88C"/>
<path d="M13.8509 5.19141L13.8834 5.20771L13.8509 5.19141ZM10.791 5.22397L10.8398 5.2728L10.791 5.22397Z" fill="#62D846"/>
<path d="M10.8721 5.24219L10.9046 5.2585L10.8721 5.24219ZM14.0947 5.24219L14.1272 5.2585L14.0947 5.24219Z" fill="#A0E88C"/>
<path d="M14.1598 5.22656L14.2086 5.27539L14.1598 5.22656ZM10.5303 5.29165L10.5628 5.30796L10.5303 5.29165Z" fill="#62D846"/>
<path d="M10.6279 5.28906L10.6604 5.30537L10.6279 5.28906ZM14.3389 5.28906L14.3714 5.30537L14.3389 5.28906Z" fill="#A0E88C"/>
<path d="M14.4369 5.28906L14.4694 5.30537L14.4369 5.28906ZM10.3027 5.32163L10.3516 5.37046L10.3027 5.32163Z" fill="#62D846"/>
<path d="M10.3838 5.33984L10.4163 5.35615L10.3838 5.33984ZM14.583 5.33984L14.6155 5.35615L14.583 5.33984Z" fill="#A0E88C"/>
<path d="M14.6484 5.32031L14.6973 5.36914L14.6484 5.32031ZM10.1074 5.36914L10.1562 5.41797L10.1074 5.36914Z" fill="#62D846"/>
<path d="M10.1562 5.37109L10.2051 5.41992L10.1562 5.37109ZM14.7787 5.38735L14.8112 5.40366L14.7787 5.38735Z" fill="#A0E88C"/>
<path d="M14.8438 5.37109L14.8926 5.41992L14.8438 5.37109ZM9.91211 5.41992L9.96094 5.46875L9.91211 5.41992Z" fill="#62D846"/>
<path d="M9.99316 5.4375L10.0257 5.45381L9.99316 5.4375ZM14.9736 5.4375L15.0062 5.45381L14.9736 5.4375Z" fill="#A0E88C"/>
<path d="M15.0391 5.42188L15.0879 5.4707L15.0391 5.42188ZM9.7168 5.4707L9.76562 5.51953L9.7168 5.4707Z" fill="#62D846"/>
<path d="M9.79785 5.48501L9.83037 5.50132L9.79785 5.48501ZM15.1364 5.46875L15.1852 5.51758L15.1364 5.46875Z" fill="#A0E88C"/>
<path d="M15.1855 5.46875L15.2344 5.51758L15.1855 5.46875ZM9.57031 5.51758L9.61914 5.56641L9.57031 5.51758Z" fill="#62D846"/>
<path d="M9.61914 5.51562L9.66797 5.56445L9.61914 5.51562ZM15.332 5.51562L15.3809 5.56445L15.332 5.51562Z" fill="#A0E88C"/>
<path d="M9.42383 5.56641L9.47266 5.61523L9.42383 5.56641Z" fill="#62D846"/>
<path d="M9.47266 5.56641L9.52148 5.61523L9.47266 5.56641ZM15.4785 5.56641L15.5273 5.61523L15.4785 5.56641Z" fill="#A0E88C"/>
<path d="M15.5273 5.56641L15.5762 5.61523L15.5273 5.56641ZM9.27734 5.61523L9.32617 5.66406L9.27734 5.61523Z" fill="#62D846"/>
<path d="M9.32617 5.61719L9.375 5.66602L9.32617 5.61719ZM15.625 5.61719L15.6738 5.66602L15.625 5.61719ZM9.17969 5.66602L9.22852 5.71484L9.17969 5.66602ZM15.7227 5.66602L15.7715 5.71484L15.7227 5.66602Z" fill="#A0E88C"/>
<path d="M15.7715 5.66406L15.8203 5.71289L15.7715 5.66406ZM9.0332 5.71289L9.08203 5.76172L9.0332 5.71289Z" fill="#62D846"/>
<path d="M9.08203 5.71094L9.13086 5.75977L9.08203 5.71094ZM15.8691 5.71094L15.918 5.75977L15.8691 5.71094Z" fill="#A0E88C"/>
<path d="M15.918 5.71094L15.9668 5.75977L15.918 5.71094Z" fill="#62D846"/>
<path d="M8.93555 5.76172L8.98438 5.81055L8.93555 5.76172ZM16.0156 5.76172L16.0645 5.81055L16.0156 5.76172Z" fill="#A0E88C"/>
<path d="M8.78906 5.8125L8.83789 5.86133L8.78906 5.8125Z" fill="#62D846"/>
<path d="M8.83789 5.8125L8.88672 5.86133L8.83789 5.8125ZM16.1133 5.8125L16.1621 5.86133L16.1133 5.8125Z" fill="#A0E88C"/>
<path d="M16.1621 5.8125L16.2109 5.86133L16.1621 5.8125Z" fill="#62D846"/>
<path d="M8.69141 5.85938L8.74023 5.9082L8.69141 5.85938ZM16.2109 5.85938L16.2598 5.9082L16.2109 5.85938Z" fill="#A0E88C"/>
<path d="M16.2598 5.85938L16.3086 5.9082L16.2598 5.85938Z" fill="#62D846"/>
<path d="M8.59375 5.90625L8.64258 5.95508L8.59375 5.90625Z" fill="#A0E88C"/>
<path d="M16.3574 5.90625L16.4062 5.95508L16.3574 5.90625Z" fill="#62D846"/>
<path d="M8.49609 5.95703L8.54492 6.00586L8.49609 5.95703ZM16.4551 5.95703L16.5039 6.00586L16.4551 5.95703Z" fill="#A0E88C"/>
<path d="M8.34961 6.00781L8.39844 6.05664L8.34961 6.00781Z" fill="#62D846"/>
<path d="M8.39844 6.00781L8.44727 6.05664L8.39844 6.00781ZM16.5527 6.00781L16.6016 6.05664L16.5527 6.00781Z" fill="#A0E88C"/>
<path d="M8.25195 6.05469L8.30078 6.10352L8.25195 6.05469Z" fill="#62D846"/>
<path d="M8.30078 6.05469L8.34961 6.10352L8.30078 6.05469ZM16.6504 6.05469L16.6992 6.10352L16.6504 6.05469ZM8.20312 6.10352L8.25195 6.15234L8.20312 6.10352ZM16.748 6.10352L16.7969 6.15234L16.748 6.10352ZM8.10547 6.15234L8.1543 6.20117L8.10547 6.15234ZM16.8457 6.15234L16.8945 6.20117L16.8457 6.15234ZM8.00781 6.20117L8.05664 6.25L8.00781 6.20117Z" fill="#A0E88C"/>
<path d="M16.9434 6.20312L16.9922 6.25195L16.9434 6.20312ZM7.91016 6.25195L7.95898 6.30078L7.91016 6.25195Z" fill="#62D846"/>
<path d="M16.9922 6.25L17.041 6.29883L16.9922 6.25Z" fill="#A0E88C"/>
<path d="M17.041 6.25L17.0898 6.29883L17.041 6.25ZM7.8125 6.29883L7.86133 6.34766L7.8125 6.29883Z" fill="#62D846"/>
<path d="M7.86133 6.29688L7.91016 6.3457L7.86133 6.29688ZM17.0898 6.29688L17.1387 6.3457L17.0898 6.29688ZM7.76367 6.3457L7.8125 6.39453L7.76367 6.3457ZM17.1875 6.3457L17.2363 6.39453L17.1875 6.3457Z" fill="#A0E88C"/>
<path d="M7.66602 6.39844L7.71484 6.44727L7.66602 6.39844ZM17.2852 6.39844L17.334 6.44727L17.2852 6.39844Z" fill="#62D846"/>
<path d="M7.61719 6.44531L7.66602 6.49414L7.61719 6.44531ZM17.334 6.44531L17.3828 6.49414L17.334 6.44531ZM7.51953 6.49414L7.56836 6.54297L7.51953 6.49414Z" fill="#A0E88C"/>
<path d="M17.4316 6.49219L17.4805 6.54102L17.4316 6.49219ZM7.42188 6.54102L7.4707 6.58984L7.42188 6.54102Z" fill="#62D846"/>
<path d="M17.4805 6.54297L17.5293 6.5918L17.4805 6.54297Z" fill="#A0E88C"/>
<path d="M7.37305 6.59375L7.42188 6.64258L7.37305 6.59375ZM17.5781 6.59375L17.627 6.64258L17.5781 6.59375Z" fill="#62D846"/>
<path d="M7.32422 6.64062L7.37305 6.68945L7.32422 6.64062ZM17.627 6.64062L17.6758 6.68945L17.627 6.64062Z" fill="#A0E88C"/>
<path d="M7.22656 6.6875L7.27539 6.73633L7.22656 6.6875ZM17.7246 6.6875L17.7734 6.73633L17.7246 6.6875Z" fill="#62D846"/>
<path d="M7.17773 6.73828L7.22656 6.78711L7.17773 6.73828ZM17.7734 6.73828L17.8223 6.78711L17.7734 6.73828Z" fill="#A0E88C"/>
<path d="M7.08008 6.78906L7.12891 6.83789L7.08008 6.78906Z" fill="#62D846"/>
<path d="M17.8223 6.78906L17.8711 6.83789L17.8223 6.78906Z" fill="#A0E88C"/>
<path d="M7.03125 6.83594L7.08008 6.88477L7.03125 6.83594ZM17.9199 6.83594L17.9688 6.88477L17.9199 6.83594Z" fill="#62D846"/>
<path d="M6.98242 6.88281L7.03125 6.93164L6.98242 6.88281ZM17.9688 6.88281L18.0176 6.93164L17.9688 6.88281ZM6.93359 6.93164L6.98242 6.98047L6.93359 6.93164ZM18.0176 6.93164L18.0664 6.98047L18.0176 6.93164Z" fill="#A0E88C"/>
<path d="M6.83594 6.98438L6.88477 7.0332L6.83594 6.98438ZM6.78711 7.0332L6.83594 7.08203L6.78711 7.0332ZM18.1641 7.0332L18.2129 7.08203L18.1641 7.0332Z" fill="#62D846"/>
<path d="M6.73828 7.07812L6.78711 7.12695L6.73828 7.07812Z" fill="#A0E88C"/>
<path d="M18.2129 7.07812L18.2617 7.12695L18.2129 7.07812Z" fill="#62D846"/>
<path d="M6.68945 7.12891L6.73828 7.17773L6.68945 7.12891ZM18.2617 7.12891L18.3105 7.17773L18.2617 7.12891ZM6.64062 7.17773L6.68945 7.22656L6.64062 7.17773ZM18.3105 7.17773L18.3594 7.22656L18.3105 7.17773ZM6.5918 7.22656L6.64062 7.27539L6.5918 7.22656ZM18.3594 7.22656L18.4082 7.27539L18.3594 7.22656ZM18.4082 7.27539L18.457 7.32422L18.4082 7.27539Z" fill="#A0E88C"/>
<path d="M6.44531 7.32422L6.49414 7.37305L6.44531 7.32422Z" fill="#62D846"/>
<path d="M18.457 7.32422L18.5059 7.37305L18.457 7.32422Z" fill="#A0E88C"/>
<path d="M6.39648 7.375L6.44531 7.42383L6.39648 7.375ZM6.34766 7.42383L6.39648 7.47266L6.34766 7.42383ZM6.29883 7.47266L6.34766 7.52148L6.29883 7.47266ZM6.25 7.52148L6.29883 7.57031L6.25 7.52148Z" fill="#62D846"/>
<path d="M18.7012 7.57031L18.75 7.61914L18.7012 7.57031ZM18.75 7.61914L18.7988 7.66797L18.75 7.61914ZM6.15234 7.66797L6.20117 7.7168L6.15234 7.66797ZM18.7988 7.66797L18.8477 7.7168L18.7988 7.66797ZM6.10352 7.7168L6.15234 7.76562L6.10352 7.7168ZM18.8477 7.7168L18.8965 7.76562L18.8477 7.7168ZM6.05469 7.76562L6.10352 7.81445L6.05469 7.76562ZM18.8965 7.76562L18.9453 7.81445L18.8965 7.76562ZM6.00586 7.81445L6.05469 7.86328L6.00586 7.81445Z" fill="#A0E88C"/>
<path d="M18.9453 7.8125L18.9941 7.86133L18.9453 7.8125ZM5.95703 7.86133L6.00586 7.91016L5.95703 7.86133ZM18.9941 7.86133L19.043 7.91016L18.9941 7.86133ZM5.9082 7.91016L5.95703 7.95898L5.9082 7.91016Z" fill="#62D846"/>
<path d="M19.043 7.96094L19.0918 8.00977L19.043 7.96094ZM5.85938 8.00977L5.9082 8.05859L5.85938 8.00977ZM19.0918 8.00977L19.1406 8.05859L19.0918 8.00977ZM5.81055 8.05859L5.85938 8.10742L5.81055 8.05859Z" fill="#A0E88C"/>
<path d="M19.1406 8.05469L19.1895 8.10352L19.1406 8.05469ZM5.76172 8.10352L5.81055 8.15234L5.76172 8.10352ZM19.1895 8.10352L19.2383 8.15234L19.1895 8.10352Z" fill="#62D846"/>
<path d="M5.71289 8.20312L5.76172 8.25195L5.71289 8.20312ZM19.2383 8.20312L19.2871 8.25195L19.2383 8.20312ZM5.66406 8.25195L5.71289 8.30078L5.66406 8.25195Z" fill="#A0E88C"/>
<path d="M19.2871 8.25L19.3359 8.29883L19.2871 8.25ZM5.61523 8.29883L5.66406 8.34766L5.61523 8.29883Z" fill="#62D846"/>
<path d="M19.3359 8.35156L19.3848 8.40039L19.3359 8.35156ZM5.56641 8.40039L5.61523 8.44922L5.56641 8.40039Z" fill="#A0E88C"/>
<path d="M19.3848 8.39844L19.4336 8.44727L19.3848 8.39844ZM5.51758 8.44727L5.56641 8.49609L5.51758 8.44727Z" fill="#62D846"/>
<path d="M19.4336 8.49609L19.4824 8.54492L19.4336 8.49609ZM5.46875 8.54492L5.51758 8.59375L5.46875 8.54492Z" fill="#A0E88C"/>
<path d="M19.4824 8.54688L19.5312 8.5957L19.4824 8.54688ZM5.41992 8.5957L5.46875 8.64453L5.41992 8.5957Z" fill="#62D846"/>
<path d="M5.41992 8.64062L5.46875 8.68945L5.41992 8.64062ZM19.5312 8.64062L19.5801 8.68945L19.5312 8.64062Z" fill="#A0E88C"/>
<path d="M5.37109 8.69141L5.41992 8.74023L5.37109 8.69141ZM19.5801 8.69141L19.6289 8.74023L19.5801 8.69141Z" fill="#62D846"/>
<path d="M19.5801 8.74219L19.6289 8.79102L19.5801 8.74219ZM5.32227 8.79102L5.37109 8.83984L5.32227 8.79102Z" fill="#A0E88C"/>
<path d="M19.6289 8.78906L19.6777 8.83789L19.6289 8.78906Z" fill="#62D846"/>
<path d="M5.27344 8.88672L5.32227 8.93555L5.27344 8.88672Z" fill="#A0E88C"/>
<path d="M19.6777 8.88672L19.7266 8.93555L19.6777 8.88672Z" fill="#62D846"/>
<path d="M5.22461 8.98438L5.27344 9.0332L5.22461 8.98438Z" fill="#A0E88C"/>
<path d="M19.7266 8.98438L19.7754 9.0332L19.7266 8.98438Z" fill="#62D846"/>
<path d="M5.17578 9.08203L5.22461 9.13086L5.17578 9.08203Z" fill="#A0E88C"/>
<path d="M19.7754 9.08203L19.8242 9.13086L19.7754 9.08203Z" fill="#62D846"/>
<path d="M5.12695 9.17969L5.17578 9.22852L5.12695 9.17969Z" fill="#A0E88C"/>
<path d="M19.8242 9.17969L19.873 9.22852L19.8242 9.17969Z" fill="#62D846"/>
<path d="M19.8242 9.22656L19.873 9.27539L19.8242 9.22656Z" fill="#A0E88C"/>
<path d="M5.07812 9.27734L5.12695 9.32617L5.07812 9.27734ZM19.873 9.27734L19.9219 9.32617L19.873 9.27734Z" fill="#62D846"/>
<path d="M5.07812 9.32812L5.12695 9.37695L5.07812 9.32812ZM19.873 9.32812L19.9219 9.37695L19.873 9.32812Z" fill="#A0E88C"/>
<path d="M5.0293 9.375L5.07812 9.42383L5.0293 9.375Z" fill="#62D846"/>
<path d="M5.0293 9.42188L5.07812 9.4707L5.0293 9.42188ZM19.9219 9.42188L19.9707 9.4707L19.9219 9.42188Z" fill="#A0E88C"/>
<path d="M4.98047 9.52344L5.0293 9.57227L4.98047 9.52344ZM19.9707 9.52344L20.0195 9.57227L19.9707 9.52344Z" fill="#62D846"/>
<path d="M4.98047 9.57031L5.0293 9.61914L4.98047 9.57031Z" fill="#A0E88C"/>
<path d="M8.30078 9.57031L8.34961 9.61914L8.30078 9.57031Z" fill="#62D846"/>
<path d="M8.83777 12.5958V11.2774C8.83777 10.8421 8.93142 10.2839 8.82224 9.86213C8.75867 9.61647 8.46858 9.50349 8.25886 9.65353C8.01731 9.82639 8.05652 10.1877 8.05652 10.4473V12.4005C8.05652 12.6562 8.00608 13.0066 8.18171 13.2194C8.39153 13.4735 8.88728 13.377 9.17956 13.377C9.49446 13.377 10.1445 13.4995 10.364 13.2169C10.5159 13.0215 10.4271 12.7234 10.2028 12.632C9.83494 12.4821 9.23249 12.5958 8.83777 12.5958Z" fill="#37CD01"/>
<path d="M8.59375 9.57031L8.64258 9.61914L8.59375 9.57031Z" fill="#62D846"/>
<path d="M10.9863 9.57031L11.0352 9.61914L10.9863 9.57031Z" fill="#A0E88C"/>
<path d="M11.0401 9.62052C10.7658 9.77438 10.8394 10.1875 10.8394 10.4492C10.8394 11.2708 10.7014 12.2298 10.8506 13.0369C10.9014 13.312 11.2165 13.4692 11.467 13.3214C11.7085 13.1788 11.6207 12.736 11.6207 12.5C11.6207 11.6888 11.8143 10.5986 11.6052 9.81662C11.5434 9.58576 11.2378 9.50959 11.0401 9.62052Z" fill="#37CD01"/>
<path d="M11.4258 9.57031L11.4746 9.61914L11.4258 9.57031Z" fill="#62D846"/>
<path d="M12.4512 9.57031L12.5 9.61914L12.4512 9.57031Z" fill="#A0E88C"/>
<path d="M12.5 9.57031L12.5488 9.61914L12.5 9.57031Z" fill="#62D846"/>
<path d="M13.0369 11.1798C13.5116 11.6967 13.9121 12.2879 14.345 12.8399C14.493 13.0286 14.6679 13.3487 14.9411 13.3554C15.3473 13.3655 15.3318 12.9279 15.3318 12.6446V10.6915C15.3318 10.4296 15.3971 10.0611 15.2956 9.81526C15.1691 9.50915 14.7576 9.54411 14.6149 9.81526C14.4758 10.0796 14.5505 10.4993 14.5505 10.7891V11.7657C14.0777 11.2509 13.6826 10.6567 13.2529 10.1055C13.1039 9.91433 12.9217 9.5968 12.6463 9.59001C12.2401 9.58 12.2556 10.0176 12.2556 10.3009V12.254C12.2556 12.5133 12.1889 12.8852 12.2919 13.1278C12.4102 13.4066 12.8127 13.429 12.9657 13.1713C13.1216 12.9088 13.0369 12.4508 13.0369 12.1563V11.1798Z" fill="#37CD01"/>
<path d="M12.7441 9.57031L12.793 9.61914L12.7441 9.57031Z" fill="#62D846"/>
<path d="M14.7949 9.57031L14.8438 9.61914L14.7949 9.57031Z" fill="#A0E88C"/>
<path d="M14.8438 9.57031L14.8926 9.61914L14.8438 9.57031ZM15.0391 9.57031L15.0879 9.61914L15.0391 9.57031Z" fill="#62D846"/>
<path d="M15.0879 9.57031L15.1367 9.61914L15.0879 9.57031ZM16.1621 9.57031L16.2109 9.61914L16.1621 9.57031Z" fill="#A0E88C"/>
<path d="M16.2109 9.57031L16.2598 9.61914L16.2109 9.57031Z" fill="#62D846"/>
<path d="M16.7476 12.5995V11.8671C17.1333 11.8671 17.704 11.9733 18.0653 11.8308C18.3151 11.7323 18.4345 11.4209 18.2294 11.2153C17.9463 10.9315 17.1207 11.0858 16.7476 11.0858V10.3534C17.0876 10.3534 18.7264 10.5359 18.3013 9.77277C18.1042 9.41871 17.2855 9.57213 16.9429 9.57213C16.6817 9.57213 16.2376 9.49171 16.0571 9.73224C15.902 9.93893 15.9664 10.3063 15.9664 10.5487V12.453C15.9664 12.6986 15.9041 13.0594 16.0959 13.2512C16.4006 13.5559 17.4158 13.3908 17.8218 13.38C18.0017 13.3753 18.2028 13.352 18.3013 13.1789C18.7332 12.4204 17.0813 12.5995 16.7476 12.5995Z" fill="#37CD01"/>
<path d="M18.1152 9.57031L18.1641 9.61914L18.1152 9.57031ZM19.9707 9.57031L20.0195 9.61914L19.9707 9.57031Z" fill="#A0E88C"/>
<path d="M8.20312 9.61719L8.25195 9.66602L8.20312 9.61719Z" fill="#62D846"/>
<path d="M8.69141 9.61719L8.74023 9.66602L8.69141 9.61719Z" fill="#A0E88C"/>
<path d="M10.9375 9.61719L10.9863 9.66602L10.9375 9.61719Z" fill="#62D846"/>
<path d="M11.5234 9.61719L11.5723 9.66602L11.5234 9.61719Z" fill="#A0E88C"/>
<path d="M12.4023 9.61719L12.4512 9.66602L12.4023 9.61719ZM12.8418 9.61719L12.8906 9.66602L12.8418 9.61719Z" fill="#62D846"/>
<path d="M14.6973 9.61719L14.7461 9.66602L14.6973 9.61719ZM4.93164 9.66602L4.98047 9.71484L4.93164 9.66602Z" fill="#A0E88C"/>
<path d="M8.1543 9.66797L8.20312 9.7168L8.1543 9.66797Z" fill="#62D846"/>
<path d="M8.74023 9.66797L8.78906 9.7168L8.74023 9.66797Z" fill="#A0E88C"/>
<path d="M10.8887 9.66797L10.9375 9.7168L10.8887 9.66797Z" fill="#62D846"/>
<path d="M11.5723 9.66797L11.6211 9.7168L11.5723 9.66797Z" fill="#A0E88C"/>
<path d="M12.8906 9.66797L12.9395 9.7168L12.8906 9.66797Z" fill="#62D846"/>
<path d="M14.6484 9.66797L14.6973 9.7168L14.6484 9.66797ZM15.2344 9.66797L15.2832 9.7168L15.2344 9.66797ZM18.2617 9.66797L18.3105 9.7168L18.2617 9.66797Z" fill="#A0E88C"/>
<path d="M20.0195 9.66797L20.0684 9.7168L20.0195 9.66797Z" fill="#62D846"/>
<path d="M8.10547 9.71875L8.1543 9.76758L8.10547 9.71875ZM8.78906 9.71875L8.83789 9.76758L8.78906 9.71875ZM10.8398 9.71875L10.8887 9.76758L10.8398 9.71875Z" fill="#A0E88C"/>
<path d="M12.9395 9.71875L12.9883 9.76758L12.9395 9.71875Z" fill="#62D846"/>
<path d="M14.5996 9.71875L14.6484 9.76758L14.5996 9.71875ZM20.0195 9.71875L20.0684 9.76758L20.0195 9.71875Z" fill="#A0E88C"/>
<path d="M10.8398 9.76562L10.8887 9.81445L10.8398 9.76562Z" fill="#62D846"/>
<path d="M11.6377 9.79819L11.654 9.83071L11.6377 9.79819ZM12.2562 9.76562L12.305 9.81445L12.2562 9.76562ZM12.9886 9.76562L13.0375 9.81445L12.9886 9.76562Z" fill="#A0E88C"/>
<path d="M15.2832 9.76562L15.332 9.81445L15.2832 9.76562Z" fill="#62D846"/>
<path d="M15.9668 9.76562L16.0156 9.81445L15.9668 9.76562Z" fill="#A0E88C"/>
<path d="M18.3105 9.76562L18.3594 9.81445L18.3105 9.76562Z" fill="#62D846"/>
<path d="M4.89941 9.84507L4.91572 9.87759L4.89941 9.84507ZM8.05698 9.8125L8.10581 9.86133L8.05698 9.8125ZM14.5511 9.8125L14.6 9.86133L14.5511 9.8125Z" fill="#A0E88C"/>
<path d="M15.9671 9.8125L16.016 9.86133L15.9671 9.8125ZM20.0687 9.8125L20.1175 9.86133L20.0687 9.8125ZM8.07324 9.8939L8.08955 9.92642L8.07324 9.8939Z" fill="#62D846"/>
<path d="M8.83789 9.86328L8.88672 9.91211L8.83789 9.86328Z" fill="#A0E88C"/>
<path d="M11.6211 9.86328V13.0859H11.6699V10.8887L11.6211 9.86328ZM14.5508 9.86328L14.5996 9.91211L14.5508 9.86328Z" fill="#62D846"/>
<path d="M15.3486 9.89585L15.3649 9.92837L15.3486 9.89585ZM18.3597 9.86328V10.0586H18.4085L18.3597 9.86328ZM20.0687 9.86328L20.1175 9.91211L20.0687 9.86328Z" fill="#A0E88C"/>
<path d="M8.83789 9.91406V12.5996H8.88672V10.793L8.83789 9.91406Z" fill="#62D846"/>
<path d="M12.207 9.91406V13.0391H12.2559V10.8906L12.207 9.91406Z" fill="#A0E88C"/>
<path d="M13.0859 9.91406L13.1348 9.96289L13.0859 9.91406ZM4.83398 9.96289L4.88281 10.0117L4.83398 9.96289Z" fill="#62D846"/>
<path d="M13.1348 9.96094L13.1836 10.0098L13.1348 9.96094Z" fill="#A0E88C"/>
<path d="M15.332 9.96094V12.9883H15.3809V10.9375L15.332 9.96094ZM20.1172 9.96094L20.166 10.0098L20.1172 9.96094Z" fill="#62D846"/>
<path d="M4.83398 10.0078L4.88281 10.0566L4.83398 10.0078ZM13.1836 10.0078L13.2324 10.0566L13.1836 10.0078ZM20.1334 10.0404L20.1498 10.0729L20.1334 10.0404Z" fill="#A0E88C"/>
<path d="M13.2324 10.1094L13.2812 10.1582L13.2324 10.1094ZM18.3105 10.1094L18.3594 10.1582L18.3105 10.1094ZM4.78516 10.1582L4.83398 10.207L4.78516 10.1582Z" fill="#62D846"/>
<path d="M13.2812 10.1562L13.3301 10.2051L13.2812 10.1562Z" fill="#A0E88C"/>
<path d="M20.166 10.1562L20.2148 10.2051L20.166 10.1562Z" fill="#62D846"/>
<path d="M4.80176 10.2357L4.81804 10.2682L4.80176 10.2357ZM13.3304 10.2031L13.3792 10.252L13.3304 10.2031ZM18.262 10.2031L18.3109 10.252L18.262 10.2031ZM20.1826 10.2357L20.1989 10.2682L20.1826 10.2357ZM18.2132 10.252L18.262 10.3008L18.2132 10.252Z" fill="#A0E88C"/>
<path d="M18.1156 10.3047L18.1644 10.3535L18.1156 10.3047ZM4.75293 10.3861L4.76921 10.4186L4.75293 10.3861ZM13.4281 10.3535L13.4769 10.4023L13.4281 10.3535Z" fill="#62D846"/>
<path d="M16.748 10.3516V11.084H16.7969V10.4004H17.9688L16.748 10.3516ZM13.4766 10.4004L13.5254 10.4492L13.4766 10.4004Z" fill="#A0E88C"/>
<path d="M20.2148 10.3984L20.2637 10.4473L20.2148 10.3984Z" fill="#62D846"/>
<path d="M4.75293 10.4818L4.76921 10.5143L4.75293 10.4818ZM20.2152 10.4492V10.5957H20.264L20.2152 10.4492Z" fill="#A0E88C"/>
<path d="M13.5742 10.5469L13.623 10.5957L13.5742 10.5469Z" fill="#62D846"/>
<path d="M13.623 10.5938L13.6719 10.6426L13.623 10.5938Z" fill="#A0E88C"/>
<path d="M4.6875 10.6445V10.791H4.73633L4.6875 10.6445ZM20.2637 10.6934V10.8398H20.3125L20.2637 10.6934ZM13.7207 10.7422L13.7695 10.791L13.7207 10.7422Z" fill="#62D846"/>
<path d="M4.6875 10.7891V10.9844H4.73633L4.6875 10.7891ZM13.7695 10.7891L13.8184 10.8379L13.7695 10.7891ZM13.8184 10.8379L13.8672 10.8867L13.8184 10.8379ZM20.2637 10.8379V11.082H20.3125L20.2637 10.8379Z" fill="#A0E88C"/>
<path d="M13.8672 10.9375L13.916 10.9863L13.8672 10.9375Z" fill="#62D846"/>
<path d="M13.916 10.9844L13.9648 11.0332L13.916 10.9844ZM13.9648 11.0332L14.0137 11.082L13.9648 11.0332Z" fill="#A0E88C"/>
<path d="M18.0664 11.0859L18.1152 11.1348L18.0664 11.0859Z" fill="#62D846"/>
<path d="M18.1152 11.0859L18.1641 11.1348L18.1152 11.0859Z" fill="#A0E88C"/>
<path d="M18.1641 11.1328L18.2129 11.1816L18.1641 11.1328ZM14.0625 11.1816L14.1113 11.2305L14.0625 11.1816Z" fill="#62D846"/>
<path d="M13.0859 11.2305L13.1348 11.2793L13.0859 11.2305ZM14.1113 11.2305L14.1602 11.2793L14.1113 11.2305Z" fill="#A0E88C"/>
<path d="M18.2617 11.2305L18.3105 11.2793L18.2617 11.2305Z" fill="#62D846"/>
<path d="M13.1348 11.2812L13.1836 11.3301L13.1348 11.2812Z" fill="#A0E88C"/>
<path d="M13.1836 11.3281L13.2324 11.377L13.1836 11.3281ZM18.3105 11.3281L18.3594 11.377L18.3105 11.3281ZM14.209 11.377L14.2578 11.4258L14.209 11.377Z" fill="#62D846"/>
<path d="M14.2578 11.4258L14.3066 11.4746L14.2578 11.4258ZM13.2812 11.4746L13.3301 11.5234L13.2812 11.4746ZM14.3066 11.4746L14.3555 11.5234L14.3066 11.4746Z" fill="#A0E88C"/>
<path d="M13.3301 11.5234L13.3789 11.5723L13.3301 11.5234ZM14.3555 11.5723L14.4043 11.6211L14.3555 11.5723ZM18.3105 11.5723L18.3594 11.6211L18.3105 11.5723Z" fill="#62D846"/>
<path d="M14.4043 11.6211L14.4531 11.6699L14.4043 11.6211ZM4.6875 11.6699V11.8652H4.73633L4.6875 11.6699ZM13.4277 11.6699L13.4766 11.7188L13.4277 11.6699ZM14.4531 11.6699L14.502 11.7188L14.4531 11.6699Z" fill="#A0E88C"/>
<path d="M18.2617 11.6719L18.3105 11.7207L18.2617 11.6719Z" fill="#62D846"/>
<path d="M13.4766 11.7188L13.5254 11.7676L13.4766 11.7188Z" fill="#A0E88C"/>
<path d="M18.2129 11.7188L18.2617 11.7676L18.2129 11.7188ZM13.5254 11.7676L13.5742 11.8164L13.5254 11.7676ZM18.1641 11.7676L18.2129 11.8164L18.1641 11.7676Z" fill="#62D846"/>
<path d="M20.2637 11.7656V11.9121H20.3125L20.2637 11.7656Z" fill="#A0E88C"/>
<path d="M18.0664 11.8164L18.1152 11.8652L18.0664 11.8164Z" fill="#62D846"/>
<path d="M18.1152 11.8164L18.1641 11.8652L18.1152 11.8164Z" fill="#A0E88C"/>
<path d="M4.7041 11.8984L4.72038 11.931L4.7041 11.8984Z" fill="#62D846"/>
<path d="M13.5742 11.8672L13.623 11.916L13.5742 11.8672ZM16.748 11.8672V12.5996H18.0664V12.5508H16.7969L16.748 11.8672ZM13.623 11.916L13.6719 11.9648L13.623 11.916Z" fill="#A0E88C"/>
<path d="M20.2799 11.9453L20.2962 11.9778L20.2799 11.9453ZM13.6719 11.9616L13.7207 12.0104L13.6719 11.9616Z" fill="#62D846"/>
<path d="M4.75293 12.1419L4.76921 12.1745L4.75293 12.1419ZM13.7699 12.1094L13.8187 12.1582L13.7699 12.1094ZM20.2314 12.1419L20.2477 12.1745L20.2314 12.1419Z" fill="#A0E88C"/>
<path d="M13.8184 12.1562L13.8672 12.2051L13.8184 12.1562ZM4.73633 12.2051L4.78516 12.2539L4.73633 12.2051ZM13.8672 12.2051L13.916 12.2539L13.8672 12.2051ZM20.2311 12.2376L20.2474 12.2702L20.2311 12.2376Z" fill="#62D846"/>
<path d="M13.9163 12.3047L13.9652 12.3535L13.9163 12.3047ZM4.80176 12.3861L4.81804 12.4186L4.80176 12.3861ZM13.9652 12.3535L14.014 12.4023L13.9652 12.3535ZM20.1826 12.3861L20.1989 12.4186L20.1826 12.3861Z" fill="#A0E88C"/>
<path d="M14.0137 12.4023L14.0625 12.4512L14.0137 12.4023ZM4.78516 12.4512L4.83398 12.5L4.78516 12.4512ZM20.166 12.4512L20.2148 12.5L20.166 12.4512Z" fill="#62D846"/>
<path d="M4.85059 12.5794L4.86687 12.612L4.85059 12.5794ZM8.88705 12.5469V12.5957H10.1566L8.88705 12.5469ZM14.1117 12.5469L14.1605 12.5957L14.1117 12.5469Z" fill="#A0E88C"/>
<path d="M10.2051 12.5977L10.2539 12.6465L10.2051 12.5977ZM14.1602 12.5977L14.209 12.6465L14.1602 12.5977ZM18.1152 12.5977L18.1641 12.6465L18.1152 12.5977Z" fill="#62D846"/>
<path d="M20.1172 12.5977L20.166 12.6465L20.1172 12.5977Z" fill="#A0E88C"/>
<path d="M4.83398 12.6484L4.88281 12.6973L4.83398 12.6484Z" fill="#62D846"/>
<path d="M10.3027 12.6484L10.3516 12.6973L10.3027 12.6484ZM18.2129 12.6484L18.2617 12.6973L18.2129 12.6484Z" fill="#A0E88C"/>
<path d="M20.1172 12.6484L20.166 12.6973L20.1172 12.6484Z" fill="#62D846"/>
<path d="M10.3516 12.6953L10.4004 12.7441L10.3516 12.6953ZM18.2617 12.6953L18.3105 12.7441L18.2617 12.6953ZM4.88281 12.7441L4.93164 12.793L4.88281 12.7441ZM14.2578 12.7441L14.3066 12.793L14.2578 12.7441ZM18.3105 12.7441L18.3594 12.793L18.3105 12.7441ZM20.0684 12.7441L20.1172 12.793L20.0684 12.7441Z" fill="#A0E88C"/>
<path d="M4.88281 12.793L4.93164 12.8418L4.88281 12.793ZM10.4004 12.793L10.4492 12.8418L10.4004 12.793Z" fill="#62D846"/>
<path d="M14.3066 12.793L14.3555 12.8418L14.3066 12.793Z" fill="#A0E88C"/>
<path d="M18.3105 12.793L18.3594 12.8418L18.3105 12.793ZM20.0684 12.793L20.1172 12.8418L20.0684 12.793ZM14.3555 12.8418L14.4043 12.8906L14.3555 12.8418Z" fill="#62D846"/>
<path d="M4.93164 12.8906L4.98047 12.9395L4.93164 12.8906ZM18.3594 12.8906V13.0859H18.4082L18.3594 12.8906ZM20.0358 12.9232L20.0521 12.9557L20.0358 12.9232Z" fill="#A0E88C"/>
<path d="M4.93164 12.9375L4.98047 12.9863L4.93164 12.9375Z" fill="#62D846"/>
<path d="M10.4658 12.9727L10.4821 13.0052L10.4658 12.9727Z" fill="#A0E88C"/>
<path d="M8.07324 13.0195L8.08955 13.0521L8.07324 13.0195Z" fill="#62D846"/>
<path d="M14.4531 12.9883L14.502 13.0371L14.4531 12.9883ZM15.3483 13.0208L15.3646 13.0534L15.3483 13.0208ZM4.98047 13.0371L5.0293 13.0859L4.98047 13.0371Z" fill="#A0E88C"/>
<path d="M14.502 13.0391L14.5508 13.0879L14.502 13.0391Z" fill="#62D846"/>
<path d="M19.9707 13.0391L20.0195 13.0879L19.9707 13.0391Z" fill="#A0E88C"/>
<path d="M4.98047 13.0859L5.0293 13.1348L4.98047 13.0859Z" fill="#62D846"/>
<path d="M8.05664 13.0859L8.10547 13.1348L8.05664 13.0859ZM11.6374 13.1185L11.6537 13.151L11.6374 13.1185Z" fill="#A0E88C"/>
<path d="M12.9883 13.0859L13.0371 13.1348L12.9883 13.0859ZM15.9668 13.0859L16.0156 13.1348L15.9668 13.0859ZM19.9707 13.0859L20.0195 13.1348L19.9707 13.0859Z" fill="#62D846"/>
<path d="M10.4004 13.1328L10.4492 13.1816L10.4004 13.1328Z" fill="#A0E88C"/>
<path d="M10.8398 13.1328L10.8887 13.1816L10.8398 13.1328Z" fill="#62D846"/>
<path d="M12.2559 13.1328L12.3047 13.1816L12.2559 13.1328ZM15.2832 13.1328L15.332 13.1816L15.2832 13.1328ZM15.9668 13.1328L16.0156 13.1816L15.9668 13.1328Z" fill="#A0E88C"/>
<path d="M18.3105 13.1328L18.3594 13.1816L18.3105 13.1328Z" fill="#62D846"/>
<path d="M5.0293 13.1836L5.07812 13.2324L5.0293 13.1836ZM8.10547 13.1836L8.1543 13.2324L8.10547 13.1836ZM10.8398 13.1836L10.8887 13.2324L10.8398 13.1836Z" fill="#A0E88C"/>
<path d="M12.9395 13.1836L12.9883 13.2324L12.9395 13.1836Z" fill="#62D846"/>
<path d="M14.5996 13.1836L14.6484 13.2324L14.5996 13.1836Z" fill="#A0E88C"/>
<path d="M16.0156 13.1836L16.0645 13.2324L16.0156 13.1836Z" fill="#62D846"/>
<path d="M19.9219 13.1836L19.9707 13.2324L19.9219 13.1836ZM8.1543 13.2324L8.20312 13.2812L8.1543 13.2324Z" fill="#A0E88C"/>
<path d="M10.8887 13.2344L10.9375 13.2832L10.8887 13.2344Z" fill="#62D846"/>
<path d="M11.5723 13.2344L11.6211 13.2832L11.5723 13.2344ZM14.6484 13.2344L14.6973 13.2832L14.6484 13.2344ZM18.2617 13.2344L18.3105 13.2832L18.2617 13.2344Z" fill="#A0E88C"/>
<path d="M19.9219 13.2344L19.9707 13.2832L19.9219 13.2344Z" fill="#62D846"/>
<path d="M5.07812 13.2812L5.12695 13.3301L5.07812 13.2812ZM8.20312 13.2812L8.25195 13.3301L8.20312 13.2812Z" fill="#A0E88C"/>
<path d="M10.9375 13.2812L10.9863 13.3301L10.9375 13.2812Z" fill="#62D846"/>
<path d="M11.5234 13.2812L11.5723 13.3301L11.5234 13.2812Z" fill="#A0E88C"/>
<path d="M12.4023 13.2812L12.4512 13.3301L12.4023 13.2812ZM12.8418 13.2812L12.8906 13.3301L12.8418 13.2812Z" fill="#62D846"/>
<path d="M14.6973 13.2812L14.7461 13.3301L14.6973 13.2812Z" fill="#A0E88C"/>
<path d="M15.1367 13.2812L15.1855 13.3301L15.1367 13.2812ZM16.1133 13.2812L16.1621 13.3301L16.1133 13.2812Z" fill="#62D846"/>
<path d="M19.873 13.2812L19.9219 13.3301L19.873 13.2812Z" fill="#A0E88C"/>
<path d="M5.07812 13.3281L5.12695 13.377L5.07812 13.3281Z" fill="#62D846"/>
<path d="M8.30078 13.3281L8.34961 13.377L8.30078 13.3281Z" fill="#A0E88C"/>
<path d="M10.1562 13.3281L10.2051 13.377L10.1562 13.3281Z" fill="#62D846"/>
<path d="M10.2051 13.3281L10.2539 13.377L10.2051 13.3281ZM10.9863 13.3281L11.0352 13.377L10.9863 13.3281Z" fill="#A0E88C"/>
<path d="M11.0352 13.3281L11.084 13.377L11.0352 13.3281ZM11.4258 13.3281L11.4746 13.377L11.4258 13.3281Z" fill="#62D846"/>
<path d="M12.4512 13.3281L12.5 13.377L12.4512 13.3281Z" fill="#A0E88C"/>
<path d="M12.5 13.3281L12.5488 13.377L12.5 13.3281ZM12.7441 13.3281L12.793 13.377L12.7441 13.3281Z" fill="#62D846"/>
<path d="M14.7949 13.3281L14.8438 13.377L14.7949 13.3281Z" fill="#A0E88C"/>
<path d="M15.0391 13.3281L15.0879 13.377L15.0391 13.3281Z" fill="#62D846"/>
<path d="M15.0879 13.3281L15.1367 13.377L15.0879 13.3281ZM16.1621 13.3281L16.2109 13.377L16.1621 13.3281Z" fill="#A0E88C"/>
<path d="M16.2109 13.3281L16.2598 13.377L16.2109 13.3281ZM18.0664 13.3281L18.1152 13.377L18.0664 13.3281Z" fill="#62D846"/>
<path d="M18.1152 13.3281L18.1641 13.377L18.1152 13.3281Z" fill="#A0E88C"/>
<path d="M19.873 13.3281L19.9219 13.377L19.873 13.3281ZM5.12695 13.4258L5.17578 13.4746L5.12695 13.4258ZM19.8242 13.4258L19.873 13.4746L19.8242 13.4258Z" fill="#62D846"/>
<path d="M5.17578 13.5234L5.22461 13.5723L5.17578 13.5234ZM19.7754 13.5234L19.8242 13.5723L19.7754 13.5234ZM5.22461 13.6211L5.27344 13.6699L5.22461 13.6211ZM19.7266 13.6211L19.7754 13.6699L19.7266 13.6211Z" fill="#A0E88C"/>
<path d="M5.27344 13.7188L5.32227 13.7676L5.27344 13.7188ZM19.6777 13.7188L19.7266 13.7676L19.6777 13.7188ZM5.32227 13.8164L5.37109 13.8652L5.32227 13.8164ZM19.6289 13.8164L19.6777 13.8652L19.6289 13.8164Z" fill="#62D846"/>
<path d="M5.37109 13.8672L5.41992 13.916L5.37109 13.8672ZM19.5801 13.8672L19.6289 13.916L19.5801 13.8672Z" fill="#A0E88C"/>
<path d="M5.37109 13.9141L5.41992 13.9629L5.37109 13.9141Z" fill="#62D846"/>
<path d="M5.41992 13.9648L5.46875 14.0137L5.41992 13.9648Z" fill="#A0E88C"/>
<path d="M19.5312 13.9648L19.5801 14.0137L19.5312 13.9648Z" fill="#62D846"/>
<path d="M19.4824 14.0156L19.5312 14.0645L19.4824 14.0156Z" fill="#A0E88C"/>
<path d="M5.46875 14.0625L5.51758 14.1113L5.46875 14.0625ZM19.4824 14.0625L19.5312 14.1113L19.4824 14.0625Z" fill="#62D846"/>
<path d="M5.51758 14.1094L5.56641 14.1582L5.51758 14.1094ZM19.4336 14.1094L19.4824 14.1582L19.4336 14.1094ZM19.3848 14.1582L19.4336 14.207L19.3848 14.1582ZM5.56641 14.207L5.61523 14.2559L5.56641 14.207ZM5.61523 14.2559L5.66406 14.3047L5.61523 14.2559Z" fill="#A0E88C"/>
<path d="M19.3359 14.2578L19.3848 14.3066L19.3359 14.2578Z" fill="#62D846"/>
<path d="M19.2871 14.3047L19.3359 14.3535L19.2871 14.3047Z" fill="#A0E88C"/>
<path d="M5.66406 14.3555L5.71289 14.4043L5.66406 14.3555Z" fill="#62D846"/>
<path d="M5.71289 14.4062L5.76172 14.4551L5.71289 14.4062Z" fill="#A0E88C"/>
<path d="M19.2383 14.4062L19.2871 14.4551L19.2383 14.4062Z" fill="#62D846"/>
<path d="M19.1895 14.4531L19.2383 14.502L19.1895 14.4531Z" fill="#A0E88C"/>
<path d="M5.81055 14.5508L5.85938 14.5996L5.81055 14.5508ZM19.1406 14.5508L19.1895 14.5996L19.1406 14.5508Z" fill="#62D846"/>
<path d="M5.85938 14.6016L5.9082 14.6504L5.85938 14.6016ZM19.0918 14.6016L19.1406 14.6504L19.0918 14.6016ZM5.9082 14.6504L5.95703 14.6992L5.9082 14.6504ZM19.043 14.6504L19.0918 14.6992L19.043 14.6504Z" fill="#A0E88C"/>
<path d="M5.95703 14.7461L6.00586 14.7949L5.95703 14.7461ZM18.9941 14.7461L19.043 14.7949L18.9941 14.7461ZM6.00586 14.7949L6.05469 14.8438L6.00586 14.7949Z" fill="#62D846"/>
<path d="M18.9453 14.7969L18.9941 14.8457L18.9453 14.7969Z" fill="#A0E88C"/>
<path d="M6.05469 14.8438L6.10352 14.8926L6.05469 14.8438Z" fill="#62D846"/>
<path d="M6.10352 14.8906L6.15234 14.9395L6.10352 14.8906Z" fill="#A0E88C"/>
<path d="M18.8965 14.8906L18.9453 14.9395L18.8965 14.8906Z" fill="#62D846"/>
<path d="M6.15234 14.9414L6.20117 14.9902L6.15234 14.9414ZM18.8477 14.9414L18.8965 14.9902L18.8477 14.9414ZM6.20117 14.9902L6.25 15.0391L6.20117 14.9902ZM18.7988 14.9902L18.8477 15.0391L18.7988 14.9902ZM6.25 15.0391L6.29883 15.0879L6.25 15.0391ZM6.29883 15.0879L6.34766 15.1367L6.29883 15.0879Z" fill="#A0E88C"/>
<path d="M18.75 15.0859L18.7988 15.1348L18.75 15.0859Z" fill="#62D846"/>
<path d="M6.34766 15.1367L6.39648 15.1855L6.34766 15.1367Z" fill="#A0E88C"/>
<path d="M18.7012 15.1367L18.75 15.1855L18.7012 15.1367Z" fill="#62D846"/>
<path d="M6.39648 15.1875L6.44531 15.2363L6.39648 15.1875ZM18.6523 15.1875L18.7012 15.2363L18.6523 15.1875ZM6.44531 15.2363L6.49414 15.2852L6.44531 15.2363ZM6.49414 15.2852L6.54297 15.334L6.49414 15.2852Z" fill="#A0E88C"/>
<path d="M18.6035 15.2812L18.6523 15.3301L18.6035 15.2812Z" fill="#62D846"/>
<path d="M6.54297 15.332L6.5918 15.3809L6.54297 15.332Z" fill="#A0E88C"/>
<path d="M18.5547 15.332L18.6035 15.3809L18.5547 15.332Z" fill="#62D846"/>
<path d="M6.5918 15.3828L6.64062 15.4316L6.5918 15.3828Z" fill="#A0E88C"/>
<path d="M18.5059 15.3828L18.5547 15.4316L18.5059 15.3828Z" fill="#62D846"/>
<path d="M6.64062 15.4297L6.68945 15.4785L6.64062 15.4297ZM18.457 15.4297L18.5059 15.4785L18.457 15.4297Z" fill="#A0E88C"/>
<path d="M6.68945 15.4766L6.73828 15.5254L6.68945 15.4766Z" fill="#62D846"/>
<path d="M18.4082 15.4766L18.457 15.5254L18.4082 15.4766Z" fill="#A0E88C"/>
<path d="M6.73828 15.5273L6.78711 15.5762L6.73828 15.5273Z" fill="#62D846"/>
<path d="M18.3594 15.5273L18.4082 15.5762L18.3594 15.5273Z" fill="#A0E88C"/>
<path d="M6.78711 15.5781L6.83594 15.627L6.78711 15.5781Z" fill="#62D846"/>
<path d="M6.88477 15.625L6.93359 15.6738L6.88477 15.625ZM6.93359 15.6738L6.98242 15.7227L6.93359 15.6738Z" fill="#A0E88C"/>
<path d="M18.2617 15.6719L18.3105 15.7207L18.2617 15.6719ZM6.98242 15.7207L7.03125 15.7695L6.98242 15.7207ZM18.2129 15.7207L18.2617 15.7695L18.2129 15.7207ZM7.03125 15.7695L7.08008 15.8184L7.03125 15.7695ZM18.1641 15.7695L18.2129 15.8184L18.1641 15.7695Z" fill="#62D846"/>
<path d="M7.12891 15.8203L7.17773 15.8691L7.12891 15.8203Z" fill="#A0E88C"/>
<path d="M18.1152 15.8203L18.1641 15.8691L18.1152 15.8203Z" fill="#62D846"/>
<path d="M7.17773 15.8672L7.22656 15.916L7.17773 15.8672Z" fill="#A0E88C"/>
<path d="M18.0664 15.8672L18.1152 15.916L18.0664 15.8672ZM7.22656 15.916L7.27539 15.9648L7.22656 15.916Z" fill="#62D846"/>
<path d="M7.27539 15.918L7.32422 15.9668L7.27539 15.918Z" fill="#A0E88C"/>
<path d="M18.0176 15.918L18.0664 15.9668L18.0176 15.918Z" fill="#62D846"/>
<path d="M7.32422 15.9688L7.37305 16.0176L7.32422 15.9688Z" fill="#A0E88C"/>
<path d="M17.9688 15.9688L18.0176 16.0176L17.9688 15.9688ZM7.37305 16.0176L7.42188 16.0664L7.37305 16.0176ZM17.9199 16.0176L17.9688 16.0664L17.9199 16.0176Z" fill="#62D846"/>
<path d="M7.4707 16.0625L7.51953 16.1113L7.4707 16.0625Z" fill="#A0E88C"/>
<path d="M17.8711 16.0625L17.9199 16.1113L17.8711 16.0625ZM7.51953 16.1113L7.56836 16.1602L7.51953 16.1113ZM17.8223 16.1113L17.8711 16.1602L17.8223 16.1113Z" fill="#62D846"/>
<path d="M7.61719 16.1641L7.66602 16.2129L7.61719 16.1641Z" fill="#A0E88C"/>
<path d="M17.7734 16.1641L17.8223 16.2129L17.7734 16.1641ZM7.66602 16.2129L7.71484 16.2617L7.66602 16.2129Z" fill="#62D846"/>
<path d="M7.71484 16.2109L7.76367 16.2598L7.71484 16.2109Z" fill="#A0E88C"/>
<path d="M17.7246 16.2109L17.7734 16.2598L17.7246 16.2109ZM7.76367 16.2598L7.8125 16.3086L7.76367 16.2598ZM17.6758 16.2598L17.7246 16.3086L17.6758 16.2598Z" fill="#62D846"/>
<path d="M7.86133 16.3086L7.91016 16.3574L7.86133 16.3086Z" fill="#A0E88C"/>
<path d="M17.627 16.3086L17.6758 16.3574L17.627 16.3086ZM7.91016 16.3574L7.95898 16.4062L7.91016 16.3574Z" fill="#62D846"/>
<path d="M7.95898 16.3594L8.00781 16.4082L7.95898 16.3594Z" fill="#A0E88C"/>
<path d="M17.5781 16.3594L17.627 16.4082L17.5781 16.3594ZM8.00781 16.4082L8.05664 16.457L8.00781 16.4082Z" fill="#62D846"/>
<path d="M8.05664 16.4062L8.10547 16.4551L8.05664 16.4062Z" fill="#A0E88C"/>
<path d="M17.5293 16.4062L17.5781 16.4551L17.5293 16.4062ZM8.10547 16.4551L8.1543 16.5039L8.10547 16.4551ZM17.4805 16.4551L17.5293 16.5039L17.4805 16.4551ZM8.20312 16.5039L8.25195 16.5527L8.20312 16.5039Z" fill="#62D846"/>
<path d="M8.30078 16.5547L8.34961 16.6035L8.30078 16.5547ZM17.334 16.5547L17.3828 16.6035L17.334 16.5547Z" fill="#A0E88C"/>
<path d="M8.39844 16.6016L8.44727 16.6504L8.39844 16.6016Z" fill="#62D846"/>
<path d="M17.2852 16.6016L17.334 16.6504L17.2852 16.6016Z" fill="#A0E88C"/>
<path d="M8.49609 16.6484L8.54492 16.6973L8.49609 16.6484Z" fill="#62D846"/>
<path d="M17.2363 16.6484L17.2852 16.6973L17.2363 16.6484Z" fill="#A0E88C"/>
<path d="M8.59375 16.6992L8.64258 16.748L8.59375 16.6992Z" fill="#62D846"/>
<path d="M8.64258 16.6992L8.69141 16.748L8.64258 16.6992ZM17.1875 16.6992L17.2363 16.748L17.1875 16.6992Z" fill="#A0E88C"/>
<path d="M8.69141 16.75L8.74023 16.7988L8.69141 16.75Z" fill="#62D846"/>
<path d="M8.74023 16.75L8.78906 16.7988L8.74023 16.75Z" fill="#A0E88C"/>
<path d="M17.1387 16.75L17.1875 16.7988L17.1387 16.75Z" fill="#62D846"/>
<path d="M8.83789 16.7969L8.88672 16.8457L8.83789 16.7969Z" fill="#A0E88C"/>
<path d="M17.0898 16.7969L17.1387 16.8457L17.0898 16.7969ZM8.93555 16.8457L8.98438 16.8945L8.93555 16.8457Z" fill="#62D846"/>
<path d="M8.98438 16.8438L9.0332 16.8926L8.98438 16.8438ZM9.08203 16.8926L9.13086 16.9414L9.08203 16.8926ZM16.9434 16.8926L16.9922 16.9414L16.9434 16.8926Z" fill="#A0E88C"/>
<path d="M9.17969 16.9453L9.22852 16.9941L9.17969 16.9453Z" fill="#62D846"/>
<path d="M9.22852 16.9453L9.27734 16.9941L9.22852 16.9453ZM16.8945 16.9453L16.9434 16.9941L16.8945 16.9453Z" fill="#A0E88C"/>
<path d="M9.32617 16.9922L9.375 17.041L9.32617 16.9922Z" fill="#62D846"/>
<path d="M9.375 16.9922L9.42383 17.041L9.375 16.9922Z" fill="#A0E88C"/>
<path d="M16.8457 16.9922L16.8945 17.041L16.8457 16.9922Z" fill="#62D846"/>
<path d="M9.50488 17.0586L9.5374 17.0749L9.50488 17.0586Z" fill="#A0E88C"/>
<path d="M16.7969 17.0391L16.8457 17.0879L16.7969 17.0391ZM9.61914 17.0879L9.66797 17.1367L9.61914 17.0879Z" fill="#62D846"/>
<path d="M9.66797 17.0898L9.7168 17.1387L9.66797 17.0898ZM16.6992 17.0898L16.748 17.1387L16.6992 17.0898Z" fill="#A0E88C"/>
<path d="M9.76562 17.1406L9.81445 17.1895L9.76562 17.1406Z" fill="#62D846"/>
<path d="M9.81445 17.1406L9.86328 17.1895L9.81445 17.1406ZM16.6504 17.1406L16.6992 17.1895L16.6504 17.1406Z" fill="#A0E88C"/>
<path d="M9.91211 17.1875L9.96094 17.2363L9.91211 17.1875Z" fill="#62D846"/>
<path d="M9.99316 17.2038L10.0257 17.2201L9.99316 17.2038ZM16.6012 17.1875L16.65 17.2363L16.6012 17.1875Z" fill="#A0E88C"/>
<path d="M10.1074 17.2344L10.1562 17.2832L10.1074 17.2344Z" fill="#62D846"/>
<path d="M10.1885 17.2539L10.221 17.2702L10.1885 17.2539Z" fill="#A0E88C"/>
<path d="M16.5524 17.2344L16.6012 17.2832L16.5524 17.2344ZM10.335 17.2995L10.3675 17.3158L10.335 17.2995Z" fill="#62D846"/>
<path d="M10.4004 17.2852L10.4492 17.334L10.4004 17.2852ZM16.4551 17.2852L16.5039 17.334L16.4551 17.2852Z" fill="#A0E88C"/>
<path d="M10.5469 17.3359L10.5957 17.3848L10.5469 17.3359Z" fill="#62D846"/>
<path d="M10.6279 17.3522L10.6604 17.3685L10.6279 17.3522ZM16.4059 17.3359L16.4547 17.3848L16.4059 17.3359Z" fill="#A0E88C"/>
<path d="M10.8232 17.3984L10.8558 17.4147L10.8232 17.3984Z" fill="#62D846"/>
<path d="M10.9209 17.3984L10.9534 17.4147L10.9209 17.3984Z" fill="#A0E88C"/>
<path d="M16.3571 17.3828L16.4059 17.4316L16.3571 17.3828ZM11.1162 17.4479L11.1487 17.4642L11.1162 17.4479Z" fill="#62D846"/>
<path d="M11.1816 17.4297V17.4785H11.3281L11.1816 17.4297ZM16.2598 17.4297L16.3086 17.4785L16.2598 17.4297Z" fill="#A0E88C"/>
<path d="M11.4746 17.4805L11.5234 17.5293L11.4746 17.4805Z" fill="#62D846"/>
<path d="M11.5234 17.4805L11.5723 17.5293L11.5234 17.4805ZM16.2109 17.4805L16.2598 17.5293L16.2109 17.4805Z" fill="#A0E88C"/>
<path d="M11.6211 17.5312L11.6699 17.5801L11.6211 17.5312ZM16.1621 17.5312L16.2109 17.5801L16.1621 17.5312Z" fill="#62D846"/>
<path d="M16.0645 17.5781L16.1133 17.627L16.0645 17.5781Z" fill="#A0E88C"/>
<path d="M11.7188 17.625L11.7676 17.6738L11.7188 17.625Z" fill="#62D846"/>
<path d="M16.0156 17.625L16.0645 17.6738L16.0156 17.625ZM11.7676 17.6738L11.8164 17.7227L11.7676 17.6738Z" fill="#A0E88C"/>
<path d="M15.9668 17.6758L16.0156 17.7246L15.9668 17.6758Z" fill="#62D846"/>
<path d="M15.8691 17.7266L15.918 17.7754L15.8691 17.7266ZM11.8164 17.7754L11.8652 17.8242L11.8164 17.7754Z" fill="#A0E88C"/>
<path d="M15.8203 17.7734L15.8691 17.8223L15.8203 17.7734ZM11.8164 17.8223V17.9688H11.8652L11.8164 17.8223Z" fill="#62D846"/>
<path d="M15.7227 17.8203L15.7715 17.8691L15.7227 17.8203ZM15.6738 17.8691L15.7227 17.918L15.6738 17.8691Z" fill="#A0E88C"/>
<path d="M15.625 17.9219L15.6738 17.9707L15.625 17.9219Z" fill="#62D846"/>
<path d="M11.8164 17.9688V18.1641H11.8652L11.8164 17.9688ZM15.5273 17.9688L15.5762 18.0176L15.5273 17.9688Z" fill="#A0E88C"/>
<path d="M15.4785 18.0156L15.5273 18.0645L15.4785 18.0156Z" fill="#62D846"/>
<path d="M15.3809 18.0664L15.4297 18.1152L15.3809 18.0664Z" fill="#A0E88C"/>
<path d="M15.332 18.1172L15.3809 18.166L15.332 18.1172Z" fill="#62D846"/>
<path d="M15.2344 18.1641L15.2832 18.2129L15.2344 18.1641Z" fill="#A0E88C"/>
<path d="M15.1855 18.2109L15.2344 18.2598L15.1855 18.2109Z" fill="#62D846"/>
<path d="M15.0879 18.2617L15.1367 18.3105L15.0879 18.2617Z" fill="#A0E88C"/>
<path d="M11.7842 18.3438L11.8005 18.3763L11.7842 18.3438Z" fill="#62D846"/>
<path d="M14.9902 18.3125L15.0391 18.3613L14.9902 18.3125Z" fill="#A0E88C"/>
<path d="M15.0391 18.3125L15.0879 18.3613L15.0391 18.3125ZM14.9414 18.3613L14.9902 18.4102L14.9414 18.3613Z" fill="#62D846"/>
<path d="M11.7676 18.4062V18.6016H11.8164L11.7676 18.4062ZM14.8438 18.4062L14.8926 18.4551L14.8438 18.4062Z" fill="#A0E88C"/>
<path d="M14.7949 18.457L14.8438 18.5059L14.7949 18.457Z" fill="#62D846"/>
<path d="M14.6973 18.5078L14.7461 18.5566L14.6973 18.5078ZM14.5996 18.5566L14.6484 18.6055L14.5996 18.5566Z" fill="#A0E88C"/>
<path d="M14.6484 18.5547L14.6973 18.6035L14.6484 18.5547ZM14.5508 18.6035L14.5996 18.6523L14.5508 18.6035Z" fill="#62D846"/>
<path d="M14.4531 18.6523L14.502 18.7012L14.4531 18.6523ZM14.3555 18.7012L14.4043 18.75L14.3555 18.7012Z" fill="#A0E88C"/>
<path d="M14.4046 18.7031L14.4535 18.752L14.4046 18.7031ZM11.7354 18.7845L11.7517 18.817L11.7354 18.7845ZM14.307 18.752L14.3558 18.8008L14.307 18.752Z" fill="#62D846"/>
<path d="M14.209 18.7969L14.2578 18.8457L14.209 18.7969ZM11.7188 18.8457V19.041H11.7676L11.7188 18.8457ZM14.1113 18.8457L14.1602 18.8945L14.1113 18.8457Z" fill="#A0E88C"/>
<path d="M14.0625 18.8984L14.1113 18.9473L14.0625 18.8984ZM13.9648 18.9473L14.0137 18.9961L13.9648 18.9473Z" fill="#62D846"/>
<path d="M13.8672 18.9922L13.916 19.041L13.8672 18.9922ZM13.7695 19.041L13.8184 19.0898L13.7695 19.041ZM13.6719 19.0898L13.7207 19.1387L13.6719 19.0898Z" fill="#A0E88C"/>
<path d="M13.721 19.0938L13.7699 19.1426L13.721 19.0938ZM13.6234 19.1426L13.6722 19.1914L13.6234 19.1426ZM11.6865 19.224L11.7028 19.2565L11.6865 19.224ZM13.5257 19.1914L13.5746 19.2402L13.5257 19.1914Z" fill="#62D846"/>
<path d="M13.4277 19.2383L13.4766 19.2871L13.4277 19.2383ZM11.6699 19.2871V19.5801H11.7188L11.6699 19.2871ZM13.3301 19.2871L13.3789 19.3359L13.3301 19.2871ZM13.2324 19.3359L13.2812 19.3848L13.2324 19.3359ZM13.1348 19.3848L13.1836 19.4336L13.1348 19.3848ZM13.0371 19.4336L13.0859 19.4824L13.0371 19.4336Z" fill="#A0E88C"/>
<path d="M13.0859 19.4336L13.1348 19.4824L13.0859 19.4336Z" fill="#62D846"/>
<path d="M12.9395 19.4844L12.9883 19.5332L12.9395 19.4844Z" fill="#A0E88C"/>
<path d="M12.9883 19.4844L13.0371 19.5332L12.9883 19.4844Z" fill="#62D846"/>
<path d="M12.8418 19.5312L12.8906 19.5801L12.8418 19.5312Z" fill="#A0E88C"/>
<path d="M12.8906 19.5312L12.9395 19.5801L12.8906 19.5312ZM11.6699 19.5801L11.7188 19.6289L11.6699 19.5801Z" fill="#62D846"/>
<path d="M12.7441 19.5781L12.793 19.627L12.7441 19.5781Z" fill="#A0E88C"/>
<path d="M12.793 19.5781L12.8418 19.627L12.793 19.5781Z" fill="#62D846"/>
<path d="M11.7188 19.6289L11.7676 19.6777L11.7188 19.6289ZM12.6465 19.6289L12.6953 19.6777L12.6465 19.6289Z" fill="#A0E88C"/>
<path d="M12.6953 19.6289L12.7441 19.6777L12.6953 19.6289ZM11.7188 19.6777L11.7676 19.7266L11.7188 19.6777Z" fill="#62D846"/>
<path d="M12.5488 19.6797L12.5977 19.7285L12.5488 19.6797Z" fill="#A0E88C"/>
<path d="M12.5977 19.6797L12.6465 19.7285L12.5977 19.6797Z" fill="#62D846"/>
<path d="M11.7676 19.7266L11.8164 19.7754L11.7676 19.7266ZM12.4512 19.7266L12.5 19.7754L12.4512 19.7266Z" fill="#A0E88C"/>
<path d="M12.5 19.7266L12.5488 19.7754L12.5 19.7266ZM11.8164 19.7754L11.8652 19.8242L11.8164 19.7754Z" fill="#62D846"/>
<path d="M12.3535 19.7734L12.4023 19.8223L12.3535 19.7734Z" fill="#A0E88C"/>
<path d="M12.4023 19.7734L12.4512 19.8223L12.4023 19.7734Z" fill="#62D846"/>
<path d="M11.9141 19.8242L11.9629 19.873L11.9141 19.8242ZM12.2559 19.8242L12.3047 19.873L12.2559 19.8242Z" fill="#A0E88C"/>
<path d="M12.3047 19.8242L12.3535 19.873L12.3047 19.8242ZM12.0117 19.873V19.9219H12.207L12.0117 19.873Z" fill="#62D846"/>
</g>
<defs>
<clipPath id="clip0_9349_45571">
<rect width="25" height="25" fill="white"/>
</clipPath>
</defs>
</svg>
