<svg width="16" height="16" viewBox="0 0 16 16" fill="none" xmlns="http://www.w3.org/2000/svg">
<g clip-path="url(#clip0_12113_42537)">
<path d="M6.58599 7.9995L0.292988 1.7065C-0.0970117 1.3165 -0.0970117 0.6825 0.292988 0.2925C0.682988 -0.0975 1.31699 -0.0975 1.70699 0.2925L7.99999 6.5855L14.293 0.2925C14.683 -0.0975 15.317 -0.0975 15.707 0.2925C16.097 0.6825 16.097 1.3165 15.707 1.7065L9.41399 7.9995L15.707 14.2925C16.097 14.6825 16.097 15.3165 15.707 15.7065C15.317 16.0965 14.683 16.0965 14.293 15.7065L7.99999 9.4135L1.70699 15.7065C1.31699 16.0965 0.682988 16.0965 0.292988 15.7065C-0.0970117 15.3165 -0.0970117 14.6825 0.292988 14.2925L6.58599 7.9995Z" fill="#323130"/>
</g>
<defs>
<clipPath id="clip0_12113_42537">
<rect width="16" height="16" fill="white"/>
</clipPath>
</defs>
</svg>
