<svg width="17" height="17" viewBox="0 0 17 17" fill="none" xmlns="http://www.w3.org/2000/svg">
<g clip-path="url(#clip0_15134_21257)">
<path d="M2.5911 8.5C2.59103 7.70529 2.75127 6.91873 3.06222 6.18738C3.37317 5.45603 3.82845 4.79491 4.40082 4.24359C4.97319 3.69227 5.65089 3.26206 6.39337 2.97872C7.13586 2.69537 7.92786 2.56471 8.72201 2.59454C8.81149 2.59782 8.90074 2.58345 8.98466 2.55224C9.06859 2.52103 9.14554 2.4736 9.21113 2.41265C9.27672 2.3517 9.32967 2.27843 9.36694 2.19702C9.40422 2.11561 9.42509 2.02766 9.42838 1.93818C9.43166 1.8487 9.41729 1.75945 9.38608 1.67553C9.35487 1.5916 9.30744 1.51465 9.24649 1.44906C9.18554 1.38347 9.11227 1.33052 9.03086 1.29325C8.94945 1.25597 8.86149 1.2351 8.77201 1.23181C7.45021 1.18275 6.14005 1.49509 4.98255 2.13522C3.82506 2.77535 2.86405 3.71904 2.20297 4.8647C1.54189 6.01036 1.20577 7.31462 1.23079 8.6371C1.25581 9.95958 1.64102 11.2502 2.34496 12.37C3.0489 13.4899 4.04491 14.3965 5.2258 14.9924C6.40668 15.5883 7.72771 15.8509 9.04671 15.7519C10.3657 15.6528 11.6327 15.196 12.7114 14.4304C13.7901 13.6649 14.6395 12.6197 15.1684 11.4073C15.2407 11.2415 15.2442 11.0538 15.1782 10.8854C15.1121 10.7171 14.9819 10.5819 14.8161 10.5095C14.6503 10.4372 14.4626 10.4337 14.2943 10.4998C14.1259 10.5658 13.9907 10.6961 13.9184 10.8618C13.8569 11.0015 13.7902 11.1389 13.7184 11.2736C13.0996 12.4381 12.1091 13.3622 10.9045 13.8987C9.69996 14.4353 8.35052 14.5535 7.071 14.2346C5.79147 13.9156 4.6554 13.1779 3.84359 12.1387C3.03178 11.0995 2.5909 9.81867 2.5911 8.5ZM10.9784 2.35272C11.063 2.19308 11.2075 2.07354 11.3801 2.02036C11.5528 1.96717 11.7395 1.9847 11.8993 2.06909C12.0602 2.15454 12.2175 2.24545 12.3702 2.34181C12.446 2.38951 12.5117 2.45167 12.5635 2.52474C12.6152 2.59781 12.6521 2.68037 12.672 2.7677C12.6919 2.85503 12.6944 2.94542 12.6793 3.03371C12.6643 3.122 12.632 3.20646 12.5843 3.28227C12.5366 3.35808 12.4744 3.42375 12.4014 3.47554C12.3283 3.52732 12.2457 3.56421 12.1584 3.58409C12.0711 3.60397 11.9807 3.60645 11.8924 3.5914C11.8041 3.57635 11.7196 3.54405 11.6438 3.49636C11.5194 3.4177 11.392 3.34371 11.262 3.27454C11.1828 3.23265 11.1127 3.17558 11.0556 3.10658C10.9985 3.03758 10.9556 2.958 10.9292 2.87239C10.9029 2.78679 10.8937 2.69683 10.9021 2.60767C10.9105 2.5185 10.9365 2.43187 10.9784 2.35272ZM13.7184 4.41636C13.8714 4.32009 14.0563 4.28851 14.2326 4.32857C14.4089 4.36863 14.562 4.47705 14.6584 4.63C14.7547 4.78272 14.8457 4.93909 14.9311 5.1009C14.973 5.18006 14.9989 5.26669 15.0073 5.35585C15.0158 5.44501 15.0065 5.53496 14.9802 5.62056C14.9539 5.70616 14.9109 5.78573 14.8538 5.85473C14.7967 5.92374 14.7266 5.98082 14.6475 6.02272C14.5683 6.06463 14.4817 6.09053 14.3925 6.09895C14.3034 6.10738 14.2134 6.09816 14.1278 6.07182C14.0422 6.04548 13.9626 6.00254 13.8936 5.94545C13.8246 5.88836 13.7676 5.81824 13.7256 5.73909C13.6568 5.60878 13.5832 5.48111 13.5047 5.35636C13.4085 5.20336 13.3769 5.0184 13.417 4.84213C13.457 4.66586 13.5654 4.51272 13.7184 4.41636ZM15.0611 7.57181C15.1506 7.56853 15.2398 7.5829 15.3238 7.61411C15.4077 7.64532 15.4846 7.69275 15.5502 7.7537C15.6158 7.81465 15.6688 7.88792 15.706 7.96933C15.7433 8.05074 15.7642 8.1387 15.7675 8.22818C15.7738 8.39538 15.7744 8.56275 15.7693 8.73C15.7636 8.91083 15.6864 9.082 15.5545 9.20586C15.4226 9.32972 15.2469 9.39612 15.0661 9.39045C14.8853 9.38478 14.7141 9.30752 14.5902 9.17564C14.4664 9.04377 14.4 8.8681 14.4057 8.68727C14.4102 8.55094 14.4102 8.4145 14.4057 8.27818C14.399 8.09762 14.4643 7.92181 14.5872 7.78937C14.7101 7.65693 14.8806 7.57868 15.0611 7.57181Z" fill="#323130" stroke="#323130" stroke-width="0.6"/>
<path d="M8.27264 3.95459C8.45347 3.95459 8.62689 4.02642 8.75476 4.15429C8.88262 4.28216 8.95446 4.45558 8.95446 4.63641V8.07823L10.8499 9.02641C10.9307 9.06598 11.0029 9.12115 11.0623 9.18875C11.1217 9.25634 11.1671 9.33503 11.196 9.42027C11.2248 9.50551 11.2365 9.59561 11.2303 9.68538C11.2242 9.77516 11.2003 9.86282 11.1601 9.94333C11.1199 10.0238 11.0642 10.0956 10.9961 10.1545C10.9281 10.2133 10.849 10.2581 10.7636 10.2863C10.6781 10.3145 10.5879 10.3255 10.4982 10.3186C10.4085 10.3118 10.321 10.2872 10.2408 10.2464L7.96809 9.11004C7.85474 9.05346 7.7594 8.96641 7.69277 8.85866C7.62613 8.75092 7.59082 8.62673 7.59082 8.50004V4.63641C7.59082 4.45558 7.66265 4.28216 7.79052 4.15429C7.91839 4.02642 8.09181 3.95459 8.27264 3.95459Z" fill="#323130" stroke="#323130" stroke-width="0.6"/>
</g>
<defs>
<clipPath id="clip0_15134_21257">
<rect width="16" height="16" fill="white" transform="translate(0.5 0.5)"/>
</clipPath>
</defs>
</svg>
