<svg width="12" height="12" viewBox="0 0 12 12" fill="none" xmlns="http://www.w3.org/2000/svg">
<g clip-path="url(#clip0_14805_33325)">
<path d="M6 12C6.82875 12 7.5 11.3288 7.5 10.5C7.5 9.67125 6.82875 9 6 9C5.17125 9 4.5 9.67125 4.5 10.5C4.5 11.3288 5.17125 12 6 12ZM6 7.5C6.82875 7.5 7.5 6.82875 7.5 6C7.5 5.17125 6.82875 4.5 6 4.5C5.17125 4.5 4.5 5.17125 4.5 6C4.5 6.82875 5.17125 7.5 6 7.5ZM6 3C6.82875 3 7.5 2.32875 7.5 1.5C7.5 0.67125 6.82875 0 6 0C5.17125 0 4.5 0.67125 4.5 1.5C4.5 2.32875 5.17125 3 6 3Z" fill="#323130"/>
</g>
<defs>
<clipPath id="clip0_14805_33325">
<rect width="12" height="12" fill="white"/>
</clipPath>
</defs>
</svg>
