<svg width="16" height="16" viewBox="0 0 16 16" fill="none" xmlns="http://www.w3.org/2000/svg">
<g clip-path="url(#clip0_12113_42480)">
<path d="M8.00007 11.2009C7.79507 11.2009 7.59107 11.1229 7.43407 10.9669L5.03407 8.56692C4.72107 8.25492 4.72107 7.74792 5.03407 7.43592C5.34707 7.12392 5.85307 7.12292 6.16507 7.43592L7.99907 9.26992L9.83307 7.43592C10.1451 7.12292 10.6521 7.12292 10.9641 7.43592C11.2761 7.74892 11.2771 8.25492 10.9641 8.56692L8.56407 10.9669C8.40807 11.1229 8.20307 11.2009 7.99807 11.2009H8.00007Z" fill="#323130"/>
<path d="M12.8 15.1992H3.2C1.436 15.1992 0 13.7632 0 11.9992C0 11.5572 0.358 11.1992 0.8 11.1992C1.242 11.1992 1.6 11.5572 1.6 11.9992C1.6 12.8812 2.318 13.5992 3.2 13.5992H12.8C13.682 13.5992 14.4 12.8812 14.4 11.9992C14.4 11.5572 14.758 11.1992 15.2 11.1992C15.642 11.1992 16 11.5572 16 11.9992C16 13.7632 14.564 15.1992 12.8 15.1992Z" fill="#323130"/>
<path d="M8.00898 9.60078C7.56698 9.60078 7.20898 9.24278 7.20898 8.80078V1.60078C7.20898 1.15878 7.56698 0.800781 8.00898 0.800781C8.45098 0.800781 8.80898 1.15878 8.80898 1.60078V8.80078C8.80898 9.24278 8.45098 9.60078 8.00898 9.60078Z" fill="#323130"/>
</g>
<defs>
<clipPath id="clip0_12113_42480">
<rect width="16" height="16" fill="white"/>
</clipPath>
</defs>
</svg>
