<svg width="16" height="16" viewBox="0 0 16 16" fill="none" xmlns="http://www.w3.org/2000/svg">
<g clip-path="url(#clip0_12113_42434)">
<path d="M8 14.9725C7.789 14.9725 7.577 14.9055 7.4 14.7725C7.227 14.6425 3.135 11.5645 1.585 9.55754C0.281 7.87154 -0.265 5.91054 0.123 4.31154C0.427 3.05954 1.258 2.08454 2.526 1.49354C4.391 0.62354 6.55 1.01254 8.001 2.35754C9.453 1.01154 11.611 0.624539 13.476 1.49354C14.744 2.08454 15.575 3.05854 15.879 4.31154C16.267 5.91054 15.721 7.87154 14.417 9.55754C12.866 11.5635 8.775 14.6425 8.602 14.7715C8.424 14.9045 8.213 14.9715 8.002 14.9715L8 14.9725ZM4.613 3.02454C4.21 3.02454 3.79 3.11054 3.371 3.30654C2.663 3.63654 2.224 4.13354 2.066 4.78354C1.824 5.78154 2.245 7.14254 3.166 8.33354C4.227 9.70654 6.82 11.7925 7.999 12.7105C9.178 11.7925 11.772 9.70554 12.832 8.33454C13.753 7.14254 14.175 5.78254 13.932 4.78454C13.774 4.13454 13.335 3.63754 12.627 3.30754C11.078 2.58354 9.525 3.35454 8.849 4.44554C8.485 5.03354 7.513 5.03354 7.148 4.44554C6.655 3.64954 5.696 3.02554 4.612 3.02554L4.613 3.02454Z" fill="#323130"/>
</g>
<defs>
<clipPath id="clip0_12113_42434">
<rect width="16" height="16" fill="white"/>
</clipPath>
</defs>
</svg>
