<svg width="16" height="16" viewBox="0 0 16 16" fill="none" xmlns="http://www.w3.org/2000/svg">
<g clip-path="url(#clip0_13787_85002)">
<path d="M10.283 14.654C9.83599 15.061 9.48299 15.364 9.27299 15.539C8.53299 16.151 7.46299 16.151 6.72099 15.539C6.51099 15.364 6.15899 15.059 5.71099 14.653C4.97099 13.976 4.22799 13.253 3.53099 12.499C2.80899 11.732 2.14299 10.916 1.53699 10.056C0.629994 8.90504 0.0959945 7.50504 0.00299449 6.04304C-0.0470055 4.68304 0.472994 3.36304 1.44299 2.40804C3.23199 0.655036 6.05499 0.525036 7.99999 2.10804C9.94399 0.523036 12.768 0.652036 14.558 2.40804C15.522 3.36104 16.042 4.67404 15.994 6.02804C15.906 7.49404 15.371 8.89804 14.462 10.051C13.855 10.915 13.187 11.733 12.462 12.501C11.764 13.251 11.024 13.978 10.282 14.655L10.283 14.654Z" fill="#A19F9D"/>
</g>
<defs>
<clipPath id="clip0_13787_85002">
<rect width="16" height="16" fill="white"/>
</clipPath>
</defs>
</svg>
