<svg width="16" height="16" viewBox="0 0 16 16" fill="none" xmlns="http://www.w3.org/2000/svg">
<g clip-path="url(#clip0_12113_42331)">
<path d="M8 16C3.582 16 0 12.418 0 8C0 3.582 3.582 0 8 0C12.418 0 16 3.582 16 8C16 12.418 12.418 16 8 16ZM8 2C4.686 2 2 4.686 2 8C2 11.314 4.686 14 8 14C11.314 14 14 11.314 14 8C14 4.686 11.314 2 8 2ZM12 9H4C3.448 9 3 8.552 3 8C3 7.448 3.448 7 4 7H12C12.552 7 13 7.448 13 8C13 8.552 12.552 9 12 9Z" fill="#323130"/>
</g>
<defs>
<clipPath id="clip0_12113_42331">
<rect width="16" height="16" fill="white"/>
</clipPath>
</defs>
</svg>
