<svg width="16" height="16" viewBox="0 0 16 16" fill="none" xmlns="http://www.w3.org/2000/svg">
<g clip-path="url(#clip0_13787_84942)">
<path d="M9 2.007V13.993C9 15.1 9.893 16 11 16H12C13.11 16 14 15.1 14 13.993V2.007C14 0.9 13.107 0 12 0H11C9.89 0 9 0.9 9 2.007ZM2 13.993C2 15.1 2.893 16 4 16H5C6.11 16 7 15.1 7 13.993V2.007C7 0.9 6.107 0 5 0H4C2.89 0 2 0.9 2 2.007V13.993Z" fill="#323130"/>
</g>
<defs>
<clipPath id="clip0_13787_84942">
<rect width="16" height="16" fill="white"/>
</clipPath>
</defs>
</svg>
