<svg width="16" height="16" viewBox="0 0 16 16" fill="none" xmlns="http://www.w3.org/2000/svg">
<g clip-path="url(#clip0_12113_42279)">
<path d="M15.0149 5.35539L6.35689 14.0114C5.86189 14.4654 5.26889 14.8014 4.62489 14.9914L0.79989 15.9514C0.58489 16.0454 0.33389 15.9994 0.16689 15.8314C0.00088954 15.6664 -0.0461105 15.4154 0.0468895 15.1994L0.34689 14.0164L1.00689 11.3764C1.19689 10.7304 1.53189 10.1364 1.98689 9.64239L10.6449 0.986391C11.4149 0.156391 12.5749 -0.183609 13.6719 0.0963913C14.7679 0.374391 15.6239 1.23039 15.9039 2.32639C16.1839 3.42239 15.8439 4.58439 15.0139 5.35639L15.0149 5.35539ZM3.38989 11.0454C3.18989 11.2854 3.03589 11.5594 2.93289 11.8554L2.52989 13.4684L4.14289 13.0634C4.43689 12.9604 4.71089 12.8054 4.95089 12.6064L11.7749 5.78439L11.7399 5.74939L10.2109 4.22239L3.39089 11.0464L3.38989 11.0454ZM13.6099 2.39039C13.1779 1.96039 12.4799 1.96039 12.0479 2.39039L11.6179 2.82239L13.1799 4.38339L13.6099 3.95339C14.0419 3.52039 14.0399 2.82039 13.6099 2.38839V2.39039Z" fill="#323130"/>
</g>
<defs>
<clipPath id="clip0_12113_42279">
<rect width="16" height="16" fill="white"/>
</clipPath>
</defs>
</svg>
