<svg width="16" height="17" viewBox="0 0 16 17" fill="none" xmlns="http://www.w3.org/2000/svg">
<g clip-path="url(#clip0_14309_7685)">
<path d="M6 12.5C2.691 12.5 0 9.809 0 6.5C0 3.191 2.691 0.5 6 0.5C9.309 0.5 12 3.191 12 6.5C12 9.809 9.309 12.5 6 12.5ZM6 2.5C3.794 2.5 2 4.294 2 6.5C2 8.706 3.794 10.5 6 10.5C8.206 10.5 10 8.706 10 6.5C10 4.294 8.206 2.5 6 2.5Z" fill="#323130"/>
<path d="M14.9998 16.5C14.7438 16.5 14.4878 16.402 14.2928 16.207L9.29276 11.207C8.90176 10.816 8.90176 10.184 9.29276 9.79301C9.68376 9.40201 10.3158 9.40201 10.7068 9.79301L15.7068 14.793C16.0978 15.184 16.0978 15.816 15.7068 16.207C15.5118 16.402 15.2558 16.5 14.9998 16.5Z" fill="#323130"/>
</g>
<defs>
<clipPath id="clip0_14309_7685">
<rect width="16" height="16" fill="white" transform="translate(0 0.5)"/>
</clipPath>
</defs>
</svg>
