<svg width="17" height="17" viewBox="0 0 17 17" fill="none" xmlns="http://www.w3.org/2000/svg">
<g clip-path="url(#clip0_15134_21244)">
<path d="M1.5 9.5C1.5 8.71205 1.68106 7.93183 2.03284 7.20388C2.38463 6.47595 2.90025 5.81451 3.55026 5.25735C4.20027 4.70021 4.97194 4.25825 5.82121 3.95672C6.6705 3.6552 7.58072 3.5 8.5 3.5C9.41928 3.5 10.3295 3.6552 11.1788 3.95673C12.0281 4.25825 12.7998 4.70021 13.4498 5.25736C14.0997 5.81452 14.6154 6.47595 14.9671 7.20388C15.319 7.93183 15.5 8.71205 15.5 9.5" stroke="#33363F" stroke-width="1.8" stroke-linejoin="round"/>
<path d="M6.5 11.5C6.5 11.2374 6.5517 10.9773 6.6522 10.7346C6.7528 10.492 6.9001 10.2715 7.0858 10.0858C7.2715 9.9001 7.492 9.7528 7.7346 9.6522C7.9773 9.5517 8.2374 9.5 8.5 9.5C8.7626 9.5 9.0227 9.5517 9.2654 9.6522C9.508 9.7528 9.7285 9.9001 9.9142 10.0858C10.0999 10.2715 10.2473 10.492 10.3478 10.7346C10.4483 10.9773 10.5 11.2374 10.5 11.5" stroke="#33363F" stroke-width="1.8" stroke-linejoin="round"/>
<path d="M9.5 9.5L11.5 6.5" stroke="#33363F" stroke-width="1.8" stroke-linecap="round" stroke-linejoin="round"/>
<path d="M15.5 9.5V11C15.5 11.8284 15.1083 12.5 14.625 12.5H2.375C1.89175 12.5 1.5 11.8284 1.5 11V9.5" stroke="#33363F" stroke-width="1.8" stroke-linecap="round" stroke-linejoin="round"/>
</g>
<defs>
<clipPath id="clip0_15134_21244">
<rect width="16" height="16" fill="white" transform="translate(0.5 0.5)"/>
</clipPath>
</defs>
</svg>
