<svg width="16" height="16" viewBox="0 0 16 16" fill="none" xmlns="http://www.w3.org/2000/svg">
<g clip-path="url(#clip0_12113_42150)">
<path d="M11.2001 16.0008H4.8001C3.0351 16.0008 1.6001 14.5648 1.6001 12.8008V5.60078C1.6001 5.15878 1.9581 4.80078 2.4001 4.80078H13.6001C14.0421 4.80078 14.4001 5.15878 14.4001 5.60078V12.8008C14.4001 14.5648 12.9651 16.0008 11.2001 16.0008ZM3.2001 6.40078V12.8008C3.2001 13.6828 3.9181 14.4008 4.8001 14.4008H11.2001C12.0821 14.4008 12.8001 13.6828 12.8001 12.8008V6.40078H3.2001Z" fill="#323130"/>
<path d="M10.4 3.2C9.95805 3.2 9.60005 2.842 9.60005 2.4V1.828C9.60005 1.704 9.49505 1.6 9.37105 1.6H6.62905C6.50505 1.6 6.40005 1.705 6.40005 1.828V2.4C6.40005 2.842 6.04205 3.2 5.60005 3.2C5.15805 3.2 4.80005 2.842 4.80005 2.4V1.828C4.80005 0.82 5.62005 0 6.62905 0H9.37105C10.38 0 11.2 0.82 11.2 1.828V2.4C11.2 2.842 10.842 3.2 10.4 3.2Z" fill="#323130"/>
<path d="M7.99995 12.7992C7.55795 12.7992 7.19995 12.4412 7.19995 11.9992V7.99922C7.19995 7.55722 7.55795 7.19922 7.99995 7.19922C8.44195 7.19922 8.79995 7.55722 8.79995 7.99922V11.9992C8.79995 12.4412 8.44195 12.7992 7.99995 12.7992Z" fill="#323130"/>
<path d="M5.60005 13.6C5.15805 13.6 4.80005 13.242 4.80005 12.8V8.8C4.80005 8.358 5.15805 8 5.60005 8C6.04205 8 6.40005 8.358 6.40005 8.8V12.8C6.40005 13.242 6.04205 13.6 5.60005 13.6Z" fill="#323130"/>
<path d="M10.4001 13.6C9.9581 13.6 9.6001 13.242 9.6001 12.8V8.8C9.6001 8.358 9.9581 8 10.4001 8C10.8421 8 11.2001 8.358 11.2001 8.8V12.8C11.2001 13.242 10.8421 13.6 10.4001 13.6Z" fill="#323130"/>
<path d="M14.4 4.00039H1.60005C1.15805 4.00039 0.800049 3.64239 0.800049 3.20039C0.800049 2.75839 1.15805 2.40039 1.60005 2.40039H14.4C14.842 2.40039 15.2 2.75839 15.2 3.20039C15.2 3.64239 14.842 4.00039 14.4 4.00039Z" fill="#323130"/>
</g>
<defs>
<clipPath id="clip0_12113_42150">
<rect width="16" height="16" fill="white"/>
</clipPath>
</defs>
</svg>
