<svg width="17" height="17" viewBox="0 0 17 17" fill="none" xmlns="http://www.w3.org/2000/svg">
<g clip-path="url(#clip0_15134_21235)">
<path fill-rule="evenodd" clip-rule="evenodd" d="M9.3 3.70075C9.3 2.6958 8.13608 2.13709 7.35037 2.76488L4.21938 5.26654H2.9C1.57452 5.26654 0.5 6.3397 0.5 7.66355V9.26155C0.5 10.5853 1.57452 11.6585 2.9 11.6585H4.21938L7.35037 14.1602C8.13608 14.788 9.3 14.2292 9.3 13.2243V3.70075ZM5.21889 6.51436L7.7 4.53195V12.3931L5.21889 10.4107C4.93518 10.184 4.58269 10.0605 4.21938 10.0605H2.9C2.45818 10.0605 2.1 9.70283 2.1 9.26155V7.66355C2.1 7.22226 2.45818 6.86453 2.9 6.86453H4.21938C4.58269 6.86453 4.93518 6.74104 5.21889 6.51436ZM14.1569 2.96643C13.8444 2.6544 13.3379 2.6544 13.0254 2.96643C12.713 3.27846 12.713 3.78435 13.0254 4.09638C15.5248 6.59261 15.5248 10.6398 13.0254 13.136C12.713 13.4481 12.713 13.954 13.0254 14.266C13.3379 14.578 13.8444 14.578 14.1569 14.266C17.281 11.1457 17.281 6.08671 14.1569 2.96643ZM11.8941 5.22634C11.5817 4.91431 11.0751 4.91431 10.7627 5.22634C10.4503 5.53836 10.4503 6.04427 10.7627 6.35629C12.0124 7.60442 12.0124 9.62797 10.7627 10.8761C10.4503 11.1882 10.4503 11.694 10.7627 12.006C11.0751 12.3181 11.5817 12.3181 11.8941 12.006C13.7686 10.1339 13.7686 7.0985 11.8941 5.22634Z" fill="#323130"/>
</g>
<defs>
<clipPath id="clip0_15134_21235">
<rect width="16" height="16" fill="white" transform="translate(0.5 0.5)"/>
</clipPath>
</defs>
</svg>
