<svg width="100" height="92" viewBox="0 0 100 92" fill="none" xmlns="http://www.w3.org/2000/svg">
<path d="M23.1445 4.00781C15.3906 8.20703 14.668 8.71484 14.2383 10.2773C13.9258 11.4492 14.1406 15.5312 14.6484 17.8359C15.8594 23.5391 19.1406 29.8672 23.0273 34.125L24.043 35.2383L23.5547 37.4453C22.4023 42.6797 22.3633 47.6797 23.4766 52.8359C23.6914 53.8516 23.8867 54.7695 23.8867 54.8477C23.9062 54.9258 23.1836 55.2773 22.2656 55.6289C21.3477 55.9805 20.3125 56.4688 19.9609 56.7227L19.3359 57.1523L19.1211 56.6055C18.3789 54.6328 17.2656 53.3828 15.5273 52.5234L14.3555 51.957H9.66797H4.98047L3.84766 52.5234C2.51953 53.207 1.11328 54.6328 0.527344 55.9219C0.0976562 56.8398 0.0976562 56.8398 0.0976562 71.5859V86.332L0.644531 87.4258C1.28906 88.7734 2.57812 90.0039 4.0625 90.6875C5.17578 91.2148 5.21484 91.2148 9.66797 91.2148C14.1211 91.2148 14.1602 91.2148 15.2734 90.6875C17.4609 89.6719 19.043 87.6797 19.2773 85.6289C19.3555 85.0234 19.4727 84.6914 19.6094 84.75C19.7266 84.7891 22.5977 86.0781 25.9766 87.6016C29.3555 89.125 32.7344 90.5312 33.4961 90.7266C35.5664 91.293 37.5586 91.5078 42.4805 91.7031C48.2812 91.9375 70.3711 91.9375 72.207 91.7031C73.8867 91.4883 75.5469 90.9219 76.6602 90.1992C77.4219 89.6914 95.8203 72.8555 97.832 70.8047C98.3008 70.3164 98.9648 69.3594 99.2969 68.6562C99.8242 67.5234 99.9023 67.1914 99.9023 65.6289C99.9023 64.0469 99.8438 63.7344 99.2773 62.543C98.1836 60.2578 96.1523 58.6758 93.5156 58.1094C92.8906 57.9727 92.3828 57.8359 92.3828 57.8164C92.3828 57.7969 92.5977 57.1328 92.8711 56.332C93.8867 53.3633 94.3555 50.4727 94.4727 46.4883C94.6094 41.4883 94.2188 38.5195 92.832 34.1836C91.4453 29.8086 88.1836 24.0078 86.7969 23.4219C85.4688 22.8555 84.1797 23.7344 84.1797 25.1797C84.1797 25.707 84.4922 26.3516 85.4688 27.8164C87.6367 31.1562 89.1797 34.8867 90.0781 39.0273C90.4297 40.707 90.5078 41.6445 90.5078 45.1211C90.5273 49.7695 90.293 51.4688 89.1211 55.082C88.2422 57.8164 87.6758 58.9297 86.875 59.5156C86.5234 59.75 83.2031 62.7578 79.4922 66.1953C75.7812 69.6133 72.4414 72.5625 72.0703 72.7383C71.4648 73.0117 69.8242 73.0508 58.6914 73.1094C50.0391 73.1484 45.7617 73.1094 45.2734 72.9531C43.2227 72.3672 42.9297 69.7305 44.8047 68.6953C45.332 68.4023 46.3477 68.3438 53.125 68.2656L60.8594 68.168L62.1289 67.543C64.4922 66.3711 66.0156 64.1445 66.1328 61.6641C66.1914 60.4531 66.2305 60.3555 66.8359 59.9844C68.1836 59.1445 68.9648 58.4219 69.7266 57.2891C73.0273 52.3477 70.8594 45.8438 65.2539 43.8125C64.2969 43.4609 63.5156 43.4023 58.6914 43.2852C52.5586 43.1484 52.6367 43.168 51.2305 41.6445C49.0234 39.2617 49.668 35.5898 52.5586 33.9883L53.6133 33.4023L61.9727 33.3047L70.3516 33.207L70.8203 32.6602C71.4844 31.8789 71.4453 30.9414 70.7227 30.1406L70.1562 29.4961L65.3516 29.4375L60.5469 29.3789V26.6445V23.8906L59.9805 23.3242C59.3359 22.6797 58.5156 22.582 57.6367 23.0312C56.7969 23.4805 56.6406 24.0859 56.6406 26.8594V29.3984H55.4883C50.6445 29.3984 46.8164 32.5039 46.0547 37.0742C45.2734 41.8203 48.8672 46.5273 53.75 47.1719C54.5312 47.2695 57.0703 47.3672 59.3945 47.3672C63.5156 47.3672 63.6133 47.3672 64.6094 47.875C67.4609 49.3008 68.2422 52.9336 66.2305 55.3945C65.918 55.7656 65.3516 56.2344 64.9805 56.4297L64.3164 56.8008L63.5547 56.1953C63.125 55.8633 62.3633 55.3945 61.8164 55.1406L60.8398 54.6914L44.3945 54.6328L27.9492 54.5938L27.7539 53.8516C26.5234 49.2812 26.2891 44.5156 27.0703 39.9453C27.2461 38.9297 27.4023 38.0703 27.4219 38.0508C27.4414 38.0312 28.0469 38.3242 28.7891 38.6953C30.5859 39.5938 31.4062 39.5742 33.1836 38.6172C37.4414 36.3516 41.4844 31.6836 44.4336 25.6094C45.8984 22.6016 46.6992 20.2773 47.2461 17.4062C47.4805 16.2539 47.6562 15.2773 47.6562 15.2383C47.6562 15.1992 48.3984 14.9258 49.2969 14.6523C55.8984 12.6406 63.1641 12.8555 69.6289 15.2383C72.6953 16.3711 73.3594 16.3711 74.0234 15.2773C74.8047 14.0273 74.2969 12.875 72.6758 12.1719C65.6445 9.10547 56.3477 8.48047 49.0039 10.6094L47.7344 11L47.4805 10.1016C47.3242 9.51562 46.9922 8.96875 46.5039 8.5C45.5469 7.60156 31.9727 0.277344 31.0547 0.179688C30.4688 0.101562 29.3945 0.609375 23.1445 4.00781ZM37.2852 7.73828C40.6836 9.57422 43.5352 11.1562 43.6328 11.2344C43.9062 11.5078 43.7695 14.8086 43.4375 16.5078C42.6953 20.2969 40.8008 24.6914 38.3789 28.3242C36.9531 30.4531 33.9453 33.5586 32.2461 34.6523L30.9961 35.4531L30.0391 34.9258C26.9922 33.1875 23.3594 28.832 20.9961 24.0469C19.1797 20.3555 18.2422 16.9375 18.0273 13.2852L17.9102 11.3125L24.3359 7.85547C27.8711 5.96094 30.8398 4.39844 30.9375 4.39844C31.0352 4.39844 33.8867 5.90234 37.2852 7.73828ZM13.8672 56.1172C14.2383 56.293 14.7461 56.7422 14.9805 57.1133L15.4297 57.7773V71.5664C15.4297 85.0625 15.4102 85.375 15.0391 86C14.7852 86.4102 14.2969 86.8008 13.75 87.0352C12.9492 87.4062 12.5195 87.4258 9.41406 87.3672C5.66406 87.3086 5.23438 87.1914 4.39453 86.0781C4.02344 85.5703 4.00391 85.1992 3.94531 71.7812C3.90625 58.6562 3.92578 57.9727 4.25781 57.3281C4.47266 56.957 4.98047 56.4492 5.39062 56.2148C6.09375 55.8047 6.38672 55.7656 9.66797 55.7656C12.6367 55.7656 13.2812 55.8242 13.8672 56.1172ZM60.5664 58.9492C62.5977 60.0234 62.7148 62.6016 60.8008 63.8125C60.0586 64.2617 60.0195 64.2617 52.3438 64.3594L44.6289 64.457L43.418 65.0234C41.0352 66.1172 39.5898 68.2461 39.5703 70.707C39.5508 73.1484 40.9961 75.3359 43.3398 76.4492L44.4336 76.957L57.5586 77.0156C71.9531 77.0742 72.5391 77.0352 74.4141 75.9414C74.9414 75.6484 78.4375 72.543 82.2266 69.0469C85.9961 65.5508 89.375 62.543 89.707 62.3672C91.2109 61.5664 93.3203 61.7617 94.6289 62.8359C95.4297 63.5 96.0742 64.7305 96.0938 65.5703C96.0938 67.0742 95.8789 67.3086 85.1172 77.25C78.7109 83.168 74.4727 86.9375 73.9453 87.2109C72.5781 87.875 70.3711 87.9922 59.9609 87.9922C43.125 87.9727 36.1719 87.6211 33.6719 86.6641C33.1445 86.4688 29.707 84.9453 26.0352 83.3047L19.3359 80.2969V71.2734V62.25L20.3711 61.293C20.957 60.7656 21.9922 60.0625 22.6953 59.7109C25.1562 58.5 24.668 58.5391 42.9883 58.5195L59.707 58.5L60.5664 58.9492Z" fill="url(#paint0_linear_10936_50914)"/>
<path d="M33.0859 16.5078L30.0195 19.6133L28.8281 18.5391C28.1836 17.9531 27.4414 17.4258 27.207 17.3672C26.0156 17.0547 24.8047 17.9922 24.8047 19.2031C24.8047 20.1602 25.0781 20.5117 27.4414 22.6602C29.1602 24.2031 29.3555 24.3203 30.1172 24.3203C30.957 24.3203 30.9961 24.2812 34.8047 20.3555C37.2852 17.8164 38.7305 16.1953 38.8281 15.8242C39.1992 14.4766 38.3789 13.3828 36.9922 13.3828C36.1523 13.3828 36.1133 13.4219 33.0859 16.5078Z" fill="url(#paint1_linear_10936_50914)"/>
<path d="M78.6914 17.4648C77.5196 18.6367 78.1641 20.5117 79.8047 20.7461C80.5078 20.8438 80.7032 20.7656 81.2696 20.2578C81.8164 19.7695 81.9336 19.5352 81.9336 18.8516C81.9336 18.168 81.8164 17.9336 81.2891 17.4648C80.4297 16.6836 79.4727 16.6836 78.6914 17.4648Z" fill="url(#paint2_linear_10936_50914)"/>
<defs>
<linearGradient id="paint0_linear_10936_50914" x1="50" y1="91.8789" x2="50" y2="37.4282" gradientUnits="userSpaceOnUse">
<stop stop-color="#01BFFB"/>
<stop offset="1" stop-color="#75DBCA"/>
</linearGradient>
<linearGradient id="paint1_linear_10936_50914" x1="31.861" y1="24.3203" x2="31.861" y2="17.8262" gradientUnits="userSpaceOnUse">
<stop stop-color="#01BFFB"/>
<stop offset="1" stop-color="#75DBCA"/>
</linearGradient>
<linearGradient id="paint2_linear_10936_50914" x1="80.0135" y1="20.7825" x2="80.0135" y2="18.4648" gradientUnits="userSpaceOnUse">
<stop stop-color="#01BFFB"/>
<stop offset="1" stop-color="#75DBCA"/>
</linearGradient>
</defs>
</svg>
