<svg width="10" height="10" viewBox="0 0 10 10" fill="none" xmlns="http://www.w3.org/2000/svg">
<g clip-path="url(#clip0_5019:13382)">
<path d="M4.1456 7.62167L2.96725 8.80002C2.47874 9.28854 1.68762 9.28854 1.19951 8.80012C0.711303 8.31191 0.711303 7.52072 1.19941 7.03261L3.55651 4.6755C4.04462 4.18738 4.83582 4.18738 5.32393 4.6755C5.48664 4.83822 5.75047 4.83822 5.91319 4.6755C6.0759 4.51279 6.0759 4.24896 5.91319 4.08624C5.09963 3.27268 3.78081 3.27268 2.96725 4.08624L0.61017 6.44333C-0.20339 7.25689 -0.20339 8.5757 0.61017 9.38926C1.42363 10.2033 2.74255 10.2033 3.55653 9.38926L4.73488 8.21092C4.8976 8.0482 4.8976 7.78437 4.73488 7.62165C4.57217 7.45894 4.30832 7.45896 4.1456 7.62167Z" fill="white"/>
<path d="M9.38949 0.610169C8.57593 -0.20339 7.25669 -0.20339 6.44313 0.610169L5.02937 2.02393C4.86665 2.18664 4.86665 2.45047 5.02937 2.61319C5.19208 2.7759 5.45591 2.7759 5.61863 2.61319L7.03239 1.19943C7.5205 0.711303 8.3121 0.711303 8.80023 1.19943C9.28834 1.68754 9.28834 2.47873 8.80023 2.96684L6.20771 5.55938C5.71959 6.0475 4.92841 6.0475 4.4403 5.55938C4.27759 5.39666 4.01376 5.39666 3.85104 5.55938C3.68832 5.72209 3.68832 5.98592 3.85104 6.14864C4.6646 6.9622 5.98342 6.9622 6.79698 6.14864L9.38949 3.55612C10.2031 2.74256 10.2031 1.42373 9.38949 0.610169Z" fill="white"/>
</g>
<defs>
<clipPath id="clip0_5019:13382">
<rect width="10" height="10" fill="white"/>
</clipPath>
</defs>
</svg>
