<svg width="10" height="12" viewBox="0 0 10 12" fill="none" xmlns="http://www.w3.org/2000/svg">
<path d="M2.59766 0.0281245C2.25781 0.0914058 1.93438 0.344531 1.775 0.665625C1.68594 0.850781 1.68359 0.853125 1.67656 1.17422L1.66719 1.49766L1.15859 1.50469C0.66875 1.51172 0.647656 1.51406 0.521094 1.57266C0.335938 1.65937 0.209375 1.78359 0.120313 1.96406L0.0429688 2.12109V6.75V11.3789L0.103906 11.5102C0.190625 11.6953 0.314844 11.8219 0.495313 11.9109L0.652344 11.9883H4.19141H7.73047L7.86406 11.9227C8.03516 11.8383 8.21563 11.6437 8.27891 11.4727C8.32109 11.3578 8.32813 11.2898 8.32813 10.9242V10.5047L8.68672 10.493C8.97031 10.4859 9.07109 10.4719 9.18125 10.432C9.56563 10.2937 9.86328 9.96328 9.94297 9.59062C9.98047 9.41484 9.98047 1.08516 9.94297 0.909375C9.86328 0.536718 9.57266 0.213281 9.18125 0.0656245L9.04297 0.0117183L5.87891 0.00937452C3.94531 0.00703077 2.67031 0.014062 2.59766 0.0281245ZM8.95625 0.785156C9.05703 0.829687 9.14141 0.902343 9.18594 0.989062C9.23516 1.08516 9.23516 9.41484 9.18594 9.51094C9.09219 9.69375 8.95156 9.75 8.59766 9.75H8.32813V5.95312C8.32813 2.17266 8.32813 2.15859 8.27891 2.02734C8.21563 1.85625 8.03516 1.66172 7.86406 1.57734L7.73047 1.51172L5.07734 1.50469L2.42188 1.5V1.25859C2.42188 1.04297 2.42656 1.01016 2.47813 0.935156C2.52969 0.860156 2.60234 0.810937 2.72656 0.766406C2.74531 0.759375 4.13516 0.752343 5.81563 0.752343C8.52031 0.75 8.87891 0.754687 8.95625 0.785156ZM7.56641 6.75V11.2383H4.17969H0.792969L0.785938 6.77344C0.783594 4.31719 0.785938 2.29453 0.792969 2.27812C0.8 2.25469 1.49141 2.25 4.18438 2.25469L7.56641 2.26172V6.75Z" fill="white"/>
<path d="M2.31575 4.3444C2.15872 4.41237 2.06965 4.59284 2.10247 4.76862C2.12356 4.87878 2.24075 5.00768 2.34622 5.03815C2.40481 5.0569 3.03294 5.06159 4.3009 5.0569C6.14543 5.04987 6.16887 5.04987 6.23215 5.00065C6.35637 4.90925 6.39387 4.83425 6.39387 4.68659C6.39387 4.53893 6.35637 4.46393 6.23215 4.37253C6.16887 4.32331 6.14543 4.32331 4.27747 4.31862C2.73997 4.31393 2.372 4.31862 2.31575 4.3444Z" fill="white"/>
<path d="M2.31575 5.8444C2.15872 5.91237 2.06965 6.09284 2.10247 6.26862C2.12356 6.37878 2.24075 6.50768 2.34622 6.53815C2.40481 6.5569 3.03294 6.56159 4.3009 6.5569C6.14543 6.54987 6.16887 6.54987 6.23215 6.50065C6.35637 6.40925 6.39387 6.33425 6.39387 6.18659C6.39387 6.03893 6.35637 5.96393 6.23215 5.87253C6.16887 5.82331 6.14543 5.82331 4.27747 5.81862C2.73997 5.81393 2.372 5.81862 2.31575 5.8444Z" fill="white"/>
<path d="M2.31575 7.3444C2.15872 7.41237 2.06965 7.59284 2.10247 7.76862C2.12356 7.87878 2.24075 8.00768 2.34622 8.03815C2.40481 8.0569 3.03294 8.06159 4.3009 8.0569C6.14543 8.04987 6.16887 8.04987 6.23215 8.00065C6.35637 7.90925 6.39387 7.83425 6.39387 7.68659C6.39387 7.53893 6.35637 7.46393 6.23215 7.37253C6.16887 7.32331 6.14543 7.32331 4.27747 7.31862C2.73997 7.31393 2.372 7.31862 2.31575 7.3444Z" fill="white"/>
</svg>