<svg width="19" height="17" viewBox="0 0 19 17" fill="none" xmlns="http://www.w3.org/2000/svg">
<path d="M10.2199 15.7591H4.77993C4.23566 15.7512 3.71442 15.5382 3.32044 15.1626C2.92646 14.787 2.68878 14.2766 2.65493 13.7333L2.01035 3.92995C2.00704 3.85887 2.01786 3.78784 2.04218 3.72097C2.06649 3.6541 2.10382 3.59272 2.15201 3.54037C2.20166 3.48611 2.26176 3.44245 2.32871 3.41202C2.39566 3.38159 2.46808 3.36501 2.5416 3.36328H12.4583C12.5311 3.36312 12.6032 3.37794 12.6701 3.40683C12.737 3.43571 12.7972 3.47804 12.847 3.53119C12.8968 3.58433 12.9352 3.64716 12.9597 3.71576C12.9842 3.78436 12.9944 3.85726 12.9895 3.92995L12.3733 13.7333C12.3391 14.2814 12.0974 14.7959 11.6974 15.1722C11.2974 15.5485 10.7691 15.7584 10.2199 15.7591ZM3.1366 4.42578L3.68201 13.6695C3.70003 13.9483 3.82361 14.2097 4.02759 14.4005C4.23157 14.5913 4.50061 14.6972 4.77993 14.6966H10.2199C10.4988 14.6955 10.7669 14.5891 10.9705 14.3986C11.1741 14.2081 11.2982 13.9477 11.3178 13.6695L11.8916 4.4612L3.1366 4.42578Z" fill="white"/>
<path d="M13.875 4.42578H1.125C0.984104 4.42578 0.848978 4.36981 0.749349 4.27018C0.649721 4.17055 0.59375 4.03543 0.59375 3.89453C0.59375 3.75363 0.649721 3.61851 0.749349 3.51888C0.848978 3.41925 0.984104 3.36328 1.125 3.36328H13.875C14.0159 3.36328 14.151 3.41925 14.2507 3.51888C14.3503 3.61851 14.4062 3.75363 14.4062 3.89453C14.4062 4.03543 14.3503 4.17055 14.2507 4.27018C14.151 4.36981 14.0159 4.42578 13.875 4.42578Z" fill="white"/>
<path d="M9.625 4.42578H5.375C5.23467 4.42395 5.10061 4.36739 5.00138 4.26815C4.90214 4.16892 4.84558 4.03486 4.84375 3.89453V2.61953C4.85273 2.25603 5.00114 1.9099 5.25825 1.65278C5.51536 1.39567 5.8615 1.24726 6.225 1.23828H8.775C9.14455 1.24752 9.49585 1.40085 9.75392 1.66553C10.012 1.93021 10.1564 2.28528 10.1562 2.65495V3.89453C10.1544 4.03486 10.0979 4.16892 9.99862 4.26815C9.89939 4.36739 9.76533 4.42395 9.625 4.42578ZM5.90625 3.36328H9.09375V2.65495C9.09375 2.57041 9.06017 2.48933 9.00039 2.42956C8.94061 2.36978 8.85954 2.3362 8.775 2.3362H6.225C6.14046 2.3362 6.05939 2.36978 5.99961 2.42956C5.93983 2.48933 5.90625 2.57041 5.90625 2.65495V3.36328Z" fill="white"/>
<path d="M9.625 12.9284C9.48467 12.9265 9.35061 12.87 9.25138 12.7707C9.15214 12.6715 9.09558 12.5374 9.09375 12.3971V6.73047C9.09375 6.58957 9.14972 6.45445 9.24935 6.35482C9.34898 6.25519 9.4841 6.19922 9.625 6.19922C9.7659 6.19922 9.90102 6.25519 10.0007 6.35482C10.1003 6.45445 10.1562 6.58957 10.1562 6.73047V12.3971C10.1544 12.5374 10.0979 12.6715 9.99862 12.7707C9.89939 12.87 9.76533 12.9265 9.625 12.9284Z" fill="white"/>
<path d="M5.375 12.9284C5.23467 12.9265 5.10061 12.87 5.00138 12.7707C4.90214 12.6715 4.84558 12.5374 4.84375 12.3971V6.73047C4.84375 6.58957 4.89972 6.45445 4.99935 6.35482C5.09898 6.25519 5.2341 6.19922 5.375 6.19922C5.5159 6.19922 5.65102 6.25519 5.75065 6.35482C5.85028 6.45445 5.90625 6.58957 5.90625 6.73047V12.3971C5.90442 12.5374 5.84786 12.6715 5.74862 12.7707C5.64939 12.87 5.51533 12.9265 5.375 12.9284Z" fill="white"/>
<path d="M7.5 12.9284C7.35967 12.9265 7.22561 12.87 7.12638 12.7707C7.02714 12.6715 6.97058 12.5374 6.96875 12.3971V6.73047C6.96875 6.58957 7.02472 6.45445 7.12435 6.35482C7.22398 6.25519 7.3591 6.19922 7.5 6.19922C7.6409 6.19922 7.77602 6.25519 7.87565 6.35482C7.97528 6.45445 8.03125 6.58957 8.03125 6.73047V12.3971C8.02942 12.5374 7.97286 12.6715 7.87362 12.7707C7.77439 12.87 7.64033 12.9265 7.5 12.9284Z" fill="white"/>
<path d="M15 17C17.209 17 19 15.209 19 13C19 10.791 17.209 9 15 9C12.791 9 11 10.791 11 13C11 15.209 12.791 17 15 17ZM16.4145 14.914C16.281 14.914 16.1545 14.8615 16.0595 14.7675L15 13.7075L13.94 14.7675C13.745 14.9625 13.4275 14.9625 13.2325 14.7675C13.0375 14.5725 13.0375 14.256 13.2325 14.0605L14.292 13L13.232 11.94C13.105 11.813 13.056 11.629 13.102 11.4565C13.148 11.284 13.2835 11.149 13.456 11.103C13.6285 11.0565 13.8125 11.106 13.939 11.233L15 12.2925L16.06 11.2325C16.187 11.1055 16.371 11.056 16.5435 11.1025C16.716 11.1485 16.851 11.2835 16.8975 11.456C16.944 11.6285 16.8945 11.8125 16.7675 11.939L15.708 13L16.768 14.06C16.863 14.155 16.915 14.2815 16.915 14.415C16.915 14.547 16.862 14.674 16.768 14.768C16.674 14.862 16.547 14.914 16.4145 14.914H16.4135H16.4145Z" fill="white"/>
</svg>
