<svg width="28" height="28" viewBox="0 0 28 28" fill="none" xmlns="http://www.w3.org/2000/svg">
<path d="M14 28C6.25767 28 0 21.7444 0 14C0 6.25762 6.2557 0 14 0C21.7424 0 28 6.25565 28 14C28 21.7423 21.7444 28 14 28Z" fill="url(#paint0_linear_5019_13599)"/>
<path d="M9.07812 20.563V7.43798C9.07812 7.13544 9.24465 6.85747 9.51136 6.71473C9.77807 6.572 10.1018 6.58764 10.3534 6.75542L20.1972 13.3179C20.4254 13.4701 20.5625 13.7262 20.5625 14.0005C20.5625 14.2748 20.4255 14.5309 20.1972 14.683L10.3534 21.2455C9.81449 21.6049 9.07812 21.2232 9.07812 20.563Z" fill="url(#paint1_linear_5019_13599)"/>
<defs>
<linearGradient id="paint0_linear_5019_13599" x1="14" y1="6.31553e-07" x2="14" y2="16.625" gradientUnits="userSpaceOnUse">
<stop stop-color="#01BFFB"/>
<stop offset="1" stop-color="#75DBCA"/>
</linearGradient>
<linearGradient id="paint1_linear_5019_13599" x1="14.8203" y1="21.3837" x2="14.8203" y2="6.61766" gradientUnits="userSpaceOnUse">
<stop stop-color="#B1EAFC"/>
<stop offset="0.567708" stop-color="#FCFEFF"/>
</linearGradient>
</defs>
</svg>
