<svg width="26" height="26" viewBox="0 0 26 26" fill="none" xmlns="http://www.w3.org/2000/svg">
<g clip-path="url(#clip0_5019:14600)">
<path d="M25.2027 0.728161C25.0127 0.56028 24.7611 0.479661 24.5089 0.505819L8.43751 2.29151C7.98514 2.34158 7.64283 2.7239 7.64289 3.179V19.0906C6.83367 18.6064 5.90736 18.3529 4.96432 18.3576C2.5027 18.3576 0.5 19.9594 0.5 21.929C0.5 23.8987 2.5027 25.5005 4.96427 25.5005C7.42583 25.5005 9.42853 23.8996 9.42853 21.929V8.44694L23.7143 6.85586V17.3023C22.9048 16.819 21.9785 16.5664 21.0357 16.5719C18.5741 16.5719 16.5714 18.1737 16.5714 20.1433C16.5714 22.113 18.5741 23.7148 21.0357 23.7148C23.4972 23.7148 25.4999 22.1139 25.4999 20.1433V1.39336C25.4999 1.13942 25.3919 0.897508 25.2027 0.728161Z" fill="#D0F2FD"/>
</g>
<defs>
<clipPath id="clip0_5019:14600">
<rect width="25" height="25" fill="white" transform="translate(0.5 0.5)"/>
</clipPath>
</defs>
</svg>
