<svg width="20" height="20" viewBox="0 0 20 20" fill="none" xmlns="http://www.w3.org/2000/svg">
<path d="M13.3337 4.99995V8.56403L2.91374 2.60978C2.78701 2.53737 2.64349 2.49951 2.49753 2.5C2.35157 2.50049 2.2083 2.53931 2.08206 2.61257C1.95582 2.68583 1.85103 2.79096 1.77819 2.91744C1.70535 3.04392 1.667 3.18732 1.66699 3.33328V16.6666C1.66718 16.8125 1.70563 16.9558 1.77852 17.0822C1.8514 17.2085 1.95617 17.3136 2.08235 17.3868C2.20853 17.46 2.35172 17.4989 2.49761 17.4995C2.6435 17.5 2.78698 17.4623 2.91374 17.3901L13.3337 11.4359V14.9999C13.3337 18.3033 18.3337 18.3048 18.3337 14.9999V4.99995C18.3337 1.69661 13.3337 1.69511 13.3337 4.99995Z" fill="black"/>
</svg>
