<svg width="28" height="28" viewBox="0 0 28 28" fill="none" xmlns="http://www.w3.org/2000/svg">
<path d="M14 28C6.25767 28 0 21.7444 0 14C0 6.25762 6.2557 0 14 0C21.7424 0 28 6.25565 28 14C28 21.7423 21.7444 28 14 28Z" fill="url(#paint0_linear_7776_21958)"/>
<path d="M9.07812 20.5625V7.43749C9.07812 7.13496 9.24465 6.85698 9.51136 6.71424C9.77807 6.57151 10.1018 6.58715 10.3534 6.75493L20.1972 13.3174C20.4254 13.4696 20.5625 13.7257 20.5625 14C20.5625 14.2743 20.4255 14.5304 20.1972 14.6825L10.3534 21.245C9.81449 21.6044 9.07812 21.2227 9.07812 20.5625Z" fill="url(#paint1_linear_7776_21958)"/>
<defs>
<linearGradient id="paint0_linear_7776_21958" x1="14" y1="6.31553e-07" x2="14" y2="16.625" gradientUnits="userSpaceOnUse">
<stop stop-color="#01BFFB"/>
<stop offset="1" stop-color="#75DBCA"/>
</linearGradient>
<linearGradient id="paint1_linear_7776_21958" x1="14.8203" y1="21.3832" x2="14.8203" y2="6.61717" gradientUnits="userSpaceOnUse">
<stop stop-color="#B1EAFC"/>
<stop offset="0.567708" stop-color="#FCFEFF"/>
</linearGradient>
</defs>
</svg>
