<svg width="20" height="20" viewBox="0 0 20 20" fill="none" xmlns="http://www.w3.org/2000/svg">
<path d="M17.0869 2.60983L6.66699 8.56408V5C6.66699 4.33696 6.4036 3.70107 5.93476 3.23223C5.46592 2.76339 4.83003 2.5 4.16699 2.5C3.50395 2.5 2.86807 2.76339 2.39923 3.23223C1.93038 3.70107 1.66699 4.33696 1.66699 5V15C1.66699 15.663 1.93038 16.2989 2.39923 16.7678C2.86807 17.2366 3.50395 17.5 4.16699 17.5C4.83003 17.5 5.46592 17.2366 5.93476 16.7678C6.4036 16.2989 6.66699 15.663 6.66699 15V11.4359L17.0869 17.3902C17.2137 17.4624 17.3572 17.5001 17.503 17.4995C17.6489 17.4989 17.7921 17.4601 17.9183 17.3869C18.0445 17.3137 18.1493 17.2086 18.2221 17.0822C18.295 16.9558 18.3335 16.8126 18.3337 16.6667V3.33333C18.3337 3.18738 18.2953 3.04398 18.2225 2.9175C18.1496 2.79102 18.0448 2.68588 17.9186 2.61263C17.7924 2.53937 17.6491 2.50055 17.5031 2.50006C17.3572 2.49957 17.2136 2.53742 17.0869 2.60983Z" fill="black"/>
</svg>
