<svg width="20" height="20" viewBox="0 0 20 20" fill="none" xmlns="http://www.w3.org/2000/svg">
<path d="M16.6667 9.99984V11.6665C16.6654 12.7712 16.226 13.8302 15.4449 14.6113C14.6638 15.3925 13.6047 15.8319 12.5001 15.8332H8.3334V12.0832C8.33303 11.9216 8.28575 11.7636 8.19729 11.6284C8.10883 11.4932 7.98302 11.3865 7.83511 11.3215C7.68722 11.2564 7.5236 11.2357 7.36415 11.2618C7.2047 11.288 7.05627 11.3599 6.9369 11.4688L1.9369 16.0521C1.93156 16.057 1.92856 16.0637 1.92356 16.0688C1.80603 16.1845 1.7254 16.3325 1.69181 16.494C1.65823 16.6556 1.67321 16.8234 1.73485 16.9764C1.7965 17.1295 1.90206 17.2608 2.03823 17.354C2.1744 17.4471 2.3351 17.4979 2.50006 17.4998H12.5001C14.0466 17.4981 15.5293 16.883 16.6229 15.7894C17.7165 14.6958 18.3317 13.2131 18.3334 11.6665V9.99984C18.3334 9.77882 18.2456 9.56686 18.0893 9.41058C17.933 9.2543 17.7211 9.1665 17.5001 9.1665C17.2791 9.1665 17.0671 9.2543 16.9108 9.41058C16.7545 9.56686 16.6667 9.77882 16.6667 9.99984Z" fill="black"/>
<path d="M3.33366 10V8.33333C3.33496 7.22866 3.77436 6.16961 4.55548 5.38849C5.3366 4.60737 6.39566 4.16797 7.50033 4.16667H11.667V7.91667C11.6674 8.07822 11.7148 8.23616 11.8032 8.37134C11.8917 8.50651 12.0175 8.6131 12.1654 8.67815C12.3132 8.74321 12.4768 8.76395 12.6362 8.73784C12.7957 8.71173 12.9441 8.63991 13.0635 8.53108C18.2541 3.77275 18.0768 3.93108 18.0768 3.93108C18.1948 3.81548 18.2758 3.66748 18.3097 3.50581C18.3435 3.34414 18.3286 3.17606 18.2669 3.02285C18.2052 2.86964 18.0994 2.73818 17.9629 2.64511C17.8265 2.55204 17.6655 2.50154 17.5003 2.5H7.50033C5.95376 2.50174 4.47105 3.11688 3.37746 4.21047C2.28388 5.30405 1.66873 6.78677 1.66699 8.33333V10C1.66699 10.221 1.75479 10.433 1.91107 10.5893C2.06735 10.7455 2.27931 10.8333 2.50033 10.8333C2.72134 10.8333 2.9333 10.7455 3.08958 10.5893C3.24586 10.433 3.33366 10.221 3.33366 10Z" fill="black"/>
</svg>
