<svg width="10" height="10" viewBox="0 0 10 10" fill="none" xmlns="http://www.w3.org/2000/svg">
<path d="M9.54531 0H5.90894C5.65791 0 5.45439 0.203516 5.45439 0.454551C5.45439 0.705586 5.65791 0.909102 5.90894 0.909102H8.44795L3.76937 5.5877C3.59185 5.76521 3.59185 6.05299 3.76937 6.23051C3.8581 6.31926 3.97443 6.36363 4.09076 6.36363C4.20709 6.36363 4.32343 6.31928 4.41218 6.23049L9.09078 1.55191V4.09092C9.09078 4.34195 9.29429 4.54547 9.54533 4.54547C9.79636 4.54547 9.99988 4.34195 9.99988 4.09092V0.454551C9.99986 0.203516 9.79634 0 9.54531 0Z" fill="white"/>
<path d="M7.72727 4.54562C7.47623 4.54562 7.27272 4.74914 7.27272 5.00018V9.09109H0.909082V2.72744H5C5.25104 2.72744 5.45455 2.52393 5.45455 2.27289C5.45455 2.02186 5.25104 1.81836 5 1.81836H0.454551C0.203516 1.81836 0 2.02187 0 2.27291V9.54564C0 9.79666 0.203516 10.0002 0.454551 10.0002H7.72728C7.97832 10.0002 8.18184 9.79666 8.18184 9.54562V5.00018C8.18182 4.74914 7.9783 4.54562 7.72727 4.54562Z" fill="white"/>
</svg>
