<svg width="17" height="17" viewBox="0 0 17 17" fill="none" xmlns="http://www.w3.org/2000/svg">
<path d="M11.2199 15.7591H5.77993C5.23566 15.7512 4.71442 15.5382 4.32044 15.1626C3.92646 14.787 3.68878 14.2766 3.65493 13.7333L3.01035 3.92995C3.00704 3.85887 3.01786 3.78784 3.04218 3.72097C3.06649 3.6541 3.10382 3.59272 3.15201 3.54037C3.20166 3.48611 3.26176 3.44245 3.32871 3.41202C3.39566 3.38159 3.46808 3.36501 3.5416 3.36328H13.4583C13.5311 3.36312 13.6032 3.37794 13.6701 3.40683C13.737 3.43571 13.7972 3.47804 13.847 3.53119C13.8968 3.58433 13.9352 3.64716 13.9597 3.71576C13.9842 3.78436 13.9944 3.85726 13.9895 3.92995L13.3733 13.7333C13.3391 14.2814 13.0974 14.7959 12.6974 15.1722C12.2974 15.5485 11.7691 15.7584 11.2199 15.7591ZM4.1366 4.42578L4.68201 13.6695C4.70003 13.9483 4.82361 14.2097 5.02759 14.4005C5.23157 14.5913 5.50061 14.6972 5.77993 14.6966H11.2199C11.4988 14.6955 11.7669 14.5891 11.9705 14.3986C12.1741 14.2081 12.2982 13.9477 12.3178 13.6695L12.8916 4.4612L4.1366 4.42578Z" fill="white"/>
<path d="M14.875 4.42578H2.125C1.9841 4.42578 1.84898 4.36981 1.74935 4.27018C1.64972 4.17055 1.59375 4.03543 1.59375 3.89453C1.59375 3.75363 1.64972 3.61851 1.74935 3.51888C1.84898 3.41925 1.9841 3.36328 2.125 3.36328H14.875C15.0159 3.36328 15.151 3.41925 15.2507 3.51888C15.3503 3.61851 15.4062 3.75363 15.4062 3.89453C15.4062 4.03543 15.3503 4.17055 15.2507 4.27018C15.151 4.36981 15.0159 4.42578 14.875 4.42578Z" fill="white"/>
<path d="M10.625 4.42578H6.375C6.23467 4.42395 6.10061 4.36739 6.00138 4.26815C5.90214 4.16892 5.84558 4.03486 5.84375 3.89453V2.61953C5.85273 2.25603 6.00114 1.9099 6.25825 1.65278C6.51536 1.39567 6.8615 1.24726 7.225 1.23828H9.775C10.1446 1.24752 10.4959 1.40085 10.7539 1.66553C11.012 1.93021 11.1564 2.28528 11.1562 2.65495V3.89453C11.1544 4.03486 11.0979 4.16892 10.9986 4.26815C10.8994 4.36739 10.7653 4.42395 10.625 4.42578ZM6.90625 3.36328H10.0938V2.65495C10.0938 2.57041 10.0602 2.48933 10.0004 2.42956C9.94061 2.36978 9.85954 2.3362 9.775 2.3362H7.225C7.14046 2.3362 7.05939 2.36978 6.99961 2.42956C6.93983 2.48933 6.90625 2.57041 6.90625 2.65495V3.36328Z" fill="white"/>
<path d="M10.625 12.9284C10.4847 12.9265 10.3506 12.87 10.2514 12.7707C10.1521 12.6715 10.0956 12.5374 10.0938 12.3971V6.73047C10.0938 6.58957 10.1497 6.45445 10.2493 6.35482C10.349 6.25519 10.4841 6.19922 10.625 6.19922C10.7659 6.19922 10.901 6.25519 11.0007 6.35482C11.1003 6.45445 11.1562 6.58957 11.1562 6.73047V12.3971C11.1544 12.5374 11.0979 12.6715 10.9986 12.7707C10.8994 12.87 10.7653 12.9265 10.625 12.9284Z" fill="white"/>
<path d="M6.375 12.9284C6.23467 12.9265 6.10061 12.87 6.00138 12.7707C5.90214 12.6715 5.84558 12.5374 5.84375 12.3971V6.73047C5.84375 6.58957 5.89972 6.45445 5.99935 6.35482C6.09898 6.25519 6.2341 6.19922 6.375 6.19922C6.5159 6.19922 6.65102 6.25519 6.75065 6.35482C6.85028 6.45445 6.90625 6.58957 6.90625 6.73047V12.3971C6.90442 12.5374 6.84786 12.6715 6.74862 12.7707C6.64939 12.87 6.51533 12.9265 6.375 12.9284Z" fill="white"/>
<path d="M8.5 12.9284C8.35967 12.9265 8.22561 12.87 8.12638 12.7707C8.02714 12.6715 7.97058 12.5374 7.96875 12.3971V6.73047C7.96875 6.58957 8.02472 6.45445 8.12435 6.35482C8.22398 6.25519 8.3591 6.19922 8.5 6.19922C8.6409 6.19922 8.77602 6.25519 8.87565 6.35482C8.97528 6.45445 9.03125 6.58957 9.03125 6.73047V12.3971C9.02942 12.5374 8.97286 12.6715 8.87362 12.7707C8.77439 12.87 8.64033 12.9265 8.5 12.9284Z" fill="white"/>
</svg>
