<svg width="60" height="60" viewBox="0 0 60 60" fill="none" xmlns="http://www.w3.org/2000/svg">
<circle cx="30" cy="30" r="29" stroke="url(#paint0_linear_6075_14905)" stroke-width="2"/>
<g clip-path="url(#clip0_6075_14905)">
<path d="M19.88 31.4101L27.77 35.9814C28.0512 36.1439 28.37 36.2314 28.6925 36.2314C28.9625 36.2314 29.23 36.1651 29.4638 36.0339C29.9825 35.7339 30.2937 35.1764 30.2762 34.5789V32.3589L36.5262 35.9776C36.8062 36.1401 37.1238 36.2276 37.4475 36.2276C37.7175 36.2276 37.985 36.1614 38.2188 36.0301C38.7363 35.7301 39.0475 35.1726 39.0288 34.5751V25.4001C39.0463 24.8051 38.7363 24.2464 38.2188 23.9476C37.685 23.6651 37.04 23.6851 36.525 24.0051L30.275 27.6226V25.4001C30.2913 24.8051 29.9812 24.2464 29.4625 23.9476C28.93 23.6651 28.285 23.6851 27.77 24.0051L19.88 28.5751C19.3425 28.8414 19 29.3914 19 29.9926C19 30.5939 19.3413 31.1426 19.88 31.4101V31.4101ZM36.5388 26.8351V33.1626L31.075 29.9976L36.5375 26.8351H36.5388ZM27.7888 26.8351V33.1626L22.325 29.9976L27.7875 26.8351H27.7888Z" fill="url(#paint1_linear_6075_14905)"/>
</g>
<defs>
<linearGradient id="paint0_linear_6075_14905" x1="2.78973" y1="25.7495" x2="54.7201" y2="26.6947" gradientUnits="userSpaceOnUse">
<stop stop-color="#9391E1"/>
<stop offset="1" stop-color="#F2B5CD"/>
</linearGradient>
<linearGradient id="paint1_linear_6075_14905" x1="19.9313" y1="29.1062" x2="37.258" y2="29.6123" gradientUnits="userSpaceOnUse">
<stop stop-color="#9391E1"/>
<stop offset="1" stop-color="#F2B5CD"/>
</linearGradient>
<clipPath id="clip0_6075_14905">
<rect width="20" height="20" fill="white" transform="translate(19 20)"/>
</clipPath>
</defs>
</svg>
