<svg width="60" height="60" viewBox="0 0 60 60" fill="none" xmlns="http://www.w3.org/2000/svg">
<circle cx="30" cy="30" r="29" stroke="url(#paint0_linear_6075_14902)" stroke-width="2"/>
<g clip-path="url(#clip0_6075_14902)">
<path d="M39.1498 31.4101L31.2585 35.9814C30.9773 36.1439 30.6585 36.2314 30.336 36.2314C30.0648 36.2314 29.7985 36.1651 29.5635 36.0339C29.046 35.7339 28.7348 35.1764 28.7535 34.5789V32.3589L22.5035 35.9776C22.2223 36.1401 21.9035 36.2276 21.581 36.2276C21.311 36.2276 21.0435 36.1614 20.8098 36.0301C20.291 35.7301 19.9798 35.1726 19.9973 34.5751V25.4001C19.981 24.8051 20.291 24.2464 20.8098 23.9476C21.3423 23.6651 21.9873 23.6851 22.5023 24.0051L28.7523 27.6226V25.4001C28.7348 24.8051 29.0448 24.2464 29.5623 23.9476C30.096 23.6651 30.741 23.6851 31.256 24.0051L39.1498 28.5751C39.6873 28.8414 40.0285 29.3914 40.0285 29.9926C40.0285 30.5939 39.6873 31.1426 39.1485 31.4101H39.1498ZM22.4873 26.8351V33.1626L27.9498 29.9976L22.4873 26.8351ZM31.2373 26.8351V33.1626L36.6998 29.9976L31.2373 26.8351Z" fill="url(#paint1_linear_6075_14902)"/>
</g>
<defs>
<linearGradient id="paint0_linear_6075_14902" x1="2.78973" y1="25.7495" x2="54.7201" y2="26.6947" gradientUnits="userSpaceOnUse">
<stop stop-color="#9391E1"/>
<stop offset="1" stop-color="#F2B5CD"/>
</linearGradient>
<linearGradient id="paint1_linear_6075_14902" x1="20.928" y1="29.1062" x2="38.2567" y2="29.6124" gradientUnits="userSpaceOnUse">
<stop stop-color="#9391E1"/>
<stop offset="1" stop-color="#F2B5CD"/>
</linearGradient>
<clipPath id="clip0_6075_14902">
<rect width="20" height="20" fill="white" transform="translate(20 20)"/>
</clipPath>
</defs>
</svg>
