<svg width="74" height="74" viewBox="0 0 74 74" fill="none" xmlns="http://www.w3.org/2000/svg">
<circle cx="37" cy="37" r="36" stroke="url(#paint0_linear_6075_15187)" stroke-width="2"/>
<g clip-path="url(#clip0_6075_15187)">
<path d="M42.25 26.5122V26.5H44V47.5H42.25V26.5122ZM38.75 26.5122V47.4878C38.75 49.425 40.3127 51 42.25 51H44C45.9425 51 47.5 49.425 47.5 47.4878V26.5122C47.5 24.575 45.9373 23 44 23H42.25C40.3075 23 38.75 24.575 38.75 26.5122ZM30 26.5122V26.5H31.75V47.5H30V26.5122ZM26.5 47.4878C26.5 49.425 28.0627 51 30 51H31.75C33.6925 51 35.25 49.425 35.25 47.4878V26.5122C35.25 24.575 33.6873 23 31.75 23H30C28.0575 23 26.5 24.575 26.5 26.5122V47.4878Z" fill="url(#paint1_linear_6075_15187)"/>
</g>
<defs>
<linearGradient id="paint0_linear_6075_15187" x1="3.44067" y1="31.7577" x2="67.4882" y2="32.9235" gradientUnits="userSpaceOnUse">
<stop stop-color="#9391E1"/>
<stop offset="1" stop-color="#F2B5CD"/>
</linearGradient>
<linearGradient id="paint1_linear_6075_15187" x1="27.4764" y1="35.0164" x2="45.6547" y2="35.2646" gradientUnits="userSpaceOnUse">
<stop stop-color="#9391E1"/>
<stop offset="1" stop-color="#F2B5CD"/>
</linearGradient>
<clipPath id="clip0_6075_15187">
<rect width="28" height="28" fill="white" transform="translate(23 23)"/>
</clipPath>
</defs>
</svg>
