<svg width="9" height="9" viewBox="0 0 9 9" fill="none" xmlns="http://www.w3.org/2000/svg">
<g clip-path="url(#clip0_101_17)">
<path d="M3.33337 2.26166C2.2729 3.3614 2.50431 5.18646 3.71906 5.99494C3.75909 6.0216 3.81234 6.01631 3.84672 5.98264C4.10245 5.73218 4.3188 5.48959 4.50823 5.18105C4.53721 5.13385 4.51919 5.07259 4.47056 5.04619C4.28528 4.94558 4.10091 4.75692 3.99711 4.55763L3.99699 4.5577C3.87266 4.30956 3.83033 4.03139 3.89615 3.74411C3.89622 3.74413 3.89629 3.74415 3.89636 3.74415C3.97211 3.37635 4.36605 3.03421 4.66693 2.7178C4.66629 2.71759 4.66568 2.71736 4.66505 2.71715L5.79236 1.56391C6.24161 1.10433 6.98057 1.10054 7.43448 1.5555C7.89299 2.00577 7.90057 2.75018 7.45133 3.20974L6.7685 3.91354C6.7369 3.94611 6.72665 3.99363 6.74144 4.03659C6.89866 4.49356 6.93733 5.1379 6.83197 5.62471C6.82902 5.63834 6.84579 5.64726 6.85552 5.6373L8.30879 4.1506C9.23717 3.20087 9.22929 1.6546 8.29129 0.714426C7.33403 -0.245044 5.77565 -0.237059 4.82823 0.732141L3.33919 2.25542C3.33722 2.2575 3.33535 2.25961 3.33337 2.26166V2.26166Z" fill="white"/>
<path d="M6.05024 6.20433C6.05022 6.20438 6.05019 6.20444 6.05017 6.20449C6.0511 6.2041 6.05197 6.20373 6.0529 6.20333C6.34949 5.65974 6.40787 5.0363 6.26887 4.42855L6.26824 4.42921L6.26755 4.42891C6.13557 3.88761 5.77342 3.3501 5.28158 3.01916C5.23926 2.9907 5.17168 2.99399 5.13206 3.02611C4.88292 3.22802 4.63905 3.48694 4.47814 3.81735C4.45287 3.86923 4.47179 3.93154 4.5216 3.96051C4.70834 4.06918 4.87699 4.22828 4.98991 4.4395L4.99009 4.43938C5.07809 4.58859 5.16481 4.87171 5.10864 5.17591C5.1086 5.17591 5.10855 5.17591 5.10851 5.17591C5.05611 5.57922 4.64976 5.94917 4.32674 6.28252L4.3269 6.28268C4.08102 6.53471 3.45596 7.17339 3.20567 7.42968C2.75644 7.88924 2.01375 7.89684 1.55525 7.44657C1.09674 6.9963 1.08916 6.25189 1.5384 5.79233L2.22325 5.08642C2.25429 5.05442 2.26484 5.00792 2.25104 4.9655C2.09897 4.49785 2.05731 3.86803 2.15329 3.38176C2.15597 3.36821 2.13933 3.35955 2.12967 3.36942L0.698262 4.83376C-0.239634 5.79323 -0.231685 7.35537 0.715954 8.30518C1.67316 9.24521 3.22366 9.22933 4.16152 8.26991C4.48734 7.90462 5.88205 6.61031 6.05024 6.20433V6.20433Z" fill="white"/>
</g>
<defs>
<clipPath id="clip0_101_17">
<rect width="9" height="9" fill="white"/>
</clipPath>
</defs>
</svg>
