<svg id="Layer_2" height="512" viewBox="0 0 32 32" width="512" xmlns="http://www.w3.org/2000/svg"><path d="m22.414 12.927c.469-.959 1.282-1.68 2.293-2.028.423-.146.859-.202 1.293-.204v-5.695c0-1.654-1.346-3-3-3h-16c-1.654 0-3 1.346-3 3v20c0 1.654 1.346 3 3 3h9.949l-.108-.314c-.435-1.269-.35-2.625.237-3.824zm-14.414-4.927h12c.553 0 1 .448 1 1s-.447 1-1 1h-12c-.553 0-1-.448-1-1s.447-1 1-1zm0 4h11c.553 0 1 .448 1 1s-.447 1-1 1h-11c-.553 0-1-.448-1-1s.447-1 1-1zm7 10h-7c-.553 0-1-.448-1-1s.447-1 1-1h7c.553 0 1 .448 1 1s-.447 1-1 1zm-7-4c-.553 0-1-.448-1-1s.447-1 1-1h9c.553 0 1 .448 1 1s-.447 1-1 1zm21.604-1.565-5.338 10.939c-.353.721-.964 1.261-1.721 1.521l-1.891.65c-.107.037-.218.055-.325.055-.415 0-.803-.26-.945-.675l-.651-1.891c-.261-.76-.21-1.574.142-2.293l5.338-10.937c.233-.48.641-.84 1.146-1.014.504-.174 1.047-.142 1.527.094l1.798.877c.48.234.84.642 1.014 1.147s.141 1.047-.094 1.527z"/></svg>