<svg width="158" height="41" viewBox="0 0 158 41" fill="none" xmlns="http://www.w3.org/2000/svg">
<g id="logo bnv premium-03 2">
<g id="Group">
<g id="Group_2">
<path id="Vector" d="M42 27.3047H44.7493C45.5192 27.3047 46.1278 27.4967 46.5738 27.8796C47.0198 28.2637 47.2429 28.8086 47.2429 29.514C47.2429 30.2195 47.0211 30.7782 46.5788 31.1485C46.1353 31.5188 45.5255 31.7033 44.7493 31.7033H43.042V34.4223H42V27.3047ZM44.6372 30.8384C45.1147 30.8384 45.4927 30.7405 45.7712 30.5434C46.0509 30.3463 46.1908 30.0036 46.1908 29.5153C46.1908 29.027 46.0509 28.6818 45.7712 28.4822C45.4915 28.2826 45.1135 28.1822 44.6372 28.1822H43.042V30.8397H44.6372V30.8384Z" fill="white"/>
<path id="Vector_2" d="M50.2076 27.3047H53.0791C53.8427 27.3047 54.4286 27.488 54.8368 27.8545C55.2463 28.2211 55.4504 28.7571 55.4504 29.4638C55.4504 29.9873 55.3106 30.4292 55.0308 30.7932C54.7511 31.156 54.3567 31.402 53.8452 31.5313L55.4189 34.4236H54.3353L52.812 31.6129H51.2483V34.4236H50.2063V27.3059L50.2076 27.3047ZM52.9052 30.7367C53.3613 30.7367 53.7242 30.63 53.9939 30.4166C54.2635 30.2032 54.3971 29.8856 54.3971 29.4651C54.3971 29.0031 54.266 28.6742 54.0039 28.4772C53.7419 28.2801 53.3752 28.1822 52.9052 28.1822H51.2496V30.738H52.9052V30.7367Z" fill="white"/>
<path id="Vector_3" d="M58.6194 27.3047H63.3318V28.1809H59.6627V30.4317H62.4019V31.2979H59.6627V33.5587H63.3318V34.4249H58.6194V27.3072V27.3047Z" fill="white"/>
<path id="Vector_4" d="M66.449 27.3047H67.491L70.0362 32.8545L72.5814 27.3047H73.6234V34.4223H72.6117V29.3609L70.292 34.4223H69.7804L67.4494 29.3609V34.4223H66.4478V27.3047H66.449Z" fill="white"/>
<path id="Vector_5" d="M76.9966 27.3047H78.0499V34.4223H76.9966V27.3047Z" fill="white"/>
<path id="Vector_6" d="M82.1185 33.8273C81.6208 33.3277 81.3726 32.641 81.3726 31.7648V27.3047H82.4146V31.8063C82.4146 32.4101 82.5847 32.867 82.9261 33.1758C83.2663 33.4846 83.7338 33.639 84.326 33.639C84.9182 33.639 85.3756 33.4846 85.7158 33.1758C86.056 32.867 86.2273 32.4101 86.2273 31.8063V27.3047H87.2694V31.7648C87.2694 32.6335 87.0211 33.3189 86.5234 33.8223C86.0257 34.3244 85.2937 34.5755 84.326 34.5755C83.3583 34.5755 82.6149 34.3257 82.1185 33.8273Z" fill="white"/>
<path id="Vector_7" d="M90.5918 27.3047H91.6339L94.1791 32.8545L96.7242 27.3047H97.7663V34.4223H96.7545V29.3609L94.4348 34.4223H93.9233L91.5923 29.3609V34.4223H90.5906V27.3047H90.5918Z" fill="white"/>
</g>
<g id="Group_3">
<path id="Vector_8" d="M40.3953 8.37891H44.0543L47.5004 17.3494L50.9465 8.37891H54.5867L49.1851 21.8635H45.8158L40.394 8.37891H40.3953Z" fill="white"/>
<path id="Vector_9" d="M70.1743 8.37891H73.6015V21.8635H70.1743V8.37891Z" fill="white"/>
<path id="Vector_10" d="M78.4525 21.3039C77.3361 20.7377 76.4743 19.9243 75.8682 18.8636C75.2609 17.8028 74.9585 16.5588 74.9585 15.1302C74.9585 13.7017 75.2622 12.4589 75.8682 11.3969C76.4743 10.3362 77.3361 9.51896 78.4525 8.94653C79.5688 8.3741 80.8629 8.08789 82.3345 8.08789C83.3022 8.08789 84.1678 8.18455 84.9289 8.37661C85.6899 8.56993 86.3943 8.87247 87.0394 9.28295V12.5242C86.4711 12.0748 85.8298 11.7459 85.1128 11.54C84.3959 11.3341 83.5731 11.2312 82.6445 11.2312C81.3152 11.2312 80.2883 11.5752 79.5663 12.2631C78.8431 12.951 78.4815 13.9063 78.4815 15.1277C78.4815 16.3491 78.8456 17.307 79.5751 18.0024C80.3047 18.6966 81.3278 19.0443 82.6445 19.0443C83.5744 19.0443 84.406 18.9351 85.1418 18.7167C85.8777 18.4983 86.5618 18.1505 87.1944 17.6748V20.8959C85.9684 21.732 84.348 22.15 82.3345 22.15C80.8629 22.15 79.5688 21.8675 78.4525 21.3014V21.3039Z" fill="white"/>
<path id="Vector_11" d="M88.5488 8.37891H98.1525V11.2536H91.976V13.7805H96.4881V16.4619H91.976V18.9889H98.1525V21.8635H88.5488V8.37891Z" fill="white"/>
<g id="Group_4">
<path id="Vector_12" d="M55.2256 12.1465H54.0903V18.0553H55.2256V12.1465Z" fill="url(#paint0_linear_990_2613)"/>
<path id="Vector_13" d="M56.9302 9.80273H55.8013V19.9382H56.9302V9.80273Z" fill="url(#paint1_linear_990_2613)"/>
<path id="Vector_14" d="M58.6908 11.2109H57.5039V21.1317H58.6908V11.2109Z" fill="url(#paint2_linear_990_2613)"/>
<path id="Vector_15" d="M60.4217 7.7832H59.2209V20.0828H60.4217V7.7832Z" fill="url(#paint3_linear_990_2613)"/>
<path id="Vector_16" d="M67.8649 18.0762H69.0278V13.7867H67.8649V18.0762Z" fill="url(#paint4_linear_990_2613)"/>
<path id="Vector_17" d="M66.1521 19.9395H67.2949V10.5735H66.1521V19.9395Z" fill="url(#paint5_linear_990_2613)"/>
<path id="Vector_18" d="M64.4503 20.3223H65.5352V8.36912H64.4503V20.3223Z" fill="url(#paint6_linear_990_2613)"/>
<path id="Vector_19" d="M62.7312 22.4609H63.9131V8.71519H62.7312V22.4609Z" fill="url(#paint7_linear_990_2613)"/>
<path id="Vector_20" d="M62.1821 6.81055H60.9397V23.4335H62.1821V6.81055Z" fill="url(#paint8_linear_990_2613)"/>
</g>
<g id="Group_5">
<path id="Vector_21" d="M104.706 21.2669C103.602 20.6757 102.73 19.8484 102.091 18.7877C101.452 17.7269 101.132 16.508 101.132 15.1322C101.132 13.7564 101.452 12.5337 102.091 11.4667C102.73 10.3996 103.602 9.56986 104.706 8.97735C105.809 8.3861 107.046 8.08984 108.414 8.08984C109.782 8.08984 110.999 8.3861 112.103 8.97735C113.207 9.56861 114.075 10.3984 114.708 11.4667C115.34 12.5349 115.656 13.7564 115.656 15.1322C115.656 16.508 115.34 17.7269 114.708 18.7877C114.075 19.8484 113.207 20.6757 112.103 21.2669C110.999 21.8582 109.77 22.1544 108.414 22.1544C107.058 22.1544 105.809 21.8582 104.706 21.2669ZM110.293 18.4889C110.861 18.1801 111.312 17.737 111.648 17.1583C111.983 16.5796 112.152 15.9042 112.152 15.1322C112.152 14.3602 111.987 13.6886 111.658 13.1161C111.33 12.5437 110.881 12.1006 110.313 11.7855C109.744 11.4704 109.112 11.3135 108.415 11.3135C107.718 11.3135 107.066 11.4717 106.499 11.7855C105.93 12.1006 105.482 12.545 105.153 13.1161C104.824 13.6886 104.659 14.3602 104.659 15.1322C104.659 15.9042 104.824 16.5796 105.153 17.1583C105.482 17.737 105.934 18.1801 106.509 18.4889C107.083 18.7977 107.72 18.9521 108.416 18.9521C109.113 18.9521 109.727 18.7977 110.295 18.4889H110.293Z" fill="white"/>
<path id="Vector_22" d="M115.365 8.37891H119.026L122.473 17.3507L125.92 8.37891H129.56L124.158 21.8648H120.788L115.366 8.37891H115.365Z" fill="white"/>
<path id="Vector_23" d="M130.916 8.37821H140.521V11.2529H134.343V13.7798H138.855V16.4612H134.343V18.9882H140.521V21.8628H130.916V8.37695V8.37821Z" fill="white"/>
<path id="Vector_24" d="M141.877 8.37891H147.958C149.545 8.37891 150.788 8.7781 151.685 9.57523C152.582 10.3724 153.03 11.5172 153.03 13.0098C153.03 14.0128 152.811 14.8689 152.371 15.5756C151.933 16.2836 151.313 16.8109 150.513 17.1574L152.915 21.8648H149.39L147.241 17.6394H145.304V21.8648H141.877V8.37891ZM147.357 14.7647C148.041 14.7647 148.57 14.6329 148.944 14.3693C149.319 14.1057 149.506 13.6525 149.506 13.0098C149.506 12.3671 149.322 11.8812 148.954 11.6302C148.586 11.3791 148.053 11.2536 147.357 11.2536H145.304V14.7647H147.357Z" fill="white"/>
</g>
</g>
</g>
<g id="Group_6">
<path id="Vector_25" d="M35.3615 20.719C35.3615 12.3828 28.5785 5.625 20.2113 5.625C11.844 5.625 5.06104 12.3828 5.06104 20.719C5.06104 29.0551 11.844 35.8129 20.2113 35.8129C28.5785 35.8129 35.3615 29.0551 35.3615 20.719Z" fill="#141414"/>
<path id="Vector_26" d="M20.4291 37.398C18.2077 37.398 16.0519 36.9649 14.022 36.1088C12.0614 35.2828 10.3012 34.1003 8.79049 32.5952C7.27849 31.0888 6.09283 29.3351 5.26375 27.3831C4.40569 25.3608 3.96973 23.2129 3.96973 20.9998C3.96973 18.7867 4.40443 16.6388 5.26375 14.6165C6.09283 12.6632 7.27975 10.9095 8.79049 9.40441C10.3025 7.89803 12.0627 6.71677 14.022 5.89077C16.0519 5.0359 18.2077 4.60156 20.4291 4.60156C22.6505 4.60156 24.8063 5.03465 26.8362 5.89077C28.7968 6.71677 30.557 7.89929 32.0677 9.40441C33.5797 10.9108 34.7654 12.6645 35.5945 14.6165C36.4525 16.6388 36.8885 18.7867 36.8885 20.9998C36.8885 23.2129 36.4538 25.3608 35.5945 27.3831C34.7654 29.3364 33.5785 31.0901 32.0677 32.5952C30.5557 34.1016 28.7955 35.2828 26.8362 36.1088C24.8063 36.9637 22.6505 37.398 20.4291 37.398ZM20.4291 6.11548C12.1912 6.11548 5.48929 12.7925 5.48929 20.9998C5.48929 29.2071 12.1912 35.8841 20.4291 35.8841C28.667 35.8841 35.3689 29.2071 35.3689 20.9998C35.3689 12.7925 28.667 6.11548 20.4291 6.11548Z" fill="url(#paint9_linear_990_2613)"/>
<g id="Group_7">
<g id="Group_8">
<path id="Vector_27" d="M29.6647 20.6462C29.6647 20.3236 29.4026 20.0625 29.0788 20.0625C28.755 20.0625 28.4929 20.3236 28.4929 20.6462V22.5443C28.4929 22.8669 28.755 23.128 29.0788 23.128C29.4026 23.128 29.6647 22.8669 29.6647 22.5443V20.6462Z" fill="white"/>
<path id="Vector_28" d="M12.3664 20.6462C12.3664 20.3236 12.1043 20.0625 11.7805 20.0625C11.4567 20.0625 11.1946 20.3236 11.1946 20.6462V22.5443C11.1946 22.8669 11.4567 23.128 11.7805 23.128C12.1043 23.128 12.3664 22.8669 12.3664 22.5443V20.6462Z" fill="white"/>
<path id="Vector_29" fill-rule="evenodd" clip-rule="evenodd" d="M13.9791 19.9162V22.6905C13.9791 24.3839 15.3576 25.7572 17.0573 25.7572H23.8008C25.5006 25.7572 26.879 24.3839 26.879 22.6905V19.9162C26.879 18.2228 25.5006 16.8495 23.8008 16.8495H17.0573C15.3576 16.8495 13.9791 18.2228 13.9791 19.9162ZM17.0573 15.5352C14.628 15.5352 12.6599 17.4972 12.6599 19.9162V22.6905C12.6599 25.1107 14.6293 27.0715 17.0573 27.0715H23.8008C26.2301 27.0715 28.1982 25.1095 28.1982 22.6905V19.9162C28.1982 17.496 26.2289 15.5352 23.8008 15.5352H17.0573Z" fill="white"/>
<path id="Vector_30" d="M22.9216 21.3757C22.9216 22.021 23.4471 22.5444 24.0947 22.5444C24.7423 22.5444 25.2678 22.021 25.2678 21.3757C25.2678 20.7305 24.7423 20.207 24.0947 20.207C23.4471 20.207 22.9216 20.7305 22.9216 21.3757Z" fill="white"/>
<path id="Vector_31" d="M15.592 21.3757C15.592 22.021 16.1175 22.5444 16.7651 22.5444C17.4127 22.5444 17.9382 22.021 17.9382 21.3757C17.9382 20.7305 17.4127 20.207 16.7651 20.207C16.1175 20.207 15.592 20.7305 15.592 21.3757Z" fill="white"/>
</g>
<g id="Group_9">
<path id="Vector_32" d="M20.574 10.5805C20.574 10.4702 20.4846 10.3809 20.3743 10.3809C20.264 10.3809 20.1746 10.4702 20.1746 10.5805V14.5435C20.1746 14.6537 20.264 14.7431 20.3743 14.7431C20.4846 14.7431 20.574 14.6537 20.574 14.5435V10.5805Z" fill="#FBB03B"/>
<path id="Vector_33" d="M19.4617 11.8617C19.4617 11.7515 19.3723 11.6621 19.262 11.6621C19.1517 11.6621 19.0623 11.7515 19.0623 11.8617V14.5418C19.0623 14.652 19.1517 14.7414 19.262 14.7414C19.3723 14.7414 19.4617 14.652 19.4617 14.5418V11.8617Z" fill="#FBB03B"/>
<path id="Vector_34" d="M21.6868 11.8617C21.6868 11.7515 21.5974 11.6621 21.4871 11.6621C21.3768 11.6621 21.2874 11.7515 21.2874 11.8617V14.5418C21.2874 14.652 21.3768 14.7414 21.4871 14.7414C21.5974 14.7414 21.6868 14.652 21.6868 14.5418V11.8617Z" fill="#FBB03B"/>
<path id="Vector_35" d="M18.1611 12.6855H18.1397C18.0353 12.6855 17.9507 12.7699 17.9507 12.8738V14.5535C17.9507 14.6575 18.0353 14.7418 18.1397 14.7418H18.1611C18.2655 14.7418 18.3501 14.6575 18.3501 14.5535V12.8738C18.3501 12.7699 18.2655 12.6855 18.1611 12.6855Z" fill="#FBB03B"/>
<path id="Vector_36" d="M17.2376 12.0805C17.2376 11.9702 17.1481 11.8809 17.0378 11.8809C16.9275 11.8809 16.8381 11.9702 16.8381 12.0805V14.5434C16.8381 14.6536 16.9275 14.743 17.0378 14.743C17.1481 14.743 17.2376 14.6536 17.2376 14.5434V12.0805Z" fill="#FBB03B"/>
<path id="Vector_37" d="M22.6089 12.6855H22.5874C22.4831 12.6855 22.3984 12.7699 22.3984 12.8738V14.5535C22.3984 14.6575 22.4831 14.7418 22.5874 14.7418H22.6089C22.7132 14.7418 22.7979 14.6575 22.7979 14.5535V12.8738C22.7979 12.7699 22.7132 12.6855 22.6089 12.6855Z" fill="#FBB03B"/>
<path id="Vector_38" d="M23.9104 12.0805C23.9104 11.9702 23.821 11.8809 23.7107 11.8809C23.6004 11.8809 23.511 11.9702 23.511 12.0805V14.5434C23.511 14.6536 23.6004 14.743 23.7107 14.743C23.821 14.743 23.9104 14.6536 23.9104 14.5434V12.0805Z" fill="#FBB03B"/>
</g>
</g>
</g>
</g>
<defs>
<linearGradient id="paint0_linear_990_2613" x1="62.1417" y1="5.99542" x2="53.1402" y2="17.0299" gradientUnits="userSpaceOnUse">
<stop stop-color="#37FA8F"/>
<stop offset="0.79" stop-color="#7A53C1"/>
<stop offset="1" stop-color="#8D25CF"/>
</linearGradient>
<linearGradient id="paint1_linear_990_2613" x1="63.0501" y1="6.73473" x2="54.0498" y2="17.7705" gradientUnits="userSpaceOnUse">
<stop stop-color="#37FA8F"/>
<stop offset="0.79" stop-color="#7A53C1"/>
<stop offset="1" stop-color="#8D25CF"/>
</linearGradient>
<linearGradient id="paint2_linear_990_2613" x1="64.7263" y1="8.10402" x2="55.726" y2="19.1385" gradientUnits="userSpaceOnUse">
<stop stop-color="#37FA8F"/>
<stop offset="0.79" stop-color="#7A53C1"/>
<stop offset="1" stop-color="#8D25CF"/>
</linearGradient>
<linearGradient id="paint3_linear_990_2613" x1="64.6579" y1="8.04682" x2="55.6576" y2="19.0813" gradientUnits="userSpaceOnUse">
<stop stop-color="#37FA8F"/>
<stop offset="0.79" stop-color="#7A53C1"/>
<stop offset="1" stop-color="#8D25CF"/>
</linearGradient>
<linearGradient id="paint4_linear_990_2613" x1="70.8044" y1="13.0612" x2="61.8042" y2="24.0956" gradientUnits="userSpaceOnUse">
<stop stop-color="#37FA8F"/>
<stop offset="0.79" stop-color="#7A53C1"/>
<stop offset="1" stop-color="#8D25CF"/>
</linearGradient>
<linearGradient id="paint5_linear_990_2613" x1="69.4407" y1="11.9493" x2="60.4405" y2="22.9838" gradientUnits="userSpaceOnUse">
<stop stop-color="#37FA8F"/>
<stop offset="0.79" stop-color="#7A53C1"/>
<stop offset="1" stop-color="#8D25CF"/>
</linearGradient>
<linearGradient id="paint6_linear_990_2613" x1="67.9569" y1="10.7392" x2="58.9566" y2="21.7736" gradientUnits="userSpaceOnUse">
<stop stop-color="#37FA8F"/>
<stop offset="0.79" stop-color="#7A53C1"/>
<stop offset="1" stop-color="#8D25CF"/>
</linearGradient>
<linearGradient id="paint7_linear_990_2613" x1="67.5683" y1="10.4212" x2="58.5681" y2="21.4556" gradientUnits="userSpaceOnUse">
<stop stop-color="#37FA8F"/>
<stop offset="0.79" stop-color="#7A53C1"/>
<stop offset="1" stop-color="#8D25CF"/>
</linearGradient>
<linearGradient id="paint8_linear_990_2613" x1="66.2846" y1="9.37391" x2="57.2844" y2="20.4084" gradientUnits="userSpaceOnUse">
<stop stop-color="#37FA8F"/>
<stop offset="0.79" stop-color="#7A53C1"/>
<stop offset="1" stop-color="#8D25CF"/>
</linearGradient>
<linearGradient id="paint9_linear_990_2613" x1="31.7968" y1="9.89776" x2="9.18324" y2="32.1471" gradientUnits="userSpaceOnUse">
<stop stop-color="#37FA8F"/>
<stop offset="0.79" stop-color="#7A53C1"/>
<stop offset="1" stop-color="#8D25CF"/>
</linearGradient>
</defs>
</svg>
