<svg width="1845" height="498" viewBox="0 0 1845 498" fill="none" xmlns="http://www.w3.org/2000/svg">
<path d="M627.43 278.85C627.43 267.85 618.51 258.93 607.51 258.93C596.51 258.93 587.59 267.85 587.59 278.85V343.58C587.59 354.58 596.51 363.5 607.51 363.5C618.51 363.5 627.43 354.58 627.43 343.58V278.85Z" fill="white"/>
<path d="M39.83 278.85C39.83 267.85 30.91 258.93 19.91 258.93C8.90999 258.93 -0.0100098 267.85 -0.0100098 278.85V343.58C-0.0100098 354.58 8.89999 363.5 19.91 363.5C30.91 363.5 39.83 354.58 39.83 343.58V278.85Z" fill="white"/>
<path d="M273.87 39.84C273.87 61.84 291.71 79.68 313.71 79.68C335.71 79.68 353.55 61.84 353.55 39.84C353.55 17.84 335.71 0 313.71 0C291.71 0 273.87 17.84 273.87 39.84Z" fill="white"/>
<path fill-rule="evenodd" clip-rule="evenodd" d="M94.6101 253.96V348.57C94.6101 406.32 141.43 453.14 199.18 453.14H428.24C485.99 453.14 532.81 406.32 532.81 348.57V253.96C532.81 196.21 485.99 149.39 428.24 149.39H199.19C141.44 149.39 94.6201 196.21 94.6201 253.96H94.6101ZM199.19 104.57C116.69 104.57 49.8 171.45 49.8 253.96V348.57C49.8 431.07 116.68 497.96 199.19 497.96H428.25C510.75 497.96 577.64 431.08 577.64 348.57V253.96C577.64 171.46 510.76 104.57 428.25 104.57H199.19Z" fill="white"/>
<path d="M398.37 303.75C398.37 325.75 416.21 343.59 438.21 343.59C460.21 343.59 478.05 325.75 478.05 303.75C478.05 281.75 460.21 263.91 438.21 263.91C416.21 263.91 398.37 281.75 398.37 303.75Z" fill="white"/>
<path d="M149.39 303.75C149.39 325.75 167.23 343.59 189.23 343.59C211.23 343.59 229.07 325.75 229.07 303.75C229.07 281.75 211.23 263.91 189.23 263.91C167.23 263.91 149.39 281.75 149.39 303.75Z" fill="white"/>
<path d="M666.39 158.96H741.05L811.37 342.65L881.69 158.96H955.96L845.75 435.09H777.01L666.4 158.96H666.39Z" fill="white"/>
<path d="M1273.94 158.96H1343.86V435.09H1273.94V158.96Z" fill="white"/>
<path d="M1442.82 423.64C1420.04 412.05 1402.46 395.4 1390.08 373.67C1377.7 351.94 1371.51 326.46 1371.51 297.23C1371.51 268 1377.69 242.52 1390.08 220.79C1402.46 199.06 1420.03 182.34 1442.82 170.62C1465.6 158.9 1492 153.04 1522.02 153.04C1541.77 153.04 1559.41 155.02 1574.95 158.97C1590.49 162.92 1604.84 169.11 1618.01 177.54V243.91C1606.42 234.69 1593.32 227.98 1578.7 223.76C1564.08 219.55 1547.29 217.44 1528.33 217.44C1501.2 217.44 1480.27 224.49 1465.52 238.57C1450.77 252.66 1443.4 272.22 1443.4 297.23C1443.4 322.24 1450.84 341.87 1465.72 356.09C1480.6 370.31 1501.47 377.42 1528.33 377.42C1547.29 377.42 1564.28 375.19 1579.29 370.7C1594.3 366.22 1608.26 359.11 1621.16 349.37V415.34C1596.14 432.46 1563.09 441.02 1522.01 441.02C1491.99 441.02 1465.58 435.22 1442.81 423.64H1442.82Z" fill="white"/>
<path d="M1648.82 158.96H1844.76V217.82H1718.75V269.57H1810.79V324.48H1718.75V376.23H1844.76V435.09H1648.82V158.96Z" fill="white"/>
<path d="M968.95 236.09H945.78V357.1H968.95V236.09Z" fill="white"/>
<path d="M1003.73 188.11H980.7V395.67H1003.73V188.11Z" fill="white"/>
<path d="M1039.63 216.94H1015.42V420.09H1039.63V216.94Z" fill="white"/>
<path d="M1074.98 146.75H1050.48V398.61H1074.98V146.75Z" fill="white"/>
<path d="M1226.79 357.54H1250.53V269.71H1226.79V357.54Z" fill="white"/>
<path d="M1191.88 395.66H1215.19V203.88H1191.88V395.66Z" fill="white"/>
<path d="M1157.15 403.51H1179.28V158.74H1157.15V403.51Z" fill="white"/>
<path d="M1122.1 447.3H1146.22V165.81H1122.1V447.3Z" fill="white"/>
<path d="M1110.88 126.83H1085.53V467.23H1110.88V126.83Z" fill="white"/>
</svg>
