<svg width="20" height="20" viewBox="0 0 20 20" fill="none" xmlns="http://www.w3.org/2000/svg">
<path d="M3.57456 1.17183C2.69175 1.35933 1.92221 1.77729 1.2894 2.42183C0.746433 2.9687 0.355808 3.64448 0.129245 4.41401L0.0237763 4.78511L0.00815134 7.55855C-0.00747366 10.5507 0.000338838 10.6445 0.199558 11.2695C0.691745 12.8125 2.05112 14.0195 3.61753 14.3085L3.88706 14.3593L3.90659 16.4687C3.92221 18.1445 3.93784 18.5898 3.9769 18.6523C4.11362 18.8554 4.37534 18.9453 4.67612 18.8867C4.80893 18.8632 5.07456 18.6132 7.05112 16.6406L9.27768 14.4179L12.6761 14.4023C15.6449 14.3906 16.1097 14.3789 16.3675 14.3242C18.055 13.9492 19.3675 12.7617 19.8246 11.1914C20.0003 10.582 20.0042 10.4765 19.9925 7.55855L19.9769 4.78511L19.8714 4.41401C19.641 3.63276 19.2503 2.96089 18.6917 2.40229C18.1253 1.83589 17.4339 1.43354 16.6527 1.2187L16.2699 1.11323L10.098 1.10542C4.1644 1.09761 3.9144 1.10151 3.57456 1.17183ZM9.94565 5.05855C10.305 5.16401 10.2699 5.08589 11.0902 7.76167C11.5003 9.0937 11.8363 10.2226 11.8363 10.2656C11.8363 10.4648 11.4417 10.6992 11.1097 10.7031C10.7972 10.7031 10.7464 10.6406 10.5863 10.0507L10.4496 9.55073L9.6019 9.53901L8.75424 9.5312L8.69174 9.75386C8.65659 9.87886 8.61362 10.0312 8.59409 10.0976C8.57456 10.1601 8.5394 10.289 8.51596 10.3789C8.45737 10.6132 8.34799 10.7031 8.12924 10.7031C8.03159 10.7031 7.88315 10.6835 7.80112 10.6601C7.63706 10.6171 7.39878 10.4257 7.36362 10.3085C7.348 10.2656 7.63706 9.25386 8.08628 7.78511C8.69956 5.77339 8.8519 5.31245 8.93784 5.22261C9.12924 5.01948 9.57456 4.94917 9.94565 5.05855ZM7.32456 5.13276C7.52378 5.33198 7.52768 5.75386 7.33237 5.9648C7.25425 6.05464 7.24253 6.05464 6.1644 6.05464H5.07846V6.73823V7.42183H5.71909C6.3519 7.42183 6.36362 7.42183 6.48081 7.52339C6.62143 7.64058 6.66831 7.83589 6.60581 8.05073C6.53159 8.30464 6.4769 8.32026 5.73471 8.32026H5.07846V9.37105C5.07846 9.94917 5.06675 10.4531 5.05503 10.4882C4.98471 10.6718 4.44956 10.7695 4.1644 10.6484C3.89096 10.5351 3.90659 10.6914 3.90659 7.86714C3.90659 5.35542 3.90659 5.32026 3.98862 5.2187C4.03159 5.16401 4.12534 5.10151 4.19175 5.08198C4.26206 5.06245 4.973 5.04292 5.77378 5.04292L7.23081 5.03901L7.32456 5.13276ZM15.3011 5.14839C15.8949 5.33589 16.2347 5.68745 16.3871 6.2773C16.4691 6.5937 16.473 9.2148 16.391 9.51948C16.223 10.1562 15.7816 10.5703 15.1332 10.7031L14.93 10.746L14.9144 11.0585C14.9027 11.3476 14.891 11.3828 14.7933 11.4687C14.6488 11.5937 14.4574 11.5937 14.3207 11.4648C14.2269 11.3789 14.2191 11.3476 14.2191 11.0625V10.7539L13.9964 10.7031C13.348 10.5585 12.9457 10.207 12.7503 9.60933C12.6488 9.29683 12.6214 6.84761 12.7113 6.4062C12.8441 5.77339 13.1566 5.39058 13.7152 5.17964C14.1253 5.02339 14.8558 5.01167 15.3011 5.14839Z" fill="url(#paint0_linear_9968_43067)"/>
<path d="M9.51987 6.6875C9.48471 6.80078 9.35971 7.26172 9.23471 7.71484C9.11362 8.16406 9.00424 8.55859 8.99643 8.58203C8.98081 8.62109 9.11362 8.63281 9.59018 8.63281C10.1839 8.63281 10.1996 8.62891 10.1761 8.55469C10.1644 8.51172 10.0316 8.03516 9.88315 7.49609C9.73471 6.95703 9.60581 6.50781 9.59799 6.49609C9.58628 6.48828 9.55112 6.57031 9.51987 6.6875Z" fill="url(#paint1_linear_9968_43067)"/>
<path d="M14.3398 6.0936C14.1523 6.14048 14.0156 6.24985 13.9257 6.42954C13.8554 6.57016 13.8476 6.67563 13.8359 7.75766C13.8203 9.04673 13.8476 9.30845 14.0038 9.51548C14.1601 9.7186 14.2187 9.69126 14.2187 9.41782C14.2187 9.28891 14.2304 9.1561 14.2421 9.12095C14.2812 9.01938 14.4843 8.93345 14.6288 8.96079C14.8242 8.99985 14.8984 9.10923 14.914 9.39829C14.9218 9.53501 14.9453 9.64829 14.9609 9.64829C15.0234 9.64829 15.1953 9.41001 15.2343 9.26548C15.2656 9.16782 15.2734 8.67954 15.2656 7.81235C15.2538 6.5311 15.2538 6.49985 15.164 6.36313C15.0234 6.13266 14.6562 6.01157 14.3398 6.0936Z" fill="url(#paint2_linear_9968_43067)"/>
<defs>
<linearGradient id="paint0_linear_9968_43067" x1="0.932538" y1="11.2645" x2="18.2356" y2="10.9108" gradientUnits="userSpaceOnUse">
<stop stop-color="#222166"/>
<stop offset="1" stop-color="#812448"/>
</linearGradient>
<linearGradient id="paint1_linear_9968_43067" x1="9.05042" y1="7.7156" x2="10.078" y2="7.70521" gradientUnits="userSpaceOnUse">
<stop stop-color="#222166"/>
<stop offset="1" stop-color="#812448"/>
</linearGradient>
<linearGradient id="paint2_linear_9968_43067" x1="13.8988" y1="8.11183" x2="15.1423" y2="8.10275" gradientUnits="userSpaceOnUse">
<stop stop-color="#222166"/>
<stop offset="1" stop-color="#812448"/>
</linearGradient>
</defs>
</svg>
