<svg width="20" height="20" viewBox="0 0 20 20" fill="none" xmlns="http://www.w3.org/2000/svg">
<path d="M9.23828 0.0234375C9.13281 0.03125 8.80469 0.0742188 8.51562 0.117188C5.74219 0.527344 3.25 2.11328 1.67188 4.47266C0.882812 5.65234 0.34375 7.05469 0.109375 8.53516C-0.015625 9.32031 -0.015625 10.6797 0.109375 11.4648C0.558594 14.3125 2.10547 16.7461 4.47266 18.3281C5.65234 19.1172 7.05469 19.6562 8.53516 19.8906C9.32031 20.0156 10.6797 20.0156 11.4648 19.8906C12.5742 19.7148 13.4648 19.4336 14.4492 18.9414C16.4062 17.9727 17.9727 16.4062 18.9414 14.4492C19.4336 13.4648 19.7148 12.5742 19.8906 11.4648C20.0156 10.6797 20.0156 9.32031 19.8906 8.53516C19.4414 5.6875 17.8945 3.25391 15.5273 1.67188C14.3594 0.890625 12.9414 0.34375 11.5039 0.117188C11.0078 0.0390625 9.71094 -0.015625 9.23828 0.0234375ZM10.5117 3.45703C10.9961 3.62891 11.3672 4.06641 11.543 4.66797C11.6914 5.17578 11.5977 6.45312 11.3086 7.91016C11.0742 9.08594 10.5781 11 10.4258 11.293C10.2188 11.7031 9.78125 11.7031 9.57422 11.293C9.37109 10.9023 8.80078 8.58203 8.57422 7.24609C8.40234 6.21484 8.35156 5.17969 8.45703 4.73438C8.62109 4.03516 9.10547 3.52734 9.72656 3.40234C9.93359 3.35938 10.3086 3.38672 10.5117 3.45703ZM10.6055 13.7578C10.9844 13.957 11.2148 14.2891 11.2891 14.7422C11.3984 15.4297 11.0703 16.0703 10.4922 16.2852C10.1953 16.3945 9.80469 16.3945 9.50391 16.2852C8.94141 16.0742 8.59375 15.4062 8.71094 14.7539C8.77344 14.4102 8.875 14.207 9.08984 13.9922C9.36719 13.7148 9.60938 13.6289 10.0586 13.6445C10.3438 13.6562 10.4453 13.6758 10.6055 13.7578Z" fill="#DDDCDC"/>
</svg>
