<svg width="20" height="20" viewBox="0 0 20 20" fill="none" xmlns="http://www.w3.org/2000/svg">
<g clip-path="url(#clip0_9968_43110)">
<path d="M9.23828 0.0235596C9.13281 0.0313721 8.80469 0.0743408 8.51562 0.11731C5.74219 0.527466 3.25 2.1134 1.67188 4.47278C0.882812 5.65247 0.34375 7.05481 0.109375 8.53528C-0.015625 9.32043 -0.015625 10.6798 0.109375 11.465C0.558594 14.3126 2.10547 16.7462 4.47266 18.3282C5.65234 19.1173 7.05469 19.6564 8.53516 19.8907C9.32031 20.0157 10.6797 20.0157 11.4648 19.8907C12.5742 19.715 13.4648 19.4337 14.4492 18.9415C16.4062 17.9728 17.9727 16.4064 18.9414 14.4493C19.4336 13.465 19.7148 12.5743 19.8906 11.465C20.0156 10.6798 20.0156 9.32043 19.8906 8.53528C19.4414 5.68762 17.8945 3.25403 15.5273 1.672C14.3594 0.890747 12.9414 0.343872 11.5039 0.11731C11.0078 0.0391846 9.71094 -0.0155029 9.23828 0.0235596ZM10.5117 3.45715C10.9961 3.62903 11.3672 4.06653 11.543 4.66809C11.6914 5.1759 11.5977 6.45325 11.3086 7.91028C11.0742 9.08606 10.5781 11.0001 10.4258 11.2931C10.2188 11.7032 9.78125 11.7032 9.57422 11.2931C9.37109 10.9025 8.80078 8.58215 8.57422 7.24622C8.40234 6.21497 8.35156 5.17981 8.45703 4.7345C8.62109 4.03528 9.10547 3.52747 9.72656 3.40247C9.93359 3.3595 10.3086 3.38684 10.5117 3.45715ZM10.6055 13.7579C10.9844 13.9572 11.2148 14.2892 11.2891 14.7423C11.3984 15.4298 11.0703 16.0704 10.4922 16.2853C10.1953 16.3947 9.80469 16.3947 9.50391 16.2853C8.94141 16.0743 8.59375 15.4064 8.71094 14.754C8.77344 14.4103 8.875 14.2072 9.08984 13.9923C9.36719 13.715 9.60938 13.629 10.0586 13.6447C10.3438 13.6564 10.4453 13.6759 10.6055 13.7579Z" fill="url(#paint0_linear_9968_43110)"/>
</g>
<defs>
<linearGradient id="paint0_linear_9968_43110" x1="0.944082" y1="11.4125" x2="18.2272" y2="11.098" gradientUnits="userSpaceOnUse">
<stop stop-color="#222166"/>
<stop offset="1" stop-color="#812448"/>
</linearGradient>
<clipPath id="clip0_9968_43110">
<rect width="20" height="20" fill="white"/>
</clipPath>
</defs>
</svg>
