<svg width="20" height="20" viewBox="0 0 20 20" fill="none" xmlns="http://www.w3.org/2000/svg">
<g clip-path="url(#clip0_9071_41491)">
<path d="M19.4598 8.69904C19.4593 8.69858 19.4589 8.69812 19.4584 8.69766L11.3 0.539551C10.9523 0.19165 10.4899 0 9.99813 0C9.50634 0 9.04399 0.191498 8.69609 0.539398L0.541952 8.69339C0.539205 8.69614 0.536458 8.69904 0.533712 8.70178C-0.180399 9.42001 -0.179179 10.5853 0.537221 11.3017C0.864522 11.6292 1.2968 11.8188 1.75899 11.8387C1.77776 11.8405 1.79668 11.8414 1.81576 11.8414H2.14092V17.8453C2.14092 19.0334 3.10756 20 4.29592 20H7.48775C7.81124 20 8.07369 19.7377 8.07369 19.4141V14.707C8.07369 14.1649 8.51467 13.7239 9.05681 13.7239H10.9394C11.4816 13.7239 11.9226 14.1649 11.9226 14.707V19.4141C11.9226 19.7377 12.1849 20 12.5085 20H15.7003C16.8887 20 17.8553 19.0334 17.8553 17.8453V11.8414H18.1568C18.6485 11.8414 19.1108 11.6499 19.4589 11.302C20.176 10.5844 20.1763 9.41711 19.4598 8.69904Z" fill="#3D4652"/>
</g>
<defs>
<clipPath id="clip0_9071_41491">
<rect width="20" height="20" fill="white"/>
</clipPath>
</defs>
</svg>
