<svg width="10" height="6" viewBox="0 0 10 6" fill="none" xmlns="http://www.w3.org/2000/svg">
<path d="M0.314904 0.286621C0.279748 0.29834 0.209436 0.347168 0.156701 0.399902C-0.00736126 0.563965 -0.0425175 0.790527 0.0668575 0.976074C0.0942012 1.01904 1.15084 2.09131 2.41647 3.35498C4.21139 5.14795 4.73678 5.66357 4.80514 5.69287C4.92037 5.74561 5.08053 5.74561 5.19576 5.69287C5.26412 5.66357 5.78951 5.14795 7.58444 3.35498C8.85006 2.09131 9.9067 1.01904 9.93405 0.976074C10.0434 0.790527 10.0083 0.563965 9.8442 0.399902C9.78756 0.343262 9.72116 0.29834 9.67623 0.286621C9.57662 0.259277 0.412561 0.259277 0.314904 0.286621Z" fill="#DDDCDC"/>
</svg>