<svg width="67" height="46" viewBox="0 0 67 46" fill="none" xmlns="http://www.w3.org/2000/svg">
<g id="logo bnv premium-02 1">
<g id="Group">
<path id="Vector" d="M49.1969 17.3538C49.1969 8.9065 42.2433 2.05859 33.6656 2.05859C25.0879 2.05859 18.1343 8.9065 18.1343 17.3538C18.1343 25.8011 25.0879 32.6491 33.6656 32.6491C42.2433 32.6491 49.1969 25.8011 49.1969 17.3538Z" fill="#141414"/>
<path id="Vector_2" d="M33.8898 34.2578C31.6119 34.2578 29.4019 33.8185 27.3215 32.9517C25.3118 32.1146 23.5073 30.9167 21.9584 29.3906C20.4088 27.8646 19.1925 26.0875 18.3424 24.109C17.4622 22.0596 17.0161 19.8839 17.0161 17.6406C17.0161 15.3974 17.4622 13.221 18.3424 11.1722C19.1925 9.19308 20.4088 7.41599 21.9584 5.8906C23.508 4.36453 25.3125 3.1667 27.3215 2.32953C29.4026 1.46271 31.6119 1.02344 33.8898 1.02344C36.1676 1.02344 38.3776 1.46271 40.458 2.32953C42.4677 3.1667 44.2722 4.36453 45.8211 5.8906C47.3708 7.41668 48.5871 9.19377 49.4372 11.1722C50.3174 13.2217 50.7634 15.3974 50.7634 17.6406C50.7634 19.8839 50.3174 22.0602 49.4372 24.109C48.5871 26.0882 47.3708 27.8653 45.8211 29.3906C44.2715 30.9167 42.467 32.1146 40.458 32.9517C38.3769 33.8185 36.1676 34.2578 33.8898 34.2578ZM33.8898 2.5571C25.4449 2.5571 18.5741 9.32341 18.5741 17.6399C18.5741 25.9565 25.4449 32.7228 33.8898 32.7228C42.3346 32.7228 49.2054 25.9565 49.2054 17.6399C49.2054 9.32341 42.3346 2.5571 33.8898 2.5571Z" fill="url(#paint0_linear_1093_7514)"/>
<g id="Group_2">
<g id="Group_3">
<path id="Vector_3" d="M43.3584 17.2792C43.3584 16.9523 43.0895 16.6875 42.7575 16.6875C42.4256 16.6875 42.1567 16.9523 42.1567 17.2792V19.2031C42.1567 19.53 42.4256 19.7948 42.7575 19.7948C43.0895 19.7948 43.3584 19.53 43.3584 19.2031V17.2792Z" fill="white"/>
<path id="Vector_4" d="M25.6245 17.2792C25.6245 16.9523 25.3556 16.6875 25.0237 16.6875C24.6917 16.6875 24.4229 16.9523 24.4229 17.2792V19.2031C24.4229 19.53 24.6917 19.7948 25.0237 19.7948C25.3556 19.7948 25.6245 19.53 25.6245 19.2031V17.2792Z" fill="white"/>
<path id="Vector_5" fill-rule="evenodd" clip-rule="evenodd" d="M27.2779 16.5412V19.3534C27.2779 21.0698 28.691 22.4614 30.4339 22.4614H37.3467C39.0896 22.4614 40.5026 21.0698 40.5026 19.3534V16.5412C40.5026 14.8248 39.0896 13.4332 37.3467 13.4332H30.4339C28.691 13.4332 27.2779 14.8248 27.2779 16.5412ZM30.4339 12.1016C27.9439 12.1016 25.9258 14.0897 25.9258 16.5412V19.3534C25.9258 21.8056 27.9446 23.793 30.4339 23.793H37.3467C39.8367 23.793 41.8548 21.8049 41.8548 19.3534V16.5412C41.8548 14.089 39.836 12.1016 37.3467 12.1016H30.4339Z" fill="white"/>
<path id="Vector_6" d="M36.4453 18.02C36.4453 18.6737 36.9838 19.204 37.6476 19.204C38.3114 19.204 38.8499 18.6737 38.8499 18.02C38.8499 17.3662 38.3114 16.8359 37.6476 16.8359C36.9838 16.8359 36.4453 17.3662 36.4453 18.02Z" fill="white"/>
<path id="Vector_7" d="M28.9312 18.02C28.9312 18.6737 29.4696 19.204 30.1335 19.204C30.7973 19.204 31.3358 18.6737 31.3358 18.02C31.3358 17.3662 30.7973 16.8359 30.1335 16.8359C29.4696 16.8359 28.9312 17.3662 28.9312 18.02Z" fill="white"/>
</g>
<g id="Group_4">
<path id="Vector_8" d="M34.0385 7.079C34.0385 6.96741 33.9468 6.87695 33.8337 6.87695C33.7206 6.87695 33.6289 6.96741 33.6289 7.079V11.0945C33.6289 11.2061 33.7206 11.2966 33.8337 11.2966C33.9468 11.2966 34.0385 11.2061 34.0385 11.0945V7.079Z" fill="#FBB03B"/>
<path id="Vector_9" d="M32.8984 8.37783C32.8984 8.26624 32.8067 8.17578 32.6936 8.17578C32.5805 8.17578 32.4888 8.26624 32.4888 8.37783V11.0948C32.4888 11.2064 32.5805 11.2969 32.6936 11.2969C32.8067 11.2969 32.8984 11.2064 32.8984 11.0948V8.37783Z" fill="#FBB03B"/>
<path id="Vector_10" d="M35.1787 8.37783C35.1787 8.26624 35.087 8.17578 34.9739 8.17578C34.8607 8.17578 34.769 8.26624 34.769 8.37783V11.0948C34.769 11.2064 34.8607 11.2969 34.9739 11.2969C35.087 11.2969 35.1787 11.2064 35.1787 11.0948V8.37783Z" fill="#FBB03B"/>
<path id="Vector_11" d="M31.5648 9.21289H31.5431C31.436 9.21289 31.3491 9.29841 31.3491 9.40391V11.1065C31.3491 11.212 31.436 11.2975 31.5431 11.2975H31.5648C31.6719 11.2975 31.7588 11.212 31.7588 11.1065V9.40391C31.7588 9.29841 31.6719 9.21289 31.5648 9.21289Z" fill="#FBB03B"/>
<path id="Vector_12" d="M30.6186 8.59854C30.6186 8.48695 30.5269 8.39648 30.4138 8.39648C30.3007 8.39648 30.209 8.48695 30.209 8.59854V11.0942C30.209 11.2058 30.3007 11.2962 30.4138 11.2962C30.5269 11.2962 30.6186 11.2058 30.6186 11.0942V8.59854Z" fill="#FBB03B"/>
<path id="Vector_13" d="M36.1253 9.21289H36.1036C35.9965 9.21289 35.9097 9.29841 35.9097 9.40391V11.1065C35.9097 11.212 35.9965 11.2975 36.1036 11.2975H36.1253C36.2325 11.2975 36.3193 11.212 36.3193 11.1065V9.40391C36.3193 9.29841 36.2325 9.21289 36.1253 9.21289Z" fill="#FBB03B"/>
<path id="Vector_14" d="M37.4594 8.59854C37.4594 8.48695 37.3677 8.39648 37.2546 8.39648C37.1415 8.39648 37.0498 8.48695 37.0498 8.59854V11.0942C37.0498 11.2058 37.1415 11.2962 37.2546 11.2962C37.3677 11.2962 37.4594 11.2058 37.4594 11.0942V8.59854Z" fill="#FBB03B"/>
</g>
</g>
</g>
<g id="Group_5">
<g id="Group_6">
<path id="Vector_15" d="M6.0005 37.3613H7.8201L9.53343 41.6782L11.2468 37.3613H13.0563L10.3705 43.8507H8.69531L6 37.3613H6.0005Z" fill="white"/>
<path id="Vector_16" d="M20.8057 37.3613H22.5095V43.8507H20.8057V37.3613Z" fill="white"/>
<path id="Vector_17" d="M24.9215 43.5839C24.3661 43.3117 23.938 42.9202 23.6362 42.4097C23.3345 41.8992 23.1836 41.3003 23.1836 40.6133C23.1836 39.9264 23.3345 39.3275 23.6362 38.817C23.938 38.3065 24.3661 37.9135 24.9215 37.6379C25.4764 37.3624 26.12 37.2246 26.8519 37.2246C27.3331 37.2246 27.7632 37.271 28.1416 37.3638C28.5201 37.4566 28.87 37.6022 29.1908 37.8004V39.3598C28.9081 39.1433 28.5893 38.9852 28.2329 38.8866C27.8765 38.7875 27.4674 38.7382 27.0053 38.7382C26.3441 38.7382 25.8338 38.904 25.4744 39.2346C25.115 39.5658 24.9355 40.0255 24.9355 40.6133C24.9355 41.2012 25.117 41.6623 25.4794 41.9964C25.8418 42.3304 26.3506 42.4977 27.0053 42.4977C27.4674 42.4977 27.8815 42.445 28.2469 42.3401C28.6128 42.2347 28.9527 42.0679 29.2675 41.8388V43.3891C28.6579 43.7913 27.8524 43.9924 26.8514 43.9924C26.1195 43.9924 25.4764 43.8561 24.921 43.5839H24.9215Z" fill="white"/>
<path id="Vector_18" d="M29.9414 37.3618H34.716V38.7449H31.6452V39.9611H33.8884V41.2514H31.6452V42.4676H34.716V43.8507H29.9414V37.3613V37.3618Z" fill="white"/>
<g id="Group_7">
<path id="Vector_19" d="M13.3735 39.1719H12.8091V42.0158H13.3735V39.1719Z" fill="url(#paint1_linear_1093_7514)"/>
<path id="Vector_20" d="M14.2211 38.0469H13.6597V42.925H14.2211V38.0469Z" fill="url(#paint2_linear_1093_7514)"/>
<path id="Vector_21" d="M15.0958 38.7227H14.5059V43.4968H15.0958V38.7227Z" fill="url(#paint3_linear_1093_7514)"/>
<path id="Vector_22" d="M15.9574 37.0742H15.3604V42.9936H15.9574V37.0742Z" fill="url(#paint4_linear_1093_7514)"/>
<path id="Vector_23" d="M19.6569 42.0273H20.2354V39.9632H19.6569V42.0273Z" fill="url(#paint5_linear_1093_7514)"/>
<path id="Vector_24" d="M18.8061 42.9238H19.374V38.4165H18.8061V42.9238Z" fill="url(#paint6_linear_1093_7514)"/>
<path id="Vector_25" d="M17.9606 43.1094H18.5V37.3568H17.9606V43.1094Z" fill="url(#paint7_linear_1093_7514)"/>
<path id="Vector_26" d="M17.1054 44.1367H17.6934V37.5212H17.1054V44.1367Z" fill="url(#paint8_linear_1093_7514)"/>
<path id="Vector_27" d="M16.8319 36.6055H16.2144V44.6055H16.8319V36.6055Z" fill="url(#paint9_linear_1093_7514)"/>
</g>
<g id="Group_8">
<path id="Vector_28" d="M37.9738 43.5606C37.4249 43.2759 36.9918 42.8781 36.674 42.3676C36.3562 41.8571 36.1973 41.2707 36.1973 40.608C36.1973 39.9452 36.3562 39.3579 36.674 38.844C36.9918 38.3301 37.4249 37.9308 37.9738 37.6461C38.5226 37.3614 39.1372 37.2188 39.8174 37.2188C40.4976 37.2188 41.1027 37.3614 41.6515 37.6461C42.2004 37.9308 42.632 38.3301 42.9463 38.844C43.2606 39.3579 43.418 39.9457 43.418 40.608C43.418 41.2702 43.2606 41.8566 42.9463 42.3676C42.6315 42.8781 42.1999 43.2759 41.6515 43.5606C41.1027 43.8454 40.4916 43.988 39.8174 43.988C39.1432 43.988 38.5226 43.8459 37.9738 43.5606ZM40.7518 42.2235C41.034 42.0751 41.2586 41.8614 41.426 41.583C41.5929 41.3046 41.6761 40.9792 41.6761 40.608C41.6761 40.2367 41.5944 39.9133 41.4305 39.6377C41.2666 39.3622 41.0435 39.149 40.7613 38.9972C40.4786 38.8454 40.1643 38.7695 39.8179 38.7695C39.4715 38.7695 39.1472 38.8454 38.865 38.9972C38.5823 39.149 38.3597 39.3627 38.1958 39.6377C38.0319 39.9133 37.9502 40.2367 37.9502 40.608C37.9502 40.9792 38.0319 41.3046 38.1958 41.583C38.3597 41.8614 38.5843 42.0751 38.8695 42.2235C39.1552 42.3719 39.4715 42.4464 39.8179 42.4464C40.1643 42.4464 40.4691 42.3719 40.7518 42.2235Z" fill="white"/>
<path id="Vector_29" d="M43.2744 37.3574H45.094L46.8078 41.6748L48.5217 37.3574H50.3317L47.6455 43.8477H45.9702L43.2744 37.3574Z" fill="white"/>
<path id="Vector_30" d="M51.0049 37.3574H55.7805V38.7409H52.7092V39.9572H54.9524V41.2479H52.7092V42.4642H55.7805V43.8477H51.0049V37.3574Z" fill="white"/>
<path id="Vector_31" d="M56.4546 37.3579H59.4777C60.2672 37.3579 60.8848 37.5498 61.3309 37.9336C61.7771 38.3175 62.0001 38.8686 62.0001 39.5864C62.0001 40.0694 61.8908 40.4808 61.6728 40.8211C61.4547 41.1614 61.1465 41.4152 60.7485 41.5825L61.9425 43.8477H60.19L59.1213 41.8145H58.1584V43.8477H56.4541V37.3574L56.4546 37.3579ZM59.1795 40.431C59.5199 40.431 59.7825 40.3676 59.969 40.2405C60.155 40.1138 60.2482 39.8953 60.2482 39.586C60.2482 39.2766 60.1565 39.0426 59.974 38.9222C59.791 38.8014 59.5264 38.7409 59.1795 38.7409H58.1589V40.431H59.1795Z" fill="white"/>
</g>
</g>
</g>
</g>
<defs>
<linearGradient id="paint0_linear_1093_7514" x1="45.5438" y1="6.38987" x2="22.6256" y2="29.2023" gradientUnits="userSpaceOnUse">
<stop stop-color="#37FA8F"/>
<stop offset="0.79" stop-color="#7A53C1"/>
<stop offset="1" stop-color="#8D25CF"/>
</linearGradient>
<linearGradient id="paint1_linear_1093_7514" x1="16.8117" y1="36.2115" x2="12.5106" y2="41.6592" gradientUnits="userSpaceOnUse">
<stop stop-color="#37FA8F"/>
<stop offset="0.79" stop-color="#7A53C1"/>
<stop offset="1" stop-color="#8D25CF"/>
</linearGradient>
<linearGradient id="paint2_linear_1093_7514" x1="17.2638" y1="36.5705" x2="12.9626" y2="42.0183" gradientUnits="userSpaceOnUse">
<stop stop-color="#37FA8F"/>
<stop offset="0.79" stop-color="#7A53C1"/>
<stop offset="1" stop-color="#8D25CF"/>
</linearGradient>
<linearGradient id="paint3_linear_1093_7514" x1="18.0969" y1="37.227" x2="13.7958" y2="42.6747" gradientUnits="userSpaceOnUse">
<stop stop-color="#37FA8F"/>
<stop offset="0.79" stop-color="#7A53C1"/>
<stop offset="1" stop-color="#8D25CF"/>
</linearGradient>
<linearGradient id="paint4_linear_1093_7514" x1="18.0637" y1="37.2014" x2="13.7625" y2="42.6491" gradientUnits="userSpaceOnUse">
<stop stop-color="#37FA8F"/>
<stop offset="0.79" stop-color="#7A53C1"/>
<stop offset="1" stop-color="#8D25CF"/>
</linearGradient>
<linearGradient id="paint5_linear_1093_7514" x1="21.1191" y1="39.6137" x2="16.818" y2="45.0614" gradientUnits="userSpaceOnUse">
<stop stop-color="#37FA8F"/>
<stop offset="0.79" stop-color="#7A53C1"/>
<stop offset="1" stop-color="#8D25CF"/>
</linearGradient>
<linearGradient id="paint6_linear_1093_7514" x1="20.4412" y1="39.0788" x2="16.1401" y2="44.5265" gradientUnits="userSpaceOnUse">
<stop stop-color="#37FA8F"/>
<stop offset="0.79" stop-color="#7A53C1"/>
<stop offset="1" stop-color="#8D25CF"/>
</linearGradient>
<linearGradient id="paint7_linear_1093_7514" x1="19.7035" y1="38.4971" x2="15.4024" y2="43.9449" gradientUnits="userSpaceOnUse">
<stop stop-color="#37FA8F"/>
<stop offset="0.79" stop-color="#7A53C1"/>
<stop offset="1" stop-color="#8D25CF"/>
</linearGradient>
<linearGradient id="paint8_linear_1093_7514" x1="19.51" y1="38.3425" x2="15.2088" y2="43.7903" gradientUnits="userSpaceOnUse">
<stop stop-color="#37FA8F"/>
<stop offset="0.79" stop-color="#7A53C1"/>
<stop offset="1" stop-color="#8D25CF"/>
</linearGradient>
<linearGradient id="paint9_linear_1093_7514" x1="18.8721" y1="37.8391" x2="14.5709" y2="43.2869" gradientUnits="userSpaceOnUse">
<stop stop-color="#37FA8F"/>
<stop offset="0.79" stop-color="#7A53C1"/>
<stop offset="1" stop-color="#8D25CF"/>
</linearGradient>
</defs>
</svg>
