<svg width="20" height="20" viewBox="0 0 20 20" fill="none" xmlns="http://www.w3.org/2000/svg">
<g clip-path="url(#clip0_9071_41648)">
<path d="M1.26963 0.0546875C0.691503 0.199219 0.211034 0.675781 0.0547844 1.26562C0.0118156 1.42969 9.68492e-05 2.76562 9.68492e-05 9.16016C9.68492e-05 17.5859 -0.0116219 17.0938 0.222753 17.5C0.367284 17.7422 0.656347 18.0234 0.882909 18.1367C0.988378 18.1875 2.2501 18.625 3.6915 19.1055L6.30869 19.9805H6.66025C7.08994 19.9805 7.33213 19.9023 7.65635 19.6641C7.91807 19.4727 8.129 19.1836 8.24228 18.8555C8.30478 18.6758 8.32041 18.5352 8.32041 18.0664V17.5H9.69932C11.2696 17.5 11.4259 17.4805 11.9532 17.2227C12.586 16.9141 13.0978 16.2695 13.2579 15.5859C13.3478 15.207 13.3478 11.5508 13.2618 11.3359C13.0001 10.7109 12.0938 10.6719 11.7657 11.2695C11.7071 11.3711 11.6954 11.6172 11.6798 13.3008L11.6603 15.2148L11.5626 15.3906C11.5079 15.4844 11.3868 15.6172 11.297 15.6836L11.1251 15.8008L9.72275 15.8125L8.32041 15.8242L8.3126 9.36719L8.30088 2.91016L8.17588 2.64844C7.97275 2.21875 7.69932 1.96484 7.23057 1.76953L7.01182 1.67969L9.07041 1.69141L11.1251 1.69922L11.297 1.81641C11.3868 1.88281 11.5079 2.01562 11.5626 2.10938L11.6603 2.28516L11.6798 3.79688L11.6993 5.30469L11.8165 5.47266C11.9923 5.72266 12.2228 5.82812 12.5431 5.8125C12.8399 5.79688 13.0392 5.6875 13.2032 5.44141L13.3009 5.29688L13.3126 3.74609C13.3243 1.99609 13.3126 1.89062 13.0548 1.36719C12.8438 0.9375 12.3985 0.496094 11.9532 0.277344C11.3595 -0.0117188 11.6368 0 6.26963 0.00390625C2.58603 0.0078125 1.41807 0.0195312 1.26963 0.0546875Z" fill="#3D4652"/>
<path d="M15.4884 4.25391C15.2892 4.34375 15.0939 4.5625 15.0431 4.75391C15.0158 4.84375 15.0002 5.41406 15.0002 6.19922V7.5H13.2502H11.5002L11.2931 7.60156C10.9416 7.77734 10.7697 8.14844 10.8634 8.53125C10.9259 8.79297 11.1955 9.07031 11.4533 9.13281C11.5783 9.16406 12.1603 9.17969 13.3166 9.17969H15.0002V10.4727C15.0002 11.3867 15.0158 11.8164 15.047 11.9297C15.1447 12.2461 15.508 12.5 15.8634 12.5C16.1759 12.4961 16.2814 12.4062 18.0783 10.6133C19.8791 8.81641 20.0002 8.67188 20.0002 8.36719C20.0002 7.99609 20.0236 8.02344 18.1291 6.12109C16.9533 4.94531 16.2931 4.30859 16.1877 4.25781C15.9884 4.16016 15.6955 4.16016 15.4884 4.25391Z" fill="#3D4652"/>
</g>
<defs>
<clipPath id="clip0_9071_41648">
<rect width="20" height="20" fill="white"/>
</clipPath>
</defs>
</svg>
