<svg width="20" height="20" viewBox="0 0 20 20" fill="none" xmlns="http://www.w3.org/2000/svg">
<g clip-path="url(#clip0_9968_43116)">
<path d="M1.26953 0.0548096C0.691406 0.199341 0.210938 0.675903 0.0546876 1.26575C0.0117188 1.42981 5.123e-08 2.76575 5.123e-08 9.16028C5.123e-08 17.5861 -0.0117187 17.0939 0.222656 17.5001C0.367188 17.7423 0.65625 18.0236 0.882813 18.1368C0.988281 18.1876 2.25 18.6251 3.69141 19.1056L6.30859 19.9806H6.66016C7.08984 19.9806 7.33203 19.9025 7.65625 19.6642C7.91797 19.4728 8.12891 19.1837 8.24219 18.8556C8.30469 18.6759 8.32031 18.5353 8.32031 18.0665V17.5001H9.69922C11.2695 17.5001 11.4258 17.4806 11.9531 17.2228C12.5859 16.9142 13.0977 16.2697 13.2578 15.5861C13.3477 15.2072 13.3477 11.5509 13.2617 11.3361C13 10.7111 12.0938 10.672 11.7656 11.2697C11.707 11.3712 11.6953 11.6173 11.6797 13.3009L11.6602 15.215L11.5625 15.3907C11.5078 15.4845 11.3867 15.6173 11.2969 15.6837L11.125 15.8009L9.72266 15.8126L8.32031 15.8243L8.3125 9.36731L8.30078 2.91028L8.17578 2.64856C7.97266 2.21887 7.69922 1.96497 7.23047 1.76965L7.01172 1.67981L9.07031 1.69153L11.125 1.69934L11.2969 1.81653C11.3867 1.88293 11.5078 2.01575 11.5625 2.1095L11.6602 2.28528L11.6797 3.797L11.6992 5.30481L11.8164 5.47278C11.9922 5.72278 12.2227 5.82825 12.543 5.81262C12.8398 5.797 13.0391 5.68762 13.2031 5.44153L13.3008 5.297L13.3125 3.74622C13.3242 1.99622 13.3125 1.89075 13.0547 1.36731C12.8438 0.937622 12.3984 0.496216 11.9531 0.277466C11.3594 -0.0115967 11.6367 0.00012207 6.26953 0.00402832C2.58594 0.00793457 1.41797 0.0196533 1.26953 0.0548096Z" fill="url(#paint0_linear_9968_43116)"/>
<path d="M15.4883 4.25403C15.2891 4.34387 15.0938 4.56262 15.043 4.75403C15.0156 4.84387 15 5.41418 15 6.19934V7.50012H13.25H11.5L11.293 7.60168C10.9414 7.77747 10.7695 8.14856 10.8633 8.53137C10.9258 8.79309 11.1953 9.07043 11.4531 9.13293C11.5781 9.16418 12.1602 9.17981 13.3164 9.17981H15V10.4728C15 11.3868 15.0156 11.8165 15.0469 11.9298C15.1445 12.2462 15.5078 12.5001 15.8633 12.5001C16.1758 12.4962 16.2813 12.4064 18.0781 10.6134C19.8789 8.81653 20 8.672 20 8.36731C20 7.99622 20.0234 8.02356 18.1289 6.12122C16.9531 4.94543 16.293 4.30872 16.1875 4.25793C15.9883 4.16028 15.6953 4.16028 15.4883 4.25403Z" fill="url(#paint1_linear_9968_43116)"/>
</g>
<defs>
<linearGradient id="paint0_linear_9968_43116" x1="0.619492" y1="11.4069" x2="12.1552" y2="11.2669" gradientUnits="userSpaceOnUse">
<stop stop-color="#222166"/>
<stop offset="1" stop-color="#812448"/>
</linearGradient>
<linearGradient id="paint1_linear_9968_43116" x1="11.264" y1="8.93127" x2="19.1932" y2="8.77226" gradientUnits="userSpaceOnUse">
<stop stop-color="#222166"/>
<stop offset="1" stop-color="#812448"/>
</linearGradient>
<clipPath id="clip0_9968_43116">
<rect width="20" height="20" fill="white"/>
</clipPath>
</defs>
</svg>
