<svg width="20" height="20" viewBox="0 0 20 20" fill="none" xmlns="http://www.w3.org/2000/svg">
<path d="M4.08234 1.13239C3.41437 1.26911 2.78156 1.74176 2.48077 2.34333C2.20734 2.88239 2.22687 2.33551 2.22687 10.0074C2.22687 17.6402 2.21124 17.1285 2.46906 17.6558C2.66437 18.0465 3.10968 18.4761 3.51984 18.6675C3.69952 18.7535 3.96124 18.8433 4.10187 18.8668C4.28156 18.8941 6.23468 18.9058 10.8245 18.898L17.2894 18.8863L17.43 18.7925C17.805 18.5347 17.8948 17.9957 17.6097 17.6715C17.3519 17.3785 17.9925 17.4058 10.7542 17.3824L4.26593 17.3629L4.09406 17.2457C3.59796 16.9019 3.64874 16.1715 4.18781 15.8941C4.32843 15.8238 4.51984 15.8199 10.6917 15.8199C15.1683 15.8199 17.098 15.8082 17.2073 15.7769C17.4183 15.7183 17.6019 15.5738 17.6956 15.3902C17.7737 15.2379 17.7737 15.1519 17.7737 8.97223C17.7737 2.12067 17.7855 2.49958 17.5472 2.05426C17.4105 1.80036 17.0667 1.45661 16.8128 1.31989C16.3675 1.08161 16.7191 1.09333 10.1956 1.09723C6.91827 1.10114 4.16827 1.11676 4.08234 1.13239ZM5.19562 8.45661V14.2965H4.69952C4.38312 14.2965 4.1214 14.3199 3.98468 14.355C3.86749 14.3863 3.76593 14.4136 3.75812 14.4136C3.75421 14.4136 3.75421 11.8746 3.75812 8.77302L3.76984 3.13239L3.88702 2.96442C3.95343 2.87458 4.08234 2.75739 4.17609 2.70661C4.32452 2.62848 4.40265 2.61676 4.77374 2.61676H5.19562V8.45661ZM10.5276 6.13239C10.6956 6.2027 12.6995 7.47614 12.9378 7.66364C13.3909 8.01911 13.4105 8.79645 12.9769 9.18708C12.7816 9.36286 10.6019 10.7574 10.4339 10.816C9.96906 10.9722 9.42609 10.7222 9.19171 10.2418L9.08234 10.0191L9.07062 8.58552C9.05499 6.99177 9.07452 6.79645 9.26593 6.51911C9.56281 6.08161 10.0589 5.92927 10.5276 6.13239Z" fill="#3D4652"/>
</svg>
