<svg width="16" height="16" viewBox="0 0 16 16" fill="none" xmlns="http://www.w3.org/2000/svg">
<path d="M15.3764 3.33575C14.7988 2.64919 13.7325 2.36914 11.6961 2.36914H4.30379C2.22075 2.36914 1.13636 2.66726 0.560981 3.3982C0 4.11087 0 5.16093 0 6.61425V9.38426C0 12.1998 0.6656 13.6293 4.30379 13.6293H11.6961C13.4621 13.6293 14.4407 13.3822 15.0738 12.7763C15.723 12.155 16 11.1405 16 9.38426V6.61425C16 5.08161 15.9566 4.02535 15.3764 3.33575ZM10.2721 8.38168L6.91525 10.1361C6.84021 10.1753 6.75814 10.1947 6.67618 10.1947C6.58338 10.1947 6.49079 10.1698 6.40877 10.1201C6.25435 10.0265 6.16005 9.85915 6.16005 9.67861V6.18111C6.16005 6.00088 6.25409 5.83366 6.40821 5.74003C6.56237 5.6464 6.75412 5.64001 6.91406 5.7231L10.2709 7.46617C10.4417 7.55484 10.5489 7.73115 10.5492 7.92351C10.5494 8.11603 10.4426 8.2926 10.2721 8.38168Z" fill="#DDDCDC"/>
</svg>
