<svg width="20" height="20" viewBox="0 0 20 20" fill="none" xmlns="http://www.w3.org/2000/svg">
<g clip-path="url(#clip0_10375_47576)">
<path d="M18.8627 8.5224C18.5548 8.29545 18.167 8.01197 18.1201 7.82676C18.1398 7.46825 18.2422 7.11919 18.4192 6.80681C18.6905 6.18421 18.9705 5.53904 18.6592 5.00253C18.3479 4.46601 17.6401 4.37907 16.9592 4.30689C16.6064 4.30453 16.2587 4.22154 15.9428 4.06429C15.7853 3.74727 15.7026 3.39833 15.701 3.04434C15.6245 2.3635 15.5454 1.65918 15.0054 1.3444C14.4654 1.02961 13.8193 1.30527 13.1968 1.58002C12.8841 1.75696 12.5347 1.85931 12.176 1.87916C11.9881 1.82874 11.7056 1.44438 11.4803 1.13657C11.0856 0.604415 10.6412 0.000976562 9.99951 0.000976562C9.3578 0.000976562 8.91349 0.604415 8.5213 1.13657C8.2935 1.44523 8.01088 1.8322 7.82567 1.88001C7.46723 1.85841 7.11825 1.75619 6.80485 1.58088C6.17879 1.30523 5.53362 1.03047 4.99886 1.34004C4.4641 1.6496 4.37455 2.35913 4.29801 3.0443C4.29552 3.39707 4.21286 3.74466 4.05626 4.06079C3.74095 4.21579 3.39462 4.29723 3.04328 4.29902C2.36158 4.37553 1.65637 4.45468 1.34248 4.99466C1.0286 5.53464 1.30429 6.17989 1.57905 6.80334C1.75664 7.11674 1.85902 7.46706 1.87818 7.82676C1.82776 8.01458 1.4434 8.29806 1.13559 8.5224C0.603438 8.91369 0 9.3589 0 10.0006C0 10.6423 0.603438 11.0875 1.13649 11.4788C1.4443 11.7058 1.83212 11.9892 1.87908 12.1745C1.85935 12.533 1.75696 12.882 1.57995 13.1944C1.30865 13.817 1.02868 14.4622 1.33996 14.9987C1.65123 15.5352 2.35906 15.6221 3.0399 15.6943C3.39279 15.6967 3.74046 15.7797 4.05639 15.9369C4.21388 16.254 4.29658 16.6029 4.29813 16.9569C4.37463 17.6377 4.45379 18.342 4.99376 18.6568C5.53374 18.9716 6.1746 18.6881 6.79805 18.4168C7.11389 18.2419 7.46527 18.1408 7.82583 18.1212C8.01365 18.1716 8.29623 18.556 8.52146 18.8638C8.91361 19.396 9.35796 19.9994 9.99967 19.9994C10.6414 19.9994 11.0857 19.396 11.4779 18.8638C11.7057 18.5551 11.9883 18.1682 12.1735 18.1204C12.5322 18.1406 12.8814 18.243 13.1943 18.4195C13.8169 18.6908 14.4621 18.969 14.9977 18.6603C15.5333 18.3517 15.622 17.6412 15.6986 16.9595C15.7011 16.6068 15.7837 16.2592 15.9403 15.943C16.2562 15.7868 16.6035 15.7044 16.9559 15.7022C17.6376 15.6257 18.3428 15.5465 18.6567 15.0066C18.9706 14.4666 18.6872 13.8257 18.4167 13.2023C18.2397 12.8873 18.1385 12.5354 18.1211 12.1745C18.1715 11.9867 18.5559 11.7032 18.8637 11.4789C19.3958 11.0867 20.0002 10.6415 20.0002 10.0007C20.0002 9.3598 19.3957 8.91369 18.8627 8.5224Z" fill="#FFC107"/>
<path d="M7.39102 12.1738C7.25419 12.1738 7.12531 12.1094 7.04322 11.9999L5.21721 9.56524V11.739C5.21721 11.9792 5.02255 12.1738 4.78243 12.1738C4.54232 12.1738 4.34766 11.9792 4.34766 11.739V8.26095C4.34766 8.02084 4.54232 7.82617 4.78243 7.82617C4.91926 7.82617 5.04814 7.89061 5.13023 8.00009L6.95624 10.4348V8.26095C6.95624 8.02084 7.1509 7.82617 7.39102 7.82617C7.63113 7.82617 7.82579 8.02084 7.82579 8.26095V11.739C7.82567 11.9261 7.70588 12.0921 7.52841 12.1512C7.48415 12.1662 7.43777 12.1738 7.39102 12.1738Z" fill="#FAFAFA"/>
<path d="M10.8692 12.1738H9.13009C8.88998 12.1738 8.69531 11.9792 8.69531 11.739V8.26095C8.69531 8.02084 8.88998 7.82617 9.13009 7.82617H10.8692C11.1093 7.82617 11.3039 8.02084 11.3039 8.26095C11.3039 8.50106 11.1093 8.69573 10.8692 8.69573H9.56487V11.3043H10.8692C11.1093 11.3043 11.3039 11.499 11.3039 11.7391C11.3039 11.9792 11.1093 12.1738 10.8692 12.1738Z" fill="#FAFAFA"/>
<path d="M10.8692 10.435H9.13009C8.88998 10.435 8.69531 10.2403 8.69531 10.0002C8.69531 9.7601 8.88998 9.56543 9.13009 9.56543H10.8692C11.1093 9.56543 11.3039 9.7601 11.3039 10.0002C11.3039 10.2403 11.1093 10.435 10.8692 10.435Z" fill="#FAFAFA"/>
<path d="M15.2171 12.1742C15.0298 12.1745 14.8633 12.0546 14.8041 11.8768L14.3476 10.5056L13.8911 11.8768C13.8356 12.0644 13.6567 12.1879 13.4615 12.1734C13.2684 12.166 13.1034 12.0321 13.0564 11.8447L12.1868 8.36657C12.1287 8.13343 12.2706 7.89731 12.5038 7.83919C12.7369 7.78107 12.9731 7.92299 13.0312 8.15614L13.5381 10.1856L13.9355 8.99349C14.0388 8.76561 14.3073 8.66465 14.5351 8.76797C14.6352 8.81334 14.7153 8.89347 14.7607 8.99349L15.158 10.1856L15.6649 8.15614C15.7231 7.92299 15.9591 7.78107 16.1923 7.83919C16.4255 7.89731 16.5674 8.13339 16.5093 8.36657L15.6398 11.8447C15.5928 12.0321 15.4276 12.166 15.2346 12.1734L15.2171 12.1742Z" fill="#FAFAFA"/>
</g>
<defs>
<clipPath id="clip0_10375_47576">
<rect width="20" height="20" fill="white"/>
</clipPath>
</defs>
</svg>
