<svg width="16" height="16" viewBox="0 0 16 16" fill="none" xmlns="http://www.w3.org/2000/svg">
<g id="SVGRepo_iconCarrier">
<path id="secondary" d="M8 15C11.866 15 15 11.866 15 8C15 4.13401 11.866 1 8 1C4.13401 1 1 4.13401 1 8C1 11.866 4.13401 15 8 15Z" fill="#AAA8FF"/>
<path id="primary" d="M6.44458 10.3327H8.38902C8.69844 10.3327 8.99519 10.2098 9.21398 9.99097C9.43278 9.77218 9.55569 9.47543 9.55569 9.16602C9.55569 8.8566 9.43278 8.55985 9.21398 8.34106C8.99519 8.12226 8.69844 7.99935 8.38902 7.99935H7.61125C7.30183 7.99935 7.00508 7.87643 6.78629 7.65764C6.5675 7.43885 6.44458 7.1421 6.44458 6.83268C6.44458 6.52326 6.5675 6.22652 6.78629 6.00772C7.00508 5.78893 7.30183 5.66602 7.61125 5.66602H9.55569" stroke="black" stroke-width="1.5" stroke-linecap="round" stroke-linejoin="round"/>
<path id="primary_2" d="M8 5.66667V4.88889M8 11.1111V10.3333M8 1C6.61553 1 5.26216 1.41054 4.11101 2.17971C2.95987 2.94888 2.06266 4.04213 1.53285 5.32122C1.00303 6.6003 0.86441 8.00776 1.13451 9.36563C1.4046 10.7235 2.07129 11.9708 3.05026 12.9497C4.02922 13.9287 5.2765 14.5954 6.63437 14.8655C7.99224 15.1356 9.3997 14.997 10.6788 14.4672C11.9579 13.9373 13.0511 13.0401 13.8203 11.889C14.5895 10.7378 15 9.38447 15 8C15 6.14348 14.2625 4.36301 12.9498 3.05025C11.637 1.7375 9.85652 1 8 1Z" stroke="black" stroke-width="1.5" stroke-linecap="round" stroke-linejoin="round"/>
</g>
</svg>
