<svg xmlns="http://www.w3.org/2000/svg" width="12" height="12" viewBox="0 0 12 12" fill="none">
<path fill-rule="evenodd" clip-rule="evenodd" d="M2.5 9.5C2.5 9.22385 2.72386 9 3 9H9C9.27615 9 9.5 9.22385 9.5 9.5C9.5 9.77615 9.27615 10 9 10H3C2.72386 10 2.5 9.77615 2.5 9.5Z" fill="#292D32"/>
<path fill-rule="evenodd" clip-rule="evenodd" d="M4.93897 2.3534C5.52473 1.76762 6.47448 1.76762 7.06028 2.3534L8.34353 3.63664C8.49573 3.78882 8.72818 3.82655 8.92068 3.7303L9.27603 3.55264C10.0435 3.16891 10.8917 3.90462 10.6204 4.71862L9.70188 7.4742C9.49773 8.0867 8.92453 8.49985 8.27888 8.49985H3.72039C3.07474 8.49985 2.50153 8.0867 2.29736 7.4742L1.37884 4.71862C1.10751 3.90462 1.95579 3.16891 2.72324 3.55264L3.07857 3.7303C3.27106 3.82655 3.50355 3.78882 3.65573 3.63664L4.93897 2.3534Z" fill="#292D32"/>
</svg>