<svg width="20" height="20" viewBox="0 0 20 20" fill="none" xmlns="http://www.w3.org/2000/svg">
<g clip-path="url(#clip0_9968_43059)">
<path d="M7.89076 0.0273724C7.80092 0.0586224 7.65639 0.203154 7.5978 0.312529C7.57045 0.367216 7.45717 0.921902 7.3478 1.543C7.10561 2.91409 7.12123 2.85159 7.05092 2.85159C6.98451 2.85159 2.41811 4.68753 2.17201 4.81253C2.08998 4.8555 1.93764 4.97268 1.83998 5.07425C1.4767 5.43362 1.51186 5.27737 0.718889 9.77347C0.0665452 13.4492 -0.00376734 13.8828 0.00795141 14.1992C0.0274827 14.625 0.136858 14.8985 0.414201 15.1953C0.785295 15.5899 0.593889 15.543 5.27748 16.375C9.85951 17.1836 9.77748 17.1719 10.2462 16.9922C10.5548 16.875 10.9025 16.5508 11.0548 16.2383C11.1564 16.0235 11.2501 15.5469 11.8986 11.875C12.7111 7.26956 12.6915 7.41409 12.4689 6.94143C12.4064 6.80862 12.2931 6.63284 12.2228 6.55472C12.1017 6.42581 8.87514 3.49222 8.48451 3.16018L8.32045 3.01956L8.5353 1.80081C8.6642 1.07034 8.74233 0.539091 8.7267 0.476591C8.64858 0.156279 8.45717 2.86102e-05 8.14467 0.00393486C8.0392 0.00393486 7.92201 0.0156536 7.89076 0.0273724ZM7.27358 5.9805C7.39076 6.09378 7.39467 6.1055 7.36342 6.33987C7.31264 6.77347 7.30873 6.75784 7.48061 6.83206C7.90639 7.00003 8.43764 7.47268 8.43764 7.6719C8.43764 7.83206 8.35561 7.96097 8.21498 8.02737C8.04311 8.1094 7.9728 8.08206 7.68373 7.82425C7.4767 7.63675 7.19936 7.46878 7.17201 7.50784C7.15248 7.53128 6.79311 9.62893 6.79701 9.69534C6.79701 9.7344 6.90248 9.82425 7.06264 9.918C7.43764 10.1367 7.63295 10.3008 7.83217 10.5664C8.39467 11.3164 8.28139 12.3438 7.55873 13.0664C7.40248 13.2266 7.18373 13.3946 7.04701 13.4688C6.80092 13.5938 6.39858 13.711 6.18764 13.711C6.07045 13.711 6.07045 13.711 6.01576 14.0274C5.95326 14.4258 5.83608 14.586 5.60561 14.586C5.48842 14.586 5.43373 14.5586 5.3478 14.461C5.21889 14.3203 5.21498 14.2696 5.2892 13.8867C5.32045 13.7344 5.33998 13.6133 5.33608 13.6094C5.33608 13.6094 5.2267 13.5782 5.0978 13.5391C4.7267 13.4258 4.35951 13.2149 4.07826 12.9492C3.82436 12.711 3.81655 12.6992 3.83998 12.5547C3.89467 12.2149 4.21108 12.125 4.50014 12.3711C4.76576 12.5938 5.04701 12.7617 5.26186 12.8242L5.46498 12.8867L5.48451 12.7813C5.55092 12.461 5.93764 10.2227 5.93764 10.1602C5.93764 10.1133 5.8478 10.0196 5.69545 9.91018C4.78139 9.25393 4.55092 8.53518 4.9728 7.66409C5.21498 7.16018 5.71108 6.7969 6.26967 6.70706L6.56264 6.66409L6.6017 6.44534C6.62514 6.32815 6.65248 6.18753 6.6642 6.14065C6.7228 5.8594 7.06264 5.76956 7.27358 5.9805Z" fill="url(#paint0_linear_9968_43059)"/>
<path d="M6.25 7.45732C5.81641 7.59013 5.50781 8.01201 5.50781 8.46904C5.50781 8.70732 5.60156 8.87919 5.85547 9.10576C6.04297 9.27373 6.07812 9.28935 6.10156 9.23076C6.13672 9.14482 6.40625 7.60966 6.40625 7.50029C6.40625 7.41435 6.39844 7.41435 6.25 7.45732Z" fill="url(#paint1_linear_9968_43059)"/>
<path d="M6.62157 10.5942C6.58251 10.7271 6.21142 12.9419 6.22704 12.9575C6.23485 12.9692 6.34032 12.9497 6.45751 12.9146C7.19579 12.6997 7.6411 11.8521 7.36376 11.188C7.29345 11.0161 7.05907 10.7661 6.85595 10.6489C6.66064 10.5317 6.64501 10.5278 6.62157 10.5942Z" fill="url(#paint2_linear_9968_43059)"/>
<path d="M11.1798 0.0788193C11.0197 0.176476 10.8986 0.375694 10.8986 0.543663C10.8986 0.617882 10.9689 1.12569 11.0587 1.67648L11.2189 2.67648L11.129 2.73507C10.9611 2.84444 10.4298 3.33663 10.4337 3.37569C10.4337 3.39913 10.9611 3.89132 11.6056 4.47335C12.2501 5.05147 12.8947 5.64913 13.0314 5.79757C13.5158 6.31319 13.7814 7.04757 13.7384 7.73507C13.715 8.08663 12.3439 15.9265 12.2423 16.2898C12.0431 16.9851 11.508 17.6257 10.8595 17.9421C10.2658 18.2351 9.74623 18.3054 9.06655 18.1843C8.88295 18.153 8.7267 18.1335 8.71889 18.1452C8.67592 18.1882 8.84389 18.9226 8.94936 19.1374C9.08608 19.4343 9.36342 19.7077 9.67201 19.8601C10.0509 20.0476 10.2619 20.0398 11.6212 19.8093C15.7931 19.0944 18.8595 18.5437 19.047 18.4733C19.3517 18.3562 19.7189 18.0046 19.8673 17.6882C20.09 17.196 20.1251 17.4538 19.008 11.1257C17.9415 5.09444 17.9845 5.29366 17.6994 4.93429C17.6447 4.86007 17.5119 4.74288 17.4025 4.66866C17.2267 4.54757 12.5665 2.53976 12.465 2.53976C12.4415 2.53976 12.422 2.53194 12.422 2.52413C12.422 2.51632 12.3439 2.02023 12.2501 1.42648C12.1408 0.758507 12.0509 0.309288 12.0119 0.250694C11.8517 0.00460052 11.4415 -0.081337 11.1798 0.0788193Z" fill="url(#paint3_linear_9968_43059)"/>
</g>
<defs>
<linearGradient id="paint0_linear_9968_43059" x1="0.592412" y1="9.75837" x2="11.4945" y2="9.61212" gradientUnits="userSpaceOnUse">
<stop stop-color="#222166"/>
<stop offset="1" stop-color="#812448"/>
</linearGradient>
<linearGradient id="paint1_linear_9968_43059" x1="5.54959" y1="8.47523" x2="6.32739" y2="8.46829" gradientUnits="userSpaceOnUse">
<stop stop-color="#222166"/>
<stop offset="1" stop-color="#812448"/>
</linearGradient>
<linearGradient id="paint2_linear_9968_43059" x1="6.2833" y1="11.9267" x2="7.33979" y2="11.9169" gradientUnits="userSpaceOnUse">
<stop stop-color="#222166"/>
<stop offset="1" stop-color="#812448"/>
</linearGradient>
<linearGradient id="paint3_linear_9968_43059" x1="9.23647" y1="11.4113" x2="19.0015" y2="11.311" gradientUnits="userSpaceOnUse">
<stop stop-color="#222166"/>
<stop offset="1" stop-color="#812448"/>
</linearGradient>
<clipPath id="clip0_9968_43059">
<rect width="20" height="20" fill="white"/>
</clipPath>
</defs>
</svg>
