<svg width="20" height="20" viewBox="0 0 20 20" fill="none" xmlns="http://www.w3.org/2000/svg">
<path d="M9.12178 0.0568686C8.05538 0.220931 7.10225 0.728744 6.35616 1.52171C5.53585 2.39281 5.11007 3.40062 5.05147 4.60765C4.96944 6.29515 5.79757 7.90843 7.22725 8.84202C7.93038 9.30296 8.60616 9.53734 9.42647 9.60374C10.946 9.72093 12.2429 9.24437 13.2898 8.17796C14.1218 7.33421 14.5437 6.41234 14.6452 5.23656C14.7858 3.66624 14.1921 2.20531 13.0085 1.18187C12.2429 0.525619 11.5398 0.197494 10.5671 0.0568686C10.0983 -0.0095377 9.55147 -0.0134439 9.12178 0.0568686Z" fill="#3D4652"/>
<path d="M5.57461 9.69054C3.80898 9.87804 2.58242 11.1437 2.01211 13.378C1.6332 14.8663 1.53555 16.6554 1.77773 17.6359C1.97695 18.421 2.6293 19.2179 3.3832 19.6007C3.72305 19.7726 4.21133 19.9132 4.62148 19.9601C4.86367 19.9913 6.70742 19.9991 10.2348 19.9913L15.4887 19.9796L15.8207 19.8859C17.0551 19.5499 17.8988 18.7218 18.2074 17.5577C18.3676 16.9523 18.348 15.5069 18.1605 14.3663C17.7504 11.8273 16.7113 10.3038 15.0668 9.82726C14.6918 9.71789 14.0199 9.63585 13.8207 9.67492C13.6293 9.71007 13.3637 9.8507 12.7621 10.2374C12.1215 10.6515 12.0316 10.6984 11.5512 10.878C10.9965 11.0851 10.5395 11.1749 10.0043 11.1749C9.45742 11.1749 9.03555 11.0968 8.48086 10.9015C7.95742 10.714 7.93398 10.7023 7.11367 10.1827C6.68398 9.90929 6.36367 9.73351 6.23867 9.69835C6.01992 9.64367 6.01992 9.64367 5.57461 9.69054Z" fill="#3D4652"/>
</svg>
