<svg width="20" height="20" viewBox="0 0 20 20" fill="none" xmlns="http://www.w3.org/2000/svg">
<g clip-path="url(#clip0_9071_41500)">
<path d="M14.7317 9.37862C14.9605 9.14983 15.3315 9.14983 15.5603 9.37862C17.5723 11.3907 17.5723 14.6644 15.5603 16.6764C15.4459 16.7908 15.2959 16.8481 15.146 16.8481C14.9961 16.8481 14.8461 16.7908 14.7317 16.6764C14.5029 16.4476 14.5029 16.0766 14.7317 15.8478C16.2868 14.2927 16.2868 11.7623 14.7317 10.2073C14.5029 9.97847 14.5029 9.60745 14.7317 9.37862Z" fill="#DDDCDC"/>
<path d="M12.5329 11.1853C12.7617 10.9565 13.1327 10.9565 13.3615 11.1853C14.3769 12.2007 14.3769 13.8528 13.3615 14.8682C13.2471 14.9826 13.0971 15.0398 12.9472 15.0398C12.7973 15.0398 12.6473 14.9826 12.5329 14.8682C12.3041 14.6394 12.3041 14.2684 12.5329 14.0396C13.0914 13.4811 13.0914 12.5723 12.5329 12.0139C12.304 11.7851 12.304 11.4141 12.5329 11.1853Z" fill="#DDDCDC"/>
<path d="M16.9353 8.44749C16.7064 8.2187 16.7064 7.84769 16.9353 7.61886C17.164 7.39007 17.5351 7.39007 17.7639 7.61886C20.7454 10.6004 20.7454 15.4517 17.7639 18.4332C17.6495 18.5476 17.4995 18.6048 17.3496 18.6048C17.1997 18.6048 17.0497 18.5476 16.9353 18.4332C16.7065 18.2044 16.7065 17.8334 16.9353 17.6045C19.4598 15.08 19.4598 10.9721 16.9353 8.44749Z" fill="#DDDCDC"/>
<path d="M0.585999 0H8.98373C9.15385 0 9.31557 0.0739453 9.42686 0.202617C9.53819 0.331289 9.58803 0.501953 9.56358 0.670313L9.41205 1.71195C9.31682 2.36668 9.44936 3.04117 9.78518 3.61121L11.993 7.35879C12.1574 7.63789 12.1722 7.97898 12.0324 8.27117C11.8926 8.5634 11.6178 8.76606 11.2972 8.81324L10.1389 8.98352C10.0162 9.0016 9.90901 9.06719 9.83713 9.16824C9.76526 9.2693 9.73846 9.39203 9.76162 9.51383L9.98924 10.7087C10.0764 11.1661 9.84369 11.6254 9.42342 11.8257C9.40893 11.8327 9.39416 11.839 9.37916 11.8446L7.61955 12.5122L8.7969 13.2528C8.81401 13.2636 8.83053 13.2752 8.84647 13.2877C9.20209 13.5666 9.36143 14.0091 9.25237 14.415C9.18053 14.6824 9.03154 14.8702 8.91186 15.0211C8.75358 15.2206 8.67412 15.3208 8.70354 15.6148C8.75428 16.1223 8.61479 16.5905 8.31076 16.9332C8.09131 17.1806 7.68248 17.4784 6.98104 17.4923C6.32908 17.5052 5.05135 17.4859 4.011 17.4678C3.7144 17.4622 3.44178 17.6346 3.3192 17.906L2.5292 19.6553C2.43444 19.8652 2.22549 20 1.99522 20H0.585999C0.262404 20 6.10352e-05 19.7377 6.10352e-05 19.4141V0.585938C6.10352e-05 0.262344 0.262404 0 0.585999 0Z" fill="#DDDCDC"/>
</g>
<defs>
<clipPath id="clip0_9071_41500">
<rect width="20" height="20" fill="white" transform="matrix(-1 0 0 1 20 0)"/>
</clipPath>
</defs>
</svg>
