<svg width="20" height="20" viewBox="0 0 20 20" fill="none" xmlns="http://www.w3.org/2000/svg">
<path d="M9.25813 0.0226669C9.18391 0.0304794 8.95344 0.0578232 8.75031 0.0812607C5.66047 0.432823 2.805 2.37032 1.23469 5.17892C0.664376 6.20235 0.250314 7.47189 0.0745323 8.74923C-0.00359271 9.30782 0.00421979 10.8078 0.0901573 11.3664C0.44172 13.6555 1.38313 15.5266 2.97297 17.0969C3.21906 17.3391 3.57844 17.6633 3.76984 17.8195C6.27375 19.8195 9.60578 20.4914 12.7152 19.6203C16.3441 18.6047 19.1448 15.5461 19.8206 11.8586C20.43 8.55782 19.4183 5.28829 17.0667 2.93282C15.5081 1.37814 13.6331 0.436729 11.4066 0.0968857C11.0159 0.0382919 9.56281 -0.0124893 9.25813 0.0226669ZM10.2894 4.7336C10.5042 4.7961 10.8284 5.12032 10.8909 5.33517C10.9573 5.56954 10.9573 14.4289 10.8909 14.6633C10.7894 14.9992 10.3597 15.3117 10.0003 15.3117C9.64094 15.3117 9.21125 14.9992 9.10969 14.6633C9.04328 14.4289 9.04328 5.56954 9.10969 5.33517C9.16828 5.13595 9.49641 4.80001 9.68781 4.73751C9.87531 4.67892 10.098 4.67892 10.2894 4.7336ZM7.16438 6.6086C7.37922 6.6711 7.70344 6.99532 7.76594 7.21017C7.83235 7.44064 7.83235 12.5578 7.76594 12.7883C7.66438 13.1242 7.23469 13.4367 6.87531 13.4367C6.51594 13.4367 6.08625 13.1242 5.98469 12.7883C5.91828 12.5578 5.91828 7.44064 5.98469 7.21017C6.04328 7.01095 6.37141 6.67501 6.56281 6.61251C6.75031 6.55392 6.97297 6.55392 7.16438 6.6086ZM13.4144 6.6086C13.6292 6.6711 13.9534 6.99532 14.0159 7.21017C14.0823 7.44064 14.0823 12.5578 14.0159 12.7883C13.9144 13.1242 13.4847 13.4367 13.1253 13.4367C12.7659 13.4367 12.3363 13.1242 12.2347 12.7883C12.1683 12.5578 12.1683 7.44064 12.2347 7.21017C12.2933 7.01095 12.6214 6.67501 12.8128 6.61251C13.0003 6.55392 13.223 6.55392 13.4144 6.6086ZM4.03938 8.1711C4.25422 8.2336 4.57844 8.55782 4.64094 8.77267C4.70735 8.99532 4.70735 11.0031 4.64094 11.2258C4.53938 11.5617 4.10969 11.8742 3.75031 11.8742C3.39094 11.8742 2.96125 11.5617 2.85969 11.2258C2.79328 11.0031 2.79328 8.99532 2.85969 8.77267C2.91828 8.57345 3.24641 8.23751 3.43781 8.17501C3.62531 8.11642 3.84797 8.11642 4.03938 8.1711ZM16.5394 8.1711C16.7542 8.2336 17.0784 8.55782 17.1409 8.77267C17.1722 8.88204 17.1878 9.27657 17.1878 9.99923C17.1878 10.7219 17.1722 11.1164 17.1409 11.2258C17.0394 11.5617 16.6097 11.8742 16.2503 11.8742C15.8909 11.8742 15.4613 11.5617 15.3597 11.2258C15.2933 11.0031 15.2933 8.99532 15.3597 8.77267C15.4183 8.57345 15.7464 8.23751 15.9378 8.17501C16.1253 8.11642 16.348 8.11642 16.5394 8.1711Z" fill="#3D4652"/>
</svg>
