<svg width="16" height="17" viewBox="0 0 16 17" fill="none" xmlns="http://www.w3.org/2000/svg">
<g clip-path="url(#clip0_12301_1101)">
<path d="M13 5.5C13 2.74 10.76 0.5 8 0.5C5.24 0.5 3 2.74 3 5.5C3 7.02 3.678 8.382 4.75 9.3C2.52 10.47 1 12.806 1 15.5C1 16.052 1.448 16.5 2 16.5C2.552 16.5 3 16.052 3 15.5C3 12.74 5.24 10.5 8 10.5C10.76 10.5 13 12.74 13 15.5C13 16.052 13.448 16.5 14 16.5C14.552 16.5 15 16.052 15 15.5C15 12.807 13.48 10.47 11.25 9.3C12.323 8.38 13 7.02 13 5.5ZM8 8.5C6.343 8.5 5 7.157 5 5.5C5 3.843 6.343 2.5 8 2.5C9.657 2.5 11 3.843 11 5.5C11 7.157 9.657 8.5 8 8.5Z" fill="#323130"/>
</g>
<defs>
<clipPath id="clip0_12301_1101">
<rect width="16" height="16" fill="white" transform="translate(0 0.5)"/>
</clipPath>
</defs>
</svg>
