<svg width="33" height="33" viewBox="0 0 33 33" fill="none" xmlns="http://www.w3.org/2000/svg">
<path d="M8.41406 12.5059V20.5059C8.41406 20.7711 8.30871 21.0254 8.12117 21.213C7.93363 21.4005 7.67928 21.5059 7.41406 21.5059H6.41406C6.14885 21.5059 5.89449 21.4005 5.70696 21.213C5.51942 21.0254 5.41406 20.7711 5.41406 20.5059V12.5059C5.41406 12.2406 5.51942 11.9863 5.70696 11.7988C5.89449 11.6112 6.14885 11.5059 6.41406 11.5059H7.41406C7.67928 11.5059 7.93363 11.6112 8.12117 11.7988C8.30871 11.9863 8.41406 12.2406 8.41406 12.5059ZM12.4141 3.50586H11.4141C11.1488 3.50586 10.8945 3.61122 10.707 3.79875C10.5194 3.98629 10.4141 4.24064 10.4141 4.50586V28.5059C10.4141 28.7711 10.5194 29.0254 10.707 29.213C10.8945 29.4005 11.1488 29.5059 11.4141 29.5059H12.4141C12.6793 29.5059 12.9336 29.4005 13.1212 29.213C13.3087 29.0254 13.4141 28.7711 13.4141 28.5059V4.50586C13.4141 4.24064 13.3087 3.98629 13.1212 3.79875C12.9336 3.61122 12.6793 3.50586 12.4141 3.50586ZM17.4141 7.50586H16.4141C16.1488 7.50586 15.8945 7.61122 15.707 7.79875C15.5194 7.98629 15.4141 8.24064 15.4141 8.50586V24.5059C15.4141 24.7711 15.5194 25.0254 15.707 25.213C15.8945 25.4005 16.1488 25.5059 16.4141 25.5059H17.4141C17.6793 25.5059 17.9336 25.4005 18.1212 25.213C18.3087 25.0254 18.4141 24.7711 18.4141 24.5059V8.50586C18.4141 8.24064 18.3087 7.98629 18.1212 7.79875C17.9336 7.61122 17.6793 7.50586 17.4141 7.50586ZM22.4141 11.5059H21.4141C21.1488 11.5059 20.8945 11.6112 20.707 11.7988C20.5194 11.9863 20.4141 12.2406 20.4141 12.5059V20.5059C20.4141 20.7711 20.5194 21.0254 20.707 21.213C20.8945 21.4005 21.1488 21.5059 21.4141 21.5059H22.4141C22.6793 21.5059 22.9336 21.4005 23.1212 21.213C23.3087 21.0254 23.4141 20.7711 23.4141 20.5059V12.5059C23.4141 12.2406 23.3087 11.9863 23.1212 11.7988C22.9336 11.6112 22.6793 11.5059 22.4141 11.5059ZM27.4141 9.50586H26.4141C26.1488 9.50586 25.8945 9.61122 25.707 9.79875C25.5194 9.98629 25.4141 10.2406 25.4141 10.5059V22.5059C25.4141 22.7711 25.5194 23.0254 25.707 23.213C25.8945 23.4005 26.1488 23.5059 26.4141 23.5059H27.4141C27.6793 23.5059 27.9336 23.4005 28.1212 23.213C28.3087 23.0254 28.4141 22.7711 28.4141 22.5059V10.5059C28.4141 10.2406 28.3087 9.98629 28.1212 9.79875C27.9336 9.61122 27.6793 9.50586 27.4141 9.50586Z" fill="black"/>
</svg>
