<svg width="17" height="17" viewBox="0 0 17 17" fill="none" xmlns="http://www.w3.org/2000/svg">
<path d="M8.5 17C13.1941 17 17 13.1941 17 8.5C17 3.80587 13.1941 0 8.5 0C3.80587 0 0 3.80587 0 8.5C0 13.1941 3.80587 17 8.5 17ZM11.5058 12.5673C11.2221 12.5673 10.9533 12.4557 10.7514 12.2559L8.5 10.0034L6.2475 12.2559C5.83313 12.6703 5.15844 12.6703 4.74406 12.2559C4.32969 11.8416 4.32969 11.169 4.74406 10.7536L6.9955 8.5L4.743 6.2475C4.47313 5.97762 4.369 5.58663 4.46675 5.22006C4.5645 4.8535 4.85244 4.56662 5.219 4.46887C5.58556 4.37006 5.97656 4.47525 6.24537 4.74513L8.5 6.99656L10.7525 4.74406C11.0224 4.47419 11.4134 4.369 11.7799 4.46781C12.1465 4.56556 12.4334 4.85244 12.5322 5.219C12.631 5.58556 12.5258 5.97656 12.2559 6.24537L10.0045 8.5L12.257 10.7525C12.4589 10.9544 12.5694 11.2232 12.5694 11.5069C12.5694 11.7874 12.4567 12.0573 12.257 12.257C12.0573 12.4567 11.7874 12.5673 11.5058 12.5673H11.5037H11.5058Z" fill="url(#paint0_linear)"/>
<defs>
<linearGradient id="paint0_linear" x1="3.71547e-07" y1="8.5" x2="17" y2="8.5" gradientUnits="userSpaceOnUse">
<stop stop-color="#5B6370"/>
<stop offset="1" stop-color="#323C4C"/>
</linearGradient>
</defs>
</svg>
