<svg width="16" height="16" viewBox="0 0 16 16" fill="none" xmlns="http://www.w3.org/2000/svg%22%3E
<path d="M8.2778 15.5377H2.5198C2.1218 15.5377 1.7998 15.2157 1.7998 14.8177C1.7998 14.4197 2.1218 14.0977 2.5198 14.0977H8.2778C8.6758 14.0977 8.9978 14.4197 8.9978 14.8177C8.9978 15.2157 8.6758 15.5377 8.2778 15.5377Z" fill="white"/>
<path d="M12.5968 15.5377H10.4378C10.0398 15.5377 9.71777 15.2157 9.71777 14.8177C9.71777 14.4197 10.0398 14.0977 10.4378 14.0977H12.5968C12.9948 14.0977 13.3168 14.4197 13.3168 14.8177C13.3168 15.2157 12.9948 15.5377 12.5968 15.5377V15.5377Z" fill="white"/>
<path d="M12.1897 5.72014L9.13969 2.67014C8.92969 2.46014 8.60969 2.40014 8.33969 2.52014L4.77969 4.04014C4.58969 4.13014 4.44969 4.28014 4.37969 4.48014L1.83969 12.1101C1.74969 12.3701 1.81969 12.6601 2.00969 12.8501C2.14969 12.9901 2.32969 13.0601 2.51969 13.0601C2.59969 13.0601 2.66969 13.0501 2.74969 13.0201L10.3797 10.4801C10.5797 10.4101 10.7297 10.2701 10.8197 10.0801L12.3397 6.52014C12.4597 6.25014 12.3997 5.93014 12.1897 5.72014V5.72014ZM9.61969 9.22014L5.18969 10.6901L7.09969 8.78014C7.37969 8.50014 7.37969 8.04014 7.09969 7.76014C6.81969 7.48014 6.35969 7.48014 6.07969 7.76014L4.16969 9.67014L5.64969 5.24014L8.45969 4.03014L10.8297 6.40014L9.61969 9.22014V9.22014Z" fill="white"/>
<path d="M13.7168 5.93458C13.5328 5.93458 13.3488 5.86458 13.2078 5.72458L9.1358 1.65258C8.9948 1.51158 8.9248 1.32758 8.9248 1.14358C8.9248 0.959578 8.9948 0.775578 9.1358 0.634578C9.4168 0.353578 9.8728 0.353578 10.1538 0.634578L14.2258 4.70558C14.3668 4.84658 14.4368 5.03058 14.4368 5.21458C14.4368 5.39858 14.3668 5.58358 14.2258 5.72358C14.0848 5.86358 13.9008 5.93458 13.7168 5.93458V5.93458Z" fill="white"/>
</svg>