<svg width="16" height="16" viewBox="0 0 16 16" fill="none" xmlns="http://www.w3.org/2000/svg">
<path d="M8.00007 11.1999C7.79507 11.1999 7.59107 11.1219 7.43407 10.9659L5.03407 8.56595C4.72107 8.25395 4.72107 7.74695 5.03407 7.43495C5.34707 7.12295 5.85307 7.12195 6.16507 7.43495L7.99907 9.26895L9.83307 7.43495C10.1451 7.12195 10.6521 7.12195 10.9641 7.43495C11.2761 7.74795 11.2771 8.25395 10.9641 8.56595L8.56407 10.9659C8.40807 11.1219 8.20307 11.1999 7.99807 11.1999H8.00007Z" fill="url(#paint0_linear)"/>
<path d="M12.8 15.2002H3.2C1.436 15.2002 0 13.7642 0 12.0002C0 11.5582 0.358 11.2002 0.8 11.2002C1.242 11.2002 1.6 11.5582 1.6 12.0002C1.6 12.8822 2.318 13.6002 3.2 13.6002H12.8C13.682 13.6002 14.4 12.8822 14.4 12.0002C14.4 11.5582 14.758 11.2002 15.2 11.2002C15.642 11.2002 16 11.5582 16 12.0002C16 13.7642 14.564 15.2002 12.8 15.2002Z" fill="url(#paint1_linear)"/>
<path d="M8.00898 9.5998C7.56698 9.5998 7.20898 9.24181 7.20898 8.7998V1.5998C7.20898 1.1578 7.56698 0.799805 8.00898 0.799805C8.45098 0.799805 8.80898 1.1578 8.80898 1.5998V8.7998C8.80898 9.24181 8.45098 9.5998 8.00898 9.5998Z" fill="url(#paint2_linear)"/>
<defs>
<linearGradient id="paint0_linear" x1="4.79932" y1="9.20007" x2="11.1984" y2="9.20007" gradientUnits="userSpaceOnUse">
<stop stop-color="#5B6370"/>
<stop offset="1" stop-color="#323C4C"/>
</linearGradient>
<linearGradient id="paint1_linear" x1="3.49691e-07" y1="13.2002" x2="16" y2="13.2002" gradientUnits="userSpaceOnUse">
<stop stop-color="#5B6370"/>
<stop offset="1" stop-color="#323C4C"/>
</linearGradient>
<linearGradient id="paint2_linear" x1="7.20898" y1="5.1998" x2="8.80898" y2="5.1998" gradientUnits="userSpaceOnUse">
<stop stop-color="#5B6370"/>
<stop offset="1" stop-color="#323C4C"/>
</linearGradient>
</defs>
</svg>
