<svg width="10" height="16" viewBox="0 0 10 16" fill="none" xmlns="http://www.w3.org/2000/svg">
    <path d="M2 16C3.105 16 4 15.105 4 14C4 12.895 3.105 12 2 12C0.895 12 0 12.895 0 14C0 15.105 0.895 16 2 16ZM2 10C3.105 10 4 9.105 4 8C4 6.895 3.105 6 2 6C0.895 6 0 6.895 0 8C0 9.105 0.895 10 2 10ZM2 4C3.105 4 4 3.105 4 2C4 0.895 3.105 0 2 0C0.895 0 0 0.895 0 2C0 3.105 0.895 4 2 4Z" fill="#C4CFDB"/>
    <path d="M8 16C9.105 16 10 15.105 10 14C10 12.895 9.105 12 8 12C6.895 12 6 12.895 6 14C6 15.105 6.895 16 8 16ZM8 10C9.105 10 10 9.105 10 8C10 6.895 9.105 6 8 6C6.895 6 6 6.895 6 8C6 9.105 6.895 10 8 10ZM8 4C9.105 4 10 3.105 10 2C10 0.895 9.105 0 8 0C6.895 0 6 0.895 6 2C6 3.105 6.895 4 8 4Z" fill="#C4CFDB"/>
</svg>