<svg width="16" height="16" viewBox="0 0 16 16" fill="none" xmlns="http://www.w3.org/2000/svg">
<g clip-path="url(#clip0_455_1995)">
<path d="M15.09 5.30589L14.653 5.74189L10.255 1.34889L10.693 0.910888C11.478 0.124888 12.623 -0.182112 13.693 0.103888C14.767 0.390888 15.605 1.22889 15.893 2.30089C16.183 3.37389 15.876 4.51889 15.091 5.30489L15.09 5.30589ZM13.24 7.15589L6.38903 14.0049C5.88903 14.4619 5.29503 14.7989 4.64903 14.9899L0.803032 15.9499C0.587032 16.0469 0.333032 15.9999 0.167032 15.8319C3.17842e-05 15.6649 -0.0479682 15.4119 0.0470318 15.1959L1.00903 11.3529C1.19903 10.7049 1.53703 10.1089 1.99403 9.61289L8.84703 2.76089L13.241 7.15389L13.24 7.15589Z" fill="#5B6370"/>
</g>
<defs>
<clipPath id="clip0_455_1995">
<rect width="16" height="16" fill="white"/>
</clipPath>
</defs>
</svg>