<svg width="22" height="22" viewBox="0 0 22 22" fill="none" xmlns="http://www.w3.org/2000/svg">
<g clip-path="url(#clip0)">
<path d="M21.9947 10.642C21.8102 4.86272 17.1386 0.191307 11.3595 0.00674813C8.21491 -0.0930216 5.27293 1.10391 3.0987 3.34873C1.00847 5.50675 -0.0897665 8.35173 0.0062966 11.36C0.190701 17.139 4.86227 21.8106 10.6413 21.995C10.7617 21.9989 10.8809 22.0007 11.0004 22.0007C14.0049 22.0007 16.8112 20.8118 18.9022 18.653C20.9924 16.4952 22.0908 13.65 21.9947 10.642ZM17.2382 17.0414C15.5875 18.7457 13.3722 19.6842 11.0004 19.6842C10.9056 19.6842 10.8108 19.6827 10.7152 19.6798C6.15418 19.5341 2.46733 15.8473 2.32154 11.2861C2.24571 8.9105 3.11259 6.66398 4.76266 4.96049C6.41334 3.25621 8.62866 2.31767 11.0004 2.31767C11.0953 2.31767 11.1901 2.31921 11.2857 2.32215C15.8467 2.46779 19.5335 6.15463 19.6793 10.7158C19.7551 13.0914 18.8881 15.3379 17.2382 17.0414Z" fill="url(#paint0_linear)"/>
<path d="M14.6079 10.3611L9.73 6.86356C9.20968 6.49043 8.48535 6.86233 8.48535 7.50264V14.4978C8.48535 15.1381 9.20968 15.51 9.73 15.1369L14.6077 11.6392C15.0454 11.3256 15.0454 10.6749 14.6079 10.3611Z" fill="url(#paint1_linear)"/>
</g>
<defs>
<linearGradient id="paint0_linear" x1="0.000488762" y1="11.0009" x2="22.0005" y2="11.0009" gradientUnits="userSpaceOnUse">
<stop stop-color="#5B6370"/>
<stop offset="1" stop-color="#323C4C"/>
</linearGradient>
<linearGradient id="paint1_linear" x1="8.48535" y1="11.0002" x2="14.936" y2="11.0002" gradientUnits="userSpaceOnUse">
<stop stop-color="#5B6370"/>
<stop offset="1" stop-color="#323C4C"/>
</linearGradient>
<clipPath id="clip0">
<rect width="22" height="22" fill="white"/>
</clipPath>
</defs>
</svg>
