<svg width="16" height="16" viewBox="0 0 16 16" fill="none" xmlns="http://www.w3.org/2000/svg">
<g clip-path="url(#clip0)">
<path d="M15.9601 10.1759L15.1671 12.0859C15.0591 12.3479 14.7611 12.4709 14.5021 12.3639L13.6001 11.9909C13.1881 11.8209 12.5931 11.9409 12.2801 12.2539C11.9371 12.5979 11.8201 13.1879 11.9901 13.6009L12.3641 14.5009C12.4721 14.7609 12.3541 15.0569 12.0881 15.1669L10.1781 15.9609C9.91812 16.0689 9.62012 15.9449 9.51312 15.6849L9.13912 14.7819C8.96712 14.3699 8.45912 14.0349 8.01912 14.0349C7.53312 14.0349 7.03212 14.3689 6.85912 14.7829L6.48612 15.6869C6.37912 15.9469 6.08612 16.0729 5.82012 15.9629L3.91012 15.1729C3.65012 15.0629 3.52512 14.7659 3.63312 14.5069L4.00612 13.6069C4.17612 13.1939 4.05612 12.5989 3.74212 12.2869C3.39912 11.9429 2.80912 11.8249 2.39612 11.9969L1.49412 12.3699C1.23412 12.4779 0.939121 12.3599 0.829121 12.0929L0.0391207 10.1789C-0.0688793 9.91888 0.0551207 9.61888 0.315121 9.51188L1.21812 9.13788C1.63012 8.96588 1.96512 8.46088 1.96512 8.02088C1.96512 7.53588 1.63112 7.03688 1.21712 6.86488L0.315121 6.48988C0.0551207 6.38288 -0.0708793 6.08988 0.0391207 5.82388L0.832121 3.91388C0.940121 3.65188 1.23812 3.52788 1.49712 3.63388L2.39712 4.00688C2.81012 4.17688 3.40512 4.05688 3.71712 3.74288C4.06112 3.39988 4.17912 2.80988 4.00712 2.39688L3.63512 1.49688C3.52712 1.23688 3.64512 0.940877 3.91112 0.830877L5.82112 0.0408766C6.08112 -0.0671234 6.37912 0.0568766 6.48612 0.316877L6.86012 1.21988C7.03212 1.63188 7.54012 1.96688 7.98012 1.96688C8.46612 1.96688 8.96712 1.63288 9.14012 1.21888L9.51312 0.314877C9.62012 0.0548766 9.91312 -0.0711234 10.1791 0.0388766L12.0891 0.828877C12.3491 0.938877 12.4741 1.23588 12.3661 1.49488L11.9961 2.38988C11.8241 2.80688 11.9441 3.40388 12.2561 3.71588C12.6001 4.05988 13.1881 4.17888 13.6091 4.00388L14.5051 3.63388C14.7651 3.52388 15.0601 3.64388 15.1701 3.90988L15.9601 5.82388C16.0681 6.08388 15.9441 6.38388 15.6841 6.49088L14.7811 6.86488C14.3691 7.03688 14.0341 7.54188 14.0341 7.98188C14.0341 8.46688 14.3681 8.96588 14.7821 9.13788L15.6861 9.51088C15.9461 9.61788 16.0721 9.91088 15.9621 10.1769L15.9601 10.1759ZM8.00012 3.99988C5.79012 3.99988 4.00012 5.78988 4.00012 7.99988C4.00012 10.2099 5.79012 11.9999 8.00012 11.9999C10.2101 11.9999 12.0001 10.2099 12.0001 7.99988C12.0001 6.93988 11.5801 5.92188 10.8281 5.17188C10.0781 4.42188 9.06012 3.99988 8.00012 3.99988ZM8.00012 9.99988C6.89512 9.99988 6.00012 9.10488 6.00012 7.99988C6.00012 6.89488 6.89512 5.99988 8.00012 5.99988C9.10512 5.99988 10.0001 6.89488 10.0001 7.99988C10.0001 8.52988 9.79012 9.03988 9.41412 9.41388C9.04012 9.78988 8.53012 9.99988 8.00012 9.99988Z" fill="url(#paint0_linear)"/>
</g>
<defs>
<linearGradient id="paint0_linear" x1="-0.000732072" y1="8.00088" x2="16.002" y2="8.00088" gradientUnits="userSpaceOnUse">
<stop stop-color="#323C4C"/>
<stop offset="0.817708" stop-color="#5B6370"/>
</linearGradient>
<clipPath id="clip0">
<rect width="16" height="16" fill="white"/>
</clipPath>
</defs>
</svg>
